M48
; DRILL file {KiCad 9.0.2} date 2025-06-09T22:43:46+0800
; FORMAT={-:-/ absolute / metric / decimal}
; #@! TF.CreationDate,2025-06-09T22:43:46+08:00
; #@! TF.GenerationSoftware,Kicad,Pcbnew,9.0.2
; #@! TF.FileFunction,Plated,1,2,PTH
FMAT,2
METRIC
; #@! TA.AperFunction,Plated,PTH,ViaDrill
T1C0.300
%
G90
G05
T1
X111.7Y-69.275
X111.775Y-67.75
X114.95Y-64.425
X114.975Y-60.8
X114.975Y-75.625
X115.05Y-72.55
X117.3Y-71.65
X118.1Y-66.725
X119.325Y-61.1
X119.35Y-76.3
X120.225Y-70.5
X120.7Y-67.65
X120.701Y-66.801
X121.475Y-70.5
X122.375Y-60.875
X122.525Y-76.4
X122.6Y-66.45
X122.6Y-69.526
X125.425Y-65.25
X125.425Y-69.5
X126.7Y-72.675
X126.925Y-75.725
X127.05Y-61.25
X130.15Y-69.4
X130.625Y-66.975
M30
