G04 #@! TF.GenerationSoftware,KiCad,Pcbnew,9.0.2*
G04 #@! TF.CreationDate,2025-06-09T22:43:46+08:00*
G04 #@! TF.ProjectId,chenning,6368656e-6e69-46e6-972e-6b696361645f,rev?*
G04 #@! TF.SameCoordinates,Original*
G04 #@! TF.FileFunction,Copper,L1,Top*
G04 #@! TF.FilePolarity,Positive*
%FSLAX46Y46*%
G04 Gerber Fmt 4.6, Leading zero omitted, Abs format (unit mm)*
G04 Created by KiCad (PCBNEW 9.0.2) date 2025-06-09 22:43:46*
%MOMM*%
%LPD*%
G01*
G04 APERTURE LIST*
G04 Aperture macros list*
%AMRoundRect*
0 Rectangle with rounded corners*
0 $1 Rounding radius*
0 $2 $3 $4 $5 $6 $7 $8 $9 X,Y pos of 4 corners*
0 Add a 4 corners polygon primitive as box body*
4,1,4,$2,$3,$4,$5,$6,$7,$8,$9,$2,$3,0*
0 Add four circle primitives for the rounded corners*
1,1,$1+$1,$2,$3*
1,1,$1+$1,$4,$5*
1,1,$1+$1,$6,$7*
1,1,$1+$1,$8,$9*
0 Add four rect primitives between the rounded corners*
20,1,$1+$1,$2,$3,$4,$5,0*
20,1,$1+$1,$4,$5,$6,$7,0*
20,1,$1+$1,$6,$7,$8,$9,0*
20,1,$1+$1,$8,$9,$2,$3,0*%
G04 Aperture macros list end*
G04 #@! TA.AperFunction,Conductor*
%ADD10C,0.000000*%
G04 #@! TD*
G04 #@! TA.AperFunction,SMDPad,CuDef*
%ADD11RoundRect,0.150000X-0.150000X-0.700000X0.150000X-0.700000X0.150000X0.700000X-0.150000X0.700000X0*%
G04 #@! TD*
G04 #@! TA.AperFunction,SMDPad,CuDef*
%ADD12RoundRect,0.250000X-0.250000X-1.150000X0.250000X-1.150000X0.250000X1.150000X-0.250000X1.150000X0*%
G04 #@! TD*
G04 #@! TA.AperFunction,SMDPad,CuDef*
%ADD13RoundRect,0.250000X0.250000X1.150000X-0.250000X1.150000X-0.250000X-1.150000X0.250000X-1.150000X0*%
G04 #@! TD*
G04 #@! TA.AperFunction,SMDPad,CuDef*
%ADD14RoundRect,0.150000X0.150000X0.700000X-0.150000X0.700000X-0.150000X-0.700000X0.150000X-0.700000X0*%
G04 #@! TD*
G04 #@! TA.AperFunction,SMDPad,CuDef*
%ADD15R,2.200000X1.800000*%
G04 #@! TD*
G04 #@! TA.AperFunction,SMDPad,CuDef*
%ADD16R,1.300000X0.300000*%
G04 #@! TD*
G04 #@! TA.AperFunction,SMDPad,CuDef*
%ADD17RoundRect,0.250000X-1.150000X0.250000X-1.150000X-0.250000X1.150000X-0.250000X1.150000X0.250000X0*%
G04 #@! TD*
G04 #@! TA.AperFunction,SMDPad,CuDef*
%ADD18RoundRect,0.150000X-0.700000X0.150000X-0.700000X-0.150000X0.700000X-0.150000X0.700000X0.150000X0*%
G04 #@! TD*
G04 #@! TA.AperFunction,ViaPad*
%ADD19C,0.600000*%
G04 #@! TD*
G04 #@! TA.AperFunction,Conductor*
%ADD20C,0.200000*%
G04 #@! TD*
G04 #@! TA.AperFunction,Conductor*
%ADD21C,0.500000*%
G04 #@! TD*
G04 APERTURE END LIST*
D10*
G04 #@! TA.AperFunction,Conductor*
G04 #@! TO.N,/VPWR*
G36*
X115625000Y-70000000D02*
G01*
X114125000Y-70000000D01*
X114125000Y-69100000D01*
X115625000Y-69100000D01*
X115625000Y-70000000D01*
G37*
G04 #@! TD.AperFunction*
G04 #@! TD*
D11*
G04 #@! TO.P,J1,1,Pin_1*
G04 #@! TO.N,/GND*
X118850000Y-65350000D03*
G04 #@! TO.P,J1,2,Pin_2*
G04 #@! TO.N,/B*
X120100000Y-65350000D03*
G04 #@! TO.P,J1,3,Pin_3*
G04 #@! TO.N,/A*
X121350000Y-65350000D03*
G04 #@! TO.P,J1,4,Pin_4*
G04 #@! TO.N,/VPWR*
X122600000Y-65350000D03*
D12*
G04 #@! TO.P,J1,MP*
G04 #@! TO.N,N/C*
X117000000Y-62000000D03*
X124450000Y-62000000D03*
G04 #@! TD*
D13*
G04 #@! TO.P,J2,MP*
G04 #@! TO.N,N/C*
X117125000Y-75150000D03*
X124575000Y-75150000D03*
D14*
G04 #@! TO.P,J2,4,Pin_4*
G04 #@! TO.N,/VPWR*
X118975000Y-71800000D03*
G04 #@! TO.P,J2,3,Pin_3*
G04 #@! TO.N,/A*
X120225000Y-71800000D03*
G04 #@! TO.P,J2,2,Pin_2*
G04 #@! TO.N,/B*
X121475000Y-71800000D03*
G04 #@! TO.P,J2,1,Pin_1*
G04 #@! TO.N,/GND*
X122725000Y-71800000D03*
G04 #@! TD*
D15*
G04 #@! TO.P,J5,MP*
G04 #@! TO.N,N/C*
X111525000Y-71650000D03*
X111525000Y-65350000D03*
D16*
G04 #@! TO.P,J5,6,Pin_6*
G04 #@! TO.N,/VPWR*
X114775000Y-69750000D03*
G04 #@! TO.P,J5,5,Pin_5*
X114775000Y-69250000D03*
G04 #@! TO.P,J5,4,Pin_4*
G04 #@! TO.N,/A*
X114775000Y-68750000D03*
G04 #@! TO.P,J5,3,Pin_3*
G04 #@! TO.N,/B*
X114775000Y-68250000D03*
G04 #@! TO.P,J5,2,Pin_2*
G04 #@! TO.N,/GND*
X114775000Y-67750000D03*
G04 #@! TO.P,J5,1,Pin_1*
X114775000Y-67250000D03*
G04 #@! TD*
D17*
G04 #@! TO.P,J4,MP*
G04 #@! TO.N,N/C*
X130825000Y-72225000D03*
X130825000Y-64775000D03*
D18*
G04 #@! TO.P,J4,4,Pin_4*
G04 #@! TO.N,/VPWR*
X127475000Y-70375000D03*
G04 #@! TO.P,J4,3,Pin_3*
G04 #@! TO.N,/A*
X127475000Y-69125000D03*
G04 #@! TO.P,J4,2,Pin_2*
G04 #@! TO.N,/B*
X127475000Y-67875000D03*
G04 #@! TO.P,J4,1,Pin_1*
G04 #@! TO.N,/GND*
X127475000Y-66625000D03*
G04 #@! TD*
D19*
G04 #@! TO.N,/GND*
X118100000Y-66725000D03*
X111775000Y-67750000D03*
X111700000Y-69275000D03*
X117300000Y-71650000D03*
X115050000Y-72550000D03*
X114975000Y-75625000D03*
X119350000Y-76300000D03*
X122525000Y-76400000D03*
X126700000Y-72675000D03*
X126925000Y-75725000D03*
X130625000Y-66975000D03*
X130150000Y-69400000D03*
X125425000Y-69500000D03*
X125425000Y-65250000D03*
X127050000Y-61250000D03*
X122375000Y-60875000D03*
X119325000Y-61100000D03*
X114950000Y-64425000D03*
X114975000Y-60800000D03*
G04 #@! TO.N,/A*
X120700000Y-67650000D03*
G04 #@! TO.N,/B*
X120700735Y-66800735D03*
G04 #@! TO.N,/VPWR*
X122600000Y-66450000D03*
X122600000Y-69526000D03*
G04 #@! TO.N,/B*
X121475000Y-70500000D03*
G04 #@! TO.N,/A*
X120225000Y-70500000D03*
G04 #@! TD*
D20*
G04 #@! TO.N,/B*
X120700735Y-66800735D02*
X120100000Y-66200000D01*
X120100000Y-66200000D02*
X120100000Y-65350000D01*
G04 #@! TO.N,/A*
X120700000Y-67650000D02*
X121350000Y-67000000D01*
X121350000Y-67000000D02*
X121350000Y-65350000D01*
G04 #@! TO.N,/B*
X121475000Y-70500000D02*
X121475000Y-71800000D01*
G04 #@! TO.N,/A*
X120225000Y-70500000D02*
X120225000Y-71800000D01*
D21*
G04 #@! TO.N,/VPWR*
X118975000Y-71800000D02*
X118975000Y-69351000D01*
X118975000Y-69351000D02*
X117876000Y-69351000D01*
X122600000Y-65350000D02*
X122600000Y-66450000D01*
X122600000Y-69526000D02*
X122625000Y-69551000D01*
X122625000Y-69551000D02*
X123788925Y-69551000D01*
X124612925Y-70375000D02*
X127475000Y-70375000D01*
X123788925Y-69551000D02*
X124612925Y-70375000D01*
X122600000Y-69526000D02*
X122575000Y-69551000D01*
X122575000Y-69551000D02*
X119213925Y-69551000D01*
X119213925Y-69551000D02*
X119013925Y-69351000D01*
X119013925Y-69351000D02*
X117876000Y-69351000D01*
D20*
G04 #@! TO.N,/B*
X114775000Y-68250000D02*
X125975000Y-68250000D01*
X125975000Y-68250000D02*
X126350000Y-67875000D01*
X126350000Y-67875000D02*
X127475000Y-67875000D01*
G04 #@! TO.N,/A*
X114775000Y-68750000D02*
X125950000Y-68750000D01*
X125950000Y-68750000D02*
X126325000Y-69125000D01*
X126325000Y-69125000D02*
X127475000Y-69125000D01*
D21*
G04 #@! TO.N,/VPWR*
X117876000Y-69351000D02*
X116525000Y-69351000D01*
X116525000Y-69351000D02*
X116174000Y-69351000D01*
X116174000Y-69351000D02*
X115775000Y-69750000D01*
X115775000Y-69750000D02*
X114775000Y-69750000D01*
X116525000Y-69351000D02*
X114775000Y-69351000D01*
G04 #@! TD*
G04 #@! TA.AperFunction,Conductor*
G04 #@! TO.N,/GND*
G36*
X116258691Y-60769407D02*
G01*
X116294655Y-60818907D01*
X116299500Y-60849500D01*
X116299500Y-63204274D01*
X116302353Y-63234694D01*
X116302355Y-63234703D01*
X116347207Y-63362883D01*
X116427845Y-63472144D01*
X116427847Y-63472146D01*
X116427850Y-63472150D01*
X116427853Y-63472152D01*
X116427855Y-63472154D01*
X116537116Y-63552792D01*
X116537117Y-63552792D01*
X116537118Y-63552793D01*
X116665301Y-63597646D01*
X116695725Y-63600499D01*
X116695727Y-63600500D01*
X116695734Y-63600500D01*
X117304273Y-63600500D01*
X117304273Y-63600499D01*
X117334699Y-63597646D01*
X117462882Y-63552793D01*
X117572150Y-63472150D01*
X117652793Y-63362882D01*
X117697646Y-63234699D01*
X117700499Y-63204273D01*
X117700500Y-63204273D01*
X117700500Y-60849500D01*
X117719407Y-60791309D01*
X117768907Y-60755345D01*
X117799500Y-60750500D01*
X123650500Y-60750500D01*
X123708691Y-60769407D01*
X123744655Y-60818907D01*
X123749500Y-60849500D01*
X123749500Y-63204274D01*
X123752353Y-63234694D01*
X123752355Y-63234703D01*
X123797207Y-63362883D01*
X123877845Y-63472144D01*
X123877847Y-63472146D01*
X123877850Y-63472150D01*
X123877853Y-63472152D01*
X123877855Y-63472154D01*
X123987116Y-63552792D01*
X123987117Y-63552792D01*
X123987118Y-63552793D01*
X124115301Y-63597646D01*
X124145725Y-63600499D01*
X124145727Y-63600500D01*
X124145734Y-63600500D01*
X124754273Y-63600500D01*
X124754273Y-63600499D01*
X124784699Y-63597646D01*
X124912882Y-63552793D01*
X125022150Y-63472150D01*
X125102793Y-63362882D01*
X125147646Y-63234699D01*
X125150499Y-63204273D01*
X125150500Y-63204273D01*
X125150500Y-60849500D01*
X125169407Y-60791309D01*
X125218907Y-60755345D01*
X125249500Y-60750500D01*
X128672044Y-60750500D01*
X128730235Y-60769407D01*
X128766199Y-60818907D01*
X128766199Y-60880093D01*
X128742049Y-60919501D01*
X128707533Y-60954018D01*
X128704206Y-60957345D01*
X128556128Y-61161157D01*
X128441759Y-61385620D01*
X128363908Y-61625219D01*
X128324500Y-61874034D01*
X128324500Y-62125965D01*
X128363908Y-62374780D01*
X128441759Y-62614379D01*
X128556130Y-62838845D01*
X128704207Y-63042656D01*
X128882344Y-63220793D01*
X129086155Y-63368870D01*
X129310621Y-63483241D01*
X129550215Y-63561090D01*
X129550216Y-63561090D01*
X129550219Y-63561091D01*
X129799035Y-63600500D01*
X129799038Y-63600500D01*
X130050965Y-63600500D01*
X130299780Y-63561091D01*
X130299781Y-63561090D01*
X130299785Y-63561090D01*
X130539379Y-63483241D01*
X130763845Y-63368870D01*
X130967656Y-63220793D01*
X131145793Y-63042656D01*
X131293870Y-62838845D01*
X131408241Y-62614379D01*
X131486090Y-62374785D01*
X131495251Y-62316945D01*
X131525500Y-62125965D01*
X131525500Y-61874034D01*
X131486091Y-61625219D01*
X131482408Y-61613883D01*
X131408241Y-61385621D01*
X131293870Y-61161155D01*
X131145793Y-60957344D01*
X131145782Y-60957333D01*
X131144509Y-60955842D01*
X131144507Y-60955837D01*
X131144505Y-60955836D01*
X131144250Y-60955221D01*
X131143506Y-60954197D01*
X131143752Y-60954018D01*
X131134119Y-60930764D01*
X131121091Y-60899315D01*
X131121091Y-60899312D01*
X131121090Y-60899308D01*
X131129330Y-60864987D01*
X131135370Y-60839819D01*
X131135373Y-60839816D01*
X131135374Y-60839813D01*
X131159852Y-60818907D01*
X131181893Y-60800080D01*
X131181896Y-60800079D01*
X131181900Y-60800077D01*
X131219238Y-60797138D01*
X131242889Y-60795275D01*
X131242891Y-60795275D01*
X131303546Y-60809837D01*
X131318316Y-60814637D01*
X131485068Y-60883707D01*
X131498895Y-60890752D01*
X131652798Y-60985064D01*
X131665361Y-60994192D01*
X131802608Y-61111412D01*
X131813587Y-61122391D01*
X131872198Y-61191016D01*
X131930807Y-61259638D01*
X131939936Y-61272203D01*
X132034244Y-61426099D01*
X132041293Y-61439934D01*
X132110362Y-61606683D01*
X132115163Y-61621457D01*
X132157298Y-61796960D01*
X132159728Y-61812304D01*
X132174195Y-61996124D01*
X132174500Y-62003891D01*
X132174500Y-63979471D01*
X132155593Y-64037662D01*
X132106093Y-64073626D01*
X132065909Y-64075629D01*
X132065695Y-64077916D01*
X132029274Y-64074500D01*
X132029266Y-64074500D01*
X129620734Y-64074500D01*
X129620725Y-64074500D01*
X129590305Y-64077353D01*
X129590296Y-64077355D01*
X129462116Y-64122207D01*
X129352855Y-64202845D01*
X129352845Y-64202855D01*
X129272207Y-64312116D01*
X129227355Y-64440296D01*
X129227353Y-64440305D01*
X129224500Y-64470725D01*
X129224500Y-65079274D01*
X129227353Y-65109694D01*
X129227355Y-65109703D01*
X129272207Y-65237883D01*
X129352845Y-65347144D01*
X129352847Y-65347146D01*
X129352850Y-65347150D01*
X129352853Y-65347152D01*
X129352855Y-65347154D01*
X129462116Y-65427792D01*
X129462117Y-65427792D01*
X129462118Y-65427793D01*
X129590301Y-65472646D01*
X129620725Y-65475499D01*
X129620727Y-65475500D01*
X129620734Y-65475500D01*
X132029273Y-65475500D01*
X132029273Y-65475499D01*
X132045714Y-65473957D01*
X132065695Y-65472084D01*
X132065966Y-65474983D01*
X132115154Y-65479816D01*
X132160899Y-65520449D01*
X132174500Y-65570528D01*
X132174500Y-71429471D01*
X132155593Y-71487662D01*
X132106093Y-71523626D01*
X132065909Y-71525629D01*
X132065695Y-71527916D01*
X132029274Y-71524500D01*
X132029266Y-71524500D01*
X129620734Y-71524500D01*
X129620725Y-71524500D01*
X129590305Y-71527353D01*
X129590296Y-71527355D01*
X129462116Y-71572207D01*
X129352855Y-71652845D01*
X129352845Y-71652855D01*
X129272207Y-71762116D01*
X129227355Y-71890296D01*
X129227353Y-71890305D01*
X129224500Y-71920725D01*
X129224500Y-72529274D01*
X129227353Y-72559694D01*
X129227355Y-72559703D01*
X129272207Y-72687883D01*
X129352845Y-72797144D01*
X129352847Y-72797146D01*
X129352850Y-72797150D01*
X129352853Y-72797152D01*
X129352855Y-72797154D01*
X129462116Y-72877792D01*
X129462117Y-72877792D01*
X129462118Y-72877793D01*
X129590301Y-72922646D01*
X129620725Y-72925499D01*
X129620727Y-72925500D01*
X129620734Y-72925500D01*
X132029273Y-72925500D01*
X132029273Y-72925499D01*
X132045714Y-72923957D01*
X132065695Y-72922084D01*
X132065966Y-72924983D01*
X132115154Y-72929816D01*
X132160899Y-72970449D01*
X132174500Y-73020528D01*
X132174500Y-74996108D01*
X132174195Y-75003875D01*
X132159728Y-75187695D01*
X132157298Y-75203039D01*
X132115163Y-75378542D01*
X132110362Y-75393316D01*
X132041293Y-75560065D01*
X132034240Y-75573908D01*
X131939938Y-75727794D01*
X131930807Y-75740361D01*
X131813590Y-75877605D01*
X131802605Y-75888590D01*
X131665361Y-76005807D01*
X131652794Y-76014938D01*
X131602137Y-76045981D01*
X131512859Y-76100691D01*
X131498908Y-76109240D01*
X131485065Y-76116293D01*
X131318316Y-76185362D01*
X131303542Y-76190163D01*
X131242896Y-76204723D01*
X131181900Y-76199922D01*
X131135374Y-76160186D01*
X131121090Y-76100691D01*
X131143751Y-76045981D01*
X131143506Y-76045803D01*
X131144249Y-76044779D01*
X131144505Y-76044163D01*
X131144516Y-76044149D01*
X131145779Y-76042669D01*
X131145793Y-76042656D01*
X131293870Y-75838845D01*
X131408241Y-75614379D01*
X131486090Y-75374785D01*
X131495251Y-75316945D01*
X131525500Y-75125965D01*
X131525500Y-74874034D01*
X131486091Y-74625219D01*
X131479170Y-74603918D01*
X131408241Y-74385621D01*
X131293870Y-74161155D01*
X131145793Y-73957344D01*
X130967656Y-73779207D01*
X130763845Y-73631130D01*
X130763844Y-73631129D01*
X130763842Y-73631128D01*
X130539379Y-73516759D01*
X130299780Y-73438908D01*
X130050965Y-73399500D01*
X130050962Y-73399500D01*
X129799038Y-73399500D01*
X129799035Y-73399500D01*
X129550219Y-73438908D01*
X129310620Y-73516759D01*
X129086157Y-73631128D01*
X128882345Y-73779206D01*
X128704206Y-73957345D01*
X128556128Y-74161157D01*
X128441759Y-74385620D01*
X128363908Y-74625219D01*
X128324500Y-74874034D01*
X128324500Y-75125965D01*
X128363908Y-75374780D01*
X128388853Y-75451551D01*
X128441759Y-75614379D01*
X128556130Y-75838845D01*
X128704207Y-76042656D01*
X128742049Y-76080498D01*
X128769825Y-76135013D01*
X128760254Y-76195445D01*
X128716989Y-76238710D01*
X128672044Y-76249500D01*
X125374500Y-76249500D01*
X125316309Y-76230593D01*
X125280345Y-76181093D01*
X125275500Y-76150500D01*
X125275500Y-73945727D01*
X125275499Y-73945725D01*
X125272646Y-73915305D01*
X125272646Y-73915301D01*
X125227793Y-73787118D01*
X125221954Y-73779207D01*
X125147154Y-73677855D01*
X125147152Y-73677853D01*
X125147150Y-73677850D01*
X125147146Y-73677847D01*
X125147144Y-73677845D01*
X125037883Y-73597207D01*
X124909703Y-73552355D01*
X124909694Y-73552353D01*
X124879274Y-73549500D01*
X124879266Y-73549500D01*
X124270734Y-73549500D01*
X124270725Y-73549500D01*
X124240305Y-73552353D01*
X124240296Y-73552355D01*
X124112116Y-73597207D01*
X124002855Y-73677845D01*
X124002845Y-73677855D01*
X123922207Y-73787116D01*
X123877355Y-73915296D01*
X123877353Y-73915305D01*
X123874500Y-73945725D01*
X123874500Y-76150500D01*
X123855593Y-76208691D01*
X123806093Y-76244655D01*
X123775500Y-76249500D01*
X117924500Y-76249500D01*
X117866309Y-76230593D01*
X117830345Y-76181093D01*
X117825500Y-76150500D01*
X117825500Y-73945727D01*
X117825499Y-73945725D01*
X117822646Y-73915305D01*
X117822646Y-73915301D01*
X117777793Y-73787118D01*
X117771954Y-73779207D01*
X117697154Y-73677855D01*
X117697152Y-73677853D01*
X117697150Y-73677850D01*
X117697146Y-73677847D01*
X117697144Y-73677845D01*
X117587883Y-73597207D01*
X117459703Y-73552355D01*
X117459694Y-73552353D01*
X117429274Y-73549500D01*
X117429266Y-73549500D01*
X116820734Y-73549500D01*
X116820725Y-73549500D01*
X116790305Y-73552353D01*
X116790296Y-73552355D01*
X116662116Y-73597207D01*
X116552855Y-73677845D01*
X116552845Y-73677855D01*
X116472207Y-73787116D01*
X116427355Y-73915296D01*
X116427353Y-73915305D01*
X116424500Y-73945725D01*
X116424500Y-76150500D01*
X116405593Y-76208691D01*
X116356093Y-76244655D01*
X116325500Y-76249500D01*
X113177956Y-76249500D01*
X113119765Y-76230593D01*
X113083801Y-76181093D01*
X113083801Y-76119907D01*
X113107950Y-76080498D01*
X113145793Y-76042656D01*
X113293870Y-75838845D01*
X113408241Y-75614379D01*
X113486090Y-75374785D01*
X113495251Y-75316945D01*
X113525500Y-75125965D01*
X113525500Y-74874034D01*
X113486091Y-74625219D01*
X113479170Y-74603918D01*
X113408241Y-74385621D01*
X113293870Y-74161155D01*
X113145793Y-73957344D01*
X112967656Y-73779207D01*
X112763845Y-73631130D01*
X112763844Y-73631129D01*
X112763842Y-73631128D01*
X112539379Y-73516759D01*
X112299780Y-73438908D01*
X112050965Y-73399500D01*
X112050962Y-73399500D01*
X111799038Y-73399500D01*
X111799035Y-73399500D01*
X111550219Y-73438908D01*
X111310620Y-73516759D01*
X111086157Y-73631128D01*
X110882345Y-73779206D01*
X110704206Y-73957345D01*
X110556128Y-74161157D01*
X110441759Y-74385620D01*
X110363908Y-74625219D01*
X110324500Y-74874034D01*
X110324500Y-75125965D01*
X110363908Y-75374780D01*
X110388853Y-75451551D01*
X110441759Y-75614379D01*
X110556130Y-75838845D01*
X110592272Y-75888590D01*
X110704209Y-76042659D01*
X110705491Y-76044159D01*
X110705492Y-76044161D01*
X110705494Y-76044163D01*
X110705748Y-76044776D01*
X110706494Y-76045803D01*
X110706247Y-76045982D01*
X110718518Y-76075607D01*
X110728908Y-76100686D01*
X110728907Y-76100687D01*
X110728909Y-76100691D01*
X110724295Y-76119907D01*
X110714628Y-76160181D01*
X110714625Y-76160182D01*
X110714625Y-76160186D01*
X110690538Y-76180757D01*
X110668104Y-76199920D01*
X110668101Y-76199920D01*
X110668099Y-76199922D01*
X110635441Y-76202492D01*
X110607108Y-76204724D01*
X110607103Y-76204723D01*
X110546457Y-76190163D01*
X110531683Y-76185362D01*
X110364934Y-76116293D01*
X110351099Y-76109244D01*
X110197203Y-76014936D01*
X110184638Y-76005807D01*
X110047394Y-75888590D01*
X110036412Y-75877608D01*
X109919192Y-75740361D01*
X109910064Y-75727798D01*
X109815752Y-75573895D01*
X109808706Y-75560065D01*
X109763758Y-75451551D01*
X109739637Y-75393316D01*
X109734836Y-75378542D01*
X109692701Y-75203039D01*
X109690272Y-75187701D01*
X109675805Y-75003875D01*
X109675500Y-74996108D01*
X109675500Y-70730253D01*
X110224500Y-70730253D01*
X110224500Y-72569746D01*
X110224501Y-72569758D01*
X110236132Y-72628227D01*
X110236133Y-72628231D01*
X110280448Y-72694552D01*
X110346769Y-72738867D01*
X110391231Y-72747711D01*
X110405241Y-72750498D01*
X110405246Y-72750498D01*
X110405252Y-72750500D01*
X110405253Y-72750500D01*
X112644747Y-72750500D01*
X112644748Y-72750500D01*
X112703231Y-72738867D01*
X112769552Y-72694552D01*
X112813867Y-72628231D01*
X112825500Y-72569748D01*
X112825500Y-70730252D01*
X112813867Y-70671769D01*
X112769552Y-70605448D01*
X112769548Y-70605445D01*
X112703233Y-70561134D01*
X112703231Y-70561133D01*
X112703228Y-70561132D01*
X112703227Y-70561132D01*
X112644758Y-70549501D01*
X112644748Y-70549500D01*
X110405252Y-70549500D01*
X110405251Y-70549500D01*
X110405241Y-70549501D01*
X110346772Y-70561132D01*
X110346766Y-70561134D01*
X110280451Y-70605445D01*
X110280445Y-70605451D01*
X110236134Y-70671766D01*
X110236132Y-70671772D01*
X110224501Y-70730241D01*
X110224500Y-70730253D01*
X109675500Y-70730253D01*
X109675500Y-69100000D01*
X113919500Y-69100000D01*
X113919500Y-69104415D01*
X113919500Y-70000001D01*
X113924651Y-70045727D01*
X113962156Y-70123604D01*
X113964334Y-70128127D01*
X114035837Y-70185149D01*
X114125000Y-70205500D01*
X115625000Y-70205500D01*
X115663858Y-70201121D01*
X115674942Y-70200500D01*
X115834309Y-70200500D01*
X115924669Y-70176287D01*
X115924672Y-70176287D01*
X115937903Y-70172741D01*
X115948887Y-70169799D01*
X116051614Y-70110489D01*
X116261603Y-69900500D01*
X116331608Y-69830496D01*
X116386124Y-69802719D01*
X116401611Y-69801500D01*
X116465691Y-69801500D01*
X117816691Y-69801500D01*
X118425500Y-69801500D01*
X118483691Y-69820407D01*
X118519655Y-69869907D01*
X118524500Y-69900500D01*
X118524500Y-70893731D01*
X118514441Y-70937211D01*
X118484427Y-70998604D01*
X118484427Y-70998607D01*
X118474500Y-71066740D01*
X118474500Y-72533260D01*
X118478352Y-72559699D01*
X118484427Y-72601395D01*
X118526709Y-72687883D01*
X118535802Y-72706483D01*
X118618517Y-72789198D01*
X118672285Y-72815483D01*
X118723604Y-72840572D01*
X118723605Y-72840572D01*
X118723607Y-72840573D01*
X118791740Y-72850500D01*
X118791743Y-72850500D01*
X119158257Y-72850500D01*
X119158260Y-72850500D01*
X119226393Y-72840573D01*
X119331483Y-72789198D01*
X119414198Y-72706483D01*
X119465573Y-72601393D01*
X119475500Y-72533260D01*
X119475500Y-71066740D01*
X119465573Y-70998607D01*
X119435559Y-70937211D01*
X119425500Y-70893731D01*
X119425500Y-70100500D01*
X119444407Y-70042309D01*
X119493907Y-70006345D01*
X119524500Y-70001500D01*
X119776679Y-70001500D01*
X119834870Y-70020407D01*
X119870834Y-70069907D01*
X119870834Y-70131093D01*
X119846684Y-70170501D01*
X119832037Y-70185149D01*
X119824497Y-70192689D01*
X119824496Y-70192690D01*
X119758609Y-70306809D01*
X119758608Y-70306814D01*
X119724500Y-70434108D01*
X119724500Y-70565892D01*
X119735098Y-70605445D01*
X119758608Y-70693187D01*
X119803905Y-70771643D01*
X119816626Y-70831492D01*
X119791739Y-70887387D01*
X119788176Y-70891142D01*
X119785802Y-70893515D01*
X119734427Y-70998604D01*
X119734427Y-70998607D01*
X119724500Y-71066740D01*
X119724500Y-72533260D01*
X119728352Y-72559699D01*
X119734427Y-72601395D01*
X119776709Y-72687883D01*
X119785802Y-72706483D01*
X119868517Y-72789198D01*
X119922285Y-72815483D01*
X119973604Y-72840572D01*
X119973605Y-72840572D01*
X119973607Y-72840573D01*
X120041740Y-72850500D01*
X120041743Y-72850500D01*
X120408257Y-72850500D01*
X120408260Y-72850500D01*
X120476393Y-72840573D01*
X120581483Y-72789198D01*
X120664198Y-72706483D01*
X120715573Y-72601393D01*
X120725500Y-72533260D01*
X120725500Y-71066740D01*
X120715573Y-70998607D01*
X120664198Y-70893517D01*
X120661825Y-70891144D01*
X120660136Y-70887829D01*
X120659431Y-70886841D01*
X120659579Y-70886735D01*
X120634050Y-70836630D01*
X120643621Y-70776198D01*
X120646090Y-70771650D01*
X120691392Y-70693186D01*
X120725500Y-70565892D01*
X120725500Y-70434108D01*
X120691392Y-70306814D01*
X120691390Y-70306811D01*
X120691390Y-70306809D01*
X120625503Y-70192690D01*
X120625501Y-70192688D01*
X120625500Y-70192686D01*
X120603315Y-70170501D01*
X120575540Y-70115987D01*
X120585111Y-70055555D01*
X120628376Y-70012290D01*
X120673321Y-70001500D01*
X121026679Y-70001500D01*
X121084870Y-70020407D01*
X121120834Y-70069907D01*
X121120834Y-70131093D01*
X121096684Y-70170501D01*
X121082037Y-70185149D01*
X121074497Y-70192689D01*
X121074496Y-70192690D01*
X121008609Y-70306809D01*
X121008608Y-70306814D01*
X120974500Y-70434108D01*
X120974500Y-70565892D01*
X120985098Y-70605445D01*
X121008608Y-70693187D01*
X121053905Y-70771643D01*
X121066626Y-70831492D01*
X121041739Y-70887387D01*
X121038176Y-70891142D01*
X121035802Y-70893515D01*
X120984427Y-70998604D01*
X120984427Y-70998607D01*
X120974500Y-71066740D01*
X120974500Y-72533260D01*
X120978352Y-72559699D01*
X120984427Y-72601395D01*
X121026709Y-72687883D01*
X121035802Y-72706483D01*
X121118517Y-72789198D01*
X121172285Y-72815483D01*
X121223604Y-72840572D01*
X121223605Y-72840572D01*
X121223607Y-72840573D01*
X121291740Y-72850500D01*
X121291743Y-72850500D01*
X121658257Y-72850500D01*
X121658260Y-72850500D01*
X121726393Y-72840573D01*
X121831483Y-72789198D01*
X121914198Y-72706483D01*
X121965573Y-72601393D01*
X121975500Y-72533260D01*
X121975500Y-71900001D01*
X122225001Y-71900001D01*
X122225001Y-72533216D01*
X122234912Y-72601250D01*
X122286214Y-72706188D01*
X122368812Y-72788786D01*
X122473751Y-72840087D01*
X122541784Y-72849999D01*
X122625000Y-72849999D01*
X122625000Y-71900001D01*
X122825000Y-71900001D01*
X122825000Y-72849998D01*
X122825001Y-72849999D01*
X122908213Y-72849999D01*
X122908216Y-72849998D01*
X122976250Y-72840087D01*
X123081188Y-72788785D01*
X123163786Y-72706187D01*
X123215087Y-72601248D01*
X123225000Y-72533215D01*
X123225000Y-71900001D01*
X123224999Y-71900000D01*
X122825001Y-71900000D01*
X122825000Y-71900001D01*
X122625000Y-71900001D01*
X122624999Y-71900000D01*
X122225002Y-71900000D01*
X122225001Y-71900001D01*
X121975500Y-71900001D01*
X121975500Y-71066784D01*
X122225000Y-71066784D01*
X122225000Y-71699999D01*
X122225001Y-71700000D01*
X122624999Y-71700000D01*
X122625000Y-71699999D01*
X122625000Y-70750001D01*
X122825000Y-70750001D01*
X122825000Y-71699999D01*
X122825001Y-71700000D01*
X123224998Y-71700000D01*
X123224999Y-71699999D01*
X123224999Y-71066786D01*
X123224998Y-71066783D01*
X123215087Y-70998749D01*
X123163785Y-70893811D01*
X123081187Y-70811213D01*
X122976248Y-70759912D01*
X122908216Y-70750000D01*
X122825001Y-70750000D01*
X122825000Y-70750001D01*
X122625000Y-70750001D01*
X122625000Y-70750000D01*
X122541785Y-70750000D01*
X122541782Y-70750001D01*
X122473750Y-70759912D01*
X122368811Y-70811214D01*
X122286213Y-70893812D01*
X122234912Y-70998751D01*
X122225000Y-71066784D01*
X121975500Y-71066784D01*
X121975500Y-71066740D01*
X121965573Y-70998607D01*
X121914198Y-70893517D01*
X121911825Y-70891144D01*
X121910136Y-70887829D01*
X121909431Y-70886841D01*
X121909579Y-70886735D01*
X121884050Y-70836630D01*
X121893621Y-70776198D01*
X121896090Y-70771650D01*
X121941392Y-70693186D01*
X121975500Y-70565892D01*
X121975500Y-70434108D01*
X121941392Y-70306814D01*
X121941390Y-70306811D01*
X121941390Y-70306809D01*
X121875503Y-70192690D01*
X121875501Y-70192688D01*
X121875500Y-70192686D01*
X121853315Y-70170501D01*
X121825540Y-70115987D01*
X121835111Y-70055555D01*
X121878376Y-70012290D01*
X121923321Y-70001500D01*
X122427772Y-70001500D01*
X122453393Y-70004872D01*
X122534108Y-70026500D01*
X122534110Y-70026500D01*
X122665890Y-70026500D01*
X122665892Y-70026500D01*
X122746606Y-70004872D01*
X122772228Y-70001500D01*
X123561314Y-70001500D01*
X123619505Y-70020407D01*
X123631318Y-70030496D01*
X124336311Y-70735489D01*
X124336313Y-70735490D01*
X124336314Y-70735491D01*
X124336315Y-70735492D01*
X124439032Y-70794796D01*
X124439034Y-70794797D01*
X124439038Y-70794799D01*
X124463247Y-70801284D01*
X124463250Y-70801287D01*
X124463251Y-70801286D01*
X124553613Y-70825499D01*
X124553615Y-70825500D01*
X124553616Y-70825500D01*
X126568732Y-70825500D01*
X126612212Y-70835559D01*
X126673607Y-70865573D01*
X126741740Y-70875500D01*
X126741743Y-70875500D01*
X128208257Y-70875500D01*
X128208260Y-70875500D01*
X128276393Y-70865573D01*
X128381483Y-70814198D01*
X128464198Y-70731483D01*
X128515573Y-70626393D01*
X128525500Y-70558260D01*
X128525500Y-70191740D01*
X128515573Y-70123607D01*
X128464198Y-70018517D01*
X128381483Y-69935802D01*
X128381481Y-69935801D01*
X128276395Y-69884427D01*
X128249139Y-69880456D01*
X128208260Y-69874500D01*
X126741740Y-69874500D01*
X126673607Y-69884427D01*
X126612212Y-69914441D01*
X126568732Y-69924500D01*
X124840536Y-69924500D01*
X124782345Y-69905593D01*
X124770532Y-69895504D01*
X124439226Y-69564198D01*
X124094529Y-69219501D01*
X124066754Y-69164987D01*
X124076325Y-69104555D01*
X124119590Y-69061290D01*
X124164535Y-69050500D01*
X125784521Y-69050500D01*
X125842712Y-69069407D01*
X125854525Y-69079496D01*
X126084540Y-69309511D01*
X126084539Y-69309511D01*
X126140489Y-69365460D01*
X126209007Y-69405019D01*
X126209011Y-69405021D01*
X126285435Y-69425499D01*
X126285437Y-69425500D01*
X126285438Y-69425500D01*
X126396635Y-69425500D01*
X126454826Y-69444407D01*
X126480610Y-69475108D01*
X126481035Y-69474806D01*
X126484884Y-69480197D01*
X126485576Y-69481020D01*
X126485802Y-69481483D01*
X126568517Y-69564198D01*
X126622285Y-69590483D01*
X126673604Y-69615572D01*
X126673605Y-69615572D01*
X126673607Y-69615573D01*
X126741740Y-69625500D01*
X126741743Y-69625500D01*
X128208257Y-69625500D01*
X128208260Y-69625500D01*
X128276393Y-69615573D01*
X128381483Y-69564198D01*
X128464198Y-69481483D01*
X128515573Y-69376393D01*
X128525500Y-69308260D01*
X128525500Y-68941740D01*
X128515573Y-68873607D01*
X128464198Y-68768517D01*
X128381483Y-68685802D01*
X128381481Y-68685801D01*
X128276395Y-68634427D01*
X128249139Y-68630456D01*
X128208260Y-68624500D01*
X126741740Y-68624500D01*
X126707673Y-68629463D01*
X126673604Y-68634427D01*
X126568518Y-68685801D01*
X126568515Y-68685803D01*
X126509648Y-68744670D01*
X126455131Y-68772447D01*
X126394699Y-68762875D01*
X126369642Y-68744670D01*
X126207475Y-68582504D01*
X126179697Y-68527987D01*
X126189268Y-68467555D01*
X126207479Y-68442492D01*
X126215465Y-68434507D01*
X126287044Y-68362926D01*
X126382142Y-68267827D01*
X126436656Y-68240051D01*
X126497088Y-68249622D01*
X126522144Y-68267825D01*
X126568517Y-68314198D01*
X126622285Y-68340483D01*
X126673604Y-68365572D01*
X126673605Y-68365572D01*
X126673607Y-68365573D01*
X126741740Y-68375500D01*
X126741743Y-68375500D01*
X128208257Y-68375500D01*
X128208260Y-68375500D01*
X128276393Y-68365573D01*
X128381483Y-68314198D01*
X128464198Y-68231483D01*
X128515573Y-68126393D01*
X128525500Y-68058260D01*
X128525500Y-67691740D01*
X128515573Y-67623607D01*
X128464198Y-67518517D01*
X128381483Y-67435802D01*
X128348546Y-67419700D01*
X128276395Y-67384427D01*
X128249139Y-67380456D01*
X128208260Y-67374500D01*
X126741740Y-67374500D01*
X126707673Y-67379463D01*
X126673604Y-67384427D01*
X126568518Y-67435801D01*
X126485801Y-67518518D01*
X126485577Y-67518978D01*
X126485180Y-67519387D01*
X126481035Y-67525194D01*
X126480164Y-67524572D01*
X126443035Y-67562953D01*
X126396635Y-67574500D01*
X126310435Y-67574500D01*
X126234011Y-67594978D01*
X126184428Y-67623606D01*
X126184424Y-67623608D01*
X126165491Y-67634538D01*
X126165489Y-67634539D01*
X125879524Y-67920504D01*
X125825008Y-67948281D01*
X125809521Y-67949500D01*
X121266924Y-67949500D01*
X121208733Y-67930593D01*
X121172769Y-67881093D01*
X121171297Y-67824879D01*
X121200500Y-67715892D01*
X121200500Y-67615477D01*
X121219407Y-67557286D01*
X121229497Y-67545473D01*
X121390543Y-67384427D01*
X121590460Y-67184511D01*
X121596562Y-67173942D01*
X121630021Y-67115989D01*
X121650500Y-67039562D01*
X121650500Y-66428365D01*
X121669407Y-66370174D01*
X121700108Y-66344389D01*
X121699806Y-66343965D01*
X121705197Y-66340115D01*
X121706020Y-66339423D01*
X121706483Y-66339198D01*
X121789198Y-66256483D01*
X121840573Y-66151393D01*
X121850500Y-66083260D01*
X121850500Y-64616740D01*
X122099500Y-64616740D01*
X122099500Y-66083260D01*
X122109427Y-66151393D01*
X122109427Y-66151394D01*
X122109428Y-66151396D01*
X122127013Y-66187367D01*
X122135585Y-66247949D01*
X122133700Y-66256471D01*
X122133608Y-66256813D01*
X122133608Y-66256814D01*
X122099500Y-66384108D01*
X122099500Y-66515892D01*
X122129579Y-66628151D01*
X122133609Y-66643190D01*
X122199496Y-66757309D01*
X122199498Y-66757311D01*
X122199500Y-66757314D01*
X122292686Y-66850500D01*
X122292688Y-66850501D01*
X122292690Y-66850503D01*
X122406810Y-66916390D01*
X122406808Y-66916390D01*
X122406812Y-66916391D01*
X122406814Y-66916392D01*
X122534108Y-66950500D01*
X122534110Y-66950500D01*
X122665890Y-66950500D01*
X122665892Y-66950500D01*
X122793186Y-66916392D01*
X122793188Y-66916390D01*
X122793190Y-66916390D01*
X122907309Y-66850503D01*
X122907309Y-66850502D01*
X122907314Y-66850500D01*
X123000500Y-66757314D01*
X123019156Y-66725001D01*
X126425001Y-66725001D01*
X126425001Y-66808216D01*
X126434912Y-66876250D01*
X126486214Y-66981188D01*
X126568812Y-67063786D01*
X126673751Y-67115087D01*
X126741784Y-67124999D01*
X127374998Y-67124999D01*
X127375000Y-67124998D01*
X127375000Y-66725001D01*
X127575000Y-66725001D01*
X127575000Y-67124998D01*
X127575001Y-67124999D01*
X128208213Y-67124999D01*
X128208216Y-67124998D01*
X128276250Y-67115087D01*
X128381188Y-67063785D01*
X128463786Y-66981187D01*
X128515087Y-66876248D01*
X128525000Y-66808215D01*
X128525000Y-66725001D01*
X128524999Y-66725000D01*
X127575001Y-66725000D01*
X127575000Y-66725001D01*
X127375000Y-66725001D01*
X127374999Y-66725000D01*
X126425002Y-66725000D01*
X126425001Y-66725001D01*
X123019156Y-66725001D01*
X123066392Y-66643186D01*
X123100500Y-66515892D01*
X123100500Y-66441784D01*
X126425000Y-66441784D01*
X126425000Y-66524999D01*
X126425001Y-66525000D01*
X127374999Y-66525000D01*
X127375000Y-66524999D01*
X127375000Y-66125001D01*
X127575000Y-66125001D01*
X127575000Y-66524999D01*
X127575001Y-66525000D01*
X128524998Y-66525000D01*
X128524999Y-66524999D01*
X128524999Y-66441786D01*
X128524998Y-66441783D01*
X128515087Y-66373749D01*
X128463785Y-66268811D01*
X128381187Y-66186213D01*
X128276248Y-66134912D01*
X128208216Y-66125000D01*
X127575001Y-66125000D01*
X127575000Y-66125001D01*
X127375000Y-66125001D01*
X127374999Y-66125000D01*
X126741786Y-66125000D01*
X126741783Y-66125001D01*
X126673749Y-66134912D01*
X126568811Y-66186214D01*
X126486213Y-66268812D01*
X126434912Y-66373751D01*
X126425000Y-66441784D01*
X123100500Y-66441784D01*
X123100500Y-66384108D01*
X123066392Y-66256814D01*
X123066390Y-66256811D01*
X123066299Y-66256470D01*
X123069502Y-66195369D01*
X123072973Y-66187392D01*
X123090573Y-66151393D01*
X123100500Y-66083260D01*
X123100500Y-64616740D01*
X123090573Y-64548607D01*
X123039198Y-64443517D01*
X122956483Y-64360802D01*
X122956481Y-64360801D01*
X122851395Y-64309427D01*
X122824063Y-64305445D01*
X122783260Y-64299500D01*
X122416740Y-64299500D01*
X122382673Y-64304463D01*
X122348604Y-64309427D01*
X122243518Y-64360801D01*
X122160801Y-64443518D01*
X122109427Y-64548604D01*
X122109427Y-64548607D01*
X122099500Y-64616740D01*
X121850500Y-64616740D01*
X121840573Y-64548607D01*
X121789198Y-64443517D01*
X121706483Y-64360802D01*
X121706481Y-64360801D01*
X121601395Y-64309427D01*
X121574063Y-64305445D01*
X121533260Y-64299500D01*
X121166740Y-64299500D01*
X121132673Y-64304463D01*
X121098604Y-64309427D01*
X120993518Y-64360801D01*
X120910801Y-64443518D01*
X120859427Y-64548604D01*
X120859427Y-64548607D01*
X120849500Y-64616740D01*
X120849500Y-66083260D01*
X120859427Y-66151392D01*
X120859428Y-66151397D01*
X120862570Y-66157825D01*
X120863577Y-66164948D01*
X120867804Y-66170774D01*
X120867787Y-66194709D01*
X120871139Y-66218407D01*
X120867766Y-66224764D01*
X120867761Y-66231960D01*
X120853679Y-66251314D01*
X120842462Y-66272456D01*
X120835997Y-66275615D01*
X120831764Y-66281435D01*
X120815795Y-66285491D01*
X120787493Y-66299326D01*
X120773560Y-66300302D01*
X120766859Y-66300297D01*
X120766627Y-66300235D01*
X120676335Y-66300235D01*
X120647269Y-66290769D01*
X120618212Y-66281328D01*
X120618190Y-66281299D01*
X120618157Y-66281288D01*
X120600152Y-66256470D01*
X120582248Y-66231828D01*
X120582248Y-66231791D01*
X120582227Y-66231763D01*
X120582248Y-66201235D01*
X120582248Y-66170642D01*
X120582269Y-66170587D01*
X120582270Y-66170577D01*
X120582279Y-66170563D01*
X120587460Y-66157759D01*
X120590573Y-66151393D01*
X120600500Y-66083260D01*
X120600500Y-64616740D01*
X120590573Y-64548607D01*
X120539198Y-64443517D01*
X120456483Y-64360802D01*
X120456481Y-64360801D01*
X120351395Y-64309427D01*
X120324063Y-64305445D01*
X120283260Y-64299500D01*
X119916740Y-64299500D01*
X119882673Y-64304463D01*
X119848604Y-64309427D01*
X119743518Y-64360801D01*
X119660801Y-64443518D01*
X119609427Y-64548604D01*
X119609427Y-64548607D01*
X119599500Y-64616740D01*
X119599500Y-66083260D01*
X119605582Y-66125000D01*
X119609427Y-66151395D01*
X119656630Y-66247949D01*
X119660802Y-66256483D01*
X119743517Y-66339198D01*
X119799500Y-66366566D01*
X119848607Y-66390573D01*
X119849764Y-66390931D01*
X119851588Y-66392031D01*
X119855514Y-66393950D01*
X119855345Y-66394295D01*
X119890544Y-66415515D01*
X120171239Y-66696210D01*
X120199016Y-66750727D01*
X120200235Y-66766214D01*
X120200235Y-66866627D01*
X120224130Y-66955806D01*
X120234344Y-66993925D01*
X120300231Y-67108044D01*
X120300233Y-67108046D01*
X120300235Y-67108049D01*
X120347184Y-67154998D01*
X120374960Y-67209513D01*
X120365389Y-67269945D01*
X120347185Y-67295000D01*
X120299500Y-67342686D01*
X120299497Y-67342689D01*
X120299496Y-67342690D01*
X120233609Y-67456809D01*
X120223980Y-67492746D01*
X120199500Y-67584108D01*
X120199500Y-67715892D01*
X120228702Y-67824879D01*
X120225500Y-67885978D01*
X120186995Y-67933528D01*
X120133076Y-67949500D01*
X115724000Y-67949500D01*
X115665809Y-67930593D01*
X115629845Y-67881093D01*
X115625000Y-67850500D01*
X115625000Y-67850001D01*
X115624999Y-67850000D01*
X113925001Y-67850000D01*
X113925000Y-67850001D01*
X113925000Y-67919700D01*
X113936876Y-67979404D01*
X113936876Y-68018032D01*
X113924500Y-68080248D01*
X113924500Y-68419751D01*
X113936621Y-68480686D01*
X113936621Y-68519314D01*
X113924500Y-68580248D01*
X113924500Y-68919750D01*
X113936621Y-68980685D01*
X113936621Y-69019313D01*
X113928112Y-69062091D01*
X113928024Y-69062502D01*
X113928026Y-69062520D01*
X113927796Y-69063646D01*
X113919500Y-69100000D01*
X109675500Y-69100000D01*
X109675500Y-67580299D01*
X113925000Y-67580299D01*
X113925000Y-67649999D01*
X113925001Y-67650000D01*
X114674999Y-67650000D01*
X114675000Y-67649999D01*
X114675000Y-67350001D01*
X114875000Y-67350001D01*
X114875000Y-67649999D01*
X114875001Y-67650000D01*
X115624999Y-67650000D01*
X115625000Y-67649999D01*
X115625000Y-67580302D01*
X115624999Y-67580299D01*
X115612869Y-67519314D01*
X115612869Y-67480686D01*
X115624999Y-67419700D01*
X115625000Y-67419697D01*
X115625000Y-67350001D01*
X115624999Y-67350000D01*
X114875001Y-67350000D01*
X114875000Y-67350001D01*
X114675000Y-67350001D01*
X114674999Y-67350000D01*
X113928280Y-67350000D01*
X113938767Y-67492746D01*
X113937131Y-67499407D01*
X113937131Y-67519314D01*
X113925000Y-67580299D01*
X109675500Y-67580299D01*
X109675500Y-67080299D01*
X113925000Y-67080299D01*
X113925000Y-67149999D01*
X113925001Y-67150000D01*
X114674999Y-67150000D01*
X114675000Y-67149999D01*
X114675000Y-66900001D01*
X114875000Y-66900001D01*
X114875000Y-67149999D01*
X114875001Y-67150000D01*
X115624999Y-67150000D01*
X115625000Y-67149999D01*
X115625000Y-67080302D01*
X115624999Y-67080299D01*
X115613396Y-67021963D01*
X115569193Y-66955810D01*
X115569189Y-66955806D01*
X115503036Y-66911603D01*
X115444700Y-66900000D01*
X114875001Y-66900000D01*
X114875000Y-66900001D01*
X114675000Y-66900001D01*
X114674999Y-66900000D01*
X114105299Y-66900000D01*
X114046963Y-66911603D01*
X113980810Y-66955806D01*
X113980806Y-66955810D01*
X113936603Y-67021963D01*
X113925000Y-67080299D01*
X109675500Y-67080299D01*
X109675500Y-64430253D01*
X110224500Y-64430253D01*
X110224500Y-66269746D01*
X110224501Y-66269758D01*
X110236132Y-66328227D01*
X110236134Y-66328233D01*
X110280276Y-66394295D01*
X110280448Y-66394552D01*
X110346769Y-66438867D01*
X110391231Y-66447711D01*
X110405241Y-66450498D01*
X110405246Y-66450498D01*
X110405252Y-66450500D01*
X110405253Y-66450500D01*
X112644747Y-66450500D01*
X112644748Y-66450500D01*
X112703231Y-66438867D01*
X112769552Y-66394552D01*
X112813867Y-66328231D01*
X112825500Y-66269748D01*
X112825500Y-65450001D01*
X118350001Y-65450001D01*
X118350001Y-66083216D01*
X118359912Y-66151250D01*
X118411214Y-66256188D01*
X118493812Y-66338786D01*
X118598751Y-66390087D01*
X118666784Y-66399999D01*
X118750000Y-66399999D01*
X118750000Y-65450001D01*
X118950000Y-65450001D01*
X118950000Y-66399998D01*
X118950001Y-66399999D01*
X119033213Y-66399999D01*
X119033216Y-66399998D01*
X119101250Y-66390087D01*
X119206188Y-66338785D01*
X119288786Y-66256187D01*
X119340087Y-66151248D01*
X119350000Y-66083215D01*
X119350000Y-65450001D01*
X119349999Y-65450000D01*
X118950001Y-65450000D01*
X118950000Y-65450001D01*
X118750000Y-65450001D01*
X118749999Y-65450000D01*
X118350002Y-65450000D01*
X118350001Y-65450001D01*
X112825500Y-65450001D01*
X112825500Y-64616784D01*
X118350000Y-64616784D01*
X118350000Y-65249999D01*
X118350001Y-65250000D01*
X118749999Y-65250000D01*
X118750000Y-65249999D01*
X118750000Y-64300001D01*
X118950000Y-64300001D01*
X118950000Y-65249999D01*
X118950001Y-65250000D01*
X119349998Y-65250000D01*
X119349999Y-65249999D01*
X119349999Y-64616786D01*
X119349998Y-64616783D01*
X119340087Y-64548749D01*
X119288785Y-64443811D01*
X119206187Y-64361213D01*
X119101248Y-64309912D01*
X119033216Y-64300000D01*
X118950001Y-64300000D01*
X118950000Y-64300001D01*
X118750000Y-64300001D01*
X118750000Y-64300000D01*
X118666785Y-64300000D01*
X118666782Y-64300001D01*
X118598750Y-64309912D01*
X118493811Y-64361214D01*
X118411213Y-64443812D01*
X118359912Y-64548751D01*
X118350000Y-64616784D01*
X112825500Y-64616784D01*
X112825500Y-64430252D01*
X112813867Y-64371769D01*
X112769552Y-64305448D01*
X112769548Y-64305445D01*
X112703233Y-64261134D01*
X112703231Y-64261133D01*
X112703228Y-64261132D01*
X112703227Y-64261132D01*
X112644758Y-64249501D01*
X112644748Y-64249500D01*
X110405252Y-64249500D01*
X110405251Y-64249500D01*
X110405241Y-64249501D01*
X110346772Y-64261132D01*
X110346766Y-64261134D01*
X110280451Y-64305445D01*
X110280445Y-64305451D01*
X110236134Y-64371766D01*
X110236132Y-64371772D01*
X110224501Y-64430241D01*
X110224500Y-64430253D01*
X109675500Y-64430253D01*
X109675500Y-62003891D01*
X109675805Y-61996124D01*
X109680631Y-61934802D01*
X109690272Y-61812296D01*
X109692699Y-61796967D01*
X109734838Y-61621449D01*
X109739637Y-61606683D01*
X109808709Y-61439926D01*
X109815749Y-61426109D01*
X109910068Y-61272194D01*
X109919188Y-61259642D01*
X110036418Y-61122384D01*
X110047384Y-61111418D01*
X110184642Y-60994188D01*
X110197194Y-60985068D01*
X110351109Y-60890749D01*
X110364926Y-60883709D01*
X110531686Y-60814635D01*
X110546449Y-60809838D01*
X110607105Y-60795276D01*
X110668099Y-60800077D01*
X110714625Y-60839813D01*
X110728909Y-60899308D01*
X110706248Y-60954018D01*
X110706494Y-60954197D01*
X110705752Y-60955217D01*
X110705498Y-60955832D01*
X110704212Y-60957337D01*
X110556128Y-61161157D01*
X110441759Y-61385620D01*
X110363908Y-61625219D01*
X110324500Y-61874034D01*
X110324500Y-62125965D01*
X110363908Y-62374780D01*
X110441759Y-62614379D01*
X110556130Y-62838845D01*
X110704207Y-63042656D01*
X110882344Y-63220793D01*
X111086155Y-63368870D01*
X111310621Y-63483241D01*
X111550215Y-63561090D01*
X111550216Y-63561090D01*
X111550219Y-63561091D01*
X111799035Y-63600500D01*
X111799038Y-63600500D01*
X112050965Y-63600500D01*
X112299780Y-63561091D01*
X112299781Y-63561090D01*
X112299785Y-63561090D01*
X112539379Y-63483241D01*
X112763845Y-63368870D01*
X112967656Y-63220793D01*
X113145793Y-63042656D01*
X113293870Y-62838845D01*
X113408241Y-62614379D01*
X113486090Y-62374785D01*
X113495251Y-62316945D01*
X113525500Y-62125965D01*
X113525500Y-61874034D01*
X113486091Y-61625219D01*
X113482408Y-61613883D01*
X113408241Y-61385621D01*
X113293870Y-61161155D01*
X113145793Y-60957344D01*
X113107950Y-60919501D01*
X113080175Y-60864987D01*
X113089746Y-60804555D01*
X113133011Y-60761290D01*
X113177956Y-60750500D01*
X116200500Y-60750500D01*
X116258691Y-60769407D01*
G37*
G04 #@! TD.AperFunction*
G04 #@! TD*
M02*
