%TF.GenerationSoftware,KiCad,Pcbnew,9.0.2*%
%TF.CreationDate,2025-06-09T22:43:46+08:00*%
%TF.ProjectId,chenning,6368656e-6e69-46e6-972e-6b696361645f,rev?*%
%TF.SameCoordinates,Original*%
%TF.FileFunction,Drillmap*%
%TF.FilePolarity,Positive*%
%FSLAX45Y45*%
G04 Gerber Fmt 4.5, Leading zero omitted, Abs format (unit mm)*
G04 Created by KiCad (PCBNEW 9.0.2) date 2025-06-09 22:43:46*
%MOMM*%
%LPD*%
G01*
G04 APERTURE LIST*
%ADD10C,0.050000*%
%ADD11C,0.200000*%
%ADD12C,0.100000*%
G04 APERTURE END LIST*
D10*
X13292500Y-7500000D02*
G75*
G02*
X13092500Y-7700000I-200000J0D01*
G01*
X11092500Y-7700000D02*
G75*
G02*
X10892500Y-7500000I0J200000D01*
G01*
X13092500Y-7700000D02*
X11092500Y-7700000D01*
X10892500Y-6200000D02*
G75*
G02*
X11092500Y-6000000I200000J0D01*
G01*
X13092500Y-6000000D02*
G75*
G02*
X13292500Y-6200000I0J-200000D01*
G01*
X11092500Y-6000000D02*
X13092500Y-6000000D01*
X10892500Y-7500000D02*
X10892500Y-6200000D01*
X13082500Y-6200000D02*
G75*
G02*
X12902500Y-6200000I-90000J0D01*
G01*
X12902500Y-6200000D02*
G75*
G02*
X13082500Y-6200000I90000J0D01*
G01*
X13082500Y-7500000D02*
G75*
G02*
X12902500Y-7500000I-90000J0D01*
G01*
X12902500Y-7500000D02*
G75*
G02*
X13082500Y-7500000I90000J0D01*
G01*
X11282500Y-7500000D02*
G75*
G02*
X11102500Y-7500000I-90000J0D01*
G01*
X11102500Y-7500000D02*
G75*
G02*
X11282500Y-7500000I90000J0D01*
G01*
X11282500Y-6200000D02*
G75*
G02*
X11102500Y-6200000I-90000J0D01*
G01*
X11102500Y-6200000D02*
G75*
G02*
X11282500Y-6200000I90000J0D01*
G01*
X13292500Y-6200000D02*
X13292500Y-7500000D01*
D11*
D12*
X11155000Y-6912500D02*
X11185000Y-6942500D01*
X11185000Y-6912500D02*
X11155000Y-6942500D01*
X11162500Y-6760000D02*
X11192500Y-6790000D01*
X11192500Y-6760000D02*
X11162500Y-6790000D01*
X11480000Y-6427500D02*
X11510000Y-6457500D01*
X11510000Y-6427500D02*
X11480000Y-6457500D01*
X11482500Y-6065000D02*
X11512500Y-6095000D01*
X11512500Y-6065000D02*
X11482500Y-6095000D01*
X11482500Y-7547500D02*
X11512500Y-7577500D01*
X11512500Y-7547500D02*
X11482500Y-7577500D01*
X11490000Y-7240000D02*
X11520000Y-7270000D01*
X11520000Y-7240000D02*
X11490000Y-7270000D01*
X11715000Y-7150000D02*
X11745000Y-7180000D01*
X11745000Y-7150000D02*
X11715000Y-7180000D01*
X11795000Y-6657500D02*
X11825000Y-6687500D01*
X11825000Y-6657500D02*
X11795000Y-6687500D01*
X11917500Y-6095000D02*
X11947500Y-6125000D01*
X11947500Y-6095000D02*
X11917500Y-6125000D01*
X11920000Y-7615000D02*
X11950000Y-7645000D01*
X11950000Y-7615000D02*
X11920000Y-7645000D01*
X12007500Y-7035000D02*
X12037500Y-7065000D01*
X12037500Y-7035000D02*
X12007500Y-7065000D01*
X12055000Y-6750000D02*
X12085000Y-6780000D01*
X12085000Y-6750000D02*
X12055000Y-6780000D01*
X12055073Y-6665073D02*
X12085073Y-6695073D01*
X12085073Y-6665073D02*
X12055073Y-6695073D01*
X12132500Y-7035000D02*
X12162500Y-7065000D01*
X12162500Y-7035000D02*
X12132500Y-7065000D01*
X12222500Y-6072500D02*
X12252500Y-6102500D01*
X12252500Y-6072500D02*
X12222500Y-6102500D01*
X12237500Y-7625000D02*
X12267500Y-7655000D01*
X12267500Y-7625000D02*
X12237500Y-7655000D01*
X12245000Y-6630000D02*
X12275000Y-6660000D01*
X12275000Y-6630000D02*
X12245000Y-6660000D01*
X12245000Y-6937600D02*
X12275000Y-6967600D01*
X12275000Y-6937600D02*
X12245000Y-6967600D01*
X12527500Y-6510000D02*
X12557500Y-6540000D01*
X12557500Y-6510000D02*
X12527500Y-6540000D01*
X12527500Y-6935000D02*
X12557500Y-6965000D01*
X12557500Y-6935000D02*
X12527500Y-6965000D01*
X12655000Y-7252500D02*
X12685000Y-7282500D01*
X12685000Y-7252500D02*
X12655000Y-7282500D01*
X12677500Y-7557500D02*
X12707500Y-7587500D01*
X12707500Y-7557500D02*
X12677500Y-7587500D01*
X12690000Y-6110000D02*
X12720000Y-6140000D01*
X12720000Y-6110000D02*
X12690000Y-6140000D01*
X13000000Y-6925000D02*
X13030000Y-6955000D01*
X13030000Y-6925000D02*
X13000000Y-6955000D01*
X13047500Y-6682500D02*
X13077500Y-6712500D01*
X13077500Y-6682500D02*
X13047500Y-6712500D01*
D11*
X11150777Y-8013984D02*
X11150777Y-7813984D01*
X11150777Y-7813984D02*
X11198396Y-7813984D01*
X11198396Y-7813984D02*
X11226967Y-7823508D01*
X11226967Y-7823508D02*
X11246015Y-7842555D01*
X11246015Y-7842555D02*
X11255539Y-7861603D01*
X11255539Y-7861603D02*
X11265062Y-7899698D01*
X11265062Y-7899698D02*
X11265062Y-7928269D01*
X11265062Y-7928269D02*
X11255539Y-7966365D01*
X11255539Y-7966365D02*
X11246015Y-7985412D01*
X11246015Y-7985412D02*
X11226967Y-8004460D01*
X11226967Y-8004460D02*
X11198396Y-8013984D01*
X11198396Y-8013984D02*
X11150777Y-8013984D01*
X11350777Y-8013984D02*
X11350777Y-7880650D01*
X11350777Y-7918746D02*
X11360301Y-7899698D01*
X11360301Y-7899698D02*
X11369824Y-7890174D01*
X11369824Y-7890174D02*
X11388872Y-7880650D01*
X11388872Y-7880650D02*
X11407920Y-7880650D01*
X11474586Y-8013984D02*
X11474586Y-7880650D01*
X11474586Y-7813984D02*
X11465062Y-7823508D01*
X11465062Y-7823508D02*
X11474586Y-7833031D01*
X11474586Y-7833031D02*
X11484110Y-7823508D01*
X11484110Y-7823508D02*
X11474586Y-7813984D01*
X11474586Y-7813984D02*
X11474586Y-7833031D01*
X11598396Y-8013984D02*
X11579348Y-8004460D01*
X11579348Y-8004460D02*
X11569824Y-7985412D01*
X11569824Y-7985412D02*
X11569824Y-7813984D01*
X11703158Y-8013984D02*
X11684110Y-8004460D01*
X11684110Y-8004460D02*
X11674586Y-7985412D01*
X11674586Y-7985412D02*
X11674586Y-7813984D01*
X11931729Y-8013984D02*
X11931729Y-7813984D01*
X11931729Y-7813984D02*
X11998396Y-7956841D01*
X11998396Y-7956841D02*
X12065062Y-7813984D01*
X12065062Y-7813984D02*
X12065062Y-8013984D01*
X12246015Y-8013984D02*
X12246015Y-7909222D01*
X12246015Y-7909222D02*
X12236491Y-7890174D01*
X12236491Y-7890174D02*
X12217443Y-7880650D01*
X12217443Y-7880650D02*
X12179348Y-7880650D01*
X12179348Y-7880650D02*
X12160301Y-7890174D01*
X12246015Y-8004460D02*
X12226967Y-8013984D01*
X12226967Y-8013984D02*
X12179348Y-8013984D01*
X12179348Y-8013984D02*
X12160301Y-8004460D01*
X12160301Y-8004460D02*
X12150777Y-7985412D01*
X12150777Y-7985412D02*
X12150777Y-7966365D01*
X12150777Y-7966365D02*
X12160301Y-7947317D01*
X12160301Y-7947317D02*
X12179348Y-7937793D01*
X12179348Y-7937793D02*
X12226967Y-7937793D01*
X12226967Y-7937793D02*
X12246015Y-7928269D01*
X12341253Y-7880650D02*
X12341253Y-8080650D01*
X12341253Y-7890174D02*
X12360301Y-7880650D01*
X12360301Y-7880650D02*
X12398396Y-7880650D01*
X12398396Y-7880650D02*
X12417443Y-7890174D01*
X12417443Y-7890174D02*
X12426967Y-7899698D01*
X12426967Y-7899698D02*
X12436491Y-7918746D01*
X12436491Y-7918746D02*
X12436491Y-7975888D01*
X12436491Y-7975888D02*
X12426967Y-7994936D01*
X12426967Y-7994936D02*
X12417443Y-8004460D01*
X12417443Y-8004460D02*
X12398396Y-8013984D01*
X12398396Y-8013984D02*
X12360301Y-8013984D01*
X12360301Y-8013984D02*
X12341253Y-8004460D01*
X12522205Y-7994936D02*
X12531729Y-8004460D01*
X12531729Y-8004460D02*
X12522205Y-8013984D01*
X12522205Y-8013984D02*
X12512682Y-8004460D01*
X12512682Y-8004460D02*
X12522205Y-7994936D01*
X12522205Y-7994936D02*
X12522205Y-8013984D01*
X12522205Y-7890174D02*
X12531729Y-7899698D01*
X12531729Y-7899698D02*
X12522205Y-7909222D01*
X12522205Y-7909222D02*
X12512682Y-7899698D01*
X12512682Y-7899698D02*
X12522205Y-7890174D01*
X12522205Y-7890174D02*
X12522205Y-7909222D01*
D12*
X10860000Y-8327500D02*
X10890000Y-8357500D01*
X10890000Y-8327500D02*
X10860000Y-8357500D01*
D11*
X11188872Y-8233984D02*
X11207920Y-8233984D01*
X11207920Y-8233984D02*
X11226967Y-8243508D01*
X11226967Y-8243508D02*
X11236491Y-8253031D01*
X11236491Y-8253031D02*
X11246015Y-8272079D01*
X11246015Y-8272079D02*
X11255539Y-8310174D01*
X11255539Y-8310174D02*
X11255539Y-8357793D01*
X11255539Y-8357793D02*
X11246015Y-8395889D01*
X11246015Y-8395889D02*
X11236491Y-8414936D01*
X11236491Y-8414936D02*
X11226967Y-8424460D01*
X11226967Y-8424460D02*
X11207920Y-8433984D01*
X11207920Y-8433984D02*
X11188872Y-8433984D01*
X11188872Y-8433984D02*
X11169824Y-8424460D01*
X11169824Y-8424460D02*
X11160301Y-8414936D01*
X11160301Y-8414936D02*
X11150777Y-8395889D01*
X11150777Y-8395889D02*
X11141253Y-8357793D01*
X11141253Y-8357793D02*
X11141253Y-8310174D01*
X11141253Y-8310174D02*
X11150777Y-8272079D01*
X11150777Y-8272079D02*
X11160301Y-8253031D01*
X11160301Y-8253031D02*
X11169824Y-8243508D01*
X11169824Y-8243508D02*
X11188872Y-8233984D01*
X11341253Y-8414936D02*
X11350777Y-8424460D01*
X11350777Y-8424460D02*
X11341253Y-8433984D01*
X11341253Y-8433984D02*
X11331729Y-8424460D01*
X11331729Y-8424460D02*
X11341253Y-8414936D01*
X11341253Y-8414936D02*
X11341253Y-8433984D01*
X11417443Y-8233984D02*
X11541253Y-8233984D01*
X11541253Y-8233984D02*
X11474586Y-8310174D01*
X11474586Y-8310174D02*
X11503158Y-8310174D01*
X11503158Y-8310174D02*
X11522205Y-8319698D01*
X11522205Y-8319698D02*
X11531729Y-8329222D01*
X11531729Y-8329222D02*
X11541253Y-8348269D01*
X11541253Y-8348269D02*
X11541253Y-8395889D01*
X11541253Y-8395889D02*
X11531729Y-8414936D01*
X11531729Y-8414936D02*
X11522205Y-8424460D01*
X11522205Y-8424460D02*
X11503158Y-8433984D01*
X11503158Y-8433984D02*
X11446015Y-8433984D01*
X11446015Y-8433984D02*
X11426967Y-8424460D01*
X11426967Y-8424460D02*
X11417443Y-8414936D01*
X11665062Y-8233984D02*
X11684110Y-8233984D01*
X11684110Y-8233984D02*
X11703158Y-8243508D01*
X11703158Y-8243508D02*
X11712682Y-8253031D01*
X11712682Y-8253031D02*
X11722205Y-8272079D01*
X11722205Y-8272079D02*
X11731729Y-8310174D01*
X11731729Y-8310174D02*
X11731729Y-8357793D01*
X11731729Y-8357793D02*
X11722205Y-8395889D01*
X11722205Y-8395889D02*
X11712682Y-8414936D01*
X11712682Y-8414936D02*
X11703158Y-8424460D01*
X11703158Y-8424460D02*
X11684110Y-8433984D01*
X11684110Y-8433984D02*
X11665062Y-8433984D01*
X11665062Y-8433984D02*
X11646015Y-8424460D01*
X11646015Y-8424460D02*
X11636491Y-8414936D01*
X11636491Y-8414936D02*
X11626967Y-8395889D01*
X11626967Y-8395889D02*
X11617443Y-8357793D01*
X11617443Y-8357793D02*
X11617443Y-8310174D01*
X11617443Y-8310174D02*
X11626967Y-8272079D01*
X11626967Y-8272079D02*
X11636491Y-8253031D01*
X11636491Y-8253031D02*
X11646015Y-8243508D01*
X11646015Y-8243508D02*
X11665062Y-8233984D01*
X11855539Y-8233984D02*
X11874586Y-8233984D01*
X11874586Y-8233984D02*
X11893634Y-8243508D01*
X11893634Y-8243508D02*
X11903158Y-8253031D01*
X11903158Y-8253031D02*
X11912682Y-8272079D01*
X11912682Y-8272079D02*
X11922205Y-8310174D01*
X11922205Y-8310174D02*
X11922205Y-8357793D01*
X11922205Y-8357793D02*
X11912682Y-8395889D01*
X11912682Y-8395889D02*
X11903158Y-8414936D01*
X11903158Y-8414936D02*
X11893634Y-8424460D01*
X11893634Y-8424460D02*
X11874586Y-8433984D01*
X11874586Y-8433984D02*
X11855539Y-8433984D01*
X11855539Y-8433984D02*
X11836491Y-8424460D01*
X11836491Y-8424460D02*
X11826967Y-8414936D01*
X11826967Y-8414936D02*
X11817443Y-8395889D01*
X11817443Y-8395889D02*
X11807920Y-8357793D01*
X11807920Y-8357793D02*
X11807920Y-8310174D01*
X11807920Y-8310174D02*
X11817443Y-8272079D01*
X11817443Y-8272079D02*
X11826967Y-8253031D01*
X11826967Y-8253031D02*
X11836491Y-8243508D01*
X11836491Y-8243508D02*
X11855539Y-8233984D01*
X12007920Y-8433984D02*
X12007920Y-8300650D01*
X12007920Y-8319698D02*
X12017443Y-8310174D01*
X12017443Y-8310174D02*
X12036491Y-8300650D01*
X12036491Y-8300650D02*
X12065063Y-8300650D01*
X12065063Y-8300650D02*
X12084110Y-8310174D01*
X12084110Y-8310174D02*
X12093634Y-8329222D01*
X12093634Y-8329222D02*
X12093634Y-8433984D01*
X12093634Y-8329222D02*
X12103158Y-8310174D01*
X12103158Y-8310174D02*
X12122205Y-8300650D01*
X12122205Y-8300650D02*
X12150777Y-8300650D01*
X12150777Y-8300650D02*
X12169824Y-8310174D01*
X12169824Y-8310174D02*
X12179348Y-8329222D01*
X12179348Y-8329222D02*
X12179348Y-8433984D01*
X12274586Y-8433984D02*
X12274586Y-8300650D01*
X12274586Y-8319698D02*
X12284110Y-8310174D01*
X12284110Y-8310174D02*
X12303158Y-8300650D01*
X12303158Y-8300650D02*
X12331729Y-8300650D01*
X12331729Y-8300650D02*
X12350777Y-8310174D01*
X12350777Y-8310174D02*
X12360301Y-8329222D01*
X12360301Y-8329222D02*
X12360301Y-8433984D01*
X12360301Y-8329222D02*
X12369824Y-8310174D01*
X12369824Y-8310174D02*
X12388872Y-8300650D01*
X12388872Y-8300650D02*
X12417443Y-8300650D01*
X12417443Y-8300650D02*
X12436491Y-8310174D01*
X12436491Y-8310174D02*
X12446015Y-8329222D01*
X12446015Y-8329222D02*
X12446015Y-8433984D01*
X12836491Y-8224460D02*
X12665063Y-8481603D01*
X13093634Y-8233984D02*
X13112682Y-8233984D01*
X13112682Y-8233984D02*
X13131729Y-8243508D01*
X13131729Y-8243508D02*
X13141253Y-8253031D01*
X13141253Y-8253031D02*
X13150777Y-8272079D01*
X13150777Y-8272079D02*
X13160301Y-8310174D01*
X13160301Y-8310174D02*
X13160301Y-8357793D01*
X13160301Y-8357793D02*
X13150777Y-8395889D01*
X13150777Y-8395889D02*
X13141253Y-8414936D01*
X13141253Y-8414936D02*
X13131729Y-8424460D01*
X13131729Y-8424460D02*
X13112682Y-8433984D01*
X13112682Y-8433984D02*
X13093634Y-8433984D01*
X13093634Y-8433984D02*
X13074586Y-8424460D01*
X13074586Y-8424460D02*
X13065063Y-8414936D01*
X13065063Y-8414936D02*
X13055539Y-8395889D01*
X13055539Y-8395889D02*
X13046015Y-8357793D01*
X13046015Y-8357793D02*
X13046015Y-8310174D01*
X13046015Y-8310174D02*
X13055539Y-8272079D01*
X13055539Y-8272079D02*
X13065063Y-8253031D01*
X13065063Y-8253031D02*
X13074586Y-8243508D01*
X13074586Y-8243508D02*
X13093634Y-8233984D01*
X13246015Y-8414936D02*
X13255539Y-8424460D01*
X13255539Y-8424460D02*
X13246015Y-8433984D01*
X13246015Y-8433984D02*
X13236491Y-8424460D01*
X13236491Y-8424460D02*
X13246015Y-8414936D01*
X13246015Y-8414936D02*
X13246015Y-8433984D01*
X13379348Y-8233984D02*
X13398396Y-8233984D01*
X13398396Y-8233984D02*
X13417444Y-8243508D01*
X13417444Y-8243508D02*
X13426967Y-8253031D01*
X13426967Y-8253031D02*
X13436491Y-8272079D01*
X13436491Y-8272079D02*
X13446015Y-8310174D01*
X13446015Y-8310174D02*
X13446015Y-8357793D01*
X13446015Y-8357793D02*
X13436491Y-8395889D01*
X13436491Y-8395889D02*
X13426967Y-8414936D01*
X13426967Y-8414936D02*
X13417444Y-8424460D01*
X13417444Y-8424460D02*
X13398396Y-8433984D01*
X13398396Y-8433984D02*
X13379348Y-8433984D01*
X13379348Y-8433984D02*
X13360301Y-8424460D01*
X13360301Y-8424460D02*
X13350777Y-8414936D01*
X13350777Y-8414936D02*
X13341253Y-8395889D01*
X13341253Y-8395889D02*
X13331729Y-8357793D01*
X13331729Y-8357793D02*
X13331729Y-8310174D01*
X13331729Y-8310174D02*
X13341253Y-8272079D01*
X13341253Y-8272079D02*
X13350777Y-8253031D01*
X13350777Y-8253031D02*
X13360301Y-8243508D01*
X13360301Y-8243508D02*
X13379348Y-8233984D01*
X13636491Y-8433984D02*
X13522206Y-8433984D01*
X13579348Y-8433984D02*
X13579348Y-8233984D01*
X13579348Y-8233984D02*
X13560301Y-8262555D01*
X13560301Y-8262555D02*
X13541253Y-8281603D01*
X13541253Y-8281603D02*
X13522206Y-8291127D01*
X13826967Y-8433984D02*
X13712682Y-8433984D01*
X13769825Y-8433984D02*
X13769825Y-8233984D01*
X13769825Y-8233984D02*
X13750777Y-8262555D01*
X13750777Y-8262555D02*
X13731729Y-8281603D01*
X13731729Y-8281603D02*
X13712682Y-8291127D01*
X13941253Y-8319698D02*
X13922206Y-8310174D01*
X13922206Y-8310174D02*
X13912682Y-8300650D01*
X13912682Y-8300650D02*
X13903158Y-8281603D01*
X13903158Y-8281603D02*
X13903158Y-8272079D01*
X13903158Y-8272079D02*
X13912682Y-8253031D01*
X13912682Y-8253031D02*
X13922206Y-8243508D01*
X13922206Y-8243508D02*
X13941253Y-8233984D01*
X13941253Y-8233984D02*
X13979348Y-8233984D01*
X13979348Y-8233984D02*
X13998396Y-8243508D01*
X13998396Y-8243508D02*
X14007920Y-8253031D01*
X14007920Y-8253031D02*
X14017444Y-8272079D01*
X14017444Y-8272079D02*
X14017444Y-8281603D01*
X14017444Y-8281603D02*
X14007920Y-8300650D01*
X14007920Y-8300650D02*
X13998396Y-8310174D01*
X13998396Y-8310174D02*
X13979348Y-8319698D01*
X13979348Y-8319698D02*
X13941253Y-8319698D01*
X13941253Y-8319698D02*
X13922206Y-8329222D01*
X13922206Y-8329222D02*
X13912682Y-8338746D01*
X13912682Y-8338746D02*
X13903158Y-8357793D01*
X13903158Y-8357793D02*
X13903158Y-8395889D01*
X13903158Y-8395889D02*
X13912682Y-8414936D01*
X13912682Y-8414936D02*
X13922206Y-8424460D01*
X13922206Y-8424460D02*
X13941253Y-8433984D01*
X13941253Y-8433984D02*
X13979348Y-8433984D01*
X13979348Y-8433984D02*
X13998396Y-8424460D01*
X13998396Y-8424460D02*
X14007920Y-8414936D01*
X14007920Y-8414936D02*
X14017444Y-8395889D01*
X14017444Y-8395889D02*
X14017444Y-8357793D01*
X14017444Y-8357793D02*
X14007920Y-8338746D01*
X14007920Y-8338746D02*
X13998396Y-8329222D01*
X13998396Y-8329222D02*
X13979348Y-8319698D01*
X14093634Y-8233984D02*
X14093634Y-8272079D01*
X14169825Y-8233984D02*
X14169825Y-8272079D01*
X14465063Y-8510174D02*
X14455539Y-8500650D01*
X14455539Y-8500650D02*
X14436491Y-8472079D01*
X14436491Y-8472079D02*
X14426968Y-8453031D01*
X14426968Y-8453031D02*
X14417444Y-8424460D01*
X14417444Y-8424460D02*
X14407920Y-8376841D01*
X14407920Y-8376841D02*
X14407920Y-8338746D01*
X14407920Y-8338746D02*
X14417444Y-8291127D01*
X14417444Y-8291127D02*
X14426968Y-8262555D01*
X14426968Y-8262555D02*
X14436491Y-8243508D01*
X14436491Y-8243508D02*
X14455539Y-8214936D01*
X14455539Y-8214936D02*
X14465063Y-8205412D01*
X14531729Y-8253031D02*
X14541253Y-8243508D01*
X14541253Y-8243508D02*
X14560301Y-8233984D01*
X14560301Y-8233984D02*
X14607920Y-8233984D01*
X14607920Y-8233984D02*
X14626968Y-8243508D01*
X14626968Y-8243508D02*
X14636491Y-8253031D01*
X14636491Y-8253031D02*
X14646015Y-8272079D01*
X14646015Y-8272079D02*
X14646015Y-8291127D01*
X14646015Y-8291127D02*
X14636491Y-8319698D01*
X14636491Y-8319698D02*
X14522206Y-8433984D01*
X14522206Y-8433984D02*
X14646015Y-8433984D01*
X14826968Y-8233984D02*
X14731729Y-8233984D01*
X14731729Y-8233984D02*
X14722206Y-8329222D01*
X14722206Y-8329222D02*
X14731729Y-8319698D01*
X14731729Y-8319698D02*
X14750777Y-8310174D01*
X14750777Y-8310174D02*
X14798396Y-8310174D01*
X14798396Y-8310174D02*
X14817444Y-8319698D01*
X14817444Y-8319698D02*
X14826968Y-8329222D01*
X14826968Y-8329222D02*
X14836491Y-8348269D01*
X14836491Y-8348269D02*
X14836491Y-8395889D01*
X14836491Y-8395889D02*
X14826968Y-8414936D01*
X14826968Y-8414936D02*
X14817444Y-8424460D01*
X14817444Y-8424460D02*
X14798396Y-8433984D01*
X14798396Y-8433984D02*
X14750777Y-8433984D01*
X14750777Y-8433984D02*
X14731729Y-8424460D01*
X14731729Y-8424460D02*
X14722206Y-8414936D01*
X15074587Y-8433984D02*
X15074587Y-8233984D01*
X15160301Y-8433984D02*
X15160301Y-8329222D01*
X15160301Y-8329222D02*
X15150777Y-8310174D01*
X15150777Y-8310174D02*
X15131730Y-8300650D01*
X15131730Y-8300650D02*
X15103158Y-8300650D01*
X15103158Y-8300650D02*
X15084110Y-8310174D01*
X15084110Y-8310174D02*
X15074587Y-8319698D01*
X15284110Y-8433984D02*
X15265063Y-8424460D01*
X15265063Y-8424460D02*
X15255539Y-8414936D01*
X15255539Y-8414936D02*
X15246015Y-8395889D01*
X15246015Y-8395889D02*
X15246015Y-8338746D01*
X15246015Y-8338746D02*
X15255539Y-8319698D01*
X15255539Y-8319698D02*
X15265063Y-8310174D01*
X15265063Y-8310174D02*
X15284110Y-8300650D01*
X15284110Y-8300650D02*
X15312682Y-8300650D01*
X15312682Y-8300650D02*
X15331730Y-8310174D01*
X15331730Y-8310174D02*
X15341253Y-8319698D01*
X15341253Y-8319698D02*
X15350777Y-8338746D01*
X15350777Y-8338746D02*
X15350777Y-8395889D01*
X15350777Y-8395889D02*
X15341253Y-8414936D01*
X15341253Y-8414936D02*
X15331730Y-8424460D01*
X15331730Y-8424460D02*
X15312682Y-8433984D01*
X15312682Y-8433984D02*
X15284110Y-8433984D01*
X15465063Y-8433984D02*
X15446015Y-8424460D01*
X15446015Y-8424460D02*
X15436491Y-8405412D01*
X15436491Y-8405412D02*
X15436491Y-8233984D01*
X15617444Y-8424460D02*
X15598396Y-8433984D01*
X15598396Y-8433984D02*
X15560301Y-8433984D01*
X15560301Y-8433984D02*
X15541253Y-8424460D01*
X15541253Y-8424460D02*
X15531730Y-8405412D01*
X15531730Y-8405412D02*
X15531730Y-8329222D01*
X15531730Y-8329222D02*
X15541253Y-8310174D01*
X15541253Y-8310174D02*
X15560301Y-8300650D01*
X15560301Y-8300650D02*
X15598396Y-8300650D01*
X15598396Y-8300650D02*
X15617444Y-8310174D01*
X15617444Y-8310174D02*
X15626968Y-8329222D01*
X15626968Y-8329222D02*
X15626968Y-8348269D01*
X15626968Y-8348269D02*
X15531730Y-8367317D01*
X15703158Y-8424460D02*
X15722206Y-8433984D01*
X15722206Y-8433984D02*
X15760301Y-8433984D01*
X15760301Y-8433984D02*
X15779349Y-8424460D01*
X15779349Y-8424460D02*
X15788872Y-8405412D01*
X15788872Y-8405412D02*
X15788872Y-8395889D01*
X15788872Y-8395889D02*
X15779349Y-8376841D01*
X15779349Y-8376841D02*
X15760301Y-8367317D01*
X15760301Y-8367317D02*
X15731730Y-8367317D01*
X15731730Y-8367317D02*
X15712682Y-8357793D01*
X15712682Y-8357793D02*
X15703158Y-8338746D01*
X15703158Y-8338746D02*
X15703158Y-8329222D01*
X15703158Y-8329222D02*
X15712682Y-8310174D01*
X15712682Y-8310174D02*
X15731730Y-8300650D01*
X15731730Y-8300650D02*
X15760301Y-8300650D01*
X15760301Y-8300650D02*
X15779349Y-8310174D01*
X15855539Y-8510174D02*
X15865063Y-8500650D01*
X15865063Y-8500650D02*
X15884111Y-8472079D01*
X15884111Y-8472079D02*
X15893634Y-8453031D01*
X15893634Y-8453031D02*
X15903158Y-8424460D01*
X15903158Y-8424460D02*
X15912682Y-8376841D01*
X15912682Y-8376841D02*
X15912682Y-8338746D01*
X15912682Y-8338746D02*
X15903158Y-8291127D01*
X15903158Y-8291127D02*
X15893634Y-8262555D01*
X15893634Y-8262555D02*
X15884111Y-8243508D01*
X15884111Y-8243508D02*
X15865063Y-8214936D01*
X15865063Y-8214936D02*
X15855539Y-8205412D01*
M02*
