M48
;Layer_Color=9474304
;FILE_FORMAT=2:5
INCH,LZ
;TYPE=PLATED
T1F00S00C0.00984
T3F00S00C0.03937
T4F00S00C0.06299
;TYPE=NON_PLATED
T5F00S00C0.02362
%
T01
X0061988Y0004077
X0064961Y0004663
X0072726Y0013447
X0092385Y0013468
X0092288Y0009501
X0103027Y0007456
X0113526Y0009517
X00812Y0029539
X0083529Y0033235
X007968Y0046751
X008214Y0054213
X0085354Y0059514
X0061978Y0056557
X0064901Y0049971
X0065285Y0042037
X0125906Y0051747
X0126032Y0058993
X0148724Y0059015
Y0051791
X0137528Y004734
X0166899Y0015965
X0166824Y0013103
X0055736Y0029454
X0058047Y0039236
X00485Y0045
Y0048
X00465Y00465
Y00435
X00445Y0045
Y0048
X0035987Y0052851
X0029744Y0050505
X0032039Y0045425
X0038817Y0039792
X0037216Y0026746
X0029776Y0026416
X004753Y0059765
X0057962Y0077302
X0053087Y0089036
Y0092996
X005685Y0106501
X00575Y01635
X0056Y01655
X0059
X00575Y01675
X00585Y01915
X0057Y01935
X00585Y01955
X0029Y02135
X0027Y0215
Y0212
X0025Y02135
X0023Y0215
Y0212
X00245Y01755
Y01725
Y01695
Y01665
Y01635
Y01605
Y01575
Y01545
Y01515
X00265Y0153
Y0156
Y0159
Y0162
Y0165
Y0168
Y0171
Y0174
X00285Y01725
Y01695
Y01665
Y01635
Y01605
Y01575
Y01545
Y01515
X00265Y015
X00225
Y0153
Y0156
Y0159
Y0162
Y0165
Y0168
Y0171
Y0174
X00285Y01755
X0043396Y0151934
X00605Y01635
X00635
X00665
X0065Y01655
X0068
X00665Y01675
X00635
X00605
X0062Y01655
X0078691Y0166993
X00855Y0173
Y0176
X00875Y01775
Y01745
Y01715
X00895Y0173
Y0176
X00915Y01775
Y01745
Y01715
X01015
Y01685
Y01655
Y01625
Y01595
X01035Y0161
Y0164
Y0167
Y017
Y0173
X01055Y01715
Y01685
Y01655
Y01625
Y01595
X01035Y0158
X01075
Y0161
Y0164
Y0167
Y017
Y0173
X0109Y01875
X0106
X0103
X01045Y01895
X01075
X01105
X01135
X01165
X01195
X01225
X01255
X0124Y01915
X0121
X0118
X0115
X0112
X0109
X0106
X0103
X01045Y01935
X01075
X01105
X01135
X01165
X01195
X01225
X01255
X0127Y01915
Y01875
X0124
X0121
X0118
X0115
X0112
X01015Y01895
Y01935
X0089Y01945
X0086
X0083
X008
X00815Y01925
X00785
X008Y01905
X0083
X0086
X0089
X00875Y01885
X00845
X00815
X00785
X008Y01865
X0083
X0086
X0089
X00875Y01925
X00845
Y01965
X00875
X00815
X00785
X0077Y01905
Y01865
X00705Y01915
X00675
X00645
X00615
X006Y01935
X0063
X0066
X0069
X00675Y01955
X00705
X00645
X00615
X00875Y02135
X00855Y0156
X0083011Y0119511
X0081511Y0117511
Y0115011
X0079011
Y0112511
X0078936Y0109008
X0085878Y0109071
X0090002Y0109094
X0096047Y0110041
X009562Y011274
X009557Y011543
X0098502Y0116445
X0105055Y0114011
X0105639Y0102044
X0096239Y0106028
X0090412Y0094458
X0095941Y0087817
X0095983Y0084292
X009797Y0080724
X008575Y0079655
X0085548Y0082503
X0077124Y0080593
X0076349Y006451
X0085429Y0064488
X0062Y0077
X0067704Y00947
X0072Y0108
X00695Y01125
X0076011Y0115011
X0084511Y0117511
X0114996Y0118643
X01182Y01134
X0131269Y0113264
X013129Y0103808
X0154025Y0105056
X0158Y01049
X0162Y01045
X0161906Y0094621
X016688Y0093852
X0169Y0098
X01767Y01123
X01815Y01098
X01619Y01325
X01672Y0139
X0164472Y0146393
X01705Y01506
X0168038Y0159596
X0177973Y0158954
X0188Y01604
X0185535Y0150601
X015394Y0157052
X0136316Y0161069
X0136165Y0172411
X013999Y0171002
X014Y01905
X0143
X0146
X0149
X0152
X01505Y01925
X01475
X01445
X01415
X01385
X014Y01945
X0143
X0146
X0149
X0152
X01505Y01965
X01475
X01445
X01415
X01385
X0164942Y020719
X0190448Y0207148
X0147813Y012778
X0143244Y012176
X0138591Y0121782
X0111908Y0125965
X011585Y01302
X0119784Y0135017
X0115067Y0094479
X0126032Y0066217
X0137413Y006244
X0137367Y007035
X0148724Y006624
X0162998Y0233423
X0167Y02338
X0171009Y0233402
X017855Y0239277
X0184731Y0254504
X0184625Y0270514
X01751Y02631
X0166Y0262
Y0259
Y0256
Y0253
X0164Y02515
Y02545
X0161
X0158
X0155
X01535Y02525
X01565
X0155Y02505
X01535Y02565
X01565
X01595
X0164Y02575
Y02605
X0167193Y0270482
X01665Y0279842
X01625Y02795
X01466Y0265
X0125Y02435
X0122
X0119
X0116
X0113
X011
X0107
X0104
X0101
X0098
X0095
X00965Y02415
X00995
X01025
X01055
X01085
X01115
X01145
X01175
X01205
X01235
X01265
X0125Y02395
X0122
X0119
X0116
X0113
X011
X0107
X0104
X0101
X0098
X0095
X00965Y02375
X00995
X01025
X01055
X01085
X01115
X01145
X01175
X01205
X01235
X01265
X0094573Y0216504
X0080538Y0218192
X0078466Y0220243
X0078422Y0226117
X0080517Y022819
X0061Y02285
Y02255
Y02225
Y02195
Y02315
Y02345
Y02375
Y02405
Y02435
X0067721Y0252992
X0064495Y0261793
X00525Y0263
Y026
Y0257
Y0254
Y0251
Y0248
Y0245
X00505Y02435
Y02465
Y02495
Y02525
Y02555
Y02585
Y02615
Y02645
Y02675
X00485Y0269
Y0266
Y0263
Y026
Y0257
Y0254
Y0251
Y0248
Y0245
X00465Y02435
Y02465
Y02495
Y02525
Y02555
Y02585
Y02615
Y02645
Y02675
X00525Y0269
Y0266
X0029Y02645
Y02615
Y02585
Y02555
Y02525
Y02495
Y02465
Y02435
Y02405
Y02375
Y02345
Y02315
Y02285
Y02255
Y02225
Y02195
Y02165
X0027Y0218
Y0221
Y0224
Y0227
Y023
Y0233
Y0236
Y0239
Y0242
Y0245
Y0248
Y0251
Y0254
Y0257
Y026
Y0263
X0025Y02615
Y02585
Y02555
Y02525
Y02495
Y02465
Y02435
Y02405
Y02375
Y02345
Y02315
Y02285
Y02255
Y02225
Y02195
Y02165
X0023Y0218
Y0221
Y0224
Y0227
Y023
Y0233
Y0236
Y0239
Y0242
Y0245
Y0248
Y0251
Y0254
Y0257
Y026
Y0263
X0025Y02645
X0044643Y0237479
X0044089Y0232571
X0055Y0233
Y0236
Y0239
Y0242
X0057Y02405
Y02375
Y02345
Y02315
Y02285
Y02255
Y02225
Y02195
X0059Y0218
Y0221
Y0224
Y0227
Y023
Y0233
Y0236
Y0239
Y0242
X0057Y02435
X0055Y023
Y0227
Y0224
Y0221
Y0218
T03
X0134Y00065
X0144
X0154
X0164
T04
X006811Y02895
X0081889
X0121331
X013511
X014889
X0162669
T05
X0044401Y0080622
Y0103378
M30
