G04 Layer_Color=8421504*
%FSLAX25Y25*%
%MOIN*%
G70*
G01*
G75*
%ADD10R,0.02362X0.06299*%
%ADD11R,0.02362X0.02362*%
%ADD12R,0.01102X0.03150*%
%ADD13R,0.03150X0.01102*%
%ADD14C,0.03937*%
%ADD15R,0.07874X0.04724*%
%ADD16R,0.02362X0.02362*%
%ADD17R,0.02756X0.04921*%
%ADD18R,0.08661X0.09843*%
%ADD19R,0.09843X0.09252*%
%ADD20R,0.08661X0.03150*%
%ADD21R,0.07874X0.07874*%
%ADD22R,0.07480X0.04724*%
%ADD23R,0.06299X0.03150*%
%ADD24R,0.11811X0.08268*%
%ADD25R,0.02756X0.05118*%
%ADD26R,0.04528X0.02362*%
%ADD27R,0.04724X0.01181*%
%ADD28R,0.02362X0.04331*%
%ADD29R,0.04331X0.02362*%
%ADD33R,0.02362X0.01969*%
%ADD34R,0.01969X0.02362*%
%ADD35R,0.13780X0.06299*%
%ADD36R,0.04724X0.05512*%
%ADD37R,0.05000X0.05000*%
%ADD38R,0.03150X0.03543*%
%ADD39R,0.03543X0.07874*%
%ADD40R,0.05118X0.05118*%
%ADD41R,0.07874X0.03543*%
%ADD42R,0.03301X0.01240*%
%ADD43R,0.07874X0.07874*%
%ADD44R,0.03543X0.03150*%
%ADD45R,0.02095X0.03150*%
%ADD46R,0.01654X0.02598*%
%ADD47R,0.05000X0.05000*%
%ADD48R,0.13780X0.11811*%
G36*
X50449Y78221D02*
X45724D01*
Y80584D01*
X50449D01*
Y78221D01*
D02*
G37*
G36*
Y81370D02*
X45724D01*
Y83732D01*
X50449D01*
Y81370D01*
D02*
G37*
G36*
Y84520D02*
X45724D01*
Y85701D01*
X50449D01*
Y84520D01*
D02*
G37*
G36*
X49929Y77218D02*
X50711Y76696D01*
X51233Y75914D01*
X51416Y74992D01*
X51233Y74071D01*
X50711Y73289D01*
X49929Y72767D01*
X49008Y72584D01*
Y72630D01*
X43889Y72584D01*
X42968Y72767D01*
X42186Y73289D01*
X41664Y74071D01*
X41481Y74992D01*
X41664Y75914D01*
X42186Y76696D01*
X42968Y77218D01*
X43889Y77401D01*
Y77355D01*
X49008Y77401D01*
X49929Y77218D01*
D02*
G37*
G36*
X47976Y49732D02*
X46992D01*
Y52685D01*
X47976D01*
Y49732D01*
D02*
G37*
G36*
X49944D02*
X48960D01*
Y52685D01*
X49944D01*
Y49732D01*
D02*
G37*
G36*
X32410Y77218D02*
X33192Y76696D01*
X33714Y75914D01*
X33897Y74992D01*
X33714Y74071D01*
X33192Y73289D01*
X32410Y72767D01*
X31489Y72584D01*
Y72630D01*
X28339Y72584D01*
X27417Y72767D01*
X26636Y73289D01*
X26114Y74071D01*
X25931Y74992D01*
X26114Y75914D01*
X26636Y76696D01*
X27417Y77218D01*
X28339Y77401D01*
Y77355D01*
X31489Y77401D01*
X32410Y77218D01*
D02*
G37*
G36*
X50449Y86489D02*
X45724D01*
Y87670D01*
X50449D01*
Y86489D01*
D02*
G37*
G36*
Y96331D02*
X45724D01*
Y97512D01*
X50449D01*
Y96331D01*
D02*
G37*
G36*
Y98300D02*
X45724D01*
Y99481D01*
X50449D01*
Y98300D01*
D02*
G37*
G36*
Y100268D02*
X45724D01*
Y102630D01*
X50449D01*
Y100268D01*
D02*
G37*
G36*
Y94363D02*
X45724D01*
Y95544D01*
X50449D01*
Y94363D01*
D02*
G37*
G36*
Y88457D02*
X45724D01*
Y89638D01*
X50449D01*
Y88457D01*
D02*
G37*
G36*
Y90426D02*
X45724D01*
Y91607D01*
X50449D01*
Y90426D01*
D02*
G37*
G36*
Y92394D02*
X45724D01*
Y93575D01*
X50449D01*
Y92394D01*
D02*
G37*
G36*
X42267Y42058D02*
X39314D01*
Y43043D01*
X42267D01*
Y42058D01*
D02*
G37*
G36*
X53684Y42061D02*
X50731D01*
Y43046D01*
X53684D01*
Y42061D01*
D02*
G37*
G36*
X49177Y42824D02*
X43822D01*
Y48178D01*
X49177D01*
Y42824D01*
D02*
G37*
G36*
X49944Y38315D02*
X48960D01*
Y41268D01*
X49944D01*
Y38315D01*
D02*
G37*
G36*
X44039D02*
X43055D01*
Y41268D01*
X44039D01*
Y38315D01*
D02*
G37*
G36*
X46007D02*
X45023D01*
Y41268D01*
X46007D01*
Y38315D01*
D02*
G37*
G36*
X47976D02*
X46992D01*
Y41268D01*
X47976D01*
Y38315D01*
D02*
G37*
G36*
X42267Y44026D02*
X39314D01*
Y45011D01*
X42267D01*
Y44026D01*
D02*
G37*
G36*
X53684Y47966D02*
X50731D01*
Y48951D01*
X53684D01*
Y47966D01*
D02*
G37*
G36*
X44039Y49732D02*
X43055D01*
Y52685D01*
X44039D01*
Y49732D01*
D02*
G37*
G36*
X46007D02*
X45023D01*
Y52685D01*
X46007D01*
Y49732D01*
D02*
G37*
G36*
X42267Y47963D02*
X39314D01*
Y48948D01*
X42267D01*
Y47963D01*
D02*
G37*
G36*
X53684Y44029D02*
X50731D01*
Y45014D01*
X53684D01*
Y44029D01*
D02*
G37*
G36*
X42267Y45995D02*
X39314D01*
Y46980D01*
X42267D01*
Y45995D01*
D02*
G37*
G36*
X53684Y45998D02*
X50731D01*
Y46983D01*
X53684D01*
Y45998D01*
D02*
G37*
G36*
X50449Y103418D02*
X45724D01*
Y105780D01*
X50449D01*
Y103418D01*
D02*
G37*
G36*
X172508Y256894D02*
X168768D01*
Y258075D01*
X172508D01*
Y256894D01*
D02*
G37*
G36*
Y258863D02*
X168768D01*
Y260044D01*
X172508D01*
Y258863D01*
D02*
G37*
G36*
X161680Y259058D02*
X151050D01*
Y259335D01*
X148492D01*
Y260516D01*
X151050D01*
Y261894D01*
X148492D01*
Y263075D01*
X151050D01*
Y263389D01*
X161680D01*
Y259058D01*
D02*
G37*
G36*
X83665Y264834D02*
X85890D01*
Y262591D01*
X83665D01*
Y256626D01*
X82012D01*
Y258476D01*
X81106D01*
Y256626D01*
X79453D01*
Y258476D01*
X78547D01*
Y256626D01*
X76894D01*
Y258476D01*
X75988D01*
Y256626D01*
X74335D01*
Y262591D01*
X72189D01*
Y264834D01*
X74335D01*
Y265543D01*
X83665D01*
Y264834D01*
D02*
G37*
G36*
X172508Y250989D02*
X168768D01*
Y252170D01*
X172508D01*
Y250989D01*
D02*
G37*
G36*
Y252957D02*
X168768D01*
Y254138D01*
X172508D01*
Y252957D01*
D02*
G37*
G36*
Y254926D02*
X168768D01*
Y256107D01*
X172508D01*
Y254926D01*
D02*
G37*
G36*
Y260831D02*
X168768D01*
Y262012D01*
X172508D01*
Y260831D01*
D02*
G37*
G36*
X162665Y264767D02*
X161484D01*
Y268508D01*
X162665D01*
Y264767D01*
D02*
G37*
G36*
X165225D02*
X164043D01*
Y268508D01*
X165225D01*
Y264767D01*
D02*
G37*
G36*
X167783Y264768D02*
X166602D01*
Y268508D01*
X167783D01*
Y264768D01*
D02*
G37*
G36*
X160107Y264767D02*
X158925D01*
Y268508D01*
X160107D01*
Y264767D01*
D02*
G37*
G36*
X172508Y262800D02*
X168768D01*
Y263981D01*
X172508D01*
Y262800D01*
D02*
G37*
G36*
X154200Y264767D02*
X153019D01*
Y268508D01*
X154200D01*
Y264767D01*
D02*
G37*
G36*
X156169D02*
X154988D01*
Y268508D01*
X156169D01*
Y264767D01*
D02*
G37*
G36*
X153611Y244492D02*
X152429D01*
Y248233D01*
X153611D01*
Y244492D01*
D02*
G37*
G36*
X155578D02*
X154397D01*
Y248233D01*
X155578D01*
Y244492D01*
D02*
G37*
G36*
X157547D02*
X156366D01*
Y248233D01*
X157547D01*
Y244492D01*
D02*
G37*
G36*
X68618Y219886D02*
X70764D01*
Y217642D01*
X68618D01*
Y216933D01*
X59288D01*
Y217642D01*
X57063D01*
Y219886D01*
X59288D01*
Y225850D01*
X60941D01*
Y224000D01*
X61847D01*
Y225850D01*
X63500D01*
Y224000D01*
X64406D01*
Y225850D01*
X66059D01*
Y224000D01*
X66965D01*
Y225850D01*
X68618D01*
Y219886D01*
D02*
G37*
G36*
X32410Y111233D02*
X33192Y110711D01*
X33714Y109930D01*
X33897Y109008D01*
X33714Y108087D01*
X33192Y107305D01*
X32410Y106783D01*
X31489Y106600D01*
Y106646D01*
X28339Y106600D01*
X27417Y106783D01*
X26636Y107305D01*
X26114Y108087D01*
X25931Y109008D01*
X26114Y109930D01*
X26636Y110711D01*
X27417Y111233D01*
X28339Y111417D01*
Y111371D01*
X31489Y111417D01*
X32410Y111233D01*
D02*
G37*
G36*
X49929D02*
X50711Y110711D01*
X51233Y109930D01*
X51416Y109008D01*
X51233Y108087D01*
X50711Y107305D01*
X49929Y106783D01*
X49008Y106600D01*
Y106646D01*
X43889Y106600D01*
X42968Y106783D01*
X42186Y107305D01*
X41664Y108087D01*
X41481Y109008D01*
X41664Y109930D01*
X42186Y110711D01*
X42968Y111233D01*
X43889Y111417D01*
Y111371D01*
X49008Y111417D01*
X49929Y111233D01*
D02*
G37*
G36*
X92682Y175893D02*
X97186D01*
Y174948D01*
X94351D01*
Y173689D01*
X97186D01*
Y172744D01*
X92682D01*
Y170318D01*
X84682D01*
Y172744D01*
X80178D01*
Y173689D01*
X83013D01*
Y174948D01*
X80178D01*
Y175893D01*
X84682D01*
Y178319D01*
X92682D01*
Y175893D01*
D02*
G37*
G36*
X162074Y244492D02*
X160893D01*
Y248233D01*
X162074D01*
Y244492D01*
D02*
G37*
G36*
X172508Y249020D02*
X168768D01*
Y250201D01*
X172508D01*
Y249020D01*
D02*
G37*
G36*
X161681Y257957D02*
Y252012D01*
X158335D01*
X157902Y251579D01*
Y249729D01*
X151051D01*
Y250949D01*
X148492D01*
Y252130D01*
X151051D01*
Y252918D01*
X148492D01*
Y254099D01*
X151051D01*
Y254886D01*
X148492D01*
Y256067D01*
X151051D01*
Y257996D01*
X161681Y257957D01*
D02*
G37*
G36*
X167193Y249807D02*
X162863D01*
Y263193D01*
X167193D01*
Y249807D01*
D02*
G37*
G36*
X160106Y244492D02*
X158925D01*
Y250004D01*
X160106D01*
Y244492D01*
D02*
G37*
G36*
X164043Y244492D02*
X162862D01*
Y248233D01*
X164043D01*
Y244492D01*
D02*
G37*
G36*
X166012D02*
X164830D01*
Y248233D01*
X166012D01*
Y244492D01*
D02*
G37*
G36*
X167981D02*
X166799D01*
Y248233D01*
X167981D01*
Y244492D01*
D02*
G37*
D10*
X170500Y124000D02*
D03*
X175500D02*
D03*
X180500D02*
D03*
X185500D02*
D03*
X170500Y146000D02*
D03*
X175500D02*
D03*
X180500D02*
D03*
X185500D02*
D03*
D11*
X102469Y110000D02*
D03*
X98532D02*
D03*
X102469Y114000D02*
D03*
X98532D02*
D03*
X75968Y112500D02*
D03*
X72031D02*
D03*
X133531Y183500D02*
D03*
X137469D02*
D03*
X115855Y132500D02*
D03*
X119792D02*
D03*
X102469Y106000D02*
D03*
X98532D02*
D03*
X72031Y105500D02*
D03*
X75968D02*
D03*
X72031Y175000D02*
D03*
X75968D02*
D03*
X75968Y179000D02*
D03*
X72031D02*
D03*
X72031Y171000D02*
D03*
X75968D02*
D03*
X61968Y99000D02*
D03*
X58031D02*
D03*
X61968Y84500D02*
D03*
X58031D02*
D03*
X35969Y43000D02*
D03*
X32032D02*
D03*
X35969Y39000D02*
D03*
X32032D02*
D03*
X79031Y82500D02*
D03*
X82968D02*
D03*
X79031Y59500D02*
D03*
X82968D02*
D03*
X58031Y50000D02*
D03*
X61968D02*
D03*
X75968Y167000D02*
D03*
X72031D02*
D03*
X61968Y80500D02*
D03*
X58031D02*
D03*
X79031Y64500D02*
D03*
X82968D02*
D03*
X51468Y57000D02*
D03*
X47532D02*
D03*
X32032Y50500D02*
D03*
X35969D02*
D03*
X61968Y42000D02*
D03*
X58031D02*
D03*
X61968Y46000D02*
D03*
X58031D02*
D03*
X58031Y54000D02*
D03*
X61968D02*
D03*
X61032Y253000D02*
D03*
X64969D02*
D03*
X89531Y162500D02*
D03*
X93468D02*
D03*
X182468Y270500D02*
D03*
X178532D02*
D03*
X182468Y262500D02*
D03*
X178532D02*
D03*
X182468Y258500D02*
D03*
X178532D02*
D03*
X182468Y242500D02*
D03*
X178532D02*
D03*
X182468Y246500D02*
D03*
X178532D02*
D03*
X178532Y254500D02*
D03*
X182468D02*
D03*
X182468Y266500D02*
D03*
X178532D02*
D03*
X182468Y250500D02*
D03*
X178532D02*
D03*
D12*
X84745Y167527D02*
D03*
X86713D02*
D03*
X88682D02*
D03*
X90650D02*
D03*
X92619D02*
D03*
X84745Y181109D02*
D03*
X86713D02*
D03*
X88682D02*
D03*
X90650D02*
D03*
X92619D02*
D03*
D13*
X95473Y177271D02*
D03*
Y171365D02*
D03*
X81891Y177271D02*
D03*
Y171365D02*
D03*
D14*
X88682Y174318D02*
D03*
D15*
X153720Y117158D02*
D03*
X131280Y136842D02*
D03*
Y127000D02*
D03*
Y117158D02*
D03*
X153720Y136842D02*
D03*
X153719Y127000D02*
D03*
D16*
X63500Y178969D02*
D03*
Y175031D02*
D03*
X143000Y157032D02*
D03*
Y160968D02*
D03*
X151000Y160968D02*
D03*
Y157032D02*
D03*
X149500Y170031D02*
D03*
Y173969D02*
D03*
X185500Y116469D02*
D03*
Y112531D02*
D03*
X67500Y178969D02*
D03*
Y175031D02*
D03*
X164500Y139032D02*
D03*
Y142968D02*
D03*
X131000Y173969D02*
D03*
Y170031D02*
D03*
X100500Y178469D02*
D03*
Y174531D02*
D03*
X87453Y216508D02*
D03*
Y220445D02*
D03*
X81500Y162469D02*
D03*
Y158531D02*
D03*
X181500Y116469D02*
D03*
Y112531D02*
D03*
X111000Y13468D02*
D03*
Y9532D02*
D03*
X164500Y128532D02*
D03*
Y132468D02*
D03*
X99000Y13468D02*
D03*
Y9532D02*
D03*
X56850Y89000D02*
D03*
X63150D02*
D03*
X56850Y94700D02*
D03*
X63150D02*
D03*
X56850Y103500D02*
D03*
X63150D02*
D03*
X77500Y158531D02*
D03*
Y162469D02*
D03*
X139000Y157032D02*
D03*
Y160968D02*
D03*
X147000Y157032D02*
D03*
Y160968D02*
D03*
X154000Y98032D02*
D03*
Y101969D02*
D03*
X95000Y9532D02*
D03*
Y13468D02*
D03*
X162000Y101969D02*
D03*
Y98032D02*
D03*
X166000Y101969D02*
D03*
Y98032D02*
D03*
X78500Y39968D02*
D03*
Y36031D02*
D03*
X103000Y13468D02*
D03*
Y9532D02*
D03*
X158000Y98032D02*
D03*
Y101969D02*
D03*
X91953Y220445D02*
D03*
Y216508D02*
D03*
X85500Y162469D02*
D03*
Y158531D02*
D03*
X55500Y261531D02*
D03*
Y265469D02*
D03*
X83500Y36031D02*
D03*
Y39968D02*
D03*
X164500Y120031D02*
D03*
Y123969D02*
D03*
X167000Y239968D02*
D03*
Y236032D02*
D03*
X171000Y239968D02*
D03*
Y236032D02*
D03*
X163000Y236032D02*
D03*
Y239968D02*
D03*
X167500Y226969D02*
D03*
Y223031D02*
D03*
X91953Y211945D02*
D03*
Y208008D02*
D03*
X163000Y223031D02*
D03*
Y226969D02*
D03*
Y213531D02*
D03*
Y217469D02*
D03*
X139500Y255532D02*
D03*
Y259469D02*
D03*
X143500Y255532D02*
D03*
Y259469D02*
D03*
X162500Y273532D02*
D03*
Y277468D02*
D03*
X158500Y273532D02*
D03*
Y277468D02*
D03*
X154500Y273532D02*
D03*
Y277468D02*
D03*
X166500Y277468D02*
D03*
Y273532D02*
D03*
D17*
X173000Y116437D02*
D03*
X176740Y108563D02*
D03*
X169260D02*
D03*
X181740Y162937D02*
D03*
X174260D02*
D03*
X178000Y155063D02*
D03*
X125740Y109437D02*
D03*
X118260D02*
D03*
X122000Y101563D02*
D03*
D18*
X97465Y144000D02*
D03*
X80536D02*
D03*
D19*
X28382Y198563D02*
D03*
Y271437D02*
D03*
D20*
X38618Y227618D02*
D03*
Y232540D02*
D03*
Y237461D02*
D03*
Y242382D02*
D03*
Y247304D02*
D03*
Y252225D02*
D03*
Y262067D02*
D03*
Y257146D02*
D03*
Y222697D02*
D03*
Y217776D02*
D03*
Y212854D02*
D03*
Y207933D02*
D03*
D21*
X91161Y238000D02*
D03*
X73839D02*
D03*
X169339Y178500D02*
D03*
X186661D02*
D03*
D22*
X70000Y147701D02*
D03*
Y160299D02*
D03*
X59500Y147701D02*
D03*
Y160299D02*
D03*
X99000Y251701D02*
D03*
Y264299D02*
D03*
X109500Y251701D02*
D03*
Y264299D02*
D03*
X120500Y251701D02*
D03*
Y264299D02*
D03*
X131500Y251701D02*
D03*
Y264299D02*
D03*
D23*
X38709Y171685D02*
D03*
Y166764D02*
D03*
Y161843D02*
D03*
Y156921D02*
D03*
Y152000D02*
D03*
Y147079D02*
D03*
Y142157D02*
D03*
Y137236D02*
D03*
Y132315D02*
D03*
D24*
X27291Y122276D02*
D03*
Y181724D02*
D03*
D25*
X72768Y7642D02*
D03*
Y25359D02*
D03*
X81232Y7642D02*
D03*
Y25359D02*
D03*
X47267Y7642D02*
D03*
Y25359D02*
D03*
X55732Y7642D02*
D03*
Y25359D02*
D03*
D26*
X48165Y104599D02*
D03*
Y101449D02*
D03*
Y79402D02*
D03*
Y82552D02*
D03*
D27*
X48087Y85111D02*
D03*
Y87079D02*
D03*
Y89048D02*
D03*
Y91016D02*
D03*
Y92985D02*
D03*
Y94953D02*
D03*
Y96922D02*
D03*
Y98890D02*
D03*
D28*
X136260Y176724D02*
D03*
X140000D02*
D03*
X143740D02*
D03*
Y167276D02*
D03*
X140000D02*
D03*
X136260D02*
D03*
X33500Y31929D02*
D03*
X37240Y23071D02*
D03*
X29760D02*
D03*
X33500Y65929D02*
D03*
X37240Y57071D02*
D03*
X29760D02*
D03*
D29*
X76276Y69760D02*
D03*
X85724Y69760D02*
D03*
Y73500D02*
D03*
Y77240D02*
D03*
X76276D02*
D03*
Y46760D02*
D03*
X85724Y46760D02*
D03*
Y50500D02*
D03*
Y54240D02*
D03*
X76276D02*
D03*
X91724Y105260D02*
D03*
X82276D02*
D03*
Y109000D02*
D03*
Y112740D02*
D03*
X91724Y112740D02*
D03*
D33*
X98335Y102000D02*
D03*
X102665D02*
D03*
D34*
X59459Y174819D02*
D03*
Y179149D02*
D03*
X107000Y9335D02*
D03*
Y13665D02*
D03*
D35*
X120000Y165701D02*
D03*
Y178299D02*
D03*
D36*
X82693Y121500D02*
D03*
X69307D02*
D03*
X89307D02*
D03*
X102693D02*
D03*
D37*
X70031Y188500D02*
D03*
X78969D02*
D03*
X95969D02*
D03*
X87032D02*
D03*
X88968Y248500D02*
D03*
X80032D02*
D03*
X131032Y190000D02*
D03*
X139969D02*
D03*
D38*
X117256Y152500D02*
D03*
X111744D02*
D03*
X117256Y158000D02*
D03*
X111744D02*
D03*
X175244Y169000D02*
D03*
X180756D02*
D03*
D39*
X166905Y88532D02*
D03*
X161906D02*
D03*
X156905D02*
D03*
X151906D02*
D03*
X146906D02*
D03*
X141905D02*
D03*
X136906D02*
D03*
X131905D02*
D03*
X126906D02*
D03*
X121906D02*
D03*
X116905D02*
D03*
X111906D02*
D03*
X106905D02*
D03*
X101906D02*
D03*
Y21602D02*
D03*
X106905D02*
D03*
X111906D02*
D03*
X116905D02*
D03*
X121906D02*
D03*
X126906D02*
D03*
X131905D02*
D03*
X136906D02*
D03*
X166905D02*
D03*
X161906D02*
D03*
X156905D02*
D03*
X151906D02*
D03*
X146906D02*
D03*
X141905D02*
D03*
D40*
X144602Y51780D02*
D03*
Y59004D02*
D03*
X137378D02*
D03*
X130154D02*
D03*
Y66228D02*
D03*
X137378D02*
D03*
X144602D02*
D03*
X137378Y51780D02*
D03*
X130154D02*
D03*
D41*
X97969Y37567D02*
D03*
Y42567D02*
D03*
Y47567D02*
D03*
Y52567D02*
D03*
Y57567D02*
D03*
Y62567D02*
D03*
Y67567D02*
D03*
Y72567D02*
D03*
Y77567D02*
D03*
Y32567D02*
D03*
D42*
X121648Y126059D02*
D03*
Y120941D02*
D03*
X115000D02*
D03*
Y123500D02*
D03*
Y126059D02*
D03*
D43*
X184500Y189839D02*
D03*
Y207161D02*
D03*
X171500Y189839D02*
D03*
Y207161D02*
D03*
D44*
X188000Y168756D02*
D03*
Y163244D02*
D03*
X168000Y163244D02*
D03*
Y168756D02*
D03*
D45*
X82193Y213751D02*
D03*
X78453D02*
D03*
X74713D02*
D03*
Y223200D02*
D03*
X78453D02*
D03*
X82193D02*
D03*
X60760Y268225D02*
D03*
X64500D02*
D03*
X68240D02*
D03*
Y258776D02*
D03*
X64500D02*
D03*
X60760D02*
D03*
D46*
X63953Y220850D02*
D03*
X67792Y212976D02*
D03*
X65232D02*
D03*
X62674D02*
D03*
X60114D02*
D03*
X79000Y261626D02*
D03*
X75161Y269500D02*
D03*
X77721D02*
D03*
X80279D02*
D03*
X82839D02*
D03*
D47*
X120500Y207469D02*
D03*
Y198531D02*
D03*
X113000Y207469D02*
D03*
Y198531D02*
D03*
X105500Y215531D02*
D03*
Y224468D02*
D03*
X113000Y215531D02*
D03*
Y224468D02*
D03*
X120500Y215531D02*
D03*
Y224468D02*
D03*
X105500Y207469D02*
D03*
Y198531D02*
D03*
D48*
X142500Y235279D02*
D03*
Y207721D02*
D03*
M02*
