G04 Layer_Physical_Order=4*
G04 Layer_Color=16711680*
%FSLAX25Y25*%
%MOIN*%
G70*
G01*
G75*
%ADD55C,0.00500*%
%ADD56C,0.02000*%
%ADD58C,0.03000*%
%ADD59C,0.00600*%
%ADD60C,0.00831*%
%ADD63C,0.09449*%
%ADD64C,0.02362*%
%ADD65O,0.09843X0.04724*%
%ADD66O,0.07874X0.04724*%
%ADD67C,0.05906*%
%ADD68R,0.05906X0.05906*%
%ADD69C,0.01772*%
G36*
X64893Y49085D02*
X64804Y49083D01*
X64719Y49075D01*
X64637Y49061D01*
X64558Y49040D01*
X64482Y49014D01*
X64410Y48982D01*
X64340Y48944D01*
X64273Y48900D01*
X64209Y48850D01*
X64148Y48793D01*
X63724Y49218D01*
X63780Y49278D01*
X63831Y49342D01*
X63875Y49409D01*
X63913Y49479D01*
X63945Y49552D01*
X63971Y49628D01*
X63991Y49707D01*
X64005Y49789D01*
X64013Y49874D01*
X64016Y49962D01*
X64893Y49085D01*
D02*
G37*
G36*
X62537Y55861D02*
X62483Y55795D01*
X62435Y55727D01*
X62393Y55657D01*
X62358Y55584D01*
X62329Y55510D01*
X62307Y55434D01*
X62291Y55355D01*
X62281Y55275D01*
X62278Y55192D01*
X61678D01*
X61675Y55275D01*
X61665Y55355D01*
X61649Y55434D01*
X61627Y55510D01*
X61598Y55584D01*
X61563Y55657D01*
X61521Y55727D01*
X61473Y55795D01*
X61418Y55861D01*
X61358Y55924D01*
X62598D01*
X62537Y55861D01*
D02*
G37*
G36*
X62281Y5363D02*
X62291Y5282D01*
X62307Y5204D01*
X62329Y5128D01*
X62358Y5054D01*
X62394Y4982D01*
X62436Y4912D01*
X62484Y4845D01*
X62539Y4780D01*
X62601Y4717D01*
X61361Y4703D01*
X61421Y4768D01*
X61475Y4834D01*
X61522Y4903D01*
X61564Y4973D01*
X61598Y5046D01*
X61627Y5121D01*
X61649Y5197D01*
X61665Y5276D01*
X61675Y5356D01*
X61678Y5439D01*
X62278Y5446D01*
X62281Y5363D01*
D02*
G37*
G36*
X109609Y293491D02*
X115969D01*
X116183Y293039D01*
X116130Y292975D01*
X115552Y291894D01*
X115196Y290720D01*
X115076Y289500D01*
X115196Y288280D01*
X115552Y287106D01*
X116130Y286025D01*
X116908Y285077D01*
X117856Y284300D01*
X118937Y283722D01*
X120110Y283366D01*
X121331Y283245D01*
X122551Y283366D01*
X123724Y283722D01*
X124805Y284300D01*
X125753Y285077D01*
X126531Y286025D01*
X127109Y287106D01*
X127465Y288280D01*
X127585Y289500D01*
X127465Y290720D01*
X127109Y291894D01*
X126531Y292975D01*
X126478Y293039D01*
X126692Y293491D01*
X129053D01*
X129300Y293078D01*
Y294000D01*
X129400Y294100D01*
X138700D01*
X140000Y292800D01*
Y290500D01*
X141769D01*
X141737Y290818D01*
X141353Y292086D01*
X140869Y292991D01*
X141167Y293491D01*
X143528D01*
X143742Y293039D01*
X143689Y292975D01*
X143111Y291894D01*
X142755Y290720D01*
X142635Y289500D01*
X142755Y288280D01*
X143111Y287106D01*
X143689Y286025D01*
X144467Y285077D01*
X145415Y284300D01*
X146496Y283722D01*
X147670Y283366D01*
X148890Y283245D01*
X150110Y283366D01*
X151283Y283722D01*
X152365Y284300D01*
X153312Y285077D01*
X154090Y286025D01*
X154668Y287106D01*
X155024Y288280D01*
X155144Y289500D01*
X155024Y290720D01*
X154668Y291894D01*
X154090Y292975D01*
X154037Y293039D01*
X154251Y293491D01*
X157308D01*
X157522Y293039D01*
X157469Y292975D01*
X156891Y291894D01*
X156535Y290720D01*
X156415Y289500D01*
X156535Y288280D01*
X156891Y287106D01*
X157469Y286025D01*
X158247Y285077D01*
X159195Y284300D01*
X160276Y283722D01*
X161449Y283366D01*
X162669Y283245D01*
X163890Y283366D01*
X165063Y283722D01*
X166144Y284300D01*
X167092Y285077D01*
X167870Y286025D01*
X168448Y287106D01*
X168804Y288280D01*
X168924Y289500D01*
X168804Y290720D01*
X168448Y291894D01*
X167870Y292975D01*
X167817Y293039D01*
X168031Y293491D01*
X180876D01*
X181089Y293039D01*
X180894Y292802D01*
X179996Y291121D01*
X179443Y289298D01*
X179256Y287402D01*
X179443Y285505D01*
X179996Y283682D01*
X180894Y282001D01*
X182103Y280528D01*
X183576Y279320D01*
X185257Y278421D01*
X187080Y277868D01*
X188976Y277681D01*
X190873Y277868D01*
X192696Y278421D01*
X194377Y279320D01*
X194614Y279515D01*
X195066Y279301D01*
Y92284D01*
X171500D01*
X170817Y92149D01*
X170238Y91762D01*
X169852Y91183D01*
X169716Y90500D01*
Y19500D01*
X169852Y18817D01*
X170238Y18238D01*
X170817Y17852D01*
X171500Y17716D01*
X186374D01*
X186449Y17216D01*
X185257Y16854D01*
X183576Y15956D01*
X182103Y14747D01*
X180894Y13274D01*
X179996Y11594D01*
X179443Y9770D01*
X179256Y7874D01*
X179443Y5978D01*
X179996Y4154D01*
X180894Y2474D01*
X181089Y2236D01*
X180876Y1784D01*
X168844D01*
X168453Y2047D01*
X168453Y2284D01*
Y10953D01*
X159547D01*
Y2284D01*
X159547Y2047D01*
X159156Y1784D01*
X155557D01*
X155458Y2284D01*
X156246Y2610D01*
X157176Y3324D01*
X157889Y4254D01*
X158338Y5338D01*
X158491Y6500D01*
X158338Y7662D01*
X157889Y8746D01*
X157176Y9676D01*
X156246Y10390D01*
X155162Y10838D01*
X154000Y10991D01*
X152838Y10838D01*
X151754Y10390D01*
X150824Y9676D01*
X150110Y8746D01*
X149662Y7662D01*
X149509Y6500D01*
X149662Y5338D01*
X150110Y4254D01*
X150824Y3324D01*
X151754Y2610D01*
X152542Y2284D01*
X152443Y1784D01*
X145557D01*
X145458Y2284D01*
X146246Y2610D01*
X147176Y3324D01*
X147889Y4254D01*
X148338Y5338D01*
X148491Y6500D01*
X148338Y7662D01*
X147889Y8746D01*
X147176Y9676D01*
X146246Y10390D01*
X145162Y10838D01*
X144000Y10991D01*
X142838Y10838D01*
X141754Y10390D01*
X140824Y9676D01*
X140111Y8746D01*
X139662Y7662D01*
X139509Y6500D01*
X139662Y5338D01*
X140111Y4254D01*
X140824Y3324D01*
X141754Y2610D01*
X142542Y2284D01*
X142443Y1784D01*
X136811D01*
X136642Y2284D01*
X137532Y2968D01*
X138326Y4002D01*
X138825Y5207D01*
X138864Y5500D01*
X134000D01*
X129136D01*
X129175Y5207D01*
X129674Y4002D01*
X130468Y2968D01*
X131358Y2284D01*
X131188Y1784D01*
X65279D01*
X65229Y2284D01*
X65891Y2416D01*
X66681Y2943D01*
X67208Y3732D01*
X67393Y4663D01*
X67208Y5594D01*
X66681Y6384D01*
X65891Y6911D01*
X65164Y7056D01*
X64913Y7306D01*
Y47387D01*
X65105Y47579D01*
X65832Y47723D01*
X66622Y48251D01*
X67149Y49040D01*
X67334Y49971D01*
X67149Y50902D01*
X66622Y51691D01*
X65832Y52218D01*
X64901Y52403D01*
X64313Y52286D01*
X63813Y52668D01*
Y55009D01*
X64225Y55626D01*
X64410Y56557D01*
X64225Y57488D01*
X63698Y58277D01*
X62909Y58804D01*
X61978Y58990D01*
X61047Y58804D01*
X60258Y58277D01*
X59730Y57488D01*
X59545Y56557D01*
X59730Y55626D01*
X60142Y55009D01*
Y41225D01*
X59642Y41039D01*
X58978Y41484D01*
X58047Y41669D01*
X57116Y41484D01*
X56327Y40956D01*
X55799Y40167D01*
X55614Y39236D01*
X55799Y38305D01*
X56327Y37516D01*
X57116Y36989D01*
X58047Y36803D01*
X58978Y36989D01*
X59642Y37433D01*
X60142Y37247D01*
Y5610D01*
X59740Y5008D01*
X59555Y4077D01*
X59740Y3146D01*
X60268Y2357D01*
X60377Y2284D01*
X60225Y1784D01*
X35660D01*
X35446Y2236D01*
X35641Y2474D01*
X36539Y4154D01*
X37092Y5978D01*
X37279Y7874D01*
X37092Y9770D01*
X36539Y11594D01*
X35641Y13274D01*
X34432Y14747D01*
X32959Y15956D01*
X31279Y16854D01*
X29455Y17407D01*
X27559Y17594D01*
X25663Y17407D01*
X23839Y16854D01*
X22159Y15956D01*
X21921Y15761D01*
X21469Y15975D01*
Y279301D01*
X21921Y279515D01*
X22159Y279320D01*
X23839Y278421D01*
X25663Y277868D01*
X27559Y277681D01*
X29455Y277868D01*
X31279Y278421D01*
X32959Y279320D01*
X34432Y280528D01*
X35641Y282001D01*
X36539Y283682D01*
X37092Y285505D01*
X37279Y287402D01*
X37092Y289298D01*
X36539Y291121D01*
X35641Y292802D01*
X35446Y293039D01*
X35660Y293491D01*
X62749D01*
X62963Y293039D01*
X62910Y292975D01*
X62332Y291894D01*
X61976Y290720D01*
X61856Y289500D01*
X61976Y288280D01*
X62332Y287106D01*
X62910Y286025D01*
X63687Y285077D01*
X64635Y284300D01*
X65716Y283722D01*
X66890Y283366D01*
X68110Y283245D01*
X69330Y283366D01*
X70503Y283722D01*
X71585Y284300D01*
X72533Y285077D01*
X73310Y286025D01*
X73888Y287106D01*
X74244Y288280D01*
X74365Y289500D01*
X74244Y290720D01*
X73888Y291894D01*
X73310Y292975D01*
X73257Y293039D01*
X73471Y293491D01*
X75832D01*
X76131Y292991D01*
X75647Y292086D01*
X75262Y290818D01*
X75231Y290500D01*
X76800D01*
Y293100D01*
X78000Y294300D01*
X108800D01*
X109609Y293491D01*
D02*
G37*
G36*
X64268Y5785D02*
X64332Y5734D01*
X64399Y5690D01*
X64469Y5652D01*
X64542Y5620D01*
X64618Y5594D01*
X64697Y5573D01*
X64779Y5559D01*
X64864Y5551D01*
X64952Y5549D01*
X64075Y4672D01*
X64073Y4760D01*
X64065Y4845D01*
X64051Y4927D01*
X64030Y5006D01*
X64004Y5082D01*
X63972Y5155D01*
X63934Y5225D01*
X63890Y5292D01*
X63840Y5356D01*
X63783Y5416D01*
X64208Y5841D01*
X64268Y5785D01*
D02*
G37*
%LPC*%
G36*
X85548Y84935D02*
X84617Y84750D01*
X83828Y84223D01*
X83301Y83433D01*
X83116Y82503D01*
X83301Y81572D01*
X83828Y80782D01*
X84617Y80255D01*
X85548Y80070D01*
X86479Y80255D01*
X87268Y80782D01*
X87796Y81572D01*
X87981Y82503D01*
X87796Y83433D01*
X87268Y84223D01*
X86479Y84750D01*
X85548Y84935D01*
D02*
G37*
G36*
X161906Y97054D02*
X160975Y96868D01*
X160185Y96341D01*
X159658Y95552D01*
X159473Y94621D01*
X159658Y93690D01*
X160185Y92901D01*
X160975Y92374D01*
X161906Y92189D01*
X162836Y92374D01*
X163626Y92901D01*
X164153Y93690D01*
X164338Y94621D01*
X164153Y95552D01*
X163626Y96341D01*
X162836Y96868D01*
X161906Y97054D01*
D02*
G37*
G36*
X44401Y83326D02*
X43702Y83234D01*
X43049Y82964D01*
X42489Y82534D01*
X42060Y81974D01*
X41789Y81322D01*
X41697Y80622D01*
X41789Y79922D01*
X41979Y79464D01*
X41819Y78857D01*
X41690Y78803D01*
X40779Y78104D01*
X40080Y77193D01*
X39640Y76132D01*
X39622Y75993D01*
X46449D01*
X53276D01*
X53258Y76132D01*
X52819Y77193D01*
X52119Y78104D01*
X51208Y78803D01*
X50147Y79243D01*
X49008Y79393D01*
X47244D01*
X46966Y79808D01*
X47014Y79922D01*
X47106Y80622D01*
X47014Y81322D01*
X46743Y81974D01*
X46314Y82534D01*
X45754Y82964D01*
X45101Y83234D01*
X44401Y83326D01*
D02*
G37*
G36*
X53276Y73993D02*
X47449D01*
Y70593D01*
X49008D01*
X50147Y70743D01*
X51208Y71183D01*
X52119Y71882D01*
X52819Y72793D01*
X53258Y73854D01*
X53276Y73993D01*
D02*
G37*
G36*
X31488Y79393D02*
X30914D01*
Y75993D01*
X35757D01*
X35738Y76132D01*
X35299Y77193D01*
X34600Y78104D01*
X33688Y78803D01*
X32627Y79243D01*
X31488Y79393D01*
D02*
G37*
G36*
X28914D02*
X28339D01*
X27200Y79243D01*
X26139Y78803D01*
X25228Y78104D01*
X24529Y77193D01*
X24089Y76132D01*
X24071Y75993D01*
X28914D01*
Y79393D01*
D02*
G37*
G36*
X158000Y107333D02*
X157069Y107147D01*
X156280Y106620D01*
X155753Y105831D01*
X155567Y104900D01*
X155753Y103969D01*
X156280Y103180D01*
X157069Y102653D01*
X158000Y102467D01*
X158931Y102653D01*
X159720Y103180D01*
X160247Y103969D01*
X160433Y104900D01*
X160247Y105831D01*
X159720Y106620D01*
X158931Y107147D01*
X158000Y107333D01*
D02*
G37*
G36*
X131269Y115697D02*
X130338Y115512D01*
X129549Y114984D01*
X129022Y114195D01*
X128836Y113264D01*
X129022Y112333D01*
X129506Y111608D01*
Y105432D01*
X129043Y104739D01*
X128858Y103808D01*
X129043Y102877D01*
X129570Y102088D01*
X130359Y101560D01*
X131290Y101375D01*
X132221Y101560D01*
X133010Y102088D01*
X133538Y102877D01*
X133723Y103808D01*
X133538Y104739D01*
X133075Y105432D01*
Y111672D01*
X133516Y112333D01*
X133702Y113264D01*
X133516Y114195D01*
X132989Y114984D01*
X132200Y115512D01*
X131269Y115697D01*
D02*
G37*
G36*
X35757Y108009D02*
X30914D01*
Y104609D01*
X31488D01*
X32627Y104759D01*
X33688Y105198D01*
X34600Y105897D01*
X35299Y106809D01*
X35738Y107870D01*
X35757Y108009D01*
D02*
G37*
G36*
X28914D02*
X24071D01*
X24089Y107870D01*
X24529Y106809D01*
X25228Y105897D01*
X26139Y105198D01*
X27200Y104759D01*
X28339Y104609D01*
X28914D01*
Y108009D01*
D02*
G37*
G36*
X169000Y100433D02*
X168069Y100247D01*
X167280Y99720D01*
X166753Y98931D01*
X166567Y98000D01*
X166753Y97069D01*
X167280Y96280D01*
X168069Y95753D01*
X169000Y95567D01*
X169931Y95753D01*
X170720Y96280D01*
X171247Y97069D01*
X171433Y98000D01*
X171247Y98931D01*
X170720Y99720D01*
X169931Y100247D01*
X169000Y100433D01*
D02*
G37*
G36*
X56850Y109527D02*
X56067Y109424D01*
X55338Y109122D01*
X54711Y108641D01*
X54230Y108014D01*
X53928Y107284D01*
X53825Y106501D01*
Y95676D01*
X53438Y95358D01*
X53087Y95428D01*
X52156Y95243D01*
X51367Y94716D01*
X50840Y93927D01*
X50654Y92996D01*
X50840Y92065D01*
X51134Y91624D01*
Y90407D01*
X50840Y89967D01*
X50654Y89036D01*
X50840Y88105D01*
X51367Y87316D01*
X52156Y86788D01*
X53087Y86603D01*
X53438Y86673D01*
X53825Y86356D01*
Y84652D01*
X53928Y83869D01*
X54230Y83139D01*
X54711Y82513D01*
X54936Y82287D01*
Y77302D01*
X55040Y76519D01*
X55342Y75789D01*
X55823Y75162D01*
X56449Y74682D01*
X57179Y74379D01*
X57962Y74276D01*
X58745Y74379D01*
X59475Y74682D01*
X60102Y75162D01*
X60583Y75789D01*
X60885Y76519D01*
X60988Y77302D01*
Y83540D01*
X60885Y84324D01*
X60583Y85053D01*
X60102Y85680D01*
X60102Y85680D01*
X59876Y85906D01*
Y106501D01*
X59773Y107284D01*
X59471Y108014D01*
X58990Y108641D01*
X58363Y109122D01*
X57634Y109424D01*
X56850Y109527D01*
D02*
G37*
G36*
X53276Y108009D02*
X46449D01*
X39622D01*
X39640Y107870D01*
X40080Y106809D01*
X40779Y105897D01*
X41690Y105198D01*
X41820Y105144D01*
X41980Y104537D01*
X41789Y104078D01*
X41697Y103378D01*
X41789Y102678D01*
X42060Y102026D01*
X42489Y101466D01*
X43049Y101036D01*
X43702Y100766D01*
X44401Y100674D01*
X45101Y100766D01*
X45754Y101036D01*
X46314Y101466D01*
X46743Y102026D01*
X47014Y102678D01*
X47106Y103378D01*
X47014Y104078D01*
X46966Y104193D01*
X47244Y104609D01*
X49008D01*
X50147Y104759D01*
X51208Y105198D01*
X52119Y105897D01*
X52818Y106809D01*
X53258Y107870D01*
X53276Y108009D01*
D02*
G37*
G36*
X115067Y96912D02*
X114136Y96727D01*
X113443Y96264D01*
X92004D01*
X91342Y96705D01*
X90412Y96890D01*
X89481Y96705D01*
X88691Y96178D01*
X88164Y95389D01*
X87979Y94458D01*
X88164Y93527D01*
X88691Y92738D01*
X89481Y92211D01*
X90412Y92025D01*
X91342Y92211D01*
X92067Y92695D01*
X113443D01*
X114136Y92232D01*
X115067Y92047D01*
X115998Y92232D01*
X116787Y92759D01*
X117314Y93548D01*
X117499Y94479D01*
X117314Y95410D01*
X116787Y96199D01*
X115998Y96727D01*
X115067Y96912D01*
D02*
G37*
G36*
X45449Y73993D02*
X39622D01*
X39640Y73854D01*
X40080Y72793D01*
X40779Y71882D01*
X41690Y71183D01*
X42751Y70743D01*
X43890Y70593D01*
X45449D01*
Y73993D01*
D02*
G37*
G36*
X92385Y15901D02*
X91454Y15715D01*
X90761Y15252D01*
X74319D01*
X73657Y15695D01*
X72726Y15880D01*
X71795Y15695D01*
X71006Y15168D01*
X70478Y14378D01*
X70293Y13447D01*
X70478Y12517D01*
X71006Y11727D01*
X71795Y11200D01*
X72726Y11015D01*
X73657Y11200D01*
X74381Y11684D01*
X90761D01*
X91454Y11221D01*
X92385Y11035D01*
X93316Y11221D01*
X94105Y11748D01*
X94633Y12537D01*
X94818Y13468D01*
X94633Y14399D01*
X94105Y15188D01*
X93316Y15715D01*
X92385Y15901D01*
D02*
G37*
G36*
X32039Y47857D02*
X31108Y47672D01*
X30319Y47145D01*
X29792Y46356D01*
X29629Y45538D01*
X28515Y44424D01*
X28128Y43845D01*
X27992Y43162D01*
Y28040D01*
X27529Y27347D01*
X27344Y26416D01*
X27529Y25485D01*
X28056Y24696D01*
X28846Y24168D01*
X29776Y23983D01*
X30707Y24168D01*
X31497Y24696D01*
X32024Y25485D01*
X32209Y26416D01*
X32024Y27347D01*
X31561Y28040D01*
Y42423D01*
X32153Y43015D01*
X32970Y43177D01*
X33759Y43705D01*
X34287Y44494D01*
X34472Y45425D01*
X34287Y46356D01*
X33759Y47145D01*
X32970Y47672D01*
X32039Y47857D01*
D02*
G37*
G36*
X38817Y42224D02*
X37886Y42039D01*
X37097Y41512D01*
X36569Y40722D01*
X36384Y39792D01*
X36569Y38861D01*
X37032Y38168D01*
Y29143D01*
X36285Y28994D01*
X35496Y28467D01*
X34968Y27677D01*
X34783Y26746D01*
X34968Y25816D01*
X35496Y25026D01*
X36285Y24499D01*
X37216Y24314D01*
X38147Y24499D01*
X38936Y25026D01*
X39463Y25816D01*
X39626Y26633D01*
X40078Y27086D01*
X40078Y27086D01*
X40465Y27665D01*
X40601Y28348D01*
X40601Y28348D01*
Y38168D01*
X41064Y38861D01*
X41249Y39792D01*
X41064Y40722D01*
X40537Y41512D01*
X39748Y42039D01*
X38817Y42224D01*
D02*
G37*
G36*
X135000Y11364D02*
Y7500D01*
X138864D01*
X138825Y7793D01*
X138326Y8998D01*
X137532Y10032D01*
X136498Y10826D01*
X135293Y11325D01*
X135000Y11364D01*
D02*
G37*
G36*
X103027Y9888D02*
X102096Y9703D01*
X101307Y9176D01*
X100779Y8386D01*
X100594Y7456D01*
X100779Y6525D01*
X101307Y5735D01*
X102096Y5208D01*
X103027Y5023D01*
X103958Y5208D01*
X104747Y5735D01*
X105274Y6525D01*
X105459Y7456D01*
X105274Y8386D01*
X104747Y9176D01*
X103958Y9703D01*
X103027Y9888D01*
D02*
G37*
G36*
X113526Y11949D02*
X112595Y11764D01*
X111806Y11237D01*
X111279Y10447D01*
X111094Y9517D01*
X111279Y8586D01*
X111806Y7796D01*
X112595Y7269D01*
X113526Y7084D01*
X114457Y7269D01*
X115246Y7796D01*
X115774Y8586D01*
X115959Y9517D01*
X115774Y10447D01*
X115246Y11237D01*
X114457Y11764D01*
X113526Y11949D01*
D02*
G37*
G36*
X133000Y11364D02*
X132707Y11325D01*
X131502Y10826D01*
X130468Y10032D01*
X129674Y8998D01*
X129175Y7793D01*
X129136Y7500D01*
X133000D01*
Y11364D01*
D02*
G37*
G36*
X76349Y66943D02*
X75418Y66758D01*
X74629Y66230D01*
X74101Y65441D01*
X73916Y64510D01*
X74101Y63579D01*
X74629Y62790D01*
X75418Y62263D01*
X76349Y62078D01*
X77280Y62263D01*
X78069Y62790D01*
X78596Y63579D01*
X78781Y64510D01*
X78596Y65441D01*
X78069Y66230D01*
X77280Y66758D01*
X76349Y66943D01*
D02*
G37*
G36*
X28914Y73993D02*
X24071D01*
X24089Y73854D01*
X24529Y72793D01*
X25228Y71882D01*
X26139Y71183D01*
X27200Y70743D01*
X28339Y70593D01*
X28914D01*
Y73993D01*
D02*
G37*
G36*
X35757D02*
X30914D01*
Y70593D01*
X31488D01*
X32627Y70743D01*
X33688Y71183D01*
X34600Y71882D01*
X35299Y72793D01*
X35738Y73854D01*
X35757Y73993D01*
D02*
G37*
G36*
X47530Y62198D02*
X46599Y62013D01*
X45810Y61485D01*
X45283Y60696D01*
X45098Y59765D01*
X45283Y58834D01*
X45810Y58045D01*
X46599Y57518D01*
X47530Y57333D01*
X48461Y57518D01*
X49250Y58045D01*
X49778Y58834D01*
X49963Y59765D01*
X49778Y60696D01*
X49250Y61485D01*
X48461Y62013D01*
X47530Y62198D01*
D02*
G37*
G36*
X79680Y49183D02*
X78749Y48998D01*
X77960Y48471D01*
X77432Y47681D01*
X77247Y46751D01*
X77432Y45820D01*
X77960Y45031D01*
X78749Y44503D01*
X79680Y44318D01*
X80611Y44503D01*
X81400Y45031D01*
X81927Y45820D01*
X82112Y46751D01*
X81927Y47681D01*
X81400Y48471D01*
X80611Y48998D01*
X79680Y49183D01*
D02*
G37*
G36*
X35987Y55284D02*
X35056Y55099D01*
X34267Y54571D01*
X33740Y53782D01*
X33555Y52851D01*
X33740Y51920D01*
X34267Y51131D01*
X35056Y50604D01*
X35987Y50419D01*
X36918Y50604D01*
X37707Y51131D01*
X38235Y51920D01*
X38420Y52851D01*
X38235Y53782D01*
X37707Y54571D01*
X36918Y55099D01*
X35987Y55284D01*
D02*
G37*
G36*
X85354Y61946D02*
X84424Y61761D01*
X83634Y61234D01*
X83107Y60444D01*
X82922Y59514D01*
X83107Y58583D01*
X83634Y57793D01*
X84424Y57266D01*
X85354Y57081D01*
X86285Y57266D01*
X87075Y57793D01*
X87602Y58583D01*
X87787Y59514D01*
X87602Y60444D01*
X87075Y61234D01*
X86285Y61761D01*
X85354Y61946D01*
D02*
G37*
G36*
X72000Y110433D02*
X71069Y110247D01*
X70280Y109720D01*
X69753Y108931D01*
X69567Y108000D01*
X69753Y107069D01*
X70280Y106280D01*
X71069Y105753D01*
X72000Y105567D01*
X72931Y105753D01*
X73720Y106280D01*
X74247Y107069D01*
X74433Y108000D01*
X74247Y108931D01*
X73720Y109720D01*
X72931Y110247D01*
X72000Y110433D01*
D02*
G37*
G36*
X85500Y158433D02*
X84569Y158247D01*
X83780Y157720D01*
X83253Y156931D01*
X83067Y156000D01*
X83253Y155069D01*
X83780Y154280D01*
X84569Y153753D01*
X85500Y153567D01*
X86431Y153753D01*
X87220Y154280D01*
X87747Y155069D01*
X87933Y156000D01*
X87747Y156931D01*
X87220Y157720D01*
X86431Y158247D01*
X85500Y158433D01*
D02*
G37*
G36*
X170500Y153033D02*
X169569Y152847D01*
X168780Y152320D01*
X168253Y151531D01*
X168067Y150600D01*
X168253Y149669D01*
X168780Y148880D01*
X169569Y148353D01*
X170500Y148167D01*
X171431Y148353D01*
X172220Y148880D01*
X172747Y149669D01*
X172933Y150600D01*
X172747Y151531D01*
X172220Y152320D01*
X171431Y152847D01*
X170500Y153033D01*
D02*
G37*
G36*
X87500Y198933D02*
X86569Y198747D01*
X86000Y198367D01*
X85431Y198747D01*
X84500Y198933D01*
X83569Y198747D01*
X83000Y198367D01*
X82431Y198747D01*
X81500Y198933D01*
X80569Y198747D01*
X80000Y198367D01*
X79431Y198747D01*
X78500Y198933D01*
X77569Y198747D01*
X76780Y198220D01*
X76253Y197431D01*
X76067Y196500D01*
X76253Y195569D01*
X76780Y194780D01*
X76825Y194750D01*
Y194250D01*
X76780Y194220D01*
X76253Y193431D01*
X76119Y192757D01*
X76069Y192747D01*
X75280Y192220D01*
X74753Y191431D01*
X74567Y190500D01*
X74753Y189569D01*
X75280Y188780D01*
X75325Y188750D01*
Y188250D01*
X75280Y188220D01*
X74753Y187431D01*
X74567Y186500D01*
X74753Y185569D01*
X75280Y184780D01*
X76069Y184253D01*
X77000Y184067D01*
X77931Y184253D01*
X78500Y184633D01*
X79069Y184253D01*
X80000Y184067D01*
X80931Y184253D01*
X81500Y184633D01*
X82069Y184253D01*
X83000Y184067D01*
X83931Y184253D01*
X84500Y184633D01*
X85069Y184253D01*
X86000Y184067D01*
X86931Y184253D01*
X87500Y184633D01*
X88069Y184253D01*
X89000Y184067D01*
X89931Y184253D01*
X90720Y184780D01*
X91247Y185569D01*
X91433Y186500D01*
X91247Y187431D01*
X90720Y188220D01*
X90675Y188250D01*
Y188750D01*
X90720Y188780D01*
X91247Y189569D01*
X91433Y190500D01*
X91247Y191431D01*
X90720Y192220D01*
X90675Y192250D01*
Y192750D01*
X90720Y192780D01*
X91247Y193569D01*
X91433Y194500D01*
X91247Y195431D01*
X90720Y196220D01*
X89931Y196747D01*
X89881Y196757D01*
X89747Y197431D01*
X89220Y198220D01*
X88431Y198747D01*
X87500Y198933D01*
D02*
G37*
G36*
X188000Y162833D02*
X187069Y162647D01*
X186280Y162120D01*
X185753Y161331D01*
X185567Y160400D01*
X185753Y159469D01*
X186280Y158680D01*
X187069Y158153D01*
X188000Y157967D01*
X188931Y158153D01*
X189720Y158680D01*
X190247Y159469D01*
X190433Y160400D01*
X190247Y161331D01*
X189720Y162120D01*
X188931Y162647D01*
X188000Y162833D01*
D02*
G37*
G36*
X161900Y134933D02*
X160969Y134747D01*
X160180Y134220D01*
X159653Y133431D01*
X159467Y132500D01*
X159653Y131569D01*
X160180Y130780D01*
X160969Y130253D01*
X161900Y130067D01*
X162831Y130253D01*
X163620Y130780D01*
X164147Y131569D01*
X164333Y132500D01*
X164147Y133431D01*
X163620Y134220D01*
X162831Y134747D01*
X161900Y134933D01*
D02*
G37*
G36*
X44643Y239912D02*
X43712Y239727D01*
X42923Y239199D01*
X42396Y238410D01*
X42211Y237479D01*
X42396Y236548D01*
X42859Y235855D01*
Y235024D01*
X42930Y234666D01*
X42369Y234291D01*
X41842Y233501D01*
X41657Y232571D01*
X41842Y231640D01*
X42369Y230850D01*
X43159Y230323D01*
X43414Y230272D01*
Y154381D01*
X43396Y154366D01*
X42465Y154181D01*
X41675Y153654D01*
X41148Y152865D01*
X40963Y151934D01*
X41148Y151003D01*
X41611Y150310D01*
Y127511D01*
X41747Y126829D01*
X42134Y126250D01*
X75340Y93044D01*
Y82217D01*
X74877Y81523D01*
X74691Y80593D01*
X74877Y79662D01*
X75404Y78872D01*
X76193Y78345D01*
X77124Y78160D01*
X78055Y78345D01*
X78844Y78872D01*
X79371Y79662D01*
X79557Y80593D01*
X79371Y81523D01*
X78908Y82217D01*
Y93783D01*
X78772Y94466D01*
X78386Y95045D01*
X49689Y123742D01*
X49880Y124204D01*
X110250D01*
X110977Y123718D01*
X111908Y123533D01*
X112838Y123718D01*
X113628Y124245D01*
X114155Y125035D01*
X114340Y125965D01*
X114382Y126017D01*
X146157D01*
X146882Y125533D01*
X147813Y125347D01*
X148743Y125533D01*
X149533Y126060D01*
X150060Y126849D01*
X150245Y127780D01*
X150060Y128711D01*
X149533Y129500D01*
X148743Y130027D01*
X147813Y130213D01*
X146882Y130027D01*
X146221Y129586D01*
X110862D01*
X110179Y129450D01*
X109600Y129063D01*
X109600Y129063D01*
X109309Y128772D01*
X48913D01*
X47983Y129703D01*
Y233469D01*
X47847Y234152D01*
X47460Y234731D01*
X47460Y234731D01*
X46428Y235764D01*
Y235855D01*
X46891Y236548D01*
X47076Y237479D01*
X46891Y238410D01*
X46363Y239199D01*
X45574Y239727D01*
X44643Y239912D01*
D02*
G37*
G36*
X167200Y141433D02*
X166269Y141247D01*
X165480Y140720D01*
X164953Y139931D01*
X164767Y139000D01*
X164953Y138069D01*
X165480Y137280D01*
X166269Y136753D01*
X167200Y136567D01*
X168131Y136753D01*
X168920Y137280D01*
X169447Y138069D01*
X169633Y139000D01*
X169447Y139931D01*
X168920Y140720D01*
X168131Y141247D01*
X167200Y141433D01*
D02*
G37*
G36*
X119784Y137449D02*
X118854Y137264D01*
X118064Y136737D01*
X117537Y135947D01*
X117352Y135017D01*
X117537Y134086D01*
X118064Y133296D01*
X118854Y132769D01*
X119784Y132584D01*
X120715Y132769D01*
X121505Y133296D01*
X122032Y134086D01*
X122217Y135017D01*
X122032Y135947D01*
X121505Y136737D01*
X120715Y137264D01*
X119784Y137449D01*
D02*
G37*
G36*
X76800Y288500D02*
X75231D01*
X75262Y288182D01*
X75647Y286914D01*
X76271Y285746D01*
X76800Y285102D01*
Y288500D01*
D02*
G37*
G36*
X141769D02*
X140000D01*
Y284858D01*
X140728Y285746D01*
X141353Y286914D01*
X141737Y288182D01*
X141769Y288500D01*
D02*
G37*
G36*
X129300Y292895D02*
X128868Y292086D01*
X128483Y290818D01*
X128452Y290500D01*
X129300D01*
Y292895D01*
D02*
G37*
G36*
Y288500D02*
X128452D01*
X128483Y288182D01*
X128868Y286914D01*
X129300Y286105D01*
Y288500D01*
D02*
G37*
G36*
X87500Y215933D02*
X86569Y215747D01*
X85780Y215220D01*
X85253Y214431D01*
X85067Y213500D01*
X85253Y212569D01*
X85780Y211780D01*
X86569Y211253D01*
X87500Y211067D01*
X88431Y211253D01*
X89220Y211780D01*
X89747Y212569D01*
X89933Y213500D01*
X89747Y214431D01*
X89220Y215220D01*
X88431Y215747D01*
X87500Y215933D01*
D02*
G37*
G36*
X150500Y198933D02*
X149569Y198747D01*
X149000Y198367D01*
X148431Y198747D01*
X147500Y198933D01*
X146569Y198747D01*
X146000Y198367D01*
X145431Y198747D01*
X144500Y198933D01*
X143569Y198747D01*
X143000Y198367D01*
X142431Y198747D01*
X141500Y198933D01*
X140569Y198747D01*
X140000Y198367D01*
X139431Y198747D01*
X138500Y198933D01*
X137569Y198747D01*
X136780Y198220D01*
X136253Y197431D01*
X136067Y196500D01*
X136253Y195569D01*
X136780Y194780D01*
X136825Y194750D01*
Y194250D01*
X136780Y194220D01*
X136253Y193431D01*
X136067Y192500D01*
X136253Y191569D01*
X136780Y190780D01*
X137569Y190253D01*
X137619Y190243D01*
X137753Y189569D01*
X138280Y188780D01*
X139069Y188253D01*
X140000Y188067D01*
X140931Y188253D01*
X141500Y188633D01*
X142069Y188253D01*
X143000Y188067D01*
X143931Y188253D01*
X144500Y188633D01*
X145069Y188253D01*
X146000Y188067D01*
X146931Y188253D01*
X147500Y188633D01*
X148069Y188253D01*
X149000Y188067D01*
X149931Y188253D01*
X150500Y188633D01*
X151069Y188253D01*
X152000Y188067D01*
X152931Y188253D01*
X153720Y188780D01*
X154247Y189569D01*
X154433Y190500D01*
X154247Y191431D01*
X153720Y192220D01*
X153675Y192250D01*
Y192750D01*
X153720Y192780D01*
X154247Y193569D01*
X154433Y194500D01*
X154247Y195431D01*
X153720Y196220D01*
X152931Y196747D01*
X152881Y196757D01*
X152747Y197431D01*
X152220Y198220D01*
X151431Y198747D01*
X150500Y198933D01*
D02*
G37*
G36*
X170700Y282392D02*
X166500D01*
X165524Y282197D01*
X164698Y281645D01*
X164480Y281320D01*
X164302Y281302D01*
X163476Y281855D01*
X162500Y282049D01*
X161524Y281855D01*
X160698Y281302D01*
X160145Y280475D01*
X159951Y279500D01*
X160145Y278524D01*
X160698Y277698D01*
X164644Y273751D01*
Y270482D01*
Y268349D01*
X163844Y267549D01*
X146600D01*
X145624Y267355D01*
X144798Y266802D01*
X144245Y265975D01*
X144051Y265000D01*
X144245Y264024D01*
X144798Y263198D01*
X145624Y262645D01*
X146600Y262451D01*
X164900D01*
X165875Y262645D01*
X166702Y263198D01*
X168996Y265491D01*
X169548Y266318D01*
X169742Y267293D01*
Y270482D01*
Y274807D01*
X169548Y275782D01*
X168996Y276609D01*
X168773Y276832D01*
X168965Y277293D01*
X169644D01*
X172551Y274387D01*
Y263100D01*
Y245956D01*
X165198Y238602D01*
X164645Y237775D01*
X164451Y236800D01*
Y233800D01*
X164645Y232824D01*
X165198Y231998D01*
X166024Y231445D01*
X167000Y231251D01*
X167975Y231445D01*
X168802Y231998D01*
X169355Y232824D01*
X169549Y233800D01*
Y235744D01*
X176902Y243098D01*
X177455Y243924D01*
X177649Y244900D01*
Y263100D01*
Y275443D01*
X177455Y276418D01*
X176902Y277245D01*
X172502Y281645D01*
X171676Y282197D01*
X170700Y282392D01*
D02*
G37*
G36*
X52500Y271433D02*
X51569Y271247D01*
X50780Y270720D01*
X50750Y270675D01*
X50250D01*
X50220Y270720D01*
X49431Y271247D01*
X48500Y271433D01*
X47569Y271247D01*
X46780Y270720D01*
X46253Y269931D01*
X46243Y269881D01*
X45569Y269747D01*
X44780Y269220D01*
X44253Y268431D01*
X44067Y267500D01*
X44253Y266569D01*
X44633Y266000D01*
X44253Y265431D01*
X44067Y264500D01*
X44253Y263569D01*
X44633Y263000D01*
X44253Y262431D01*
X44067Y261500D01*
X44253Y260569D01*
X44633Y260000D01*
X44253Y259431D01*
X44067Y258500D01*
X44253Y257569D01*
X44633Y257000D01*
X44253Y256431D01*
X44067Y255500D01*
X44253Y254569D01*
X44633Y254000D01*
X44253Y253431D01*
X44067Y252500D01*
X44253Y251569D01*
X44633Y251000D01*
X44253Y250431D01*
X44067Y249500D01*
X44253Y248569D01*
X44633Y248000D01*
X44253Y247431D01*
X44067Y246500D01*
X44253Y245569D01*
X44633Y245000D01*
X44253Y244431D01*
X44067Y243500D01*
X44253Y242569D01*
X44780Y241780D01*
X45569Y241253D01*
X46500Y241067D01*
X47431Y241253D01*
X48220Y241780D01*
X48250Y241825D01*
X48750D01*
X48780Y241780D01*
X49569Y241253D01*
X50500Y241067D01*
X51431Y241253D01*
X52115Y241710D01*
X52505Y241622D01*
X52659Y241537D01*
X52753Y241069D01*
X53133Y240500D01*
X52753Y239931D01*
X52567Y239000D01*
X52753Y238069D01*
X53133Y237500D01*
X52753Y236931D01*
X52567Y236000D01*
X52753Y235069D01*
X53133Y234500D01*
X52753Y233931D01*
X52567Y233000D01*
X52753Y232069D01*
X53133Y231500D01*
X52753Y230931D01*
X52567Y230000D01*
X52753Y229069D01*
X53133Y228500D01*
X52753Y227931D01*
X52567Y227000D01*
X52753Y226069D01*
X53133Y225500D01*
X52753Y224931D01*
X52567Y224000D01*
X52753Y223069D01*
X53133Y222500D01*
X52753Y221931D01*
X52567Y221000D01*
X52753Y220069D01*
X53133Y219500D01*
X52753Y218931D01*
X52567Y218000D01*
X52753Y217069D01*
X53280Y216280D01*
X54069Y215753D01*
X55000Y215567D01*
X55931Y215753D01*
X56720Y216280D01*
X56750Y216325D01*
X57250D01*
X57280Y216280D01*
X58069Y215753D01*
X59000Y215567D01*
X59931Y215753D01*
X60720Y216280D01*
X61247Y217069D01*
X61257Y217119D01*
X61931Y217253D01*
X62720Y217780D01*
X63247Y218569D01*
X63433Y219500D01*
X63247Y220431D01*
X62867Y221000D01*
X63247Y221569D01*
X63433Y222500D01*
X63247Y223431D01*
X62867Y224000D01*
X63247Y224569D01*
X63433Y225500D01*
X63247Y226431D01*
X62867Y227000D01*
X63247Y227569D01*
X63433Y228500D01*
X63247Y229431D01*
X62867Y230000D01*
X63247Y230569D01*
X63433Y231500D01*
X63247Y232431D01*
X62867Y233000D01*
X63247Y233569D01*
X63433Y234500D01*
X63247Y235431D01*
X62867Y236000D01*
X63247Y236569D01*
X63433Y237500D01*
X63247Y238431D01*
X62867Y239000D01*
X63247Y239569D01*
X63433Y240500D01*
X63247Y241431D01*
X62867Y242000D01*
X63247Y242569D01*
X63433Y243500D01*
X63247Y244431D01*
X62720Y245220D01*
X61931Y245747D01*
X61000Y245933D01*
X60069Y245747D01*
X59280Y245220D01*
X59250Y245175D01*
X58750D01*
X58720Y245220D01*
X57931Y245747D01*
X57000Y245933D01*
X56069Y245747D01*
X55385Y245290D01*
X54995Y245378D01*
X54841Y245462D01*
X54747Y245931D01*
X54367Y246500D01*
X54747Y247069D01*
X54933Y248000D01*
X54747Y248931D01*
X54367Y249500D01*
X54747Y250069D01*
X54933Y251000D01*
X54747Y251931D01*
X54367Y252500D01*
X54747Y253069D01*
X54933Y254000D01*
X54747Y254931D01*
X54367Y255500D01*
X54747Y256069D01*
X54933Y257000D01*
X54747Y257931D01*
X54367Y258500D01*
X54747Y259069D01*
X54933Y260000D01*
X54747Y260931D01*
X54367Y261500D01*
X54747Y262069D01*
X54933Y263000D01*
X54747Y263931D01*
X54367Y264500D01*
X54747Y265069D01*
X54933Y266000D01*
X54747Y266931D01*
X54367Y267500D01*
X54747Y268069D01*
X54933Y269000D01*
X54747Y269931D01*
X54220Y270720D01*
X53431Y271247D01*
X52500Y271433D01*
D02*
G37*
G36*
X49008Y113409D02*
X47449D01*
Y110009D01*
X53276D01*
X53258Y110148D01*
X52818Y111209D01*
X52119Y112120D01*
X51208Y112819D01*
X50147Y113259D01*
X49008Y113409D01*
D02*
G37*
G36*
X31488D02*
X30914D01*
Y110009D01*
X35757D01*
X35738Y110148D01*
X35299Y111209D01*
X34600Y112120D01*
X33688Y112819D01*
X32627Y113259D01*
X31488Y113409D01*
D02*
G37*
G36*
X98502Y118877D02*
X97571Y118692D01*
X96782Y118165D01*
X96461Y117685D01*
X95570Y117862D01*
X94639Y117677D01*
X93850Y117150D01*
X93323Y116360D01*
X93138Y115430D01*
X93323Y114499D01*
X93624Y114048D01*
X93373Y113671D01*
X93187Y112740D01*
X93373Y111809D01*
X93866Y111071D01*
X93800Y110972D01*
X93614Y110041D01*
X93800Y109110D01*
X94327Y108321D01*
X94463Y108230D01*
X94447Y107640D01*
X93992Y106959D01*
X93807Y106028D01*
X93992Y105097D01*
X94519Y104308D01*
X95308Y103780D01*
X96239Y103595D01*
X97170Y103780D01*
X97959Y104308D01*
X98487Y105097D01*
X98672Y106028D01*
X98487Y106959D01*
X97959Y107748D01*
X97767Y107876D01*
Y108321D01*
X98294Y109110D01*
X98480Y110041D01*
X98294Y110972D01*
X97801Y111710D01*
X97868Y111809D01*
X98053Y112740D01*
X97876Y113627D01*
X97992Y113821D01*
X98201Y114072D01*
X98502Y114012D01*
X99433Y114198D01*
X100222Y114725D01*
X100749Y115514D01*
X100935Y116445D01*
X100749Y117376D01*
X100222Y118165D01*
X99433Y118692D01*
X98502Y118877D01*
D02*
G37*
G36*
X83011Y121944D02*
X82081Y121759D01*
X81291Y121231D01*
X80764Y120442D01*
X80630Y119769D01*
X80581Y119759D01*
X79791Y119231D01*
X79264Y118442D01*
X79161Y117924D01*
X79027Y117495D01*
X78599Y117362D01*
X78080Y117259D01*
X77511Y116878D01*
X76942Y117259D01*
X76011Y117444D01*
X75081Y117259D01*
X74291Y116732D01*
X73764Y115942D01*
X73579Y115011D01*
X73764Y114081D01*
X74291Y113291D01*
X75081Y112764D01*
X76011Y112579D01*
X76126Y112602D01*
X76642Y112195D01*
X76764Y111581D01*
X77291Y110791D01*
X78080Y110264D01*
X79011Y110079D01*
X79942Y110264D01*
X80731Y110791D01*
X81259Y111581D01*
X81362Y112099D01*
X81495Y112527D01*
X81924Y112661D01*
X82442Y112764D01*
X83232Y113291D01*
X83759Y114081D01*
X83881Y114694D01*
X84397Y115102D01*
X84511Y115079D01*
X85442Y115264D01*
X86231Y115791D01*
X86759Y116580D01*
X86944Y117511D01*
X86759Y118442D01*
X86231Y119231D01*
X85442Y119759D01*
X85393Y119769D01*
X85259Y120442D01*
X84732Y121231D01*
X83942Y121759D01*
X83011Y121944D01*
D02*
G37*
G36*
X118200Y115833D02*
X117269Y115647D01*
X116480Y115120D01*
X115953Y114331D01*
X115767Y113400D01*
X115953Y112469D01*
X116480Y111680D01*
X117269Y111153D01*
X118200Y110967D01*
X119131Y111153D01*
X119920Y111680D01*
X120447Y112469D01*
X120633Y113400D01*
X120447Y114331D01*
X119920Y115120D01*
X119131Y115647D01*
X118200Y115833D01*
D02*
G37*
G36*
X45449Y113409D02*
X43890D01*
X42751Y113259D01*
X41690Y112819D01*
X40779Y112120D01*
X40080Y111209D01*
X39640Y110148D01*
X39622Y110009D01*
X45449D01*
Y113409D01*
D02*
G37*
G36*
X138591Y124214D02*
X137660Y124029D01*
X136871Y123502D01*
X136343Y122712D01*
X136158Y121782D01*
X136343Y120851D01*
X136871Y120061D01*
X137660Y119534D01*
X138591Y119349D01*
X139522Y119534D01*
X140247Y120019D01*
X141557D01*
X142314Y119513D01*
X143244Y119328D01*
X144175Y119513D01*
X144965Y120040D01*
X145492Y120829D01*
X145677Y121760D01*
X145492Y122691D01*
X144965Y123480D01*
X144175Y124008D01*
X143244Y124193D01*
X142314Y124008D01*
X141684Y123587D01*
X140183D01*
X139522Y124029D01*
X138591Y124214D01*
D02*
G37*
G36*
X28914Y113409D02*
X28339D01*
X27200Y113259D01*
X26139Y112819D01*
X25228Y112120D01*
X24529Y111209D01*
X24089Y110148D01*
X24071Y110009D01*
X28914D01*
Y113409D01*
D02*
G37*
G36*
X176700Y114733D02*
X175769Y114547D01*
X174980Y114020D01*
X174453Y113231D01*
X174267Y112300D01*
X174453Y111369D01*
X174980Y110580D01*
X175769Y110053D01*
X176700Y109867D01*
X177631Y110053D01*
X178420Y110580D01*
X178947Y111369D01*
X179133Y112300D01*
X178947Y113231D01*
X178420Y114020D01*
X177631Y114547D01*
X176700Y114733D01*
D02*
G37*
%LPD*%
G36*
X30030Y27720D02*
X30041Y27643D01*
X30060Y27567D01*
X30086Y27492D01*
X30119Y27417D01*
X30160Y27342D01*
X30208Y27268D01*
X30263Y27194D01*
X30326Y27121D01*
X30397Y27048D01*
X29156D01*
X29227Y27121D01*
X29290Y27194D01*
X29345Y27268D01*
X29393Y27342D01*
X29434Y27417D01*
X29467Y27492D01*
X29493Y27567D01*
X29512Y27643D01*
X29523Y27720D01*
X29526Y27797D01*
X30027D01*
X30030Y27720D01*
D02*
G37*
G36*
X38369Y27547D02*
X38317Y27489D01*
X38271Y27428D01*
X38231Y27361D01*
X38195Y27289D01*
X38166Y27212D01*
X38142Y27131D01*
X38124Y27044D01*
X38111Y26953D01*
X38103Y26856D01*
X38102Y26755D01*
X37225Y27632D01*
X37326Y27634D01*
X37422Y27641D01*
X37514Y27654D01*
X37600Y27673D01*
X37681Y27697D01*
X37758Y27726D01*
X37830Y27761D01*
X37897Y27802D01*
X37959Y27848D01*
X38016Y27900D01*
X38369Y27547D01*
D02*
G37*
G36*
X44977Y232460D02*
X44984Y232364D01*
X44997Y232273D01*
X45015Y232186D01*
X45039Y232105D01*
X45069Y232028D01*
X45104Y231956D01*
X45145Y231890D01*
X45191Y231828D01*
X45243Y231770D01*
X44889Y231417D01*
X44832Y231469D01*
X44770Y231515D01*
X44704Y231556D01*
X44632Y231591D01*
X44555Y231620D01*
X44474Y231644D01*
X44387Y231663D01*
X44296Y231676D01*
X44199Y231683D01*
X44098Y231685D01*
X44975Y232562D01*
X44977Y232460D01*
D02*
G37*
G36*
X73419Y14013D02*
X73494Y13951D01*
X73569Y13896D01*
X73645Y13849D01*
X73720Y13809D01*
X73796Y13776D01*
X73872Y13751D01*
X73948Y13733D01*
X74024Y13722D01*
X74101Y13718D01*
X74113Y13218D01*
X74036Y13214D01*
X73959Y13203D01*
X73883Y13184D01*
X73808Y13158D01*
X73734Y13124D01*
X73660Y13083D01*
X73587Y13034D01*
X73515Y12978D01*
X73443Y12914D01*
X73373Y12842D01*
X73344Y14082D01*
X73419Y14013D01*
D02*
G37*
G36*
X131544Y105112D02*
X131555Y105036D01*
X131574Y104959D01*
X131599Y104884D01*
X131633Y104809D01*
X131674Y104734D01*
X131722Y104660D01*
X131777Y104586D01*
X131840Y104513D01*
X131910Y104440D01*
X130670D01*
X130740Y104513D01*
X130803Y104586D01*
X130859Y104660D01*
X130907Y104734D01*
X130948Y104809D01*
X130981Y104884D01*
X131007Y104959D01*
X131026Y105036D01*
X131037Y105112D01*
X131040Y105189D01*
X131540D01*
X131544Y105112D01*
D02*
G37*
G36*
X45193Y236774D02*
X45130Y236701D01*
X45075Y236627D01*
X45027Y236553D01*
X44986Y236478D01*
X44953Y236403D01*
X44927Y236328D01*
X44908Y236251D01*
X44897Y236175D01*
X44893Y236098D01*
X44393D01*
X44390Y236175D01*
X44379Y236251D01*
X44360Y236328D01*
X44334Y236403D01*
X44301Y236478D01*
X44260Y236553D01*
X44212Y236627D01*
X44157Y236701D01*
X44094Y236774D01*
X44023Y236847D01*
X45263D01*
X45193Y236774D01*
D02*
G37*
G36*
X91752Y12848D02*
X91680Y12918D01*
X91606Y12981D01*
X91533Y13037D01*
X91459Y13085D01*
X91384Y13126D01*
X91309Y13159D01*
X91233Y13185D01*
X91157Y13203D01*
X91081Y13214D01*
X91004Y13218D01*
Y13718D01*
X91081Y13722D01*
X91157Y13733D01*
X91233Y13751D01*
X91309Y13777D01*
X91384Y13811D01*
X91459Y13851D01*
X91533Y13899D01*
X91606Y13955D01*
X91680Y14018D01*
X91752Y14088D01*
Y12848D01*
D02*
G37*
G36*
X147165Y127175D02*
X147095Y127247D01*
X147023Y127311D01*
X146951Y127367D01*
X146878Y127416D01*
X146805Y127457D01*
X146730Y127491D01*
X146655Y127517D01*
X146579Y127536D01*
X146503Y127548D01*
X146425Y127551D01*
X146438Y128051D01*
X146514Y128055D01*
X146591Y128066D01*
X146667Y128084D01*
X146743Y128110D01*
X146819Y128142D01*
X146894Y128182D01*
X146970Y128230D01*
X147045Y128284D01*
X147120Y128346D01*
X147195Y128415D01*
X147165Y127175D01*
D02*
G37*
G36*
X77378Y81897D02*
X77389Y81820D01*
X77407Y81744D01*
X77433Y81669D01*
X77466Y81594D01*
X77507Y81519D01*
X77555Y81445D01*
X77611Y81371D01*
X77674Y81298D01*
X77744Y81225D01*
X76504D01*
X76574Y81298D01*
X76637Y81371D01*
X76693Y81445D01*
X76741Y81519D01*
X76781Y81594D01*
X76815Y81669D01*
X76841Y81744D01*
X76859Y81820D01*
X76870Y81897D01*
X76874Y81974D01*
X77374D01*
X77378Y81897D01*
D02*
G37*
G36*
X53505Y90256D02*
X53521Y90087D01*
X53535Y90010D01*
X53554Y89939D01*
X53576Y89874D01*
X53603Y89814D01*
X53633Y89760D01*
X53668Y89711D01*
X53707Y89669D01*
X52467D01*
X52506Y89711D01*
X52541Y89760D01*
X52571Y89814D01*
X52598Y89874D01*
X52620Y89939D01*
X52639Y90010D01*
X52653Y90087D01*
X52663Y90169D01*
X52669Y90256D01*
X52671Y90350D01*
X53503D01*
X53505Y90256D01*
D02*
G37*
G36*
X142583Y121171D02*
X142514Y121244D01*
X142445Y121309D01*
X142374Y121366D01*
X142303Y121415D01*
X142230Y121458D01*
X142157Y121492D01*
X142082Y121519D01*
X142006Y121538D01*
X141929Y121549D01*
X141852Y121553D01*
X141877Y122053D01*
X141953Y122056D01*
X142029Y122067D01*
X142105Y122085D01*
X142182Y122110D01*
X142258Y122142D01*
X142335Y122181D01*
X142412Y122228D01*
X142488Y122282D01*
X142565Y122342D01*
X142642Y122410D01*
X142583Y121171D01*
D02*
G37*
G36*
X139283Y122348D02*
X139358Y122286D01*
X139434Y122231D01*
X139509Y122184D01*
X139585Y122144D01*
X139661Y122111D01*
X139736Y122086D01*
X139813Y122067D01*
X139889Y122056D01*
X139965Y122053D01*
X139978Y121553D01*
X139901Y121549D01*
X139824Y121538D01*
X139748Y121519D01*
X139673Y121493D01*
X139599Y121459D01*
X139525Y121417D01*
X139452Y121369D01*
X139380Y121312D01*
X139309Y121248D01*
X139238Y121177D01*
X139208Y122417D01*
X139283Y122348D01*
D02*
G37*
G36*
X111260Y125362D02*
X111189Y125433D01*
X111118Y125497D01*
X111046Y125553D01*
X110973Y125602D01*
X110899Y125644D01*
X110825Y125678D01*
X110750Y125704D01*
X110674Y125723D01*
X110597Y125734D01*
X110520Y125738D01*
X110533Y126238D01*
X110610Y126241D01*
X110686Y126252D01*
X110762Y126270D01*
X110838Y126296D01*
X110914Y126329D01*
X110990Y126369D01*
X111065Y126416D01*
X111141Y126470D01*
X111216Y126532D01*
X111291Y126601D01*
X111260Y125362D01*
D02*
G37*
G36*
X53668Y92320D02*
X53633Y92272D01*
X53603Y92218D01*
X53576Y92158D01*
X53554Y92093D01*
X53535Y92022D01*
X53521Y91945D01*
X53511Y91863D01*
X53505Y91775D01*
X53503Y91682D01*
X52671D01*
X52669Y91775D01*
X52653Y91945D01*
X52639Y92022D01*
X52620Y92093D01*
X52598Y92158D01*
X52571Y92218D01*
X52541Y92272D01*
X52506Y92320D01*
X52467Y92363D01*
X53707D01*
X53668Y92320D01*
D02*
G37*
G36*
X131835Y112572D02*
X131773Y112497D01*
X131719Y112422D01*
X131671Y112346D01*
X131631Y112270D01*
X131598Y112195D01*
X131573Y112119D01*
X131555Y112042D01*
X131544Y111966D01*
X131540Y111890D01*
X131040Y111877D01*
X131036Y111954D01*
X131025Y112031D01*
X131007Y112107D01*
X130980Y112182D01*
X130946Y112256D01*
X130905Y112330D01*
X130856Y112403D01*
X130800Y112475D01*
X130736Y112546D01*
X130664Y112617D01*
X131904Y112647D01*
X131835Y112572D01*
D02*
G37*
G36*
X32030Y44539D02*
X31929Y44537D01*
X31833Y44530D01*
X31741Y44517D01*
X31655Y44499D01*
X31574Y44475D01*
X31497Y44445D01*
X31425Y44410D01*
X31358Y44369D01*
X31296Y44323D01*
X31239Y44271D01*
X30886Y44625D01*
X30937Y44682D01*
X30984Y44744D01*
X31024Y44811D01*
X31060Y44882D01*
X31089Y44959D01*
X31113Y45041D01*
X31132Y45127D01*
X31144Y45218D01*
X31152Y45315D01*
X31153Y45416D01*
X32030Y44539D01*
D02*
G37*
G36*
X39367Y39086D02*
X39304Y39013D01*
X39248Y38939D01*
X39200Y38865D01*
X39159Y38790D01*
X39126Y38715D01*
X39100Y38640D01*
X39082Y38564D01*
X39070Y38487D01*
X39067Y38410D01*
X38567D01*
X38563Y38487D01*
X38552Y38564D01*
X38533Y38640D01*
X38508Y38715D01*
X38474Y38790D01*
X38434Y38865D01*
X38385Y38939D01*
X38330Y39013D01*
X38267Y39086D01*
X38197Y39159D01*
X39437D01*
X39367Y39086D01*
D02*
G37*
G36*
X43945Y151228D02*
X43883Y151155D01*
X43827Y151081D01*
X43779Y151007D01*
X43738Y150932D01*
X43705Y150857D01*
X43679Y150782D01*
X43660Y150706D01*
X43649Y150629D01*
X43646Y150552D01*
X43146D01*
X43142Y150629D01*
X43131Y150706D01*
X43112Y150782D01*
X43086Y150857D01*
X43053Y150932D01*
X43012Y151007D01*
X42964Y151081D01*
X42909Y151155D01*
X42846Y151228D01*
X42775Y151301D01*
X44016D01*
X43945Y151228D01*
D02*
G37*
G36*
X91104Y95024D02*
X91179Y94962D01*
X91254Y94908D01*
X91330Y94860D01*
X91405Y94820D01*
X91481Y94788D01*
X91557Y94762D01*
X91633Y94744D01*
X91710Y94733D01*
X91786Y94729D01*
X91799Y94229D01*
X91721Y94226D01*
X91645Y94214D01*
X91569Y94195D01*
X91494Y94169D01*
X91420Y94135D01*
X91346Y94094D01*
X91273Y94045D01*
X91201Y93989D01*
X91129Y93925D01*
X91059Y93853D01*
X91029Y95093D01*
X91104Y95024D01*
D02*
G37*
G36*
X114434Y93859D02*
X114362Y93929D01*
X114288Y93992D01*
X114215Y94048D01*
X114140Y94096D01*
X114066Y94137D01*
X113991Y94170D01*
X113915Y94196D01*
X113839Y94214D01*
X113763Y94226D01*
X113686Y94229D01*
Y94729D01*
X113763Y94733D01*
X113839Y94744D01*
X113915Y94763D01*
X113991Y94788D01*
X114066Y94822D01*
X114140Y94863D01*
X114215Y94911D01*
X114288Y94966D01*
X114362Y95029D01*
X114434Y95099D01*
Y93859D01*
D02*
G37*
D55*
X131290Y103808D02*
Y113243D01*
X131269Y113264D02*
X131290Y113243D01*
X138591Y121782D02*
X138612Y121803D01*
X72746Y13468D02*
X92385D01*
X72726Y13447D02*
X72746Y13468D01*
X44089Y232571D02*
X45199Y231461D01*
X44643Y235024D02*
Y237479D01*
Y235024D02*
X46198Y233469D01*
X143202Y121803D02*
X143244Y121760D01*
X138612Y121803D02*
X143202D01*
X43396Y127511D02*
Y151934D01*
X90433Y94479D02*
X115067D01*
X90412Y94458D02*
X90433Y94479D01*
X38817Y28348D02*
Y39792D01*
X37216Y26746D02*
X38817Y28348D01*
X29776Y43162D02*
X32039Y45425D01*
X29776Y26416D02*
Y43162D01*
X47760Y125988D02*
X111885D01*
X111908Y125965D01*
X45199Y128549D02*
X47760Y125988D01*
X45199Y128549D02*
Y231461D01*
X48174Y126988D02*
X110048D01*
X110862Y127801D01*
X147791D01*
X147813Y127780D01*
X46198Y128964D02*
X48174Y126988D01*
X46198Y128964D02*
Y233469D01*
X77124Y80593D02*
Y93783D01*
X43396Y127511D02*
X77124Y93783D01*
D56*
X167000Y236800D02*
X175100Y244900D01*
X167000Y233800D02*
Y236800D01*
X175100Y244900D02*
Y263100D01*
X167193Y267293D02*
Y270482D01*
X164900Y265000D02*
X167193Y267293D01*
X146600Y265000D02*
X164900D01*
X162500Y279500D02*
X167193Y274807D01*
Y270482D02*
Y274807D01*
X170700Y279842D02*
X175100Y275443D01*
Y263100D02*
Y275443D01*
X166500Y279842D02*
X170700D01*
D58*
X56850Y84652D02*
Y106501D01*
Y84652D02*
X57962Y83540D01*
Y77302D02*
Y83540D01*
D59*
X63078Y6546D02*
Y48147D01*
Y6546D02*
X64961Y4663D01*
X61978Y4087D02*
Y56557D01*
Y4087D02*
X61988Y4077D01*
X63078Y48147D02*
X64901Y49971D01*
D60*
X53087Y89036D02*
Y92996D01*
D63*
X68110Y289500D02*
D03*
X81889D02*
D03*
X148890D02*
D03*
X162669D02*
D03*
X135110D02*
D03*
X121331D02*
D03*
D64*
X44401Y80622D02*
D03*
Y103378D02*
D03*
D65*
X46449Y109009D02*
D03*
X46449Y74993D02*
D03*
D66*
X29914Y109009D02*
D03*
Y74993D02*
D03*
D67*
X144000Y6500D02*
D03*
X154000D02*
D03*
X134000D02*
D03*
D68*
X164000D02*
D03*
D69*
X67704Y94700D02*
D03*
X62000Y77000D02*
D03*
X153500Y252500D02*
D03*
X155000Y250500D02*
D03*
X156500Y252500D02*
D03*
X153500Y256500D02*
D03*
X155000Y254500D02*
D03*
X156500Y256500D02*
D03*
X159500D02*
D03*
X158000Y254500D02*
D03*
X161000D02*
D03*
X166000Y253000D02*
D03*
X164000Y251500D02*
D03*
X166000Y262000D02*
D03*
X164000Y260500D02*
D03*
X166000Y259000D02*
D03*
Y256000D02*
D03*
X164000Y257500D02*
D03*
Y254500D02*
D03*
X91500Y177500D02*
D03*
Y171500D02*
D03*
Y174500D02*
D03*
X87500Y177500D02*
D03*
X85500Y176000D02*
D03*
X87500Y174500D02*
D03*
Y171500D02*
D03*
X85500Y173000D02*
D03*
X89500Y176000D02*
D03*
Y173000D02*
D03*
X120500Y237500D02*
D03*
X117500D02*
D03*
X119000Y239500D02*
D03*
X116000D02*
D03*
X114500Y237500D02*
D03*
X113000Y239500D02*
D03*
X104000D02*
D03*
X105500Y237500D02*
D03*
X107000Y239500D02*
D03*
X110000D02*
D03*
X108500Y237500D02*
D03*
X111500D02*
D03*
X95000Y239500D02*
D03*
X96500Y237500D02*
D03*
X98000Y239500D02*
D03*
X101000D02*
D03*
X99500Y237500D02*
D03*
X102500D02*
D03*
X120500Y241500D02*
D03*
X117500D02*
D03*
X119000Y243500D02*
D03*
X116000D02*
D03*
X114500Y241500D02*
D03*
X113000Y243500D02*
D03*
X104000D02*
D03*
X105500Y241500D02*
D03*
X107000Y243500D02*
D03*
X110000D02*
D03*
X108500Y241500D02*
D03*
X111500D02*
D03*
X95000Y243500D02*
D03*
X96500Y241500D02*
D03*
X98000Y243500D02*
D03*
X101000D02*
D03*
X99500Y241500D02*
D03*
X102500D02*
D03*
X122000Y243500D02*
D03*
X125000D02*
D03*
X123500Y241500D02*
D03*
X126500D02*
D03*
X122000Y239500D02*
D03*
X125000D02*
D03*
X123500Y237500D02*
D03*
X126500D02*
D03*
X67721Y252992D02*
D03*
X64495Y261793D02*
D03*
X178550Y239277D02*
D03*
X171009Y233402D02*
D03*
X162998Y233423D02*
D03*
X94573Y216504D02*
D03*
X80517Y228190D02*
D03*
X78422Y226117D02*
D03*
X80538Y218192D02*
D03*
X78466Y220243D02*
D03*
X105639Y102044D02*
D03*
X90002Y109094D02*
D03*
X85878Y109071D02*
D03*
X78936Y109008D02*
D03*
X114996Y118643D02*
D03*
X115850Y130200D02*
D03*
X136165Y172411D02*
D03*
X153940Y157052D02*
D03*
X139990Y171002D02*
D03*
X136316Y161069D02*
D03*
X190448Y207148D02*
D03*
X164942Y207190D02*
D03*
X168038Y159596D02*
D03*
X185535Y150601D02*
D03*
X177973Y158954D02*
D03*
X164472Y146393D02*
D03*
X154025Y105056D02*
D03*
X95941Y87817D02*
D03*
X95983Y84292D02*
D03*
X97970Y80724D02*
D03*
X92288Y9501D02*
D03*
X83529Y33235D02*
D03*
X81200Y29539D02*
D03*
X65285Y42037D02*
D03*
X82140Y54213D02*
D03*
X85429Y64488D02*
D03*
X85750Y79655D02*
D03*
X48500Y45000D02*
D03*
X55736Y29454D02*
D03*
X44500Y48000D02*
D03*
Y45000D02*
D03*
X48500Y48000D02*
D03*
X46500Y46500D02*
D03*
Y43500D02*
D03*
X66000Y193500D02*
D03*
X67500Y191500D02*
D03*
X69000Y193500D02*
D03*
X70500Y191500D02*
D03*
X57000Y193500D02*
D03*
X58500Y191500D02*
D03*
X60000Y193500D02*
D03*
X63000D02*
D03*
X61500Y191500D02*
D03*
X64500D02*
D03*
X67500Y195500D02*
D03*
X70500D02*
D03*
X58500D02*
D03*
X61500D02*
D03*
X64500D02*
D03*
X65000Y165500D02*
D03*
X66500Y163500D02*
D03*
X68000Y165500D02*
D03*
X56000D02*
D03*
X57500Y163500D02*
D03*
X59000Y165500D02*
D03*
X62000D02*
D03*
X60500Y163500D02*
D03*
X63500D02*
D03*
X66500Y167500D02*
D03*
X57500D02*
D03*
X60500D02*
D03*
X63500D02*
D03*
X103500Y164000D02*
D03*
X101500Y162500D02*
D03*
X103500Y161000D02*
D03*
Y158000D02*
D03*
X101500Y159500D02*
D03*
X103500Y173000D02*
D03*
X101500Y171500D02*
D03*
X103500Y170000D02*
D03*
Y167000D02*
D03*
X101500Y168500D02*
D03*
Y165500D02*
D03*
X107500Y164000D02*
D03*
X105500Y162500D02*
D03*
X107500Y161000D02*
D03*
Y158000D02*
D03*
X105500Y159500D02*
D03*
X107500Y173000D02*
D03*
X105500Y171500D02*
D03*
X107500Y170000D02*
D03*
Y167000D02*
D03*
X105500Y168500D02*
D03*
Y165500D02*
D03*
X25000Y219500D02*
D03*
Y216500D02*
D03*
X23000Y218000D02*
D03*
Y215000D02*
D03*
X25000Y213500D02*
D03*
X23000Y212000D02*
D03*
X25000Y228500D02*
D03*
Y225500D02*
D03*
X23000Y227000D02*
D03*
Y224000D02*
D03*
X25000Y222500D02*
D03*
X23000Y221000D02*
D03*
Y230000D02*
D03*
X25000Y231500D02*
D03*
X23000Y233000D02*
D03*
Y236000D02*
D03*
X25000Y234500D02*
D03*
Y237500D02*
D03*
X29000Y219500D02*
D03*
Y216500D02*
D03*
X27000Y218000D02*
D03*
Y215000D02*
D03*
X29000Y213500D02*
D03*
X27000Y212000D02*
D03*
X29000Y228500D02*
D03*
Y225500D02*
D03*
X27000Y227000D02*
D03*
Y224000D02*
D03*
X29000Y222500D02*
D03*
X27000Y221000D02*
D03*
Y230000D02*
D03*
X29000Y231500D02*
D03*
X27000Y233000D02*
D03*
Y236000D02*
D03*
X29000Y234500D02*
D03*
Y237500D02*
D03*
X109000Y191500D02*
D03*
X106000D02*
D03*
X107500Y193500D02*
D03*
X104500D02*
D03*
X103000Y191500D02*
D03*
X101500Y193500D02*
D03*
X118000Y191500D02*
D03*
X115000D02*
D03*
X116500Y193500D02*
D03*
X113500D02*
D03*
X112000Y191500D02*
D03*
X110500Y193500D02*
D03*
X119500D02*
D03*
X121000Y191500D02*
D03*
X122500Y193500D02*
D03*
X125500D02*
D03*
X124000Y191500D02*
D03*
X127000D02*
D03*
X109000Y187500D02*
D03*
X106000D02*
D03*
X107500Y189500D02*
D03*
X104500D02*
D03*
X103000Y187500D02*
D03*
X101500Y189500D02*
D03*
X118000Y187500D02*
D03*
X115000D02*
D03*
X116500Y189500D02*
D03*
X113500D02*
D03*
X112000Y187500D02*
D03*
X110500Y189500D02*
D03*
X119500D02*
D03*
X121000Y187500D02*
D03*
X122500Y189500D02*
D03*
X125500D02*
D03*
X124000Y187500D02*
D03*
X127000D02*
D03*
X26500Y168000D02*
D03*
Y171000D02*
D03*
X28500Y169500D02*
D03*
Y172500D02*
D03*
X26500Y174000D02*
D03*
X28500Y175500D02*
D03*
X26500Y159000D02*
D03*
Y162000D02*
D03*
X28500Y160500D02*
D03*
Y163500D02*
D03*
X26500Y165000D02*
D03*
X28500Y166500D02*
D03*
Y157500D02*
D03*
X26500Y156000D02*
D03*
X28500Y154500D02*
D03*
Y151500D02*
D03*
X26500Y153000D02*
D03*
Y150000D02*
D03*
X22500Y168000D02*
D03*
Y171000D02*
D03*
X24500Y169500D02*
D03*
Y172500D02*
D03*
X22500Y174000D02*
D03*
X24500Y175500D02*
D03*
X22500Y159000D02*
D03*
Y162000D02*
D03*
X24500Y160500D02*
D03*
Y163500D02*
D03*
X22500Y165000D02*
D03*
X24500Y166500D02*
D03*
Y157500D02*
D03*
X22500Y156000D02*
D03*
X24500Y154500D02*
D03*
Y151500D02*
D03*
X22500Y153000D02*
D03*
Y150000D02*
D03*
X27000Y257000D02*
D03*
Y260000D02*
D03*
X29000Y258500D02*
D03*
Y261500D02*
D03*
X27000Y263000D02*
D03*
X29000Y264500D02*
D03*
X27000Y248000D02*
D03*
Y251000D02*
D03*
X29000Y249500D02*
D03*
Y252500D02*
D03*
X27000Y254000D02*
D03*
X29000Y255500D02*
D03*
Y246500D02*
D03*
X27000Y245000D02*
D03*
X29000Y243500D02*
D03*
Y240500D02*
D03*
X27000Y242000D02*
D03*
Y239000D02*
D03*
X23000Y257000D02*
D03*
Y260000D02*
D03*
X25000Y258500D02*
D03*
Y261500D02*
D03*
X23000Y263000D02*
D03*
X25000Y264500D02*
D03*
X23000Y248000D02*
D03*
Y251000D02*
D03*
X25000Y249500D02*
D03*
Y252500D02*
D03*
X23000Y254000D02*
D03*
X25000Y255500D02*
D03*
Y246500D02*
D03*
X23000Y245000D02*
D03*
X25000Y243500D02*
D03*
Y240500D02*
D03*
X23000Y242000D02*
D03*
Y239000D02*
D03*
X146000Y190500D02*
D03*
X143000D02*
D03*
X144500Y192500D02*
D03*
X141500D02*
D03*
X140000Y190500D02*
D03*
X138500Y192500D02*
D03*
X152000Y190500D02*
D03*
X150500Y192500D02*
D03*
X149000Y190500D02*
D03*
X147500Y192500D02*
D03*
X146000Y194500D02*
D03*
X143000D02*
D03*
X144500Y196500D02*
D03*
X141500D02*
D03*
X140000Y194500D02*
D03*
X138500Y196500D02*
D03*
X152000Y194500D02*
D03*
X150500Y196500D02*
D03*
X149000Y194500D02*
D03*
X147500Y196500D02*
D03*
X85500Y156000D02*
D03*
X83000Y186500D02*
D03*
X80000D02*
D03*
X81500Y188500D02*
D03*
X78500D02*
D03*
X77000Y186500D02*
D03*
X89000D02*
D03*
X87500Y188500D02*
D03*
X86000Y186500D02*
D03*
X84500Y188500D02*
D03*
X83000Y190500D02*
D03*
X80000D02*
D03*
X81500Y192500D02*
D03*
X78500D02*
D03*
X77000Y190500D02*
D03*
X89000D02*
D03*
X87500Y192500D02*
D03*
X86000Y190500D02*
D03*
X84500Y192500D02*
D03*
X89000Y194500D02*
D03*
X86000D02*
D03*
X87500Y196500D02*
D03*
X84500D02*
D03*
X83000Y194500D02*
D03*
X81500Y196500D02*
D03*
X78500D02*
D03*
X80000Y194500D02*
D03*
X87500Y213500D02*
D03*
X46500Y243500D02*
D03*
Y246500D02*
D03*
X48500Y245000D02*
D03*
Y248000D02*
D03*
X46500Y249500D02*
D03*
X48500Y251000D02*
D03*
Y260000D02*
D03*
X46500Y258500D02*
D03*
X48500Y257000D02*
D03*
Y254000D02*
D03*
X46500Y255500D02*
D03*
Y252500D02*
D03*
X48500Y269000D02*
D03*
X46500Y267500D02*
D03*
X48500Y266000D02*
D03*
Y263000D02*
D03*
X46500Y264500D02*
D03*
Y261500D02*
D03*
X50500Y243500D02*
D03*
Y246500D02*
D03*
X52500Y245000D02*
D03*
Y248000D02*
D03*
X50500Y249500D02*
D03*
X52500Y251000D02*
D03*
Y260000D02*
D03*
X50500Y258500D02*
D03*
X52500Y257000D02*
D03*
Y254000D02*
D03*
X50500Y255500D02*
D03*
Y252500D02*
D03*
X52500Y269000D02*
D03*
X50500Y267500D02*
D03*
X52500Y266000D02*
D03*
Y263000D02*
D03*
X50500Y264500D02*
D03*
Y261500D02*
D03*
X59000Y218000D02*
D03*
Y221000D02*
D03*
X61000Y219500D02*
D03*
Y222500D02*
D03*
X59000Y224000D02*
D03*
X61000Y225500D02*
D03*
Y234500D02*
D03*
X59000Y233000D02*
D03*
X61000Y231500D02*
D03*
Y228500D02*
D03*
X59000Y230000D02*
D03*
Y227000D02*
D03*
X61000Y243500D02*
D03*
X59000Y242000D02*
D03*
X61000Y240500D02*
D03*
Y237500D02*
D03*
X59000Y239000D02*
D03*
Y236000D02*
D03*
X55000D02*
D03*
Y239000D02*
D03*
X57000Y237500D02*
D03*
Y240500D02*
D03*
X55000Y242000D02*
D03*
X57000Y243500D02*
D03*
X55000Y227000D02*
D03*
Y230000D02*
D03*
X57000Y228500D02*
D03*
Y231500D02*
D03*
X55000Y233000D02*
D03*
X57000Y234500D02*
D03*
Y225500D02*
D03*
X55000Y224000D02*
D03*
X57000Y222500D02*
D03*
Y219500D02*
D03*
X55000Y221000D02*
D03*
Y218000D02*
D03*
X137413Y62440D02*
D03*
X137367Y70350D02*
D03*
X137528Y47340D02*
D03*
X148724Y51791D02*
D03*
Y59015D02*
D03*
Y66240D02*
D03*
X125906Y51747D02*
D03*
X126032Y58993D02*
D03*
Y66217D02*
D03*
X166824Y13103D02*
D03*
X166899Y15965D02*
D03*
X166880Y93852D02*
D03*
X161906Y94621D02*
D03*
X113526Y9517D02*
D03*
X105055Y114011D02*
D03*
X29744Y50505D02*
D03*
X64901Y49971D02*
D03*
X61978Y56557D02*
D03*
X61988Y4077D02*
D03*
X64961Y4663D02*
D03*
X103027Y7456D02*
D03*
X131290Y103808D02*
D03*
X131269Y113264D02*
D03*
X138591Y121782D02*
D03*
X53087Y89036D02*
D03*
Y92996D02*
D03*
X92385Y13468D02*
D03*
X72726Y13447D02*
D03*
X78691Y166993D02*
D03*
X175100Y263100D02*
D03*
X167000Y233800D02*
D03*
X44643Y237479D02*
D03*
X44089Y232571D02*
D03*
X143244Y121760D02*
D03*
X43396Y151934D02*
D03*
X77124Y80593D02*
D03*
X167193Y270482D02*
D03*
X162500Y279500D02*
D03*
X166500Y279842D02*
D03*
X184625Y270514D02*
D03*
X184731Y254504D02*
D03*
X115067Y94479D02*
D03*
X90412Y94458D02*
D03*
X38817Y39792D02*
D03*
X37216Y26746D02*
D03*
X32039Y45425D02*
D03*
X29776Y26416D02*
D03*
X56850Y106501D02*
D03*
X57962Y77302D02*
D03*
X111908Y125965D02*
D03*
X147813Y127780D02*
D03*
X146600Y265000D02*
D03*
X35987Y52851D02*
D03*
X47530Y59765D02*
D03*
X58047Y39236D02*
D03*
X79680Y46751D02*
D03*
X85354Y59514D02*
D03*
X76349Y64510D02*
D03*
X85548Y82503D02*
D03*
X79011Y112511D02*
D03*
Y115011D02*
D03*
X81511D02*
D03*
X76011D02*
D03*
X81511Y117511D02*
D03*
X84511D02*
D03*
X83011Y119511D02*
D03*
X72000Y108000D02*
D03*
X69500Y112500D02*
D03*
X119784Y135017D02*
D03*
X95620Y112740D02*
D03*
X96239Y106028D02*
D03*
X96047Y110041D02*
D03*
X98502Y116445D02*
D03*
X95570Y115430D02*
D03*
X167200Y139000D02*
D03*
X161900Y132500D02*
D03*
X170500Y150600D02*
D03*
X188000Y160400D02*
D03*
X176700Y112300D02*
D03*
X181500Y109800D02*
D03*
X158000Y104900D02*
D03*
X162000Y104500D02*
D03*
X169000Y98000D02*
D03*
X118200Y113400D02*
D03*
M02*
