G04 Layer_Color=8388736*
%FSLAX25Y25*%
%MOIN*%
G70*
G01*
G75*
%ADD83R,0.03162X0.07099*%
%ADD84R,0.03162X0.03162*%
%ADD85R,0.01902X0.03950*%
%ADD86R,0.03950X0.01902*%
%ADD87C,0.04737*%
%ADD88R,0.08274X0.05124*%
%ADD89R,0.03162X0.03162*%
%ADD90R,0.03156X0.05321*%
%ADD91R,0.09061X0.10243*%
%ADD92R,0.10236X0.09646*%
%ADD93R,0.09055X0.03543*%
%ADD94R,0.08274X0.08274*%
%ADD95R,0.08280X0.05524*%
%ADD96R,0.06693X0.03543*%
%ADD97R,0.12205X0.08661*%
%ADD98R,0.03556X0.05918*%
%ADD99R,0.05328X0.03162*%
%ADD100R,0.05524X0.01981*%
%ADD101R,0.03162X0.05131*%
%ADD102R,0.05131X0.03162*%
%ADD103R,0.03353X0.01384*%
%ADD104R,0.01384X0.03353*%
%ADD105R,0.07093X0.07093*%
%ADD106R,0.03162X0.02769*%
%ADD107R,0.02769X0.03162*%
%ADD108R,0.14579X0.07099*%
%ADD109R,0.05524X0.06312*%
%ADD110R,0.05800X0.05800*%
%ADD111R,0.03950X0.04343*%
%ADD112R,0.04343X0.08674*%
%ADD113R,0.05918X0.05918*%
%ADD114R,0.08674X0.04343*%
%ADD115R,0.03701X0.01640*%
%ADD116R,0.08274X0.08274*%
%ADD117R,0.04343X0.03950*%
%ADD118R,0.02895X0.03950*%
%ADD119R,0.02054X0.02998*%
%ADD120R,0.05800X0.05800*%
%ADD121R,0.14179X0.12211*%
%ADD122R,0.08268X0.04725*%
%ADD123R,0.01575X0.04134*%
%ADD124R,0.04134X0.01575*%
%ADD125R,0.01575X0.05906*%
%ADD126R,0.04725X0.13780*%
%ADD127R,0.11024X0.04725*%
%ADD128C,0.10249*%
%ADD129C,0.03162*%
%ADD130O,0.10642X0.05524*%
%ADD131O,0.08674X0.05524*%
%ADD132C,0.06706*%
%ADD133R,0.06706X0.06706*%
G36*
X68618Y219886D02*
X70764D01*
Y217642D01*
X68618D01*
Y216933D01*
X59288D01*
Y217642D01*
X57063D01*
Y219886D01*
X59288D01*
Y225850D01*
X60941D01*
Y224000D01*
X61847D01*
Y225850D01*
X63500D01*
Y224000D01*
X64406D01*
Y225850D01*
X66059D01*
Y224000D01*
X66965D01*
Y225850D01*
X68618D01*
Y219886D01*
D02*
G37*
G36*
X92682Y175893D02*
X97186D01*
Y174948D01*
X94351D01*
Y173689D01*
X97186D01*
Y172744D01*
X92682D01*
Y170318D01*
X84682D01*
Y172744D01*
X80178D01*
Y173689D01*
X83013D01*
Y174948D01*
X80178D01*
Y175893D01*
X84682D01*
Y178319D01*
X92682D01*
Y175893D01*
D02*
G37*
G36*
X83665Y264834D02*
X85890D01*
Y262591D01*
X83665D01*
Y256626D01*
X82012D01*
Y258476D01*
X81106D01*
Y256626D01*
X79453D01*
Y258476D01*
X78547D01*
Y256626D01*
X76894D01*
Y258476D01*
X75988D01*
Y256626D01*
X74335D01*
Y262591D01*
X72189D01*
Y264834D01*
X74335D01*
Y265543D01*
X83665D01*
Y264834D01*
D02*
G37*
G36*
X161681Y257957D02*
Y252012D01*
X158335D01*
X157902Y251579D01*
Y249729D01*
X151051D01*
Y257996D01*
X161681Y257957D01*
D02*
G37*
D83*
X170500Y124000D02*
D03*
X175500D02*
D03*
X180500D02*
D03*
X185500D02*
D03*
X170500Y146000D02*
D03*
X175500D02*
D03*
X180500D02*
D03*
X185500D02*
D03*
D84*
X102469Y110000D02*
D03*
X98532D02*
D03*
X102469Y114000D02*
D03*
X98532D02*
D03*
X75968Y112500D02*
D03*
X72031D02*
D03*
X133531Y183500D02*
D03*
X137469D02*
D03*
X115855Y132500D02*
D03*
X119792D02*
D03*
X102469Y106000D02*
D03*
X98532D02*
D03*
X72031Y105500D02*
D03*
X75968D02*
D03*
X72031Y175000D02*
D03*
X75968D02*
D03*
X75968Y179000D02*
D03*
X72031D02*
D03*
X72031Y171000D02*
D03*
X75968D02*
D03*
X61968Y99000D02*
D03*
X58031D02*
D03*
X61968Y84500D02*
D03*
X58031D02*
D03*
X35969Y43000D02*
D03*
X32032D02*
D03*
X35969Y39000D02*
D03*
X32032D02*
D03*
X79031Y82500D02*
D03*
X82968D02*
D03*
X79031Y59500D02*
D03*
X82968D02*
D03*
X58031Y50000D02*
D03*
X61968D02*
D03*
X75968Y167000D02*
D03*
X72031D02*
D03*
X61968Y80500D02*
D03*
X58031D02*
D03*
X79031Y64500D02*
D03*
X82968D02*
D03*
X51468Y57000D02*
D03*
X47532D02*
D03*
X32032Y50500D02*
D03*
X35969D02*
D03*
X61968Y42000D02*
D03*
X58031D02*
D03*
X61968Y46000D02*
D03*
X58031D02*
D03*
X58031Y54000D02*
D03*
X61968D02*
D03*
X61032Y253000D02*
D03*
X64969D02*
D03*
X89531Y162500D02*
D03*
X93468D02*
D03*
X182468Y270500D02*
D03*
X178532D02*
D03*
X182468Y262500D02*
D03*
X178532D02*
D03*
X182468Y258500D02*
D03*
X178532D02*
D03*
X182468Y242500D02*
D03*
X178532D02*
D03*
X182468Y246500D02*
D03*
X178532D02*
D03*
X178532Y254500D02*
D03*
X182468D02*
D03*
X182468Y266500D02*
D03*
X178532D02*
D03*
X182468Y250500D02*
D03*
X178532D02*
D03*
D85*
X84745Y167527D02*
D03*
X86713D02*
D03*
X88682D02*
D03*
X90650D02*
D03*
X92619D02*
D03*
X84745Y181109D02*
D03*
X86713D02*
D03*
X88682D02*
D03*
X90650D02*
D03*
X92619D02*
D03*
D86*
X95473Y177271D02*
D03*
Y171365D02*
D03*
X81891Y177271D02*
D03*
Y171365D02*
D03*
D87*
X88682Y174318D02*
D03*
D88*
X153720Y117158D02*
D03*
X131280Y136842D02*
D03*
Y127000D02*
D03*
Y117158D02*
D03*
X153720Y136842D02*
D03*
X153719Y127000D02*
D03*
D89*
X63500Y178969D02*
D03*
Y175031D02*
D03*
X143000Y157032D02*
D03*
Y160968D02*
D03*
X151000Y160968D02*
D03*
Y157032D02*
D03*
X149500Y170031D02*
D03*
Y173969D02*
D03*
X185500Y116469D02*
D03*
Y112531D02*
D03*
X67500Y178969D02*
D03*
Y175031D02*
D03*
X164500Y139032D02*
D03*
Y142968D02*
D03*
X131000Y173969D02*
D03*
Y170031D02*
D03*
X100500Y178469D02*
D03*
Y174531D02*
D03*
X87453Y216508D02*
D03*
Y220445D02*
D03*
X81500Y162469D02*
D03*
Y158531D02*
D03*
X181500Y116469D02*
D03*
Y112531D02*
D03*
X111000Y13468D02*
D03*
Y9532D02*
D03*
X164500Y128532D02*
D03*
Y132468D02*
D03*
X99000Y13468D02*
D03*
Y9532D02*
D03*
X56850Y89000D02*
D03*
X63150D02*
D03*
X56850Y94700D02*
D03*
X63150D02*
D03*
X56850Y103500D02*
D03*
X63150D02*
D03*
X77500Y158531D02*
D03*
Y162469D02*
D03*
X139000Y157032D02*
D03*
Y160968D02*
D03*
X147000Y157032D02*
D03*
Y160968D02*
D03*
X154000Y98032D02*
D03*
Y101969D02*
D03*
X95000Y9532D02*
D03*
Y13468D02*
D03*
X162000Y101969D02*
D03*
Y98032D02*
D03*
X166000Y101969D02*
D03*
Y98032D02*
D03*
X78500Y39968D02*
D03*
Y36031D02*
D03*
X103000Y13468D02*
D03*
Y9532D02*
D03*
X158000Y98032D02*
D03*
Y101969D02*
D03*
X91953Y220445D02*
D03*
Y216508D02*
D03*
X85500Y162469D02*
D03*
Y158531D02*
D03*
X55500Y261531D02*
D03*
Y265469D02*
D03*
X83500Y36031D02*
D03*
Y39968D02*
D03*
X164500Y120031D02*
D03*
Y123969D02*
D03*
X167000Y239968D02*
D03*
Y236032D02*
D03*
X171000Y239968D02*
D03*
Y236032D02*
D03*
X163000Y236032D02*
D03*
Y239968D02*
D03*
X167500Y226969D02*
D03*
Y223031D02*
D03*
X91953Y211945D02*
D03*
Y208008D02*
D03*
X163000Y223031D02*
D03*
Y226969D02*
D03*
Y213531D02*
D03*
Y217469D02*
D03*
X139500Y255532D02*
D03*
Y259469D02*
D03*
X143500Y255532D02*
D03*
Y259469D02*
D03*
X162500Y273532D02*
D03*
Y277468D02*
D03*
X158500Y273532D02*
D03*
Y277468D02*
D03*
X154500Y273532D02*
D03*
Y277468D02*
D03*
X166500Y277468D02*
D03*
Y273532D02*
D03*
D90*
X173000Y116437D02*
D03*
X176740Y108563D02*
D03*
X169260D02*
D03*
X181740Y162937D02*
D03*
X174260D02*
D03*
X178000Y155063D02*
D03*
X125740Y109437D02*
D03*
X118260D02*
D03*
X122000Y101563D02*
D03*
D91*
X97465Y144000D02*
D03*
X80536D02*
D03*
D92*
X28382Y198563D02*
D03*
Y271437D02*
D03*
D93*
X38618Y227618D02*
D03*
Y232540D02*
D03*
Y237461D02*
D03*
Y242382D02*
D03*
Y247304D02*
D03*
Y252225D02*
D03*
Y262067D02*
D03*
Y257146D02*
D03*
Y222697D02*
D03*
Y217776D02*
D03*
Y212854D02*
D03*
Y207933D02*
D03*
D94*
X91161Y238000D02*
D03*
X73839D02*
D03*
X169339Y178500D02*
D03*
X186661D02*
D03*
D95*
X70000Y147701D02*
D03*
Y160299D02*
D03*
X59500Y147701D02*
D03*
Y160299D02*
D03*
X99000Y251701D02*
D03*
Y264299D02*
D03*
X109500Y251701D02*
D03*
Y264299D02*
D03*
X120500Y251701D02*
D03*
Y264299D02*
D03*
X131500Y251701D02*
D03*
Y264299D02*
D03*
D96*
X38709Y171685D02*
D03*
Y166764D02*
D03*
Y161843D02*
D03*
Y156921D02*
D03*
Y152000D02*
D03*
Y147079D02*
D03*
Y142157D02*
D03*
Y137236D02*
D03*
Y132315D02*
D03*
D97*
X27291Y122276D02*
D03*
Y181724D02*
D03*
D98*
X72768Y7642D02*
D03*
Y25359D02*
D03*
X81232Y7642D02*
D03*
Y25359D02*
D03*
X47267Y7642D02*
D03*
Y25359D02*
D03*
X55732Y7642D02*
D03*
Y25359D02*
D03*
D99*
X48165Y104599D02*
D03*
Y101449D02*
D03*
Y79402D02*
D03*
Y82552D02*
D03*
D100*
X48087Y85111D02*
D03*
Y87079D02*
D03*
Y89048D02*
D03*
Y91016D02*
D03*
Y92985D02*
D03*
Y94953D02*
D03*
Y96922D02*
D03*
Y98890D02*
D03*
D101*
X136260Y176724D02*
D03*
X140000D02*
D03*
X143740D02*
D03*
Y167276D02*
D03*
X140000D02*
D03*
X136260D02*
D03*
X33500Y31929D02*
D03*
X37240Y23071D02*
D03*
X29760D02*
D03*
X33500Y65929D02*
D03*
X37240Y57071D02*
D03*
X29760D02*
D03*
D102*
X76276Y69760D02*
D03*
X85724Y69760D02*
D03*
Y73500D02*
D03*
Y77240D02*
D03*
X76276D02*
D03*
Y46760D02*
D03*
X85724Y46760D02*
D03*
Y50500D02*
D03*
Y54240D02*
D03*
X76276D02*
D03*
X91724Y105260D02*
D03*
X82276D02*
D03*
Y109000D02*
D03*
Y112740D02*
D03*
X91724Y112740D02*
D03*
D103*
X52208Y42553D02*
D03*
Y44521D02*
D03*
Y46490D02*
D03*
X52209Y48458D02*
D03*
X40791Y48452D02*
D03*
Y46485D02*
D03*
Y44515D02*
D03*
Y42551D02*
D03*
D104*
X49452Y51209D02*
D03*
X47484D02*
D03*
X45515D02*
D03*
X43547D02*
D03*
Y39792D02*
D03*
X45515D02*
D03*
X47484D02*
D03*
X49452D02*
D03*
D105*
X46500Y45502D02*
D03*
D106*
X98335Y102000D02*
D03*
X102665D02*
D03*
D107*
X59459Y174819D02*
D03*
Y179149D02*
D03*
X107000Y9335D02*
D03*
Y13665D02*
D03*
D108*
X120000Y165701D02*
D03*
Y178299D02*
D03*
D109*
X82693Y121500D02*
D03*
X69307D02*
D03*
X89307D02*
D03*
X102693D02*
D03*
D110*
X70031Y188500D02*
D03*
X78969D02*
D03*
X95969D02*
D03*
X87032D02*
D03*
X88968Y248500D02*
D03*
X80032D02*
D03*
X131032Y190000D02*
D03*
X139969D02*
D03*
D111*
X117256Y152500D02*
D03*
X111744D02*
D03*
X117256Y158000D02*
D03*
X111744D02*
D03*
X175244Y169000D02*
D03*
X180756D02*
D03*
D112*
X166905Y88532D02*
D03*
X161906D02*
D03*
X156905D02*
D03*
X151906D02*
D03*
X146906D02*
D03*
X141905D02*
D03*
X136906D02*
D03*
X131905D02*
D03*
X126906D02*
D03*
X121906D02*
D03*
X116905D02*
D03*
X111906D02*
D03*
X106905D02*
D03*
X101906D02*
D03*
Y21602D02*
D03*
X106905D02*
D03*
X111906D02*
D03*
X116905D02*
D03*
X121906D02*
D03*
X126906D02*
D03*
X131905D02*
D03*
X136906D02*
D03*
X166905D02*
D03*
X161906D02*
D03*
X156905D02*
D03*
X151906D02*
D03*
X146906D02*
D03*
X141905D02*
D03*
D113*
X144602Y51780D02*
D03*
Y59004D02*
D03*
X137378D02*
D03*
X130154D02*
D03*
Y66228D02*
D03*
X137378D02*
D03*
X144602D02*
D03*
X137378Y51780D02*
D03*
X130154D02*
D03*
D114*
X97969Y37567D02*
D03*
Y42567D02*
D03*
Y47567D02*
D03*
Y52567D02*
D03*
Y57567D02*
D03*
Y62567D02*
D03*
Y67567D02*
D03*
Y72567D02*
D03*
Y77567D02*
D03*
Y32567D02*
D03*
D115*
X121648Y126059D02*
D03*
Y120941D02*
D03*
X115000D02*
D03*
Y123500D02*
D03*
Y126059D02*
D03*
D116*
X184500Y189839D02*
D03*
Y207161D02*
D03*
X171500Y189839D02*
D03*
Y207161D02*
D03*
D117*
X188000Y168756D02*
D03*
Y163244D02*
D03*
X168000Y163244D02*
D03*
Y168756D02*
D03*
D118*
X82193Y213751D02*
D03*
X78453D02*
D03*
X74713D02*
D03*
Y223200D02*
D03*
X78453D02*
D03*
X82193D02*
D03*
X60760Y268225D02*
D03*
X64500D02*
D03*
X68240D02*
D03*
Y258776D02*
D03*
X64500D02*
D03*
X60760D02*
D03*
D119*
X63953Y220850D02*
D03*
X67792Y212976D02*
D03*
X65232D02*
D03*
X62674D02*
D03*
X60114D02*
D03*
X79000Y261626D02*
D03*
X75161Y269500D02*
D03*
X77721D02*
D03*
X80279D02*
D03*
X82839D02*
D03*
D120*
X120500Y207469D02*
D03*
Y198531D02*
D03*
X113000Y207469D02*
D03*
Y198531D02*
D03*
X105500Y215531D02*
D03*
Y224468D02*
D03*
X113000Y215531D02*
D03*
Y224468D02*
D03*
X120500Y215531D02*
D03*
Y224468D02*
D03*
X105500Y207469D02*
D03*
Y198531D02*
D03*
D121*
X142500Y235279D02*
D03*
Y207721D02*
D03*
D122*
X156500Y255500D02*
D03*
D123*
X167193Y266638D02*
D03*
X164634Y266637D02*
D03*
X162075D02*
D03*
X159516Y266637D02*
D03*
X155579Y266637D02*
D03*
X153610Y266637D02*
D03*
X153020Y246362D02*
D03*
X154988Y246363D02*
D03*
X156957Y246362D02*
D03*
X161484Y246363D02*
D03*
X163453Y246362D02*
D03*
X165421Y246363D02*
D03*
X167390Y246362D02*
D03*
D124*
X150362Y262485D02*
D03*
X150362Y259925D02*
D03*
Y255476D02*
D03*
Y253508D02*
D03*
X150362Y251539D02*
D03*
X170638Y249610D02*
D03*
Y251579D02*
D03*
Y253547D02*
D03*
Y255516D02*
D03*
Y257484D02*
D03*
Y259453D02*
D03*
Y261421D02*
D03*
X170638Y263390D02*
D03*
D125*
X159516Y247248D02*
D03*
D126*
X165028Y256500D02*
D03*
D127*
X156366Y261224D02*
D03*
D128*
X68110Y289500D02*
D03*
X81889D02*
D03*
X148890D02*
D03*
X162669D02*
D03*
X135110D02*
D03*
X121331D02*
D03*
D129*
X44401Y80622D02*
D03*
Y103378D02*
D03*
D130*
X46449Y109009D02*
D03*
X46449Y74993D02*
D03*
D131*
X29914Y109009D02*
D03*
Y74993D02*
D03*
D132*
X144000Y6500D02*
D03*
X154000D02*
D03*
X134000D02*
D03*
D133*
X164000D02*
D03*
M02*
