G04 Layer_Color=65535*
%FSLAX25Y25*%
%MOIN*%
G70*
G01*
G75*
%ADD55C,0.00500*%
%ADD57C,0.01000*%
%ADD59C,0.00600*%
%ADD70C,0.01575*%
%ADD71C,0.00984*%
%ADD72C,0.01181*%
%ADD73C,0.00394*%
%ADD74C,0.00787*%
%ADD75C,0.00591*%
%ADD76C,0.00512*%
%ADD77C,0.00400*%
%ADD78C,0.00402*%
%ADD79R,0.23500X0.44500*%
%ADD80R,0.37000X0.21000*%
%ADD81R,0.45500X0.13000*%
%ADD82R,0.23000X0.56000*%
G36*
X60000Y94700D02*
X59100Y93600D01*
Y95800D01*
X60000Y94700D01*
D02*
G37*
G36*
X60900Y87900D02*
X60000Y89000D01*
X60900Y90100D01*
Y87900D01*
D02*
G37*
G36*
X60000Y89000D02*
X59100Y87900D01*
Y90100D01*
X60000Y89000D01*
D02*
G37*
G36*
X60900Y102400D02*
X60000Y103500D01*
X60900Y104600D01*
Y102400D01*
D02*
G37*
G36*
X60000Y103500D02*
X59100Y102400D01*
Y104600D01*
X60000Y103500D01*
D02*
G37*
G36*
X60900Y93600D02*
X60000Y94700D01*
X60900Y95800D01*
Y93600D01*
D02*
G37*
D55*
X168157Y128504D02*
Y141496D01*
X187843D01*
Y128504D02*
Y141496D01*
X168157Y128504D02*
X187843D01*
X80248Y236823D02*
Y239185D01*
X84815Y236862D02*
Y239224D01*
X80366Y239185D02*
X82500Y238000D01*
Y239500D01*
Y238000D02*
X84815Y236862D01*
X82500Y236500D02*
Y238000D01*
X80248Y236823D02*
X82500Y238000D01*
X79618Y238043D02*
X85484D01*
X82500Y238000D02*
X84579Y239224D01*
X129000Y1500D02*
Y11500D01*
X159000Y1500D02*
Y11500D01*
X129100D02*
X169000D01*
X129100Y1500D02*
X169000D01*
Y11500D01*
X178000Y178500D02*
X180079Y179724D01*
X175118Y178543D02*
X180984D01*
X175748Y177323D02*
X178000Y178500D01*
Y177000D02*
Y178500D01*
X180315Y177362D01*
X178000Y178500D02*
Y180000D01*
X175866Y179685D02*
X178000Y178500D01*
X180315Y177362D02*
Y179724D01*
X175748Y177323D02*
Y179685D01*
X183276Y200579D02*
X184500Y198500D01*
X184457Y195618D02*
Y201484D01*
X184500Y198500D02*
X185677Y196248D01*
X184500Y198500D02*
X186000D01*
X184500D02*
X185638Y200815D01*
X183000Y198500D02*
X184500D01*
X183315Y196366D02*
X184500Y198500D01*
X183276Y200815D02*
X185638D01*
X183315Y196248D02*
X185677D01*
X170276Y200579D02*
X171500Y198500D01*
X171457Y195618D02*
Y201484D01*
X171500Y198500D02*
X172677Y196248D01*
X171500Y198500D02*
X173000D01*
X171500D02*
X172638Y200815D01*
X170000Y198500D02*
X171500D01*
X170315Y196366D02*
X171500Y198500D01*
X170276Y200815D02*
X172638D01*
X170315Y196248D02*
X172677D01*
X169000Y272999D02*
Y270857D01*
X169143Y270428D01*
X169429Y270143D01*
X169857Y270000D01*
X170143D01*
X170571Y270143D01*
X170857Y270428D01*
X171000Y270857D01*
Y272999D01*
X171828Y272428D02*
X172114Y272571D01*
X172542Y272999D01*
Y270000D01*
X174028Y272428D02*
X174313Y272571D01*
X174742Y272999D01*
Y270000D01*
X185500Y251999D02*
Y249000D01*
Y251999D02*
X186785D01*
X187214Y251856D01*
X187357Y251714D01*
X187500Y251428D01*
Y251142D01*
X187357Y250857D01*
X187214Y250714D01*
X186785Y250571D01*
X185500D01*
X186500D02*
X187500Y249000D01*
X189599Y251999D02*
X188171Y250000D01*
X190313D01*
X189599Y251999D02*
Y249000D01*
X190984Y251285D02*
Y251428D01*
X191127Y251714D01*
X191270Y251856D01*
X191556Y251999D01*
X192127D01*
X192413Y251856D01*
X192556Y251714D01*
X192699Y251428D01*
Y251142D01*
X192556Y250857D01*
X192270Y250428D01*
X190842Y249000D01*
X192841D01*
X185500Y255999D02*
Y253000D01*
Y255999D02*
X186785D01*
X187214Y255856D01*
X187357Y255714D01*
X187500Y255428D01*
Y255142D01*
X187357Y254857D01*
X187214Y254714D01*
X186785Y254571D01*
X185500D01*
X186500D02*
X187500Y253000D01*
X189599Y255999D02*
X188171Y254000D01*
X190313D01*
X189599Y255999D02*
Y253000D01*
X190842Y255428D02*
X191127Y255571D01*
X191556Y255999D01*
Y253000D01*
X170001Y221000D02*
X173000D01*
X170001D02*
Y222285D01*
X170143Y222714D01*
X170286Y222857D01*
X170572Y223000D01*
X170858D01*
X171143Y222857D01*
X171286Y222714D01*
X171429Y222285D01*
Y221000D01*
Y222000D02*
X173000Y223000D01*
X170001Y225099D02*
X172000Y223671D01*
Y225813D01*
X170001Y225099D02*
X173000D01*
X170001Y227199D02*
X170143Y226770D01*
X170572Y226484D01*
X171286Y226342D01*
X171715D01*
X172429Y226484D01*
X172857Y226770D01*
X173000Y227199D01*
Y227484D01*
X172857Y227913D01*
X172429Y228199D01*
X171715Y228341D01*
X171286D01*
X170572Y228199D01*
X170143Y227913D01*
X170001Y227484D01*
Y227199D01*
X185500Y247999D02*
Y245000D01*
Y247999D02*
X186785D01*
X187214Y247856D01*
X187357Y247714D01*
X187500Y247428D01*
Y247142D01*
X187357Y246857D01*
X187214Y246714D01*
X186785Y246571D01*
X185500D01*
X186500D02*
X187500Y245000D01*
X188456Y247999D02*
X190028D01*
X189171Y246857D01*
X189599D01*
X189885Y246714D01*
X190028Y246571D01*
X190170Y246143D01*
Y245857D01*
X190028Y245428D01*
X189742Y245143D01*
X189313Y245000D01*
X188885D01*
X188456Y245143D01*
X188314Y245286D01*
X188171Y245571D01*
X192699Y247000D02*
X192556Y246571D01*
X192270Y246285D01*
X191841Y246143D01*
X191699D01*
X191270Y246285D01*
X190984Y246571D01*
X190842Y247000D01*
Y247142D01*
X190984Y247571D01*
X191270Y247856D01*
X191699Y247999D01*
X191841D01*
X192270Y247856D01*
X192556Y247571D01*
X192699Y247000D01*
Y246285D01*
X192556Y245571D01*
X192270Y245143D01*
X191841Y245000D01*
X191556D01*
X191127Y245143D01*
X190984Y245428D01*
X137001Y272000D02*
X140000D01*
X137001D02*
Y273285D01*
X137144Y273714D01*
X137286Y273857D01*
X137572Y274000D01*
X137858D01*
X138143Y273857D01*
X138286Y273714D01*
X138429Y273285D01*
Y272000D01*
Y273000D02*
X140000Y274000D01*
X137001Y274956D02*
Y276528D01*
X138143Y275671D01*
Y276099D01*
X138286Y276385D01*
X138429Y276528D01*
X138857Y276670D01*
X139143D01*
X139571Y276528D01*
X139857Y276242D01*
X140000Y275814D01*
Y275385D01*
X139857Y274956D01*
X139714Y274814D01*
X139429Y274671D01*
X137001Y278056D02*
X137144Y277627D01*
X137429Y277484D01*
X137715D01*
X138000Y277627D01*
X138143Y277913D01*
X138286Y278484D01*
X138429Y278913D01*
X138715Y279199D01*
X139000Y279341D01*
X139429D01*
X139714Y279199D01*
X139857Y279056D01*
X140000Y278627D01*
Y278056D01*
X139857Y277627D01*
X139714Y277484D01*
X139429Y277342D01*
X139000D01*
X138715Y277484D01*
X138429Y277770D01*
X138286Y278199D01*
X138143Y278770D01*
X138000Y279056D01*
X137715Y279199D01*
X137429D01*
X137144Y279056D01*
X137001Y278627D01*
Y278056D01*
X149001Y272000D02*
X152000D01*
X149001D02*
Y273285D01*
X149144Y273714D01*
X149286Y273857D01*
X149572Y274000D01*
X149858D01*
X150143Y273857D01*
X150286Y273714D01*
X150429Y273285D01*
Y272000D01*
Y273000D02*
X152000Y274000D01*
X149001Y274956D02*
Y276528D01*
X150143Y275671D01*
Y276099D01*
X150286Y276385D01*
X150429Y276528D01*
X150857Y276670D01*
X151143D01*
X151572Y276528D01*
X151857Y276242D01*
X152000Y275814D01*
Y275385D01*
X151857Y274956D01*
X151714Y274814D01*
X151429Y274671D01*
X149001Y279341D02*
X152000Y277913D01*
X149001Y277342D02*
Y279341D01*
X177501Y229500D02*
X180500D01*
X177501D02*
Y230785D01*
X177644Y231214D01*
X177786Y231357D01*
X178072Y231500D01*
X178358D01*
X178643Y231357D01*
X178786Y231214D01*
X178929Y230785D01*
Y229500D01*
Y230500D02*
X180500Y231500D01*
X177501Y232456D02*
Y234028D01*
X178643Y233171D01*
Y233599D01*
X178786Y233885D01*
X178929Y234028D01*
X179357Y234170D01*
X179643D01*
X180071Y234028D01*
X180357Y233742D01*
X180500Y233313D01*
Y232885D01*
X180357Y232456D01*
X180214Y232314D01*
X179929Y232171D01*
X177929Y236556D02*
X177644Y236413D01*
X177501Y235984D01*
Y235699D01*
X177644Y235270D01*
X178072Y234984D01*
X178786Y234842D01*
X179500D01*
X180071Y234984D01*
X180357Y235270D01*
X180500Y235699D01*
Y235841D01*
X180357Y236270D01*
X180071Y236556D01*
X179643Y236699D01*
X179500D01*
X179072Y236556D01*
X178786Y236270D01*
X178643Y235841D01*
Y235699D01*
X178786Y235270D01*
X179072Y234984D01*
X179500Y234842D01*
X185500Y259999D02*
Y257000D01*
Y259999D02*
X186785D01*
X187214Y259857D01*
X187357Y259714D01*
X187500Y259428D01*
Y259142D01*
X187357Y258857D01*
X187214Y258714D01*
X186785Y258571D01*
X185500D01*
X186500D02*
X187500Y257000D01*
X188456Y259999D02*
X190028D01*
X189171Y258857D01*
X189599D01*
X189885Y258714D01*
X190028Y258571D01*
X190170Y258143D01*
Y257857D01*
X190028Y257429D01*
X189742Y257143D01*
X189313Y257000D01*
X188885D01*
X188456Y257143D01*
X188314Y257286D01*
X188171Y257571D01*
X192556Y259999D02*
X191127D01*
X190984Y258714D01*
X191127Y258857D01*
X191556Y259000D01*
X191984D01*
X192413Y258857D01*
X192699Y258571D01*
X192841Y258143D01*
Y257857D01*
X192699Y257429D01*
X192413Y257143D01*
X191984Y257000D01*
X191556D01*
X191127Y257143D01*
X190984Y257286D01*
X190842Y257571D01*
X185500Y263999D02*
Y261000D01*
Y263999D02*
X186785D01*
X187214Y263857D01*
X187357Y263714D01*
X187500Y263428D01*
Y263142D01*
X187357Y262857D01*
X187214Y262714D01*
X186785Y262571D01*
X185500D01*
X186500D02*
X187500Y261000D01*
X188456Y263999D02*
X190028D01*
X189171Y262857D01*
X189599D01*
X189885Y262714D01*
X190028Y262571D01*
X190170Y262143D01*
Y261857D01*
X190028Y261428D01*
X189742Y261143D01*
X189313Y261000D01*
X188885D01*
X188456Y261143D01*
X188314Y261286D01*
X188171Y261571D01*
X192270Y263999D02*
X190842Y262000D01*
X192984D01*
X192270Y263999D02*
Y261000D01*
X145001Y272000D02*
X148000D01*
X145001D02*
Y273285D01*
X145143Y273714D01*
X145286Y273857D01*
X145572Y274000D01*
X145858D01*
X146143Y273857D01*
X146286Y273714D01*
X146429Y273285D01*
Y272000D01*
Y273000D02*
X148000Y274000D01*
X145001Y274956D02*
Y276528D01*
X146143Y275671D01*
Y276099D01*
X146286Y276385D01*
X146429Y276528D01*
X146857Y276670D01*
X147143D01*
X147572Y276528D01*
X147857Y276242D01*
X148000Y275814D01*
Y275385D01*
X147857Y274956D01*
X147714Y274814D01*
X147429Y274671D01*
X145001Y277627D02*
Y279199D01*
X146143Y278342D01*
Y278770D01*
X146286Y279056D01*
X146429Y279199D01*
X146857Y279341D01*
X147143D01*
X147572Y279199D01*
X147857Y278913D01*
X148000Y278484D01*
Y278056D01*
X147857Y277627D01*
X147714Y277484D01*
X147429Y277342D01*
X185500Y271999D02*
Y269000D01*
Y271999D02*
X186785D01*
X187214Y271856D01*
X187357Y271714D01*
X187500Y271428D01*
Y271142D01*
X187357Y270857D01*
X187214Y270714D01*
X186785Y270571D01*
X185500D01*
X186500D02*
X187500Y269000D01*
X188456Y271999D02*
X190028D01*
X189171Y270857D01*
X189599D01*
X189885Y270714D01*
X190028Y270571D01*
X190170Y270143D01*
Y269857D01*
X190028Y269428D01*
X189742Y269143D01*
X189313Y269000D01*
X188885D01*
X188456Y269143D01*
X188314Y269286D01*
X188171Y269571D01*
X190984Y271285D02*
Y271428D01*
X191127Y271714D01*
X191270Y271856D01*
X191556Y271999D01*
X192127D01*
X192413Y271856D01*
X192556Y271714D01*
X192699Y271428D01*
Y271142D01*
X192556Y270857D01*
X192270Y270428D01*
X190842Y269000D01*
X192841D01*
X152500Y242499D02*
Y239500D01*
X154214D01*
X154828Y242499D02*
X156399D01*
X155542Y241357D01*
X155971D01*
X156256Y241214D01*
X156399Y241071D01*
X156542Y240643D01*
Y240357D01*
X156399Y239929D01*
X156114Y239643D01*
X155685Y239500D01*
X155256D01*
X154828Y239643D01*
X154685Y239786D01*
X154542Y240071D01*
X98715Y201142D02*
X98429Y201000D01*
X98144Y200714D01*
X98001Y200428D01*
Y199857D01*
X98144Y199571D01*
X98429Y199286D01*
X98715Y199143D01*
X99143Y199000D01*
X99857D01*
X100286Y199143D01*
X100572Y199286D01*
X100857Y199571D01*
X101000Y199857D01*
Y200428D01*
X100857Y200714D01*
X100572Y201000D01*
X100286Y201142D01*
X98001Y203699D02*
Y202271D01*
X99286Y202128D01*
X99143Y202271D01*
X99000Y202699D01*
Y203128D01*
X99143Y203556D01*
X99429Y203842D01*
X99857Y203985D01*
X100143D01*
X100572Y203842D01*
X100857Y203556D01*
X101000Y203128D01*
Y202699D01*
X100857Y202271D01*
X100714Y202128D01*
X100429Y201985D01*
X98001Y206084D02*
X100000Y204656D01*
Y206798D01*
X98001Y206084D02*
X101000D01*
X119715Y231642D02*
X119429Y231500D01*
X119143Y231214D01*
X119001Y230928D01*
Y230357D01*
X119143Y230071D01*
X119429Y229786D01*
X119715Y229643D01*
X120143Y229500D01*
X120857D01*
X121286Y229643D01*
X121572Y229786D01*
X121857Y230071D01*
X122000Y230357D01*
Y230928D01*
X121857Y231214D01*
X121572Y231500D01*
X121286Y231642D01*
X119001Y234199D02*
Y232771D01*
X120286Y232628D01*
X120143Y232771D01*
X120000Y233199D01*
Y233628D01*
X120143Y234056D01*
X120429Y234342D01*
X120857Y234485D01*
X121143D01*
X121572Y234342D01*
X121857Y234056D01*
X122000Y233628D01*
Y233199D01*
X121857Y232771D01*
X121714Y232628D01*
X121429Y232485D01*
X119001Y235442D02*
Y237013D01*
X120143Y236156D01*
Y236584D01*
X120286Y236870D01*
X120429Y237013D01*
X120857Y237156D01*
X121143D01*
X121572Y237013D01*
X121857Y236727D01*
X122000Y236298D01*
Y235870D01*
X121857Y235442D01*
X121714Y235299D01*
X121429Y235156D01*
X112215Y231142D02*
X111929Y231000D01*
X111644Y230714D01*
X111501Y230428D01*
Y229857D01*
X111644Y229571D01*
X111929Y229286D01*
X112215Y229143D01*
X112643Y229000D01*
X113357D01*
X113786Y229143D01*
X114072Y229286D01*
X114357Y229571D01*
X114500Y229857D01*
Y230428D01*
X114357Y230714D01*
X114072Y231000D01*
X113786Y231142D01*
X111501Y233699D02*
Y232271D01*
X112786Y232128D01*
X112643Y232271D01*
X112500Y232699D01*
Y233128D01*
X112643Y233556D01*
X112929Y233842D01*
X113357Y233985D01*
X113643D01*
X114072Y233842D01*
X114357Y233556D01*
X114500Y233128D01*
Y232699D01*
X114357Y232271D01*
X114214Y232128D01*
X113929Y231985D01*
X112215Y234799D02*
X112072D01*
X111786Y234942D01*
X111644Y235084D01*
X111501Y235370D01*
Y235941D01*
X111644Y236227D01*
X111786Y236370D01*
X112072Y236513D01*
X112358D01*
X112643Y236370D01*
X113072Y236084D01*
X114500Y234656D01*
Y236655D01*
X104715Y231142D02*
X104429Y231000D01*
X104144Y230714D01*
X104001Y230428D01*
Y229857D01*
X104144Y229571D01*
X104429Y229286D01*
X104715Y229143D01*
X105143Y229000D01*
X105857D01*
X106286Y229143D01*
X106571Y229286D01*
X106857Y229571D01*
X107000Y229857D01*
Y230428D01*
X106857Y230714D01*
X106571Y231000D01*
X106286Y231142D01*
X104001Y233699D02*
Y232271D01*
X105286Y232128D01*
X105143Y232271D01*
X105000Y232699D01*
Y233128D01*
X105143Y233556D01*
X105429Y233842D01*
X105857Y233985D01*
X106143D01*
X106571Y233842D01*
X106857Y233556D01*
X107000Y233128D01*
Y232699D01*
X106857Y232271D01*
X106714Y232128D01*
X106429Y231985D01*
X104572Y234656D02*
X104429Y234942D01*
X104001Y235370D01*
X107000D01*
X126315Y196642D02*
X126029Y196500D01*
X125743Y196214D01*
X125601Y195928D01*
Y195357D01*
X125743Y195071D01*
X126029Y194786D01*
X126315Y194643D01*
X126743Y194500D01*
X127457D01*
X127886Y194643D01*
X128172Y194786D01*
X128457Y195071D01*
X128600Y195357D01*
Y195928D01*
X128457Y196214D01*
X128172Y196500D01*
X127886Y196642D01*
X125601Y199199D02*
Y197771D01*
X126886Y197628D01*
X126743Y197771D01*
X126600Y198199D01*
Y198628D01*
X126743Y199056D01*
X127029Y199342D01*
X127457Y199485D01*
X127743D01*
X128172Y199342D01*
X128457Y199056D01*
X128600Y198628D01*
Y198199D01*
X128457Y197771D01*
X128314Y197628D01*
X128029Y197485D01*
X125601Y201013D02*
X125743Y200584D01*
X126172Y200299D01*
X126886Y200156D01*
X127315D01*
X128029Y200299D01*
X128457Y200584D01*
X128600Y201013D01*
Y201298D01*
X128457Y201727D01*
X128029Y202013D01*
X127315Y202155D01*
X126886D01*
X126172Y202013D01*
X125743Y201727D01*
X125601Y201298D01*
Y201013D01*
X130315Y196642D02*
X130029Y196500D01*
X129744Y196214D01*
X129601Y195928D01*
Y195357D01*
X129744Y195071D01*
X130029Y194786D01*
X130315Y194643D01*
X130743Y194500D01*
X131457D01*
X131886Y194643D01*
X132171Y194786D01*
X132457Y195071D01*
X132600Y195357D01*
Y195928D01*
X132457Y196214D01*
X132171Y196500D01*
X131886Y196642D01*
X129601Y198913D02*
X131600Y197485D01*
Y199627D01*
X129601Y198913D02*
X132600D01*
X130600Y202013D02*
X131029Y201870D01*
X131315Y201584D01*
X131457Y201156D01*
Y201013D01*
X131315Y200584D01*
X131029Y200299D01*
X130600Y200156D01*
X130458D01*
X130029Y200299D01*
X129744Y200584D01*
X129601Y201013D01*
Y201156D01*
X129744Y201584D01*
X130029Y201870D01*
X130600Y202013D01*
X131315D01*
X132029Y201870D01*
X132457Y201584D01*
X132600Y201156D01*
Y200870D01*
X132457Y200442D01*
X132171Y200299D01*
X87215Y208142D02*
X86929Y208000D01*
X86643Y207714D01*
X86501Y207428D01*
Y206857D01*
X86643Y206571D01*
X86929Y206286D01*
X87215Y206143D01*
X87643Y206000D01*
X88357D01*
X88786Y206143D01*
X89072Y206286D01*
X89357Y206571D01*
X89500Y206857D01*
Y207428D01*
X89357Y207714D01*
X89072Y208000D01*
X88786Y208142D01*
X86501Y210413D02*
X88500Y208985D01*
Y211127D01*
X86501Y210413D02*
X89500D01*
X86501Y212370D02*
X86643Y211942D01*
X86929Y211799D01*
X87215D01*
X87500Y211942D01*
X87643Y212227D01*
X87786Y212799D01*
X87929Y213227D01*
X88215Y213513D01*
X88500Y213655D01*
X88929D01*
X89214Y213513D01*
X89357Y213370D01*
X89500Y212941D01*
Y212370D01*
X89357Y211942D01*
X89214Y211799D01*
X88929Y211656D01*
X88500D01*
X88215Y211799D01*
X87929Y212084D01*
X87786Y212513D01*
X87643Y213084D01*
X87500Y213370D01*
X87215Y213513D01*
X86929D01*
X86643Y213370D01*
X86501Y212941D01*
Y212370D01*
X166215Y213642D02*
X165929Y213500D01*
X165644Y213214D01*
X165501Y212928D01*
Y212357D01*
X165644Y212071D01*
X165929Y211786D01*
X166215Y211643D01*
X166643Y211500D01*
X167357D01*
X167786Y211643D01*
X168071Y211786D01*
X168357Y212071D01*
X168500Y212357D01*
Y212928D01*
X168357Y213214D01*
X168071Y213500D01*
X167786Y213642D01*
X165501Y215913D02*
X167500Y214485D01*
Y216628D01*
X165501Y215913D02*
X168500D01*
X165501Y219156D02*
X168500Y217727D01*
X165501Y217156D02*
Y219156D01*
X187642Y243285D02*
X187500Y243571D01*
X187214Y243857D01*
X186928Y243999D01*
X186357D01*
X186071Y243857D01*
X185786Y243571D01*
X185643Y243285D01*
X185500Y242857D01*
Y242143D01*
X185643Y241714D01*
X185786Y241428D01*
X186071Y241143D01*
X186357Y241000D01*
X186928D01*
X187214Y241143D01*
X187500Y241428D01*
X187642Y241714D01*
X189913Y243999D02*
X188485Y242000D01*
X190628D01*
X189913Y243999D02*
Y241000D01*
X192870Y243571D02*
X192727Y243857D01*
X192298Y243999D01*
X192013D01*
X191584Y243857D01*
X191299Y243428D01*
X191156Y242714D01*
Y242000D01*
X191299Y241428D01*
X191584Y241143D01*
X192013Y241000D01*
X192156D01*
X192584Y241143D01*
X192870Y241428D01*
X193013Y241857D01*
Y242000D01*
X192870Y242428D01*
X192584Y242714D01*
X192156Y242857D01*
X192013D01*
X191584Y242714D01*
X191299Y242428D01*
X191156Y242000D01*
X174215Y223142D02*
X173929Y223000D01*
X173644Y222714D01*
X173501Y222428D01*
Y221857D01*
X173644Y221571D01*
X173929Y221286D01*
X174215Y221143D01*
X174643Y221000D01*
X175357D01*
X175786Y221143D01*
X176072Y221286D01*
X176357Y221571D01*
X176500Y221857D01*
Y222428D01*
X176357Y222714D01*
X176072Y223000D01*
X175786Y223142D01*
X173501Y225413D02*
X175500Y223985D01*
Y226128D01*
X173501Y225413D02*
X176500D01*
X173501Y228370D02*
Y226942D01*
X174786Y226799D01*
X174643Y226942D01*
X174500Y227370D01*
Y227799D01*
X174643Y228227D01*
X174929Y228513D01*
X175357Y228656D01*
X175643D01*
X176072Y228513D01*
X176357Y228227D01*
X176500Y227799D01*
Y227370D01*
X176357Y226942D01*
X176214Y226799D01*
X175929Y226656D01*
X141715Y274142D02*
X141429Y274000D01*
X141144Y273714D01*
X141001Y273428D01*
Y272857D01*
X141144Y272571D01*
X141429Y272286D01*
X141715Y272143D01*
X142143Y272000D01*
X142857D01*
X143286Y272143D01*
X143571Y272286D01*
X143857Y272571D01*
X144000Y272857D01*
Y273428D01*
X143857Y273714D01*
X143571Y274000D01*
X143286Y274142D01*
X141001Y276413D02*
X143000Y274985D01*
Y277128D01*
X141001Y276413D02*
X144000D01*
X141001Y279084D02*
X143000Y277656D01*
Y279798D01*
X141001Y279084D02*
X144000D01*
X182215Y231642D02*
X181929Y231500D01*
X181643Y231214D01*
X181501Y230928D01*
Y230357D01*
X181643Y230071D01*
X181929Y229786D01*
X182215Y229643D01*
X182643Y229500D01*
X183357D01*
X183786Y229643D01*
X184072Y229786D01*
X184357Y230071D01*
X184500Y230357D01*
Y230928D01*
X184357Y231214D01*
X184072Y231500D01*
X183786Y231642D01*
X181501Y233913D02*
X183500Y232485D01*
Y234628D01*
X181501Y233913D02*
X184500D01*
X181501Y235442D02*
Y237013D01*
X182643Y236156D01*
Y236584D01*
X182786Y236870D01*
X182929Y237013D01*
X183357Y237156D01*
X183643D01*
X184072Y237013D01*
X184357Y236727D01*
X184500Y236298D01*
Y235870D01*
X184357Y235442D01*
X184214Y235299D01*
X183929Y235156D01*
X142715Y264642D02*
X142429Y264500D01*
X142143Y264214D01*
X142001Y263928D01*
Y263357D01*
X142143Y263071D01*
X142429Y262786D01*
X142715Y262643D01*
X143143Y262500D01*
X143857D01*
X144286Y262643D01*
X144571Y262786D01*
X144857Y263071D01*
X145000Y263357D01*
Y263928D01*
X144857Y264214D01*
X144571Y264500D01*
X144286Y264642D01*
X142001Y266913D02*
X144000Y265485D01*
Y267628D01*
X142001Y266913D02*
X145000D01*
X142715Y268299D02*
X142572D01*
X142286Y268442D01*
X142143Y268584D01*
X142001Y268870D01*
Y269441D01*
X142143Y269727D01*
X142286Y269870D01*
X142572Y270013D01*
X142858D01*
X143143Y269870D01*
X143572Y269584D01*
X145000Y268156D01*
Y270156D01*
X187642Y267285D02*
X187500Y267571D01*
X187214Y267857D01*
X186928Y267999D01*
X186357D01*
X186071Y267857D01*
X185786Y267571D01*
X185643Y267285D01*
X185500Y266857D01*
Y266143D01*
X185643Y265714D01*
X185786Y265428D01*
X186071Y265143D01*
X186357Y265000D01*
X186928D01*
X187214Y265143D01*
X187500Y265428D01*
X187642Y265714D01*
X189913Y267999D02*
X188485Y266000D01*
X190628D01*
X189913Y267999D02*
Y265000D01*
X191156Y267428D02*
X191442Y267571D01*
X191870Y267999D01*
Y265000D01*
X174215Y231642D02*
X173929Y231500D01*
X173644Y231214D01*
X173501Y230928D01*
Y230357D01*
X173644Y230071D01*
X173929Y229786D01*
X174215Y229643D01*
X174643Y229500D01*
X175357D01*
X175786Y229643D01*
X176072Y229786D01*
X176357Y230071D01*
X176500Y230357D01*
Y230928D01*
X176357Y231214D01*
X176072Y231500D01*
X175786Y231642D01*
X173501Y233913D02*
X175500Y232485D01*
Y234628D01*
X173501Y233913D02*
X176500D01*
X173501Y236013D02*
X173644Y235584D01*
X174072Y235299D01*
X174786Y235156D01*
X175215D01*
X175929Y235299D01*
X176357Y235584D01*
X176500Y236013D01*
Y236298D01*
X176357Y236727D01*
X175929Y237013D01*
X175215Y237156D01*
X174786D01*
X174072Y237013D01*
X173644Y236727D01*
X173501Y236298D01*
Y236013D01*
X138715Y264642D02*
X138429Y264500D01*
X138144Y264214D01*
X138001Y263928D01*
Y263357D01*
X138144Y263071D01*
X138429Y262786D01*
X138715Y262643D01*
X139143Y262500D01*
X139857D01*
X140286Y262643D01*
X140571Y262786D01*
X140857Y263071D01*
X141000Y263357D01*
Y263928D01*
X140857Y264214D01*
X140571Y264500D01*
X140286Y264642D01*
X138001Y265771D02*
Y267342D01*
X139143Y266485D01*
Y266913D01*
X139286Y267199D01*
X139429Y267342D01*
X139857Y267485D01*
X140143D01*
X140571Y267342D01*
X140857Y267056D01*
X141000Y266628D01*
Y266199D01*
X140857Y265771D01*
X140714Y265628D01*
X140429Y265485D01*
X139000Y270013D02*
X139429Y269870D01*
X139715Y269584D01*
X139857Y269156D01*
Y269013D01*
X139715Y268584D01*
X139429Y268299D01*
X139000Y268156D01*
X138858D01*
X138429Y268299D01*
X138144Y268584D01*
X138001Y269013D01*
Y269156D01*
X138144Y269584D01*
X138429Y269870D01*
X139000Y270013D01*
X139715D01*
X140429Y269870D01*
X140857Y269584D01*
X141000Y269156D01*
Y268870D01*
X140857Y268442D01*
X140571Y268299D01*
X129642Y245785D02*
X129500Y246071D01*
X129214Y246357D01*
X128928Y246499D01*
X128357D01*
X128071Y246357D01*
X127786Y246071D01*
X127643Y245785D01*
X127500Y245357D01*
Y244643D01*
X127643Y244214D01*
X127786Y243929D01*
X128071Y243643D01*
X128357Y243500D01*
X128928D01*
X129214Y243643D01*
X129500Y243929D01*
X129642Y244214D01*
X130771Y246499D02*
X132342D01*
X131485Y245357D01*
X131913D01*
X132199Y245214D01*
X132342Y245071D01*
X132485Y244643D01*
Y244357D01*
X132342Y243929D01*
X132056Y243643D01*
X131628Y243500D01*
X131199D01*
X130771Y243643D01*
X130628Y243786D01*
X130485Y244071D01*
X133870Y246499D02*
X133442Y246357D01*
X133299Y246071D01*
Y245785D01*
X133442Y245500D01*
X133727Y245357D01*
X134299Y245214D01*
X134727Y245071D01*
X135013Y244785D01*
X135155Y244500D01*
Y244071D01*
X135013Y243786D01*
X134870Y243643D01*
X134441Y243500D01*
X133870D01*
X133442Y243643D01*
X133299Y243786D01*
X133156Y244071D01*
Y244500D01*
X133299Y244785D01*
X133584Y245071D01*
X134013Y245214D01*
X134584Y245357D01*
X134870Y245500D01*
X135013Y245785D01*
Y246071D01*
X134870Y246357D01*
X134441Y246499D01*
X133870D01*
X118642Y246285D02*
X118500Y246571D01*
X118214Y246856D01*
X117928Y246999D01*
X117357D01*
X117071Y246856D01*
X116786Y246571D01*
X116643Y246285D01*
X116500Y245857D01*
Y245143D01*
X116643Y244714D01*
X116786Y244428D01*
X117071Y244143D01*
X117357Y244000D01*
X117928D01*
X118214Y244143D01*
X118500Y244428D01*
X118642Y244714D01*
X119771Y246999D02*
X121342D01*
X120485Y245857D01*
X120913D01*
X121199Y245714D01*
X121342Y245571D01*
X121485Y245143D01*
Y244857D01*
X121342Y244428D01*
X121056Y244143D01*
X120628Y244000D01*
X120199D01*
X119771Y244143D01*
X119628Y244286D01*
X119485Y244571D01*
X124155Y246999D02*
X122727Y244000D01*
X122156Y246999D02*
X124155D01*
X107642Y246285D02*
X107500Y246571D01*
X107214Y246856D01*
X106928Y246999D01*
X106357D01*
X106071Y246856D01*
X105786Y246571D01*
X105643Y246285D01*
X105500Y245857D01*
Y245143D01*
X105643Y244714D01*
X105786Y244428D01*
X106071Y244143D01*
X106357Y244000D01*
X106928D01*
X107214Y244143D01*
X107500Y244428D01*
X107642Y244714D01*
X108771Y246999D02*
X110342D01*
X109485Y245857D01*
X109913D01*
X110199Y245714D01*
X110342Y245571D01*
X110485Y245143D01*
Y244857D01*
X110342Y244428D01*
X110056Y244143D01*
X109628Y244000D01*
X109199D01*
X108771Y244143D01*
X108628Y244286D01*
X108485Y244571D01*
X112870Y246571D02*
X112727Y246856D01*
X112299Y246999D01*
X112013D01*
X111584Y246856D01*
X111299Y246428D01*
X111156Y245714D01*
Y245000D01*
X111299Y244428D01*
X111584Y244143D01*
X112013Y244000D01*
X112156D01*
X112584Y244143D01*
X112870Y244428D01*
X113013Y244857D01*
Y245000D01*
X112870Y245428D01*
X112584Y245714D01*
X112156Y245857D01*
X112013D01*
X111584Y245714D01*
X111299Y245428D01*
X111156Y245000D01*
X96642Y246285D02*
X96500Y246571D01*
X96214Y246856D01*
X95928Y246999D01*
X95357D01*
X95071Y246856D01*
X94786Y246571D01*
X94643Y246285D01*
X94500Y245857D01*
Y245143D01*
X94643Y244714D01*
X94786Y244428D01*
X95071Y244143D01*
X95357Y244000D01*
X95928D01*
X96214Y244143D01*
X96500Y244428D01*
X96642Y244714D01*
X97771Y246999D02*
X99342D01*
X98485Y245857D01*
X98913D01*
X99199Y245714D01*
X99342Y245571D01*
X99485Y245143D01*
Y244857D01*
X99342Y244428D01*
X99056Y244143D01*
X98628Y244000D01*
X98199D01*
X97771Y244143D01*
X97628Y244286D01*
X97485Y244571D01*
X101870Y246999D02*
X100442D01*
X100299Y245714D01*
X100442Y245857D01*
X100870Y246000D01*
X101298D01*
X101727Y245857D01*
X102013Y245571D01*
X102155Y245143D01*
Y244857D01*
X102013Y244428D01*
X101727Y244143D01*
X101298Y244000D01*
X100870D01*
X100442Y244143D01*
X100299Y244286D01*
X100156Y244571D01*
X105428Y290499D02*
Y288214D01*
X105285Y287786D01*
X105143Y287643D01*
X104857Y287500D01*
X104571D01*
X104286Y287643D01*
X104143Y287786D01*
X104000Y288214D01*
Y288500D01*
X106200Y289928D02*
X106485Y290071D01*
X106914Y290499D01*
Y287500D01*
X108399Y289928D02*
X108685Y290071D01*
X109113Y290499D01*
Y287500D01*
X130357Y105999D02*
X130071Y105857D01*
X129786Y105571D01*
X129643Y105285D01*
X129500Y104857D01*
Y104143D01*
X129643Y103714D01*
X129786Y103428D01*
X130071Y103143D01*
X130357Y103000D01*
X130928D01*
X131214Y103143D01*
X131500Y103428D01*
X131642Y103714D01*
X131785Y104143D01*
Y104857D01*
X131642Y105285D01*
X131500Y105571D01*
X131214Y105857D01*
X130928Y105999D01*
X130357D01*
X130785Y103571D02*
X131642Y102714D01*
X134199Y105571D02*
X134056Y105857D01*
X133628Y105999D01*
X133342D01*
X132914Y105857D01*
X132628Y105428D01*
X132485Y104714D01*
Y104000D01*
X132628Y103428D01*
X132914Y103143D01*
X133342Y103000D01*
X133485D01*
X133913Y103143D01*
X134199Y103428D01*
X134342Y103857D01*
Y104000D01*
X134199Y104428D01*
X133913Y104714D01*
X133485Y104857D01*
X133342D01*
X132914Y104714D01*
X132628Y104428D01*
X132485Y104000D01*
X158501Y118500D02*
X161500D01*
X158501D02*
Y119785D01*
X158643Y120214D01*
X158786Y120357D01*
X159072Y120500D01*
X159358D01*
X159643Y120357D01*
X159786Y120214D01*
X159929Y119785D01*
Y118500D01*
Y119500D02*
X161500Y120500D01*
X158501Y121457D02*
Y123028D01*
X159643Y122171D01*
Y122599D01*
X159786Y122885D01*
X159929Y123028D01*
X160357Y123170D01*
X160643D01*
X161072Y123028D01*
X161357Y122742D01*
X161500Y122313D01*
Y121885D01*
X161357Y121457D01*
X161214Y121314D01*
X160929Y121171D01*
X159072Y123842D02*
X158929Y124127D01*
X158501Y124556D01*
X161500D01*
X77357Y274999D02*
X77071Y274856D01*
X76786Y274571D01*
X76643Y274285D01*
X76500Y273857D01*
Y273143D01*
X76643Y272714D01*
X76786Y272428D01*
X77071Y272143D01*
X77357Y272000D01*
X77928D01*
X78214Y272143D01*
X78500Y272428D01*
X78642Y272714D01*
X78785Y273143D01*
Y273857D01*
X78642Y274285D01*
X78500Y274571D01*
X78214Y274856D01*
X77928Y274999D01*
X77357D01*
X77785Y272571D02*
X78642Y271714D01*
X81199Y274999D02*
X79771D01*
X79628Y273714D01*
X79771Y273857D01*
X80199Y274000D01*
X80628D01*
X81056Y273857D01*
X81342Y273571D01*
X81485Y273143D01*
Y272857D01*
X81342Y272428D01*
X81056Y272143D01*
X80628Y272000D01*
X80199D01*
X79771Y272143D01*
X79628Y272286D01*
X79485Y272571D01*
X62857Y210499D02*
X62571Y210356D01*
X62286Y210071D01*
X62143Y209785D01*
X62000Y209357D01*
Y208643D01*
X62143Y208214D01*
X62286Y207928D01*
X62571Y207643D01*
X62857Y207500D01*
X63428D01*
X63714Y207643D01*
X64000Y207928D01*
X64142Y208214D01*
X64285Y208643D01*
Y209357D01*
X64142Y209785D01*
X64000Y210071D01*
X63714Y210356D01*
X63428Y210499D01*
X62857D01*
X63285Y208071D02*
X64142Y207214D01*
X66413Y210499D02*
X64985Y208500D01*
X67128D01*
X66413Y210499D02*
Y207500D01*
X98642Y165785D02*
X98500Y166071D01*
X98214Y166357D01*
X97928Y166499D01*
X97357D01*
X97071Y166357D01*
X96786Y166071D01*
X96643Y165785D01*
X96500Y165357D01*
Y164643D01*
X96643Y164214D01*
X96786Y163928D01*
X97071Y163643D01*
X97357Y163500D01*
X97928D01*
X98214Y163643D01*
X98500Y163928D01*
X98642Y164214D01*
X99771Y166499D02*
X101342D01*
X100485Y165357D01*
X100913D01*
X101199Y165214D01*
X101342Y165071D01*
X101485Y164643D01*
Y164357D01*
X101342Y163928D01*
X101056Y163643D01*
X100628Y163500D01*
X100199D01*
X99771Y163643D01*
X99628Y163786D01*
X99485Y164071D01*
X103584Y166499D02*
X102156Y164500D01*
X104298D01*
X103584Y166499D02*
Y163500D01*
X185000Y154999D02*
Y152000D01*
Y154999D02*
X186000D01*
X186428Y154857D01*
X186714Y154571D01*
X186857Y154285D01*
X187000Y153857D01*
Y153143D01*
X186857Y152714D01*
X186714Y152428D01*
X186428Y152143D01*
X186000Y152000D01*
X185000D01*
X189385Y154571D02*
X189242Y154857D01*
X188813Y154999D01*
X188528D01*
X188099Y154857D01*
X187814Y154428D01*
X187671Y153714D01*
Y153000D01*
X187814Y152428D01*
X188099Y152143D01*
X188528Y152000D01*
X188671D01*
X189099Y152143D01*
X189385Y152428D01*
X189528Y152857D01*
Y153000D01*
X189385Y153428D01*
X189099Y153714D01*
X188671Y153857D01*
X188528D01*
X188099Y153714D01*
X187814Y153428D01*
X187671Y153000D01*
X83500Y101499D02*
Y99357D01*
X83643Y98928D01*
X83929Y98643D01*
X84357Y98500D01*
X84643D01*
X85071Y98643D01*
X85357Y98928D01*
X85500Y99357D01*
Y101499D01*
X86328Y100928D02*
X86614Y101071D01*
X87042Y101499D01*
Y98500D01*
X89385Y101499D02*
X88956Y101356D01*
X88670Y100928D01*
X88528Y100214D01*
Y99785D01*
X88670Y99071D01*
X88956Y98643D01*
X89385Y98500D01*
X89670D01*
X90099Y98643D01*
X90384Y99071D01*
X90527Y99785D01*
Y100214D01*
X90384Y100928D01*
X90099Y101356D01*
X89670Y101499D01*
X89385D01*
X62000Y273999D02*
Y271857D01*
X62143Y271428D01*
X62428Y271143D01*
X62857Y271000D01*
X63143D01*
X63571Y271143D01*
X63857Y271428D01*
X64000Y271857D01*
Y273999D01*
X66685Y273000D02*
X66542Y272571D01*
X66256Y272285D01*
X65828Y272143D01*
X65685D01*
X65256Y272285D01*
X64971Y272571D01*
X64828Y273000D01*
Y273142D01*
X64971Y273571D01*
X65256Y273856D01*
X65685Y273999D01*
X65828D01*
X66256Y273856D01*
X66542Y273571D01*
X66685Y273000D01*
Y272285D01*
X66542Y271571D01*
X66256Y271143D01*
X65828Y271000D01*
X65542D01*
X65114Y271143D01*
X64971Y271428D01*
X75500Y210999D02*
Y208857D01*
X75643Y208429D01*
X75928Y208143D01*
X76357Y208000D01*
X76643D01*
X77071Y208143D01*
X77357Y208429D01*
X77500Y208857D01*
Y210999D01*
X79042D02*
X78614Y210857D01*
X78471Y210571D01*
Y210285D01*
X78614Y210000D01*
X78899Y209857D01*
X79471Y209714D01*
X79899Y209571D01*
X80185Y209285D01*
X80327Y209000D01*
Y208571D01*
X80185Y208286D01*
X80042Y208143D01*
X79613Y208000D01*
X79042D01*
X78614Y208143D01*
X78471Y208286D01*
X78328Y208571D01*
Y209000D01*
X78471Y209285D01*
X78756Y209571D01*
X79185Y209714D01*
X79756Y209857D01*
X80042Y210000D01*
X80185Y210285D01*
Y210571D01*
X80042Y210857D01*
X79613Y210999D01*
X79042D01*
X161501Y162500D02*
X164500D01*
X161501D02*
Y163785D01*
X161644Y164214D01*
X161786Y164357D01*
X162072Y164500D01*
X162358D01*
X162643Y164357D01*
X162786Y164214D01*
X162929Y163785D01*
Y162500D01*
Y163500D02*
X164500Y164500D01*
X161501Y166599D02*
X163500Y165171D01*
Y167313D01*
X161501Y166599D02*
X164500D01*
X161501Y168556D02*
X161644Y168127D01*
X161929Y167984D01*
X162215D01*
X162500Y168127D01*
X162643Y168413D01*
X162786Y168984D01*
X162929Y169413D01*
X163215Y169699D01*
X163500Y169841D01*
X163929D01*
X164214Y169699D01*
X164357Y169556D01*
X164500Y169127D01*
Y168556D01*
X164357Y168127D01*
X164214Y167984D01*
X163929Y167842D01*
X163500D01*
X163215Y167984D01*
X162929Y168270D01*
X162786Y168699D01*
X162643Y169270D01*
X162500Y169556D01*
X162215Y169699D01*
X161929D01*
X161644Y169556D01*
X161501Y169127D01*
Y168556D01*
X185000Y158999D02*
Y156000D01*
Y158999D02*
X186285D01*
X186714Y158856D01*
X186857Y158714D01*
X187000Y158428D01*
Y158142D01*
X186857Y157857D01*
X186714Y157714D01*
X186285Y157571D01*
X185000D01*
X186000D02*
X187000Y156000D01*
X189099Y158999D02*
X187671Y157000D01*
X189813D01*
X189099Y158999D02*
Y156000D01*
X192341Y158999D02*
X190913Y156000D01*
X190342Y158999D02*
X192341D01*
X191501Y162500D02*
X194500D01*
X191501D02*
Y163785D01*
X191644Y164214D01*
X191786Y164357D01*
X192072Y164500D01*
X192358D01*
X192643Y164357D01*
X192786Y164214D01*
X192929Y163785D01*
Y162500D01*
Y163500D02*
X194500Y164500D01*
X191501Y166599D02*
X193500Y165171D01*
Y167313D01*
X191501Y166599D02*
X194500D01*
X191929Y169556D02*
X191644Y169413D01*
X191501Y168984D01*
Y168699D01*
X191644Y168270D01*
X192072Y167984D01*
X192786Y167842D01*
X193500D01*
X194071Y167984D01*
X194357Y168270D01*
X194500Y168699D01*
Y168842D01*
X194357Y169270D01*
X194071Y169556D01*
X193643Y169699D01*
X193500D01*
X193072Y169556D01*
X192786Y169270D01*
X192643Y168842D01*
Y168699D01*
X192786Y168270D01*
X193072Y167984D01*
X193500Y167842D01*
X86501Y34000D02*
X89500D01*
X86501D02*
Y35285D01*
X86643Y35714D01*
X86786Y35857D01*
X87072Y36000D01*
X87358D01*
X87643Y35857D01*
X87786Y35714D01*
X87929Y35285D01*
Y34000D01*
Y35000D02*
X89500Y36000D01*
X86501Y36957D02*
Y38528D01*
X87643Y37671D01*
Y38099D01*
X87786Y38385D01*
X87929Y38528D01*
X88357Y38670D01*
X88643D01*
X89072Y38528D01*
X89357Y38242D01*
X89500Y37813D01*
Y37385D01*
X89357Y36957D01*
X89214Y36814D01*
X88929Y36671D01*
X86501Y40199D02*
X86643Y39770D01*
X87072Y39485D01*
X87786Y39342D01*
X88215D01*
X88929Y39485D01*
X89357Y39770D01*
X89500Y40199D01*
Y40484D01*
X89357Y40913D01*
X88929Y41199D01*
X88215Y41341D01*
X87786D01*
X87072Y41199D01*
X86643Y40913D01*
X86501Y40484D01*
Y40199D01*
X54001Y268500D02*
X57000D01*
X54001D02*
Y269785D01*
X54144Y270214D01*
X54286Y270357D01*
X54572Y270500D01*
X54858D01*
X55143Y270357D01*
X55286Y270214D01*
X55429Y269785D01*
Y268500D01*
Y269500D02*
X57000Y270500D01*
X54715Y271314D02*
X54572D01*
X54286Y271457D01*
X54144Y271599D01*
X54001Y271885D01*
Y272456D01*
X54144Y272742D01*
X54286Y272885D01*
X54572Y273028D01*
X54858D01*
X55143Y272885D01*
X55572Y272599D01*
X57000Y271171D01*
Y273170D01*
X55000Y275698D02*
X55429Y275556D01*
X55715Y275270D01*
X55857Y274841D01*
Y274699D01*
X55715Y274270D01*
X55429Y273985D01*
X55000Y273842D01*
X54858D01*
X54429Y273985D01*
X54144Y274270D01*
X54001Y274699D01*
Y274841D01*
X54144Y275270D01*
X54429Y275556D01*
X55000Y275698D01*
X55715D01*
X56429Y275556D01*
X56857Y275270D01*
X57000Y274841D01*
Y274556D01*
X56857Y274127D01*
X56572Y273985D01*
X103501Y156000D02*
X106500D01*
X103501D02*
Y157285D01*
X103644Y157714D01*
X103786Y157857D01*
X104072Y158000D01*
X104358D01*
X104643Y157857D01*
X104786Y157714D01*
X104929Y157285D01*
Y156000D01*
Y157000D02*
X106500Y158000D01*
X104215Y158814D02*
X104072D01*
X103786Y158957D01*
X103644Y159099D01*
X103501Y159385D01*
Y159956D01*
X103644Y160242D01*
X103786Y160385D01*
X104072Y160528D01*
X104358D01*
X104643Y160385D01*
X105072Y160099D01*
X106500Y158671D01*
Y160670D01*
X103501Y162056D02*
X103644Y161627D01*
X103929Y161485D01*
X104215D01*
X104500Y161627D01*
X104643Y161913D01*
X104786Y162484D01*
X104929Y162913D01*
X105215Y163198D01*
X105500Y163341D01*
X105929D01*
X106214Y163198D01*
X106357Y163056D01*
X106500Y162627D01*
Y162056D01*
X106357Y161627D01*
X106214Y161485D01*
X105929Y161342D01*
X105500D01*
X105215Y161485D01*
X104929Y161770D01*
X104786Y162199D01*
X104643Y162770D01*
X104500Y163056D01*
X104215Y163198D01*
X103929D01*
X103644Y163056D01*
X103501Y162627D01*
Y162056D01*
X159000Y199999D02*
Y197000D01*
Y199999D02*
X160000D01*
X160428Y199856D01*
X160714Y199571D01*
X160857Y199285D01*
X161000Y198857D01*
Y198143D01*
X160857Y197714D01*
X160714Y197429D01*
X160428Y197143D01*
X160000Y197000D01*
X159000D01*
X161814Y199285D02*
Y199428D01*
X161957Y199714D01*
X162099Y199856D01*
X162385Y199999D01*
X162956D01*
X163242Y199856D01*
X163385Y199714D01*
X163528Y199428D01*
Y199142D01*
X163385Y198857D01*
X163099Y198428D01*
X161671Y197000D01*
X163670D01*
X164342Y199428D02*
X164627Y199571D01*
X165056Y199999D01*
Y197000D01*
X181000Y214999D02*
Y212000D01*
Y214999D02*
X182000D01*
X182428Y214857D01*
X182714Y214571D01*
X182857Y214285D01*
X183000Y213857D01*
Y213143D01*
X182857Y212714D01*
X182714Y212428D01*
X182428Y212143D01*
X182000Y212000D01*
X181000D01*
X183671Y214428D02*
X183957Y214571D01*
X184385Y214999D01*
Y212000D01*
X187727Y214000D02*
X187584Y213571D01*
X187299Y213285D01*
X186870Y213143D01*
X186727D01*
X186299Y213285D01*
X186013Y213571D01*
X185870Y214000D01*
Y214142D01*
X186013Y214571D01*
X186299Y214857D01*
X186727Y214999D01*
X186870D01*
X187299Y214857D01*
X187584Y214571D01*
X187727Y214000D01*
Y213285D01*
X187584Y212571D01*
X187299Y212143D01*
X186870Y212000D01*
X186584D01*
X186156Y212143D01*
X186013Y212428D01*
X191501Y175500D02*
X194500D01*
X191501D02*
Y176500D01*
X191644Y176928D01*
X191929Y177214D01*
X192215Y177357D01*
X192643Y177500D01*
X193357D01*
X193786Y177357D01*
X194071Y177214D01*
X194357Y176928D01*
X194500Y176500D01*
Y175500D01*
X192072Y178171D02*
X191929Y178456D01*
X191501Y178885D01*
X194500D01*
X191929Y182084D02*
X191644Y181941D01*
X191501Y181513D01*
Y181227D01*
X191644Y180799D01*
X192072Y180513D01*
X192786Y180370D01*
X193500D01*
X194071Y180513D01*
X194357Y180799D01*
X194500Y181227D01*
Y181370D01*
X194357Y181799D01*
X194071Y182084D01*
X193643Y182227D01*
X193500D01*
X193072Y182084D01*
X192786Y181799D01*
X192643Y181370D01*
Y181227D01*
X192786Y180799D01*
X193072Y180513D01*
X193500Y180370D01*
X61142Y249285D02*
X61000Y249571D01*
X60714Y249856D01*
X60428Y249999D01*
X59857D01*
X59571Y249856D01*
X59286Y249571D01*
X59143Y249285D01*
X59000Y248857D01*
Y248143D01*
X59143Y247714D01*
X59286Y247428D01*
X59571Y247143D01*
X59857Y247000D01*
X60428D01*
X60714Y247143D01*
X61000Y247428D01*
X61142Y247714D01*
X62271Y249999D02*
X63842D01*
X62985Y248857D01*
X63413D01*
X63699Y248714D01*
X63842Y248571D01*
X63985Y248143D01*
Y247857D01*
X63842Y247428D01*
X63556Y247143D01*
X63128Y247000D01*
X62699D01*
X62271Y247143D01*
X62128Y247286D01*
X61985Y247571D01*
X64942Y249999D02*
X66513D01*
X65656Y248857D01*
X66084D01*
X66370Y248714D01*
X66513Y248571D01*
X66655Y248143D01*
Y247857D01*
X66513Y247428D01*
X66227Y247143D01*
X65798Y247000D01*
X65370D01*
X64942Y247143D01*
X64799Y247286D01*
X64656Y247571D01*
X91315Y225542D02*
X91029Y225400D01*
X90743Y225114D01*
X90601Y224828D01*
Y224257D01*
X90743Y223971D01*
X91029Y223686D01*
X91315Y223543D01*
X91743Y223400D01*
X92457D01*
X92886Y223543D01*
X93172Y223686D01*
X93457Y223971D01*
X93600Y224257D01*
Y224828D01*
X93457Y225114D01*
X93172Y225400D01*
X92886Y225542D01*
X90601Y226671D02*
Y228242D01*
X91743Y227385D01*
Y227813D01*
X91886Y228099D01*
X92029Y228242D01*
X92457Y228385D01*
X92743D01*
X93172Y228242D01*
X93457Y227956D01*
X93600Y227528D01*
Y227099D01*
X93457Y226671D01*
X93314Y226528D01*
X93029Y226385D01*
X91315Y229199D02*
X91172D01*
X90886Y229342D01*
X90743Y229484D01*
X90601Y229770D01*
Y230341D01*
X90743Y230627D01*
X90886Y230770D01*
X91172Y230913D01*
X91458D01*
X91743Y230770D01*
X92172Y230484D01*
X93600Y229056D01*
Y231055D01*
X108000Y124999D02*
Y122857D01*
X108143Y122429D01*
X108429Y122143D01*
X108857Y122000D01*
X109143D01*
X109571Y122143D01*
X109857Y122429D01*
X110000Y122857D01*
Y124999D01*
X110828Y124428D02*
X111114Y124571D01*
X111542Y124999D01*
Y122000D01*
X139501Y97500D02*
X142500D01*
X139501D02*
Y98785D01*
X139644Y99214D01*
X139786Y99357D01*
X140072Y99500D01*
X140358D01*
X140643Y99357D01*
X140786Y99214D01*
X140929Y98785D01*
Y97500D01*
Y98500D02*
X142500Y99500D01*
X139501Y101885D02*
Y100457D01*
X140786Y100314D01*
X140643Y100457D01*
X140500Y100885D01*
Y101313D01*
X140643Y101742D01*
X140929Y102028D01*
X141357Y102170D01*
X141643D01*
X142071Y102028D01*
X142357Y101742D01*
X142500Y101313D01*
Y100885D01*
X142357Y100457D01*
X142214Y100314D01*
X141929Y100171D01*
X101501Y3000D02*
X104500D01*
X101501D02*
Y4285D01*
X101644Y4714D01*
X101786Y4857D01*
X102072Y5000D01*
X102358D01*
X102643Y4857D01*
X102786Y4714D01*
X102929Y4285D01*
Y3000D01*
Y4000D02*
X104500Y5000D01*
X102072Y5671D02*
X101929Y5957D01*
X101501Y6385D01*
X104500D01*
X57500Y67499D02*
Y64500D01*
Y67499D02*
X58785D01*
X59214Y67356D01*
X59357Y67214D01*
X59500Y66928D01*
Y66642D01*
X59357Y66357D01*
X59214Y66214D01*
X58785Y66071D01*
X57500D01*
X58500D02*
X59500Y64500D01*
X60457Y67499D02*
X62028D01*
X61171Y66357D01*
X61599D01*
X61885Y66214D01*
X62028Y66071D01*
X62170Y65643D01*
Y65357D01*
X62028Y64929D01*
X61742Y64643D01*
X61313Y64500D01*
X60885D01*
X60457Y64643D01*
X60314Y64786D01*
X60171Y65071D01*
X114001Y7500D02*
X117000D01*
Y9214D01*
X114001Y11399D02*
Y9542D01*
X117000D01*
Y11399D01*
X115429Y9542D02*
Y10685D01*
X114001Y11899D02*
X117000D01*
X114001D02*
Y12899D01*
X114144Y13327D01*
X114429Y13613D01*
X114715Y13756D01*
X115143Y13899D01*
X115857D01*
X116286Y13756D01*
X116571Y13613D01*
X116857Y13327D01*
X117000Y12899D01*
Y11899D01*
X114572Y14570D02*
X114429Y14856D01*
X114001Y15284D01*
X117000D01*
X171928Y7499D02*
Y5214D01*
X171785Y4786D01*
X171643Y4643D01*
X171357Y4500D01*
X171071D01*
X170786Y4643D01*
X170643Y4786D01*
X170500Y5214D01*
Y5500D01*
X172699Y6928D02*
X172985Y7071D01*
X173414Y7499D01*
Y4500D01*
X73215Y37142D02*
X72929Y37000D01*
X72644Y36714D01*
X72501Y36428D01*
Y35857D01*
X72644Y35571D01*
X72929Y35286D01*
X73215Y35143D01*
X73643Y35000D01*
X74357D01*
X74786Y35143D01*
X75072Y35286D01*
X75357Y35571D01*
X75500Y35857D01*
Y36428D01*
X75357Y36714D01*
X75072Y37000D01*
X74786Y37142D01*
X73072Y37985D02*
X72929Y38271D01*
X72501Y38699D01*
X75500D01*
X73072Y40185D02*
X72929Y40470D01*
X72501Y40899D01*
X75500D01*
X148715Y99642D02*
X148429Y99500D01*
X148143Y99214D01*
X148001Y98928D01*
Y98357D01*
X148143Y98071D01*
X148429Y97786D01*
X148715Y97643D01*
X149143Y97500D01*
X149857D01*
X150286Y97643D01*
X150572Y97786D01*
X150857Y98071D01*
X151000Y98357D01*
Y98928D01*
X150857Y99214D01*
X150572Y99500D01*
X150286Y99642D01*
X148715Y100628D02*
X148572D01*
X148286Y100771D01*
X148143Y100914D01*
X148001Y101199D01*
Y101770D01*
X148143Y102056D01*
X148286Y102199D01*
X148572Y102342D01*
X148858D01*
X149143Y102199D01*
X149572Y101913D01*
X151000Y100485D01*
Y102485D01*
X59642Y58785D02*
X59500Y59071D01*
X59214Y59356D01*
X58928Y59499D01*
X58357D01*
X58071Y59356D01*
X57786Y59071D01*
X57643Y58785D01*
X57500Y58357D01*
Y57643D01*
X57643Y57214D01*
X57786Y56928D01*
X58071Y56643D01*
X58357Y56500D01*
X58928D01*
X59214Y56643D01*
X59500Y56928D01*
X59642Y57214D01*
X62485Y59499D02*
X61056Y56500D01*
X60485Y59499D02*
X62485D01*
X60142Y38285D02*
X60000Y38571D01*
X59714Y38857D01*
X59428Y38999D01*
X58857D01*
X58571Y38857D01*
X58286Y38571D01*
X58143Y38285D01*
X58000Y37857D01*
Y37143D01*
X58143Y36714D01*
X58286Y36428D01*
X58571Y36143D01*
X58857Y36000D01*
X59428D01*
X59714Y36143D01*
X60000Y36428D01*
X60142Y36714D01*
X62699Y38571D02*
X62556Y38857D01*
X62128Y38999D01*
X61842D01*
X61414Y38857D01*
X61128Y38428D01*
X60985Y37714D01*
Y37000D01*
X61128Y36428D01*
X61414Y36143D01*
X61842Y36000D01*
X61985D01*
X62413Y36143D01*
X62699Y36428D01*
X62842Y36857D01*
Y37000D01*
X62699Y37428D01*
X62413Y37714D01*
X61985Y37857D01*
X61842D01*
X61414Y37714D01*
X61128Y37428D01*
X60985Y37000D01*
X26142Y51285D02*
X26000Y51571D01*
X25714Y51856D01*
X25428Y51999D01*
X24857D01*
X24571Y51856D01*
X24286Y51571D01*
X24143Y51285D01*
X24000Y50857D01*
Y50143D01*
X24143Y49714D01*
X24286Y49428D01*
X24571Y49143D01*
X24857Y49000D01*
X25428D01*
X25714Y49143D01*
X26000Y49428D01*
X26142Y49714D01*
X28699Y51999D02*
X27271D01*
X27128Y50714D01*
X27271Y50857D01*
X27699Y51000D01*
X28128D01*
X28556Y50857D01*
X28842Y50571D01*
X28985Y50143D01*
Y49857D01*
X28842Y49428D01*
X28556Y49143D01*
X28128Y49000D01*
X27699D01*
X27271Y49143D01*
X27128Y49286D01*
X26985Y49571D01*
X144215Y99642D02*
X143929Y99500D01*
X143643Y99214D01*
X143501Y98928D01*
Y98357D01*
X143643Y98071D01*
X143929Y97786D01*
X144215Y97643D01*
X144643Y97500D01*
X145357D01*
X145786Y97643D01*
X146072Y97786D01*
X146357Y98071D01*
X146500Y98357D01*
Y98928D01*
X146357Y99214D01*
X146072Y99500D01*
X145786Y99642D01*
X144072Y100485D02*
X143929Y100771D01*
X143501Y101199D01*
X146500D01*
X90500Y92499D02*
Y89500D01*
Y92499D02*
X91643Y89500D01*
X92785Y92499D02*
X91643Y89500D01*
X92785Y92499D02*
Y89500D01*
X93642Y91928D02*
X93928Y92071D01*
X94356Y92499D01*
Y89500D01*
X85715Y10642D02*
X85429Y10500D01*
X85144Y10214D01*
X85001Y9928D01*
Y9357D01*
X85144Y9071D01*
X85429Y8786D01*
X85715Y8643D01*
X86143Y8500D01*
X86857D01*
X87286Y8643D01*
X87572Y8786D01*
X87857Y9071D01*
X88000Y9357D01*
Y9928D01*
X87857Y10214D01*
X87572Y10500D01*
X87286Y10642D01*
X85001Y12199D02*
X85144Y11771D01*
X85429Y11628D01*
X85715D01*
X86000Y11771D01*
X86143Y12056D01*
X86286Y12628D01*
X86429Y13056D01*
X86715Y13342D01*
X87000Y13485D01*
X87429D01*
X87714Y13342D01*
X87857Y13199D01*
X88000Y12770D01*
Y12199D01*
X87857Y11771D01*
X87714Y11628D01*
X87429Y11485D01*
X87000D01*
X86715Y11628D01*
X86429Y11913D01*
X86286Y12342D01*
X86143Y12913D01*
X86000Y13199D01*
X85715Y13342D01*
X85429D01*
X85144Y13199D01*
X85001Y12770D01*
Y12199D01*
X48642Y61785D02*
X48500Y62071D01*
X48214Y62357D01*
X47928Y62499D01*
X47357D01*
X47071Y62357D01*
X46786Y62071D01*
X46643Y61785D01*
X46500Y61357D01*
Y60643D01*
X46643Y60214D01*
X46786Y59929D01*
X47071Y59643D01*
X47357Y59500D01*
X47928D01*
X48214Y59643D01*
X48500Y59929D01*
X48642Y60214D01*
X51342Y61500D02*
X51199Y61071D01*
X50913Y60785D01*
X50485Y60643D01*
X50342D01*
X49913Y60785D01*
X49628Y61071D01*
X49485Y61500D01*
Y61642D01*
X49628Y62071D01*
X49913Y62357D01*
X50342Y62499D01*
X50485D01*
X50913Y62357D01*
X51199Y62071D01*
X51342Y61500D01*
Y60785D01*
X51199Y60071D01*
X50913Y59643D01*
X50485Y59500D01*
X50199D01*
X49771Y59643D01*
X49628Y59929D01*
X71142Y65285D02*
X71000Y65571D01*
X70714Y65856D01*
X70428Y65999D01*
X69857D01*
X69571Y65856D01*
X69286Y65571D01*
X69143Y65285D01*
X69000Y64857D01*
Y64143D01*
X69143Y63714D01*
X69286Y63428D01*
X69571Y63143D01*
X69857Y63000D01*
X70428D01*
X70714Y63143D01*
X71000Y63428D01*
X71142Y63714D01*
X71985Y65428D02*
X72271Y65571D01*
X72699Y65999D01*
Y63000D01*
X74327Y65285D02*
Y65428D01*
X74470Y65714D01*
X74613Y65856D01*
X74899Y65999D01*
X75470D01*
X75756Y65856D01*
X75898Y65714D01*
X76041Y65428D01*
Y65142D01*
X75898Y64857D01*
X75613Y64428D01*
X74185Y63000D01*
X76184D01*
X147142Y190285D02*
X147000Y190571D01*
X146714Y190857D01*
X146428Y190999D01*
X145857D01*
X145571Y190857D01*
X145286Y190571D01*
X145143Y190285D01*
X145000Y189857D01*
Y189143D01*
X145143Y188714D01*
X145286Y188428D01*
X145571Y188143D01*
X145857Y188000D01*
X146428D01*
X146714Y188143D01*
X147000Y188428D01*
X147142Y188714D01*
X147985Y190428D02*
X148271Y190571D01*
X148699Y190999D01*
Y188000D01*
X150470Y190999D02*
X152041D01*
X151184Y189857D01*
X151613D01*
X151899Y189714D01*
X152041Y189571D01*
X152184Y189143D01*
Y188857D01*
X152041Y188428D01*
X151756Y188143D01*
X151327Y188000D01*
X150899D01*
X150470Y188143D01*
X150327Y188286D01*
X150185Y188571D01*
X67142Y81285D02*
X67000Y81571D01*
X66714Y81857D01*
X66428Y81999D01*
X65857D01*
X65571Y81857D01*
X65286Y81571D01*
X65143Y81285D01*
X65000Y80857D01*
Y80143D01*
X65143Y79714D01*
X65286Y79428D01*
X65571Y79143D01*
X65857Y79000D01*
X66428D01*
X66714Y79143D01*
X67000Y79428D01*
X67142Y79714D01*
X67985Y81428D02*
X68271Y81571D01*
X68699Y81999D01*
Y79000D01*
X71042Y81999D02*
X70613Y81857D01*
X70327Y81428D01*
X70185Y80714D01*
Y80285D01*
X70327Y79571D01*
X70613Y79143D01*
X71042Y79000D01*
X71327D01*
X71756Y79143D01*
X72041Y79571D01*
X72184Y80285D01*
Y80714D01*
X72041Y81428D01*
X71756Y81857D01*
X71327Y81999D01*
X71042D01*
X135715Y99642D02*
X135429Y99500D01*
X135143Y99214D01*
X135001Y98928D01*
Y98357D01*
X135143Y98071D01*
X135429Y97786D01*
X135715Y97643D01*
X136143Y97500D01*
X136857D01*
X137286Y97643D01*
X137572Y97786D01*
X137857Y98071D01*
X138000Y98357D01*
Y98928D01*
X137857Y99214D01*
X137572Y99500D01*
X137286Y99642D01*
X135001Y101913D02*
X137000Y100485D01*
Y102628D01*
X135001Y101913D02*
X138000D01*
X70642Y248785D02*
X70500Y249071D01*
X70214Y249357D01*
X69928Y249499D01*
X69357D01*
X69071Y249357D01*
X68786Y249071D01*
X68643Y248785D01*
X68500Y248357D01*
Y247643D01*
X68643Y247214D01*
X68786Y246929D01*
X69071Y246643D01*
X69357Y246500D01*
X69928D01*
X70214Y246643D01*
X70500Y246929D01*
X70642Y247214D01*
X71485Y248928D02*
X71771Y249071D01*
X72199Y249499D01*
Y246500D01*
X75398Y249071D02*
X75256Y249357D01*
X74827Y249499D01*
X74542D01*
X74113Y249357D01*
X73827Y248928D01*
X73685Y248214D01*
Y247500D01*
X73827Y246929D01*
X74113Y246643D01*
X74542Y246500D01*
X74684D01*
X75113Y246643D01*
X75398Y246929D01*
X75541Y247357D01*
Y247500D01*
X75398Y247928D01*
X75113Y248214D01*
X74684Y248357D01*
X74542D01*
X74113Y248214D01*
X73827Y247928D01*
X73685Y247500D01*
X162115Y155542D02*
X161829Y155400D01*
X161544Y155114D01*
X161401Y154828D01*
Y154257D01*
X161544Y153971D01*
X161829Y153686D01*
X162115Y153543D01*
X162543Y153400D01*
X163257D01*
X163686Y153543D01*
X163971Y153686D01*
X164257Y153971D01*
X164400Y154257D01*
Y154828D01*
X164257Y155114D01*
X163971Y155400D01*
X163686Y155542D01*
X161972Y156385D02*
X161829Y156671D01*
X161401Y157099D01*
X164400D01*
X161401Y160584D02*
X164400Y159156D01*
X161401Y158585D02*
Y160584D01*
X123142Y158785D02*
X123000Y159071D01*
X122714Y159356D01*
X122428Y159499D01*
X121857D01*
X121571Y159356D01*
X121286Y159071D01*
X121143Y158785D01*
X121000Y158357D01*
Y157643D01*
X121143Y157214D01*
X121286Y156929D01*
X121571Y156643D01*
X121857Y156500D01*
X122428D01*
X122714Y156643D01*
X123000Y156929D01*
X123142Y157214D01*
X123985Y158928D02*
X124271Y159071D01*
X124699Y159499D01*
Y156500D01*
X126899Y159499D02*
X126470Y159356D01*
X126327Y159071D01*
Y158785D01*
X126470Y158500D01*
X126756Y158357D01*
X127327Y158214D01*
X127756Y158071D01*
X128041Y157785D01*
X128184Y157500D01*
Y157071D01*
X128041Y156786D01*
X127899Y156643D01*
X127470Y156500D01*
X126899D01*
X126470Y156643D01*
X126327Y156786D01*
X126185Y157071D01*
Y157500D01*
X126327Y157785D01*
X126613Y158071D01*
X127042Y158214D01*
X127613Y158357D01*
X127899Y158500D01*
X128041Y158785D01*
Y159071D01*
X127899Y159356D01*
X127470Y159499D01*
X126899D01*
X154315Y155542D02*
X154029Y155400D01*
X153744Y155114D01*
X153601Y154828D01*
Y154257D01*
X153744Y153971D01*
X154029Y153686D01*
X154315Y153543D01*
X154743Y153400D01*
X155457D01*
X155886Y153543D01*
X156172Y153686D01*
X156457Y153971D01*
X156600Y154257D01*
Y154828D01*
X156457Y155114D01*
X156172Y155400D01*
X155886Y155542D01*
X154172Y156385D02*
X154029Y156671D01*
X153601Y157099D01*
X156600D01*
X154600Y160441D02*
X155029Y160299D01*
X155315Y160013D01*
X155457Y159584D01*
Y159442D01*
X155315Y159013D01*
X155029Y158727D01*
X154600Y158585D01*
X154458D01*
X154029Y158727D01*
X153744Y159013D01*
X153601Y159442D01*
Y159584D01*
X153744Y160013D01*
X154029Y160299D01*
X154600Y160441D01*
X155315D01*
X156029Y160299D01*
X156457Y160013D01*
X156600Y159584D01*
Y159299D01*
X156457Y158870D01*
X156172Y158727D01*
X123142Y152785D02*
X123000Y153071D01*
X122714Y153357D01*
X122428Y153499D01*
X121857D01*
X121571Y153357D01*
X121286Y153071D01*
X121143Y152785D01*
X121000Y152357D01*
Y151643D01*
X121143Y151214D01*
X121286Y150928D01*
X121571Y150643D01*
X121857Y150500D01*
X122428D01*
X122714Y150643D01*
X123000Y150928D01*
X123142Y151214D01*
X124128Y152785D02*
Y152928D01*
X124271Y153214D01*
X124414Y153357D01*
X124699Y153499D01*
X125270D01*
X125556Y153357D01*
X125699Y153214D01*
X125842Y152928D01*
Y152642D01*
X125699Y152357D01*
X125413Y151928D01*
X123985Y150500D01*
X125985D01*
X127513Y153499D02*
X127084Y153357D01*
X126799Y152928D01*
X126656Y152214D01*
Y151785D01*
X126799Y151071D01*
X127084Y150643D01*
X127513Y150500D01*
X127798D01*
X128227Y150643D01*
X128513Y151071D01*
X128656Y151785D01*
Y152214D01*
X128513Y152928D01*
X128227Y153357D01*
X127798Y153499D01*
X127513D01*
X96715Y158142D02*
X96429Y158000D01*
X96144Y157714D01*
X96001Y157428D01*
Y156857D01*
X96144Y156571D01*
X96429Y156286D01*
X96715Y156143D01*
X97143Y156000D01*
X97857D01*
X98286Y156143D01*
X98571Y156286D01*
X98857Y156571D01*
X99000Y156857D01*
Y157428D01*
X98857Y157714D01*
X98571Y158000D01*
X98286Y158142D01*
X96715Y159128D02*
X96572D01*
X96286Y159271D01*
X96144Y159414D01*
X96001Y159699D01*
Y160271D01*
X96144Y160556D01*
X96286Y160699D01*
X96572Y160842D01*
X96858D01*
X97143Y160699D01*
X97572Y160413D01*
X99000Y158985D01*
Y160985D01*
X96572Y161656D02*
X96429Y161942D01*
X96001Y162370D01*
X99000D01*
X92242Y194985D02*
X92100Y195271D01*
X91814Y195556D01*
X91528Y195699D01*
X90957D01*
X90671Y195556D01*
X90386Y195271D01*
X90243Y194985D01*
X90100Y194557D01*
Y193843D01*
X90243Y193414D01*
X90386Y193129D01*
X90671Y192843D01*
X90957Y192700D01*
X91528D01*
X91814Y192843D01*
X92100Y193129D01*
X92242Y193414D01*
X93228Y194985D02*
Y195128D01*
X93371Y195414D01*
X93514Y195556D01*
X93799Y195699D01*
X94371D01*
X94656Y195556D01*
X94799Y195414D01*
X94942Y195128D01*
Y194842D01*
X94799Y194557D01*
X94513Y194128D01*
X93085Y192700D01*
X95085D01*
X95899Y194985D02*
Y195128D01*
X96042Y195414D01*
X96184Y195556D01*
X96470Y195699D01*
X97041D01*
X97327Y195556D01*
X97470Y195414D01*
X97613Y195128D01*
Y194842D01*
X97470Y194557D01*
X97184Y194128D01*
X95756Y192700D01*
X97755D01*
X51642Y167785D02*
X51500Y168071D01*
X51214Y168357D01*
X50928Y168499D01*
X50357D01*
X50071Y168357D01*
X49786Y168071D01*
X49643Y167785D01*
X49500Y167357D01*
Y166643D01*
X49643Y166214D01*
X49786Y165928D01*
X50071Y165643D01*
X50357Y165500D01*
X50928D01*
X51214Y165643D01*
X51500Y165928D01*
X51642Y166214D01*
X52628Y167785D02*
Y167928D01*
X52771Y168214D01*
X52913Y168357D01*
X53199Y168499D01*
X53771D01*
X54056Y168357D01*
X54199Y168214D01*
X54342Y167928D01*
Y167642D01*
X54199Y167357D01*
X53913Y166928D01*
X52485Y165500D01*
X54485D01*
X55442Y168499D02*
X57013D01*
X56156Y167357D01*
X56584D01*
X56870Y167214D01*
X57013Y167071D01*
X57156Y166643D01*
Y166357D01*
X57013Y165928D01*
X56727Y165643D01*
X56299Y165500D01*
X55870D01*
X55442Y165643D01*
X55299Y165786D01*
X55156Y166071D01*
X73174Y195285D02*
X73031Y195571D01*
X72745Y195856D01*
X72460Y195999D01*
X71889D01*
X71603Y195856D01*
X71317Y195571D01*
X71174Y195285D01*
X71031Y194857D01*
Y194143D01*
X71174Y193714D01*
X71317Y193429D01*
X71603Y193143D01*
X71889Y193000D01*
X72460D01*
X72745Y193143D01*
X73031Y193429D01*
X73174Y193714D01*
X74159Y195285D02*
Y195428D01*
X74302Y195714D01*
X74445Y195856D01*
X74731Y195999D01*
X75302D01*
X75588Y195856D01*
X75731Y195714D01*
X75873Y195428D01*
Y195142D01*
X75731Y194857D01*
X75445Y194428D01*
X74017Y193000D01*
X76016D01*
X78116Y195999D02*
X76687Y194000D01*
X78830D01*
X78116Y195999D02*
Y193000D01*
X65500Y104499D02*
Y101500D01*
Y104499D02*
X66500D01*
X66928Y104357D01*
X67214Y104071D01*
X67357Y103785D01*
X67500Y103357D01*
Y102643D01*
X67357Y102214D01*
X67214Y101928D01*
X66928Y101643D01*
X66500Y101500D01*
X65500D01*
X68171Y103928D02*
X68457Y104071D01*
X68885Y104499D01*
Y101500D01*
X65000Y96199D02*
Y93200D01*
Y96199D02*
X66000D01*
X66428Y96056D01*
X66714Y95771D01*
X66857Y95485D01*
X67000Y95057D01*
Y94343D01*
X66857Y93914D01*
X66714Y93629D01*
X66428Y93343D01*
X66000Y93200D01*
X65000D01*
X67814Y95485D02*
Y95628D01*
X67957Y95914D01*
X68099Y96056D01*
X68385Y96199D01*
X68956D01*
X69242Y96056D01*
X69385Y95914D01*
X69528Y95628D01*
Y95342D01*
X69385Y95057D01*
X69099Y94628D01*
X67671Y93200D01*
X69670D01*
X65000Y90499D02*
Y87500D01*
Y90499D02*
X66000D01*
X66428Y90356D01*
X66714Y90071D01*
X66857Y89785D01*
X67000Y89357D01*
Y88643D01*
X66857Y88214D01*
X66714Y87928D01*
X66428Y87643D01*
X66000Y87500D01*
X65000D01*
X67957Y90499D02*
X69528D01*
X68671Y89357D01*
X69099D01*
X69385Y89214D01*
X69528Y89071D01*
X69670Y88643D01*
Y88357D01*
X69528Y87928D01*
X69242Y87643D01*
X68814Y87500D01*
X68385D01*
X67957Y87643D01*
X67814Y87786D01*
X67671Y88071D01*
X94000Y129499D02*
Y126500D01*
Y129499D02*
X95000D01*
X95428Y129357D01*
X95714Y129071D01*
X95857Y128785D01*
X96000Y128357D01*
Y127643D01*
X95857Y127214D01*
X95714Y126928D01*
X95428Y126643D01*
X95000Y126500D01*
X94000D01*
X98099Y129499D02*
X96671Y127500D01*
X98813D01*
X98099Y129499D02*
Y126500D01*
X74500Y129499D02*
Y126500D01*
Y129499D02*
X75500D01*
X75928Y129357D01*
X76214Y129071D01*
X76357Y128785D01*
X76500Y128357D01*
Y127643D01*
X76357Y127214D01*
X76214Y126928D01*
X75928Y126643D01*
X75500Y126500D01*
X74500D01*
X78885Y129499D02*
X77456D01*
X77314Y128214D01*
X77456Y128357D01*
X77885Y128500D01*
X78313D01*
X78742Y128357D01*
X79028Y128071D01*
X79170Y127643D01*
Y127357D01*
X79028Y126928D01*
X78742Y126643D01*
X78313Y126500D01*
X77885D01*
X77456Y126643D01*
X77314Y126786D01*
X77171Y127071D01*
X108000Y164499D02*
Y161500D01*
X109714D01*
X110042Y163928D02*
X110328Y164071D01*
X110757Y164499D01*
Y161500D01*
X54959Y182484D02*
X57959D01*
Y184198D01*
X54959Y186383D02*
Y184526D01*
X57959D01*
Y186383D01*
X56388Y184526D02*
Y185669D01*
X54959Y186883D02*
X57959D01*
X54959D02*
Y187883D01*
X55102Y188311D01*
X55388Y188597D01*
X55674Y188740D01*
X56102Y188883D01*
X56816D01*
X57245Y188740D01*
X57530Y188597D01*
X57816Y188311D01*
X57959Y187883D01*
Y186883D01*
X54959Y189839D02*
Y191411D01*
X56102Y190554D01*
Y190982D01*
X56245Y191268D01*
X56388Y191411D01*
X56816Y191553D01*
X57102D01*
X57530Y191411D01*
X57816Y191125D01*
X57959Y190696D01*
Y190268D01*
X57816Y189839D01*
X57673Y189697D01*
X57388Y189554D01*
X96500Y99499D02*
Y96500D01*
X98214D01*
X100399Y99499D02*
X98542D01*
Y96500D01*
X100399D01*
X98542Y98071D02*
X99685D01*
X100899Y99499D02*
Y96500D01*
Y99499D02*
X101899D01*
X102327Y99357D01*
X102613Y99071D01*
X102756Y98785D01*
X102899Y98357D01*
Y97643D01*
X102756Y97214D01*
X102613Y96929D01*
X102327Y96643D01*
X101899Y96500D01*
X100899D01*
X103713Y98785D02*
Y98928D01*
X103856Y99214D01*
X103998Y99357D01*
X104284Y99499D01*
X104855D01*
X105141Y99357D01*
X105284Y99214D01*
X105427Y98928D01*
Y98642D01*
X105284Y98357D01*
X104998Y97928D01*
X103570Y96500D01*
X105570D01*
X23857Y61499D02*
X23571Y61357D01*
X23286Y61071D01*
X23143Y60785D01*
X23000Y60357D01*
Y59643D01*
X23143Y59214D01*
X23286Y58929D01*
X23571Y58643D01*
X23857Y58500D01*
X24428D01*
X24714Y58643D01*
X25000Y58929D01*
X25142Y59214D01*
X25285Y59643D01*
Y60357D01*
X25142Y60785D01*
X25000Y61071D01*
X24714Y61357D01*
X24428Y61499D01*
X23857D01*
X24285Y59071D02*
X25142Y58214D01*
X25985Y60928D02*
X26271Y61071D01*
X26699Y61499D01*
Y58500D01*
X22357Y29499D02*
X22071Y29357D01*
X21786Y29071D01*
X21643Y28785D01*
X21500Y28357D01*
Y27643D01*
X21643Y27214D01*
X21786Y26928D01*
X22071Y26643D01*
X22357Y26500D01*
X22928D01*
X23214Y26643D01*
X23500Y26928D01*
X23642Y27214D01*
X23785Y27643D01*
Y28357D01*
X23642Y28785D01*
X23500Y29071D01*
X23214Y29357D01*
X22928Y29499D01*
X22357D01*
X22785Y27071D02*
X23642Y26214D01*
X24628Y28785D02*
Y28928D01*
X24771Y29214D01*
X24914Y29357D01*
X25199Y29499D01*
X25771D01*
X26056Y29357D01*
X26199Y29214D01*
X26342Y28928D01*
Y28642D01*
X26199Y28357D01*
X25913Y27928D01*
X24485Y26500D01*
X26485D01*
X57500Y63499D02*
Y60500D01*
Y63499D02*
X58785D01*
X59214Y63357D01*
X59357Y63214D01*
X59500Y62928D01*
Y62642D01*
X59357Y62357D01*
X59214Y62214D01*
X58785Y62071D01*
X57500D01*
X58500D02*
X59500Y60500D01*
X61599Y63499D02*
X60171Y61500D01*
X62313D01*
X61599Y63499D02*
Y60500D01*
X89001Y8500D02*
X92000D01*
X89001D02*
Y9785D01*
X89144Y10214D01*
X89286Y10357D01*
X89572Y10500D01*
X89858D01*
X90143Y10357D01*
X90286Y10214D01*
X90429Y9785D01*
Y8500D01*
Y9500D02*
X92000Y10500D01*
X89001Y11885D02*
X89144Y11456D01*
X89429Y11314D01*
X89715D01*
X90000Y11456D01*
X90143Y11742D01*
X90286Y12314D01*
X90429Y12742D01*
X90715Y13028D01*
X91000Y13170D01*
X91429D01*
X91714Y13028D01*
X91857Y12885D01*
X92000Y12456D01*
Y11885D01*
X91857Y11456D01*
X91714Y11314D01*
X91429Y11171D01*
X91000D01*
X90715Y11314D01*
X90429Y11599D01*
X90286Y12028D01*
X90143Y12599D01*
X90000Y12885D01*
X89715Y13028D01*
X89429D01*
X89144Y12885D01*
X89001Y12456D01*
Y11885D01*
X158501Y128000D02*
X161500D01*
X158501D02*
Y129285D01*
X158643Y129714D01*
X158786Y129857D01*
X159072Y130000D01*
X159358D01*
X159643Y129857D01*
X159786Y129714D01*
X159929Y129285D01*
Y128000D01*
Y129000D02*
X161500Y130000D01*
X159500Y132528D02*
X159929Y132385D01*
X160215Y132099D01*
X160357Y131671D01*
Y131528D01*
X160215Y131099D01*
X159929Y130814D01*
X159500Y130671D01*
X159358D01*
X158929Y130814D01*
X158643Y131099D01*
X158501Y131528D01*
Y131671D01*
X158643Y132099D01*
X158929Y132385D01*
X159500Y132528D01*
X160215D01*
X160929Y132385D01*
X161357Y132099D01*
X161500Y131671D01*
Y131385D01*
X161357Y130956D01*
X161072Y130814D01*
X118001Y7500D02*
X121000D01*
X118001D02*
Y8785D01*
X118143Y9214D01*
X118286Y9357D01*
X118572Y9500D01*
X118858D01*
X119143Y9357D01*
X119286Y9214D01*
X119429Y8785D01*
Y7500D01*
Y8500D02*
X121000Y9500D01*
X118715Y10314D02*
X118572D01*
X118286Y10457D01*
X118143Y10599D01*
X118001Y10885D01*
Y11456D01*
X118143Y11742D01*
X118286Y11885D01*
X118572Y12028D01*
X118858D01*
X119143Y11885D01*
X119572Y11599D01*
X121000Y10171D01*
Y12170D01*
X69500Y60999D02*
Y58000D01*
Y60999D02*
X70785D01*
X71214Y60856D01*
X71357Y60714D01*
X71500Y60428D01*
Y60142D01*
X71357Y59857D01*
X71214Y59714D01*
X70785Y59571D01*
X69500D01*
X70500D02*
X71500Y58000D01*
X72171Y60428D02*
X72457Y60571D01*
X72885Y60999D01*
Y58000D01*
X74513Y60285D02*
Y60428D01*
X74656Y60714D01*
X74799Y60856D01*
X75085Y60999D01*
X75656D01*
X75941Y60856D01*
X76084Y60714D01*
X76227Y60428D01*
Y60142D01*
X76084Y59857D01*
X75799Y59428D01*
X74370Y58000D01*
X76370D01*
X77500Y87999D02*
Y85000D01*
Y87999D02*
X78785D01*
X79214Y87857D01*
X79357Y87714D01*
X79500Y87428D01*
Y87142D01*
X79357Y86857D01*
X79214Y86714D01*
X78785Y86571D01*
X77500D01*
X78500D02*
X79500Y85000D01*
X80171Y87428D02*
X80457Y87571D01*
X80885Y87999D01*
Y85000D01*
X82656Y87999D02*
X84227D01*
X83370Y86857D01*
X83799D01*
X84084Y86714D01*
X84227Y86571D01*
X84370Y86143D01*
Y85857D01*
X84227Y85429D01*
X83942Y85143D01*
X83513Y85000D01*
X83084D01*
X82656Y85143D01*
X82513Y85286D01*
X82370Y85571D01*
X188001Y111500D02*
X191000D01*
X188001D02*
Y112785D01*
X188144Y113214D01*
X188286Y113357D01*
X188572Y113500D01*
X188858D01*
X189143Y113357D01*
X189286Y113214D01*
X189429Y112785D01*
Y111500D01*
Y112500D02*
X191000Y113500D01*
X188572Y114171D02*
X188429Y114456D01*
X188001Y114885D01*
X191000D01*
X188001Y117799D02*
X190000Y116370D01*
Y118513D01*
X188001Y117799D02*
X191000D01*
X24500Y40499D02*
Y37500D01*
Y40499D02*
X25785D01*
X26214Y40356D01*
X26357Y40214D01*
X26500Y39928D01*
Y39642D01*
X26357Y39357D01*
X26214Y39214D01*
X25785Y39071D01*
X24500D01*
X25500D02*
X26500Y37500D01*
X28885Y40071D02*
X28742Y40356D01*
X28313Y40499D01*
X28028D01*
X27599Y40356D01*
X27314Y39928D01*
X27171Y39214D01*
Y38500D01*
X27314Y37929D01*
X27599Y37643D01*
X28028Y37500D01*
X28171D01*
X28599Y37643D01*
X28885Y37929D01*
X29028Y38357D01*
Y38500D01*
X28885Y38928D01*
X28599Y39214D01*
X28171Y39357D01*
X28028D01*
X27599Y39214D01*
X27314Y38928D01*
X27171Y38500D01*
X24500Y44499D02*
Y41500D01*
Y44499D02*
X25785D01*
X26214Y44357D01*
X26357Y44214D01*
X26500Y43928D01*
Y43642D01*
X26357Y43357D01*
X26214Y43214D01*
X25785Y43071D01*
X24500D01*
X25500D02*
X26500Y41500D01*
X29170Y44499D02*
X27742Y41500D01*
X27171Y44499D02*
X29170D01*
X65000Y85999D02*
Y83000D01*
Y85999D02*
X66285D01*
X66714Y85856D01*
X66857Y85714D01*
X67000Y85428D01*
Y85142D01*
X66857Y84857D01*
X66714Y84714D01*
X66285Y84571D01*
X65000D01*
X66000D02*
X67000Y83000D01*
X67671Y85428D02*
X67957Y85571D01*
X68385Y85999D01*
Y83000D01*
X70727Y85999D02*
X70299Y85856D01*
X70013Y85428D01*
X69870Y84714D01*
Y84285D01*
X70013Y83571D01*
X70299Y83143D01*
X70727Y83000D01*
X71013D01*
X71442Y83143D01*
X71727Y83571D01*
X71870Y84285D01*
Y84714D01*
X71727Y85428D01*
X71442Y85856D01*
X71013Y85999D01*
X70727D01*
X65000Y100499D02*
Y97500D01*
Y100499D02*
X66285D01*
X66714Y100356D01*
X66857Y100214D01*
X67000Y99928D01*
Y99642D01*
X66857Y99357D01*
X66714Y99214D01*
X66285Y99071D01*
X65000D01*
X66000D02*
X67000Y97500D01*
X67671Y99928D02*
X67957Y100071D01*
X68385Y100499D01*
Y97500D01*
X69870Y99928D02*
X70156Y100071D01*
X70584Y100499D01*
Y97500D01*
X99501Y156000D02*
X102500D01*
X99501D02*
Y157285D01*
X99643Y157714D01*
X99786Y157857D01*
X100072Y158000D01*
X100358D01*
X100643Y157857D01*
X100786Y157714D01*
X100929Y157285D01*
Y156000D01*
Y157000D02*
X102500Y158000D01*
X100072Y158671D02*
X99929Y158957D01*
X99501Y159385D01*
X102500D01*
X100500Y162727D02*
X100929Y162584D01*
X101215Y162299D01*
X101357Y161870D01*
Y161727D01*
X101215Y161299D01*
X100929Y161013D01*
X100500Y160870D01*
X100358D01*
X99929Y161013D01*
X99643Y161299D01*
X99501Y161727D01*
Y161870D01*
X99643Y162299D01*
X99929Y162584D01*
X100500Y162727D01*
X101215D01*
X101929Y162584D01*
X102357Y162299D01*
X102500Y161870D01*
Y161584D01*
X102357Y161156D01*
X102071Y161013D01*
X86501Y223500D02*
X89500D01*
X86501D02*
Y224785D01*
X86643Y225214D01*
X86786Y225357D01*
X87072Y225500D01*
X87358D01*
X87643Y225357D01*
X87786Y225214D01*
X87929Y224785D01*
Y223500D01*
Y224500D02*
X89500Y225500D01*
X87215Y226314D02*
X87072D01*
X86786Y226456D01*
X86643Y226599D01*
X86501Y226885D01*
Y227456D01*
X86643Y227742D01*
X86786Y227885D01*
X87072Y228028D01*
X87358D01*
X87643Y227885D01*
X88072Y227599D01*
X89500Y226171D01*
Y228170D01*
X86501Y229699D02*
X86643Y229270D01*
X87072Y228984D01*
X87786Y228842D01*
X88215D01*
X88929Y228984D01*
X89357Y229270D01*
X89500Y229699D01*
Y229984D01*
X89357Y230413D01*
X88929Y230698D01*
X88215Y230841D01*
X87786D01*
X87072Y230698D01*
X86643Y230413D01*
X86501Y229984D01*
Y229699D01*
X103001Y173000D02*
X106000D01*
X103001D02*
Y174285D01*
X103144Y174714D01*
X103286Y174857D01*
X103572Y175000D01*
X103858D01*
X104143Y174857D01*
X104286Y174714D01*
X104429Y174285D01*
Y173000D01*
Y174000D02*
X106000Y175000D01*
X103715Y175814D02*
X103572D01*
X103286Y175956D01*
X103144Y176099D01*
X103001Y176385D01*
Y176956D01*
X103144Y177242D01*
X103286Y177385D01*
X103572Y177528D01*
X103858D01*
X104143Y177385D01*
X104572Y177099D01*
X106000Y175671D01*
Y177670D01*
X103572Y178342D02*
X103429Y178627D01*
X103001Y179056D01*
X106000D01*
X49500Y172499D02*
Y169500D01*
Y172499D02*
X50785D01*
X51214Y172356D01*
X51357Y172214D01*
X51500Y171928D01*
Y171642D01*
X51357Y171357D01*
X51214Y171214D01*
X50785Y171071D01*
X49500D01*
X50500D02*
X51500Y169500D01*
X52314Y171785D02*
Y171928D01*
X52456Y172214D01*
X52599Y172356D01*
X52885Y172499D01*
X53456D01*
X53742Y172356D01*
X53885Y172214D01*
X54028Y171928D01*
Y171642D01*
X53885Y171357D01*
X53599Y170928D01*
X52171Y169500D01*
X54170D01*
X54985Y171785D02*
Y171928D01*
X55127Y172214D01*
X55270Y172356D01*
X55556Y172499D01*
X56127D01*
X56413Y172356D01*
X56556Y172214D01*
X56699Y171928D01*
Y171642D01*
X56556Y171357D01*
X56270Y170928D01*
X54842Y169500D01*
X56841D01*
X49500Y180499D02*
Y177500D01*
Y180499D02*
X50785D01*
X51214Y180357D01*
X51357Y180214D01*
X51500Y179928D01*
Y179642D01*
X51357Y179357D01*
X51214Y179214D01*
X50785Y179071D01*
X49500D01*
X50500D02*
X51500Y177500D01*
X52314Y179785D02*
Y179928D01*
X52456Y180214D01*
X52599Y180357D01*
X52885Y180499D01*
X53456D01*
X53742Y180357D01*
X53885Y180214D01*
X54028Y179928D01*
Y179642D01*
X53885Y179357D01*
X53599Y178928D01*
X52171Y177500D01*
X54170D01*
X56270Y180499D02*
X54842Y178500D01*
X56984D01*
X56270Y180499D02*
Y177500D01*
X49500Y176499D02*
Y173500D01*
Y176499D02*
X50785D01*
X51214Y176356D01*
X51357Y176214D01*
X51500Y175928D01*
Y175642D01*
X51357Y175357D01*
X51214Y175214D01*
X50785Y175071D01*
X49500D01*
X50500D02*
X51500Y173500D01*
X52314Y175785D02*
Y175928D01*
X52456Y176214D01*
X52599Y176356D01*
X52885Y176499D01*
X53456D01*
X53742Y176356D01*
X53885Y176214D01*
X54028Y175928D01*
Y175642D01*
X53885Y175357D01*
X53599Y174928D01*
X52171Y173500D01*
X54170D01*
X56556Y176499D02*
X55127D01*
X54985Y175214D01*
X55127Y175357D01*
X55556Y175500D01*
X55984D01*
X56413Y175357D01*
X56699Y175071D01*
X56841Y174643D01*
Y174357D01*
X56699Y173928D01*
X56413Y173643D01*
X55984Y173500D01*
X55556D01*
X55127Y173643D01*
X54985Y173786D01*
X54842Y174071D01*
X61500Y109999D02*
Y107000D01*
Y109999D02*
X62785D01*
X63214Y109856D01*
X63357Y109714D01*
X63500Y109428D01*
Y109142D01*
X63357Y108857D01*
X63214Y108714D01*
X62785Y108571D01*
X61500D01*
X62500D02*
X63500Y107000D01*
X64314Y109285D02*
Y109428D01*
X64456Y109714D01*
X64599Y109856D01*
X64885Y109999D01*
X65456D01*
X65742Y109856D01*
X65885Y109714D01*
X66028Y109428D01*
Y109142D01*
X65885Y108857D01*
X65599Y108428D01*
X64171Y107000D01*
X66170D01*
X67127Y109999D02*
X68699D01*
X67842Y108857D01*
X68270D01*
X68556Y108714D01*
X68699Y108571D01*
X68841Y108143D01*
Y107857D01*
X68699Y107429D01*
X68413Y107143D01*
X67984Y107000D01*
X67556D01*
X67127Y107143D01*
X66985Y107286D01*
X66842Y107571D01*
X105500Y107499D02*
Y104500D01*
Y107499D02*
X106785D01*
X107214Y107357D01*
X107357Y107214D01*
X107500Y106928D01*
Y106642D01*
X107357Y106357D01*
X107214Y106214D01*
X106785Y106071D01*
X105500D01*
X106500D02*
X107500Y104500D01*
X108314Y106785D02*
Y106928D01*
X108457Y107214D01*
X108599Y107357D01*
X108885Y107499D01*
X109456D01*
X109742Y107357D01*
X109885Y107214D01*
X110028Y106928D01*
Y106642D01*
X109885Y106357D01*
X109599Y105928D01*
X108171Y104500D01*
X110170D01*
X112556Y107071D02*
X112413Y107357D01*
X111984Y107499D01*
X111699D01*
X111270Y107357D01*
X110985Y106928D01*
X110842Y106214D01*
Y105500D01*
X110985Y104929D01*
X111270Y104643D01*
X111699Y104500D01*
X111841D01*
X112270Y104643D01*
X112556Y104929D01*
X112698Y105357D01*
Y105500D01*
X112556Y105928D01*
X112270Y106214D01*
X111841Y106357D01*
X111699D01*
X111270Y106214D01*
X110985Y105928D01*
X110842Y105500D01*
X52000Y37999D02*
Y35857D01*
X52143Y35429D01*
X52429Y35143D01*
X52857Y35000D01*
X53143D01*
X53571Y35143D01*
X53857Y35429D01*
X54000Y35857D01*
Y37999D01*
X54971Y37285D02*
Y37428D01*
X55114Y37714D01*
X55256Y37857D01*
X55542Y37999D01*
X56113D01*
X56399Y37857D01*
X56542Y37714D01*
X56685Y37428D01*
Y37142D01*
X56542Y36857D01*
X56256Y36428D01*
X54828Y35000D01*
X56827D01*
X68500Y51499D02*
Y49357D01*
X68643Y48928D01*
X68928Y48643D01*
X69357Y48500D01*
X69643D01*
X70071Y48643D01*
X70357Y48928D01*
X70500Y49357D01*
Y51499D01*
X71614D02*
X73185D01*
X72328Y50357D01*
X72756D01*
X73042Y50214D01*
X73185Y50071D01*
X73327Y49643D01*
Y49357D01*
X73185Y48928D01*
X72899Y48643D01*
X72471Y48500D01*
X72042D01*
X71614Y48643D01*
X71471Y48786D01*
X71328Y49071D01*
X69000Y75499D02*
Y73357D01*
X69143Y72929D01*
X69428Y72643D01*
X69857Y72500D01*
X70143D01*
X70571Y72643D01*
X70857Y72929D01*
X71000Y73357D01*
Y75499D01*
X73256D02*
X71828Y73500D01*
X73970D01*
X73256Y75499D02*
Y72500D01*
X146500Y166999D02*
Y164857D01*
X146643Y164428D01*
X146929Y164143D01*
X147357Y164000D01*
X147643D01*
X148071Y164143D01*
X148357Y164428D01*
X148500Y164857D01*
Y166999D01*
X151042D02*
X149614D01*
X149471Y165714D01*
X149614Y165857D01*
X150042Y166000D01*
X150471D01*
X150899Y165857D01*
X151185Y165571D01*
X151328Y165143D01*
Y164857D01*
X151185Y164428D01*
X150899Y164143D01*
X150471Y164000D01*
X150042D01*
X149614Y164143D01*
X149471Y164286D01*
X149328Y164571D01*
X43500Y115999D02*
Y113857D01*
X43643Y113428D01*
X43929Y113143D01*
X44357Y113000D01*
X44643D01*
X45071Y113143D01*
X45357Y113428D01*
X45500Y113857D01*
Y115999D01*
X48327Y115571D02*
X48042Y115857D01*
X47613Y115999D01*
X47042D01*
X46614Y115857D01*
X46328Y115571D01*
Y115285D01*
X46471Y115000D01*
X46614Y114857D01*
X46899Y114714D01*
X47756Y114428D01*
X48042Y114285D01*
X48185Y114143D01*
X48327Y113857D01*
Y113428D01*
X48042Y113143D01*
X47613Y113000D01*
X47042D01*
X46614Y113143D01*
X46328Y113428D01*
X48999Y115999D02*
Y113000D01*
Y115999D02*
X50284D01*
X50713Y115857D01*
X50856Y115714D01*
X50998Y115428D01*
Y115142D01*
X50856Y114857D01*
X50713Y114714D01*
X50284Y114571D01*
X48999D02*
X50284D01*
X50713Y114428D01*
X50856Y114285D01*
X50998Y114000D01*
Y113571D01*
X50856Y113286D01*
X50713Y113143D01*
X50284Y113000D01*
X48999D01*
X51670Y115428D02*
X51955Y115571D01*
X52384Y115999D01*
Y113000D01*
X50857Y31999D02*
X49000D01*
Y29000D01*
X50857D01*
X49000Y30571D02*
X50143D01*
X51357Y31999D02*
Y29000D01*
Y31999D02*
X53356Y29000D01*
Y31999D02*
Y29000D01*
X74000Y31999D02*
Y29000D01*
X75485Y31999D02*
X75200Y31857D01*
X74914Y31571D01*
X74771Y31285D01*
X74628Y30857D01*
Y30143D01*
X74771Y29714D01*
X74914Y29428D01*
X75200Y29143D01*
X75485Y29000D01*
X76057D01*
X76342Y29143D01*
X76628Y29428D01*
X76771Y29714D01*
X76914Y30143D01*
Y30857D01*
X76771Y31285D01*
X76628Y31571D01*
X76342Y31857D01*
X76057Y31999D01*
X75485D01*
X78470D02*
X78042Y31857D01*
X77756Y31428D01*
X77614Y30714D01*
Y30285D01*
X77756Y29571D01*
X78042Y29143D01*
X78470Y29000D01*
X78756D01*
X79185Y29143D01*
X79470Y29571D01*
X79613Y30285D01*
Y30714D01*
X79470Y31428D01*
X79185Y31857D01*
X78756Y31999D01*
X78470D01*
X36928Y188499D02*
Y186214D01*
X36785Y185786D01*
X36643Y185643D01*
X36357Y185500D01*
X36071D01*
X35786Y185643D01*
X35643Y185786D01*
X35500Y186214D01*
Y186500D01*
X37985Y188499D02*
X39556D01*
X38699Y187357D01*
X39128D01*
X39413Y187214D01*
X39556Y187071D01*
X39699Y186643D01*
Y186357D01*
X39556Y185928D01*
X39271Y185643D01*
X38842Y185500D01*
X38414D01*
X37985Y185643D01*
X37842Y185786D01*
X37699Y186071D01*
X117642Y137285D02*
X117500Y137571D01*
X117214Y137856D01*
X116928Y137999D01*
X116357D01*
X116071Y137856D01*
X115786Y137571D01*
X115643Y137285D01*
X115500Y136857D01*
Y136143D01*
X115643Y135714D01*
X115786Y135429D01*
X116071Y135143D01*
X116357Y135000D01*
X116928D01*
X117214Y135143D01*
X117500Y135429D01*
X117642Y135714D01*
X118771Y137999D02*
X120342D01*
X119485Y136857D01*
X119913D01*
X120199Y136714D01*
X120342Y136571D01*
X120485Y136143D01*
Y135857D01*
X120342Y135429D01*
X120056Y135143D01*
X119628Y135000D01*
X119199D01*
X118771Y135143D01*
X118628Y135286D01*
X118485Y135571D01*
X142642Y184285D02*
X142500Y184571D01*
X142214Y184856D01*
X141928Y184999D01*
X141357D01*
X141071Y184856D01*
X140786Y184571D01*
X140643Y184285D01*
X140500Y183857D01*
Y183143D01*
X140643Y182714D01*
X140786Y182429D01*
X141071Y182143D01*
X141357Y182000D01*
X141928D01*
X142214Y182143D01*
X142500Y182429D01*
X142642Y182714D01*
X143485Y184428D02*
X143771Y184571D01*
X144199Y184999D01*
Y182000D01*
X147113Y184999D02*
X145685Y183000D01*
X147827D01*
X147113Y184999D02*
Y182000D01*
X130215Y161642D02*
X129929Y161500D01*
X129643Y161214D01*
X129501Y160928D01*
Y160357D01*
X129643Y160071D01*
X129929Y159786D01*
X130215Y159643D01*
X130643Y159500D01*
X131357D01*
X131786Y159643D01*
X132071Y159786D01*
X132357Y160071D01*
X132500Y160357D01*
Y160928D01*
X132357Y161214D01*
X132071Y161500D01*
X131786Y161642D01*
X130072Y162485D02*
X129929Y162771D01*
X129501Y163199D01*
X132500D01*
X129501Y166399D02*
Y164970D01*
X130786Y164827D01*
X130643Y164970D01*
X130500Y165399D01*
Y165827D01*
X130643Y166256D01*
X130929Y166541D01*
X131357Y166684D01*
X131643D01*
X132071Y166541D01*
X132357Y166256D01*
X132500Y165827D01*
Y165399D01*
X132357Y164970D01*
X132214Y164827D01*
X131929Y164685D01*
X159215Y139642D02*
X158929Y139500D01*
X158643Y139214D01*
X158501Y138928D01*
Y138357D01*
X158643Y138071D01*
X158929Y137786D01*
X159215Y137643D01*
X159643Y137500D01*
X160357D01*
X160786Y137643D01*
X161072Y137786D01*
X161357Y138071D01*
X161500Y138357D01*
Y138928D01*
X161357Y139214D01*
X161072Y139500D01*
X160786Y139642D01*
X159215Y140628D02*
X159072D01*
X158786Y140771D01*
X158643Y140914D01*
X158501Y141199D01*
Y141771D01*
X158643Y142056D01*
X158786Y142199D01*
X159072Y142342D01*
X159358D01*
X159643Y142199D01*
X160072Y141913D01*
X161500Y140485D01*
Y142485D01*
X158929Y144870D02*
X158643Y144727D01*
X158501Y144299D01*
Y144013D01*
X158643Y143584D01*
X159072Y143299D01*
X159786Y143156D01*
X160500D01*
X161072Y143299D01*
X161357Y143584D01*
X161500Y144013D01*
Y144156D01*
X161357Y144584D01*
X161072Y144870D01*
X160643Y145013D01*
X160500D01*
X160072Y144870D01*
X159786Y144584D01*
X159643Y144156D01*
Y144013D01*
X159786Y143584D01*
X160072Y143299D01*
X160500Y143156D01*
X57142Y141785D02*
X57000Y142071D01*
X56714Y142357D01*
X56428Y142499D01*
X55857D01*
X55571Y142357D01*
X55286Y142071D01*
X55143Y141785D01*
X55000Y141357D01*
Y140643D01*
X55143Y140214D01*
X55286Y139928D01*
X55571Y139643D01*
X55857Y139500D01*
X56428D01*
X56714Y139643D01*
X57000Y139928D01*
X57142Y140214D01*
X58128Y141785D02*
Y141928D01*
X58271Y142214D01*
X58413Y142357D01*
X58699Y142499D01*
X59271D01*
X59556Y142357D01*
X59699Y142214D01*
X59842Y141928D01*
Y141642D01*
X59699Y141357D01*
X59413Y140928D01*
X57985Y139500D01*
X59985D01*
X62513Y141500D02*
X62370Y141071D01*
X62084Y140785D01*
X61656Y140643D01*
X61513D01*
X61084Y140785D01*
X60799Y141071D01*
X60656Y141500D01*
Y141642D01*
X60799Y142071D01*
X61084Y142357D01*
X61513Y142499D01*
X61656D01*
X62084Y142357D01*
X62370Y142071D01*
X62513Y141500D01*
Y140785D01*
X62370Y140071D01*
X62084Y139643D01*
X61656Y139500D01*
X61370D01*
X60942Y139643D01*
X60799Y139928D01*
X67642Y141785D02*
X67500Y142071D01*
X67214Y142357D01*
X66928Y142499D01*
X66357D01*
X66071Y142357D01*
X65786Y142071D01*
X65643Y141785D01*
X65500Y141357D01*
Y140643D01*
X65643Y140214D01*
X65786Y139928D01*
X66071Y139643D01*
X66357Y139500D01*
X66928D01*
X67214Y139643D01*
X67500Y139928D01*
X67642Y140214D01*
X68771Y142499D02*
X70342D01*
X69485Y141357D01*
X69913D01*
X70199Y141214D01*
X70342Y141071D01*
X70485Y140643D01*
Y140357D01*
X70342Y139928D01*
X70056Y139643D01*
X69628Y139500D01*
X69199D01*
X68771Y139643D01*
X68628Y139786D01*
X68485Y140071D01*
X72013Y142499D02*
X71584Y142357D01*
X71299Y141928D01*
X71156Y141214D01*
Y140785D01*
X71299Y140071D01*
X71584Y139643D01*
X72013Y139500D01*
X72299D01*
X72727Y139643D01*
X73013Y140071D01*
X73155Y140785D01*
Y141214D01*
X73013Y141928D01*
X72727Y142357D01*
X72299Y142499D01*
X72013D01*
X64215Y184142D02*
X63929Y184000D01*
X63643Y183714D01*
X63501Y183428D01*
Y182857D01*
X63643Y182571D01*
X63929Y182286D01*
X64215Y182143D01*
X64643Y182000D01*
X65357D01*
X65786Y182143D01*
X66071Y182286D01*
X66357Y182571D01*
X66500Y182857D01*
Y183428D01*
X66357Y183714D01*
X66071Y184000D01*
X65786Y184142D01*
X63501Y185271D02*
Y186842D01*
X64643Y185985D01*
Y186413D01*
X64786Y186699D01*
X64929Y186842D01*
X65357Y186985D01*
X65643D01*
X66071Y186842D01*
X66357Y186556D01*
X66500Y186128D01*
Y185699D01*
X66357Y185271D01*
X66214Y185128D01*
X65929Y184985D01*
X64072Y187656D02*
X63929Y187942D01*
X63501Y188370D01*
X66500D01*
X62500Y238999D02*
Y236000D01*
Y238999D02*
X63500D01*
X63928Y238857D01*
X64214Y238571D01*
X64357Y238285D01*
X64500Y237857D01*
Y237143D01*
X64357Y236714D01*
X64214Y236428D01*
X63928Y236143D01*
X63500Y236000D01*
X62500D01*
X66171Y238999D02*
Y236000D01*
X65171Y238999D02*
X67170D01*
X67528Y238428D02*
X67813Y238571D01*
X68242Y238999D01*
Y236000D01*
X38428Y279999D02*
Y277714D01*
X38285Y277286D01*
X38143Y277143D01*
X37857Y277000D01*
X37571D01*
X37286Y277143D01*
X37143Y277286D01*
X37000Y277714D01*
Y278000D01*
X40628Y279999D02*
X39200Y278000D01*
X41342D01*
X40628Y279999D02*
Y277000D01*
X53928Y290499D02*
Y288214D01*
X53785Y287786D01*
X53643Y287643D01*
X53357Y287500D01*
X53071D01*
X52786Y287643D01*
X52643Y287786D01*
X52500Y288214D01*
Y288500D01*
X56556Y289500D02*
X56414Y289071D01*
X56128Y288785D01*
X55699Y288643D01*
X55556D01*
X55128Y288785D01*
X54842Y289071D01*
X54699Y289500D01*
Y289642D01*
X54842Y290071D01*
X55128Y290356D01*
X55556Y290499D01*
X55699D01*
X56128Y290356D01*
X56414Y290071D01*
X56556Y289500D01*
Y288785D01*
X56414Y288071D01*
X56128Y287643D01*
X55699Y287500D01*
X55414D01*
X54985Y287643D01*
X54842Y287929D01*
X103500Y144999D02*
Y142000D01*
X105214D01*
X105685Y144285D02*
Y144428D01*
X105828Y144714D01*
X105971Y144857D01*
X106256Y144999D01*
X106828D01*
X107114Y144857D01*
X107256Y144714D01*
X107399Y144428D01*
Y144142D01*
X107256Y143857D01*
X106971Y143428D01*
X105542Y142000D01*
X107542D01*
X161857Y113499D02*
X161571Y113356D01*
X161286Y113071D01*
X161143Y112785D01*
X161000Y112357D01*
Y111643D01*
X161143Y111214D01*
X161286Y110928D01*
X161571Y110643D01*
X161857Y110500D01*
X162428D01*
X162714Y110643D01*
X163000Y110928D01*
X163142Y111214D01*
X163285Y111643D01*
Y112357D01*
X163142Y112785D01*
X163000Y113071D01*
X162714Y113356D01*
X162428Y113499D01*
X161857D01*
X162285Y111071D02*
X163142Y110214D01*
X164271Y113499D02*
X165842D01*
X164985Y112357D01*
X165413D01*
X165699Y112214D01*
X165842Y112071D01*
X165985Y111643D01*
Y111357D01*
X165842Y110928D01*
X165556Y110643D01*
X165128Y110500D01*
X164699D01*
X164271Y110643D01*
X164128Y110786D01*
X163985Y111071D01*
X192001Y111500D02*
X195000D01*
X192001D02*
Y112785D01*
X192143Y113214D01*
X192286Y113357D01*
X192572Y113500D01*
X192858D01*
X193143Y113357D01*
X193286Y113214D01*
X193429Y112785D01*
Y111500D01*
Y112500D02*
X195000Y113500D01*
X192572Y114171D02*
X192429Y114456D01*
X192001Y114885D01*
X195000D01*
X192001Y118084D02*
Y116656D01*
X193286Y116513D01*
X193143Y116656D01*
X193000Y117085D01*
Y117513D01*
X193143Y117941D01*
X193429Y118227D01*
X193857Y118370D01*
X194143D01*
X194571Y118227D01*
X194857Y117941D01*
X195000Y117513D01*
Y117085D01*
X194857Y116656D01*
X194714Y116513D01*
X194429Y116370D01*
X152001Y169000D02*
X155000D01*
X152001D02*
Y170285D01*
X152144Y170714D01*
X152286Y170857D01*
X152572Y171000D01*
X152858D01*
X153143Y170857D01*
X153286Y170714D01*
X153429Y170285D01*
Y169000D01*
Y170000D02*
X155000Y171000D01*
X152572Y171671D02*
X152429Y171957D01*
X152001Y172385D01*
X155000D01*
X152429Y175584D02*
X152144Y175442D01*
X152001Y175013D01*
Y174727D01*
X152144Y174299D01*
X152572Y174013D01*
X153286Y173870D01*
X154000D01*
X154571Y174013D01*
X154857Y174299D01*
X155000Y174727D01*
Y174870D01*
X154857Y175299D01*
X154571Y175584D01*
X154143Y175727D01*
X154000D01*
X153572Y175584D01*
X153286Y175299D01*
X153143Y174870D01*
Y174727D01*
X153286Y174299D01*
X153572Y174013D01*
X154000Y173870D01*
X165201Y153600D02*
X168200D01*
X165201D02*
Y154885D01*
X165343Y155314D01*
X165486Y155457D01*
X165772Y155600D01*
X166058D01*
X166343Y155457D01*
X166486Y155314D01*
X166629Y154885D01*
Y153600D01*
Y154600D02*
X168200Y155600D01*
X165772Y156271D02*
X165629Y156556D01*
X165201Y156985D01*
X168200D01*
X165201Y160470D02*
X168200Y159042D01*
X165201Y158470D02*
Y160470D01*
X157501Y153400D02*
X160500D01*
X157501D02*
Y154685D01*
X157643Y155114D01*
X157786Y155257D01*
X158072Y155400D01*
X158358D01*
X158643Y155257D01*
X158786Y155114D01*
X158929Y154685D01*
Y153400D01*
Y154400D02*
X160500Y155400D01*
X158072Y156071D02*
X157929Y156357D01*
X157501Y156785D01*
X160500D01*
X157501Y158984D02*
X157643Y158556D01*
X157929Y158413D01*
X158215D01*
X158500Y158556D01*
X158643Y158842D01*
X158786Y159413D01*
X158929Y159842D01*
X159215Y160127D01*
X159500Y160270D01*
X159929D01*
X160214Y160127D01*
X160357Y159984D01*
X160500Y159556D01*
Y158984D01*
X160357Y158556D01*
X160214Y158413D01*
X159929Y158270D01*
X159500D01*
X159215Y158413D01*
X158929Y158699D01*
X158786Y159127D01*
X158643Y159699D01*
X158500Y159984D01*
X158215Y160127D01*
X157929D01*
X157643Y159984D01*
X157501Y159556D01*
Y158984D01*
X59501Y182000D02*
X62500D01*
X59501D02*
Y183285D01*
X59644Y183714D01*
X59786Y183857D01*
X60072Y184000D01*
X60358D01*
X60643Y183857D01*
X60786Y183714D01*
X60929Y183285D01*
Y182000D01*
Y183000D02*
X62500Y184000D01*
X60215Y184814D02*
X60072D01*
X59786Y184957D01*
X59644Y185099D01*
X59501Y185385D01*
Y185956D01*
X59644Y186242D01*
X59786Y186385D01*
X60072Y186528D01*
X60358D01*
X60643Y186385D01*
X61072Y186099D01*
X62500Y184671D01*
Y186670D01*
X59501Y189341D02*
X62500Y187913D01*
X59501Y187342D02*
Y189341D01*
X120800Y117571D02*
X120514Y117857D01*
X120085Y117999D01*
X119514D01*
X119086Y117857D01*
X118800Y117571D01*
Y117285D01*
X118943Y117000D01*
X119086Y116857D01*
X119371Y116714D01*
X120228Y116428D01*
X120514Y116285D01*
X120657Y116143D01*
X120800Y115857D01*
Y115428D01*
X120514Y115143D01*
X120085Y115000D01*
X119514D01*
X119086Y115143D01*
X118800Y115428D01*
X121471Y117999D02*
X122185Y115000D01*
X122899Y117999D02*
X122185Y115000D01*
X122899Y117999D02*
X123613Y115000D01*
X124327Y117999D02*
X123613Y115000D01*
X124927Y117428D02*
X125213Y117571D01*
X125641Y117999D01*
Y115000D01*
X98000Y184499D02*
Y182357D01*
X98143Y181929D01*
X98428Y181643D01*
X98857Y181500D01*
X99143D01*
X99571Y181643D01*
X99857Y181929D01*
X100000Y182357D01*
Y184499D01*
X102542Y184071D02*
X102399Y184356D01*
X101971Y184499D01*
X101685D01*
X101256Y184356D01*
X100971Y183928D01*
X100828Y183214D01*
Y182500D01*
X100971Y181929D01*
X101256Y181643D01*
X101685Y181500D01*
X101828D01*
X102256Y181643D01*
X102542Y181929D01*
X102685Y182357D01*
Y182500D01*
X102542Y182928D01*
X102256Y183214D01*
X101828Y183357D01*
X101685D01*
X101256Y183214D01*
X100971Y182928D01*
X100828Y182500D01*
X63642Y113285D02*
X63500Y113571D01*
X63214Y113856D01*
X62928Y113999D01*
X62357D01*
X62071Y113856D01*
X61786Y113571D01*
X61643Y113285D01*
X61500Y112857D01*
Y112143D01*
X61643Y111714D01*
X61786Y111428D01*
X62071Y111143D01*
X62357Y111000D01*
X62928D01*
X63214Y111143D01*
X63500Y111428D01*
X63642Y111714D01*
X64628Y113285D02*
Y113428D01*
X64771Y113714D01*
X64913Y113856D01*
X65199Y113999D01*
X65771D01*
X66056Y113856D01*
X66199Y113714D01*
X66342Y113428D01*
Y113142D01*
X66199Y112857D01*
X65913Y112428D01*
X64485Y111000D01*
X66485D01*
X68870Y113999D02*
X67442D01*
X67299Y112714D01*
X67442Y112857D01*
X67870Y113000D01*
X68299D01*
X68727Y112857D01*
X69013Y112571D01*
X69156Y112143D01*
Y111857D01*
X69013Y111428D01*
X68727Y111143D01*
X68299Y111000D01*
X67870D01*
X67442Y111143D01*
X67299Y111286D01*
X67156Y111571D01*
X107142Y114785D02*
X107000Y115071D01*
X106714Y115357D01*
X106428Y115499D01*
X105857D01*
X105571Y115357D01*
X105286Y115071D01*
X105143Y114785D01*
X105000Y114357D01*
Y113643D01*
X105143Y113214D01*
X105286Y112928D01*
X105571Y112643D01*
X105857Y112500D01*
X106428D01*
X106714Y112643D01*
X107000Y112928D01*
X107142Y113214D01*
X108128Y114785D02*
Y114928D01*
X108271Y115214D01*
X108414Y115357D01*
X108699Y115499D01*
X109271D01*
X109556Y115357D01*
X109699Y115214D01*
X109842Y114928D01*
Y114642D01*
X109699Y114357D01*
X109413Y113928D01*
X107985Y112500D01*
X109985D01*
X112655Y115499D02*
X111227Y112500D01*
X110656Y115499D02*
X112655D01*
X107142Y110785D02*
X107000Y111071D01*
X106714Y111356D01*
X106428Y111499D01*
X105857D01*
X105571Y111356D01*
X105286Y111071D01*
X105143Y110785D01*
X105000Y110357D01*
Y109643D01*
X105143Y109214D01*
X105286Y108929D01*
X105571Y108643D01*
X105857Y108500D01*
X106428D01*
X106714Y108643D01*
X107000Y108929D01*
X107142Y109214D01*
X108128Y110785D02*
Y110928D01*
X108271Y111214D01*
X108414Y111356D01*
X108699Y111499D01*
X109271D01*
X109556Y111356D01*
X109699Y111214D01*
X109842Y110928D01*
Y110642D01*
X109699Y110357D01*
X109413Y109928D01*
X107985Y108500D01*
X109985D01*
X111370Y111499D02*
X110942Y111356D01*
X110799Y111071D01*
Y110785D01*
X110942Y110500D01*
X111227Y110357D01*
X111799Y110214D01*
X112227Y110071D01*
X112513Y109785D01*
X112655Y109500D01*
Y109071D01*
X112513Y108786D01*
X112370Y108643D01*
X111941Y108500D01*
X111370D01*
X110942Y108643D01*
X110799Y108786D01*
X110656Y109071D01*
Y109500D01*
X110799Y109785D01*
X111084Y110071D01*
X111513Y110214D01*
X112084Y110357D01*
X112370Y110500D01*
X112513Y110785D01*
Y111071D01*
X112370Y111356D01*
X111941Y111499D01*
X111370D01*
X189500Y136499D02*
Y134357D01*
X189643Y133929D01*
X189928Y133643D01*
X190357Y133500D01*
X190643D01*
X191071Y133643D01*
X191357Y133929D01*
X191500Y134357D01*
Y136499D01*
X194327D02*
X192899Y133500D01*
X192328Y136499D02*
X194327D01*
X160028Y283399D02*
X158600Y281400D01*
X160742D01*
X160028Y283399D02*
Y280400D01*
X161985Y283399D02*
X161556Y283257D01*
X161414Y282971D01*
Y282685D01*
X161556Y282400D01*
X161842Y282257D01*
X162414Y282114D01*
X162842Y281971D01*
X163128Y281685D01*
X163270Y281400D01*
Y280971D01*
X163128Y280686D01*
X162985Y280543D01*
X162556Y280400D01*
X161985D01*
X161556Y280543D01*
X161414Y280686D01*
X161271Y280971D01*
Y281400D01*
X161414Y281685D01*
X161699Y281971D01*
X162128Y282114D01*
X162699Y282257D01*
X162985Y282400D01*
X163128Y282685D01*
Y282971D01*
X162985Y283257D01*
X162556Y283399D01*
X161985D01*
X165656D02*
X164227D01*
X164084Y282114D01*
X164227Y282257D01*
X164656Y282400D01*
X165084D01*
X165513Y282257D01*
X165798Y281971D01*
X165941Y281543D01*
Y281257D01*
X165798Y280828D01*
X165513Y280543D01*
X165084Y280400D01*
X164656D01*
X164227Y280543D01*
X164084Y280686D01*
X163942Y280971D01*
X168898Y280400D02*
X167755Y283399D01*
X166613Y280400D01*
X167041Y281400D02*
X168469D01*
X145428Y283399D02*
X144000Y281400D01*
X146142D01*
X145428Y283399D02*
Y280400D01*
X147385Y283399D02*
X146957Y283257D01*
X146814Y282971D01*
Y282685D01*
X146957Y282400D01*
X147242Y282257D01*
X147813Y282114D01*
X148242Y281971D01*
X148528Y281685D01*
X148670Y281400D01*
Y280971D01*
X148528Y280686D01*
X148385Y280543D01*
X147956Y280400D01*
X147385D01*
X146957Y280543D01*
X146814Y280686D01*
X146671Y280971D01*
Y281400D01*
X146814Y281685D01*
X147099Y281971D01*
X147528Y282114D01*
X148099Y282257D01*
X148385Y282400D01*
X148528Y282685D01*
Y282971D01*
X148385Y283257D01*
X147956Y283399D01*
X147385D01*
X151056D02*
X149627D01*
X149485Y282114D01*
X149627Y282257D01*
X150056Y282400D01*
X150484D01*
X150913Y282257D01*
X151198Y281971D01*
X151341Y281543D01*
Y281257D01*
X151198Y280828D01*
X150913Y280543D01*
X150484Y280400D01*
X150056D01*
X149627Y280543D01*
X149485Y280686D01*
X149342Y280971D01*
X152013Y283399D02*
Y280400D01*
Y283399D02*
X153298D01*
X153726Y283257D01*
X153869Y283114D01*
X154012Y282828D01*
Y282542D01*
X153869Y282257D01*
X153726Y282114D01*
X153298Y281971D01*
X152013D02*
X153298D01*
X153726Y281828D01*
X153869Y281685D01*
X154012Y281400D01*
Y280971D01*
X153869Y280686D01*
X153726Y280543D01*
X153298Y280400D01*
X152013D01*
X119228Y283599D02*
X117800Y281600D01*
X119942D01*
X119228Y283599D02*
Y280600D01*
X121185Y283599D02*
X120756Y283456D01*
X120614Y283171D01*
Y282885D01*
X120756Y282600D01*
X121042Y282457D01*
X121614Y282314D01*
X122042Y282171D01*
X122328Y281885D01*
X122470Y281600D01*
Y281171D01*
X122328Y280886D01*
X122185Y280743D01*
X121756Y280600D01*
X121185D01*
X120756Y280743D01*
X120614Y280886D01*
X120471Y281171D01*
Y281600D01*
X120614Y281885D01*
X120899Y282171D01*
X121328Y282314D01*
X121899Y282457D01*
X122185Y282600D01*
X122328Y282885D01*
Y283171D01*
X122185Y283456D01*
X121756Y283599D01*
X121185D01*
X123142D02*
X124284Y280600D01*
X125427Y283599D02*
X124284Y280600D01*
X132942Y282985D02*
X132800Y283271D01*
X132514Y283557D01*
X132228Y283699D01*
X131657D01*
X131371Y283557D01*
X131086Y283271D01*
X130943Y282985D01*
X130800Y282557D01*
Y281843D01*
X130943Y281414D01*
X131086Y281129D01*
X131371Y280843D01*
X131657Y280700D01*
X132228D01*
X132514Y280843D01*
X132800Y281129D01*
X132942Y281414D01*
Y281843D01*
X132228D02*
X132942D01*
X133628Y283699D02*
Y280700D01*
Y283699D02*
X135627Y280700D01*
Y283699D02*
Y280700D01*
X136456Y283699D02*
Y280700D01*
Y283699D02*
X137456D01*
X137884Y283557D01*
X138170Y283271D01*
X138313Y282985D01*
X138455Y282557D01*
Y281843D01*
X138313Y281414D01*
X138170Y281129D01*
X137884Y280843D01*
X137456Y280700D01*
X136456D01*
X64500Y281228D02*
X64786Y281371D01*
X65214Y281799D01*
Y278800D01*
X66842Y281085D02*
Y281228D01*
X66985Y281514D01*
X67128Y281657D01*
X67414Y281799D01*
X67985D01*
X68271Y281657D01*
X68414Y281514D01*
X68556Y281228D01*
Y280942D01*
X68414Y280657D01*
X68128Y280228D01*
X66699Y278800D01*
X68699D01*
X69370Y281799D02*
X70513Y278800D01*
X71656Y281799D02*
X70513Y278800D01*
X80142Y281185D02*
X80000Y281471D01*
X79714Y281756D01*
X79428Y281899D01*
X78857D01*
X78571Y281756D01*
X78286Y281471D01*
X78143Y281185D01*
X78000Y280757D01*
Y280043D01*
X78143Y279614D01*
X78286Y279328D01*
X78571Y279043D01*
X78857Y278900D01*
X79428D01*
X79714Y279043D01*
X80000Y279328D01*
X80142Y279614D01*
Y280043D01*
X79428D02*
X80142D01*
X80828Y281899D02*
Y278900D01*
Y281899D02*
X82828Y278900D01*
Y281899D02*
Y278900D01*
X83656Y281899D02*
Y278900D01*
Y281899D02*
X84656D01*
X85084Y281756D01*
X85370Y281471D01*
X85513Y281185D01*
X85655Y280757D01*
Y280043D01*
X85513Y279614D01*
X85370Y279328D01*
X85084Y279043D01*
X84656Y278900D01*
X83656D01*
X160286Y15499D02*
X161857D01*
X161000Y14357D01*
X161428D01*
X161714Y14214D01*
X161857Y14071D01*
X162000Y13643D01*
Y13357D01*
X161857Y12928D01*
X161571Y12643D01*
X161143Y12500D01*
X160714D01*
X160286Y12643D01*
X160143Y12786D01*
X160000Y13071D01*
X162814Y12786D02*
X162671Y12643D01*
X162814Y12500D01*
X162957Y12643D01*
X162814Y12786D01*
X163899Y15499D02*
X165470D01*
X164613Y14357D01*
X165042D01*
X165327Y14214D01*
X165470Y14071D01*
X165613Y13643D01*
Y13357D01*
X165470Y12928D01*
X165185Y12643D01*
X164756Y12500D01*
X164328D01*
X163899Y12643D01*
X163756Y12786D01*
X163613Y13071D01*
X166284Y15499D02*
X167427Y12500D01*
X168570Y15499D02*
X167427Y12500D01*
X151000Y15499D02*
Y12500D01*
X150000Y15499D02*
X152000D01*
X152357D02*
X154356Y12500D01*
Y15499D02*
X152357Y12500D01*
X155027Y15499D02*
Y12500D01*
Y15499D02*
X156027D01*
X156456Y15357D01*
X156741Y15071D01*
X156884Y14785D01*
X157027Y14357D01*
Y13643D01*
X156884Y13214D01*
X156741Y12928D01*
X156456Y12643D01*
X156027Y12500D01*
X155027D01*
X140000Y15499D02*
Y12500D01*
Y15499D02*
X141285D01*
X141714Y15357D01*
X141857Y15214D01*
X142000Y14928D01*
Y14642D01*
X141857Y14357D01*
X141714Y14214D01*
X141285Y14071D01*
X140000D01*
X141000D02*
X142000Y12500D01*
X142671Y15499D02*
X144670Y12500D01*
Y15499D02*
X142671Y12500D01*
X145342Y15499D02*
Y12500D01*
Y15499D02*
X146342D01*
X146770Y15357D01*
X147056Y15071D01*
X147198Y14785D01*
X147341Y14357D01*
Y13643D01*
X147198Y13214D01*
X147056Y12928D01*
X146770Y12643D01*
X146342Y12500D01*
X145342D01*
X131642Y14785D02*
X131500Y15071D01*
X131214Y15357D01*
X130928Y15499D01*
X130357D01*
X130071Y15357D01*
X129786Y15071D01*
X129643Y14785D01*
X129500Y14357D01*
Y13643D01*
X129643Y13214D01*
X129786Y12928D01*
X130071Y12643D01*
X130357Y12500D01*
X130928D01*
X131214Y12643D01*
X131500Y12928D01*
X131642Y13214D01*
Y13643D01*
X130928D02*
X131642D01*
X132328Y15499D02*
Y12500D01*
Y15499D02*
X134327Y12500D01*
Y15499D02*
Y12500D01*
X135156Y15499D02*
Y12500D01*
Y15499D02*
X136156D01*
X136584Y15357D01*
X136870Y15071D01*
X137013Y14785D01*
X137155Y14357D01*
Y13643D01*
X137013Y13214D01*
X136870Y12928D01*
X136584Y12643D01*
X136156Y12500D01*
X135156D01*
X136100Y149499D02*
Y146500D01*
Y149499D02*
X137385D01*
X137814Y149356D01*
X137957Y149214D01*
X138100Y148928D01*
Y148642D01*
X137957Y148357D01*
X137814Y148214D01*
X137385Y148071D01*
X136100D01*
X137100D02*
X138100Y146500D01*
X140770Y149071D02*
X140485Y149356D01*
X140056Y149499D01*
X139485D01*
X139057Y149356D01*
X138771Y149071D01*
Y148785D01*
X138914Y148500D01*
X139057Y148357D01*
X139342Y148214D01*
X140199Y147928D01*
X140485Y147785D01*
X140628Y147643D01*
X140770Y147357D01*
Y146929D01*
X140485Y146643D01*
X140056Y146500D01*
X139485D01*
X139057Y146643D01*
X138771Y146929D01*
X142870Y149499D02*
X141442Y147500D01*
X143584D01*
X142870Y149499D02*
Y146500D01*
X144827Y149499D02*
X144398Y149356D01*
X144255Y149071D01*
Y148785D01*
X144398Y148500D01*
X144684Y148357D01*
X145255Y148214D01*
X145684Y148071D01*
X145969Y147785D01*
X146112Y147500D01*
Y147071D01*
X145969Y146786D01*
X145826Y146643D01*
X145398Y146500D01*
X144827D01*
X144398Y146643D01*
X144255Y146786D01*
X144113Y147071D01*
Y147500D01*
X144255Y147785D01*
X144541Y148071D01*
X144969Y148214D01*
X145541Y148357D01*
X145826Y148500D01*
X145969Y148785D01*
Y149071D01*
X145826Y149356D01*
X145398Y149499D01*
X144827D01*
X148497D02*
X147069D01*
X146926Y148214D01*
X147069Y148357D01*
X147498Y148500D01*
X147926D01*
X148354Y148357D01*
X148640Y148071D01*
X148783Y147643D01*
Y147357D01*
X148640Y146929D01*
X148354Y146643D01*
X147926Y146500D01*
X147498D01*
X147069Y146643D01*
X146926Y146786D01*
X146783Y147071D01*
X138357Y107299D02*
X136500D01*
Y104300D01*
X138357D01*
X136500Y105871D02*
X137643D01*
X140856Y106871D02*
X140571Y107157D01*
X140142Y107299D01*
X139571D01*
X139142Y107157D01*
X138857Y106871D01*
Y106585D01*
X138999Y106300D01*
X139142Y106157D01*
X139428Y106014D01*
X140285Y105728D01*
X140571Y105585D01*
X140713Y105443D01*
X140856Y105157D01*
Y104728D01*
X140571Y104443D01*
X140142Y104300D01*
X139571D01*
X139142Y104443D01*
X138857Y104728D01*
X141527Y105728D02*
X142813D01*
X143241Y105871D01*
X143384Y106014D01*
X143527Y106300D01*
Y106728D01*
X143384Y107014D01*
X143241Y107157D01*
X142813Y107299D01*
X141527D01*
Y104300D01*
X144484Y107299D02*
X146055D01*
X145198Y106157D01*
X145627D01*
X145912Y106014D01*
X146055Y105871D01*
X146198Y105443D01*
Y105157D01*
X146055Y104728D01*
X145770Y104443D01*
X145341Y104300D01*
X144913D01*
X144484Y104443D01*
X144341Y104586D01*
X144198Y104871D01*
X147012Y106585D02*
Y106728D01*
X147155Y107014D01*
X147298Y107157D01*
X147583Y107299D01*
X148155D01*
X148440Y107157D01*
X148583Y107014D01*
X148726Y106728D01*
Y106442D01*
X148583Y106157D01*
X148298Y105728D01*
X146869Y104300D01*
X148869D01*
X45642Y228285D02*
X45500Y228571D01*
X45214Y228856D01*
X44928Y228999D01*
X44357D01*
X44071Y228856D01*
X43786Y228571D01*
X43643Y228285D01*
X43500Y227857D01*
Y227143D01*
X43643Y226714D01*
X43786Y226429D01*
X44071Y226143D01*
X44357Y226000D01*
X44928D01*
X45214Y226143D01*
X45500Y226429D01*
X45642Y226714D01*
Y227143D01*
X44928D02*
X45642D01*
X46328Y228999D02*
Y226000D01*
Y228999D02*
X48327Y226000D01*
Y228999D02*
Y226000D01*
X49156Y228999D02*
Y226000D01*
Y228999D02*
X50156D01*
X50584Y228856D01*
X50870Y228571D01*
X51013Y228285D01*
X51156Y227857D01*
Y227143D01*
X51013Y226714D01*
X50870Y226429D01*
X50584Y226143D01*
X50156Y226000D01*
X49156D01*
X45642Y218285D02*
X45500Y218571D01*
X45214Y218857D01*
X44928Y218999D01*
X44357D01*
X44071Y218857D01*
X43786Y218571D01*
X43643Y218285D01*
X43500Y217857D01*
Y217143D01*
X43643Y216714D01*
X43786Y216428D01*
X44071Y216143D01*
X44357Y216000D01*
X44928D01*
X45214Y216143D01*
X45500Y216428D01*
X45642Y216714D01*
Y217143D01*
X44928D02*
X45642D01*
X46328Y218999D02*
Y216000D01*
Y218999D02*
X48327Y216000D01*
Y218999D02*
Y216000D01*
X49156Y218999D02*
Y216000D01*
Y218999D02*
X50156D01*
X50584Y218857D01*
X50870Y218571D01*
X51013Y218285D01*
X51156Y217857D01*
Y217143D01*
X51013Y216714D01*
X50870Y216428D01*
X50584Y216143D01*
X50156Y216000D01*
X49156D01*
X45642Y223285D02*
X45500Y223571D01*
X45214Y223856D01*
X44928Y223999D01*
X44357D01*
X44071Y223856D01*
X43786Y223571D01*
X43643Y223285D01*
X43500Y222857D01*
Y222143D01*
X43643Y221714D01*
X43786Y221428D01*
X44071Y221143D01*
X44357Y221000D01*
X44928D01*
X45214Y221143D01*
X45500Y221428D01*
X45642Y221714D01*
Y222143D01*
X44928D02*
X45642D01*
X46328Y223999D02*
Y221000D01*
Y223999D02*
X48327Y221000D01*
Y223999D02*
Y221000D01*
X49156Y223999D02*
Y221000D01*
Y223999D02*
X50156D01*
X50584Y223856D01*
X50870Y223571D01*
X51013Y223285D01*
X51156Y222857D01*
Y222143D01*
X51013Y221714D01*
X50870Y221428D01*
X50584Y221143D01*
X50156Y221000D01*
X49156D01*
X43500Y253428D02*
X43786Y253571D01*
X44214Y253999D01*
Y251000D01*
X45842Y253285D02*
Y253428D01*
X45985Y253714D01*
X46128Y253856D01*
X46414Y253999D01*
X46985D01*
X47271Y253856D01*
X47414Y253714D01*
X47556Y253428D01*
Y253142D01*
X47414Y252857D01*
X47128Y252428D01*
X45700Y251000D01*
X47699D01*
X48370Y253999D02*
X49513Y251000D01*
X50656Y253999D02*
X49513Y251000D01*
X43500Y248428D02*
X43786Y248571D01*
X44214Y248999D01*
Y246000D01*
X45842Y248285D02*
Y248428D01*
X45985Y248714D01*
X46128Y248856D01*
X46414Y248999D01*
X46985D01*
X47271Y248856D01*
X47414Y248714D01*
X47556Y248428D01*
Y248142D01*
X47414Y247857D01*
X47128Y247428D01*
X45700Y246000D01*
X47699D01*
X48370Y248999D02*
X49513Y246000D01*
X50656Y248999D02*
X49513Y246000D01*
X43500Y262928D02*
X43786Y263071D01*
X44214Y263499D01*
Y260500D01*
X45842Y262785D02*
Y262928D01*
X45985Y263214D01*
X46128Y263356D01*
X46414Y263499D01*
X46985D01*
X47271Y263356D01*
X47414Y263214D01*
X47556Y262928D01*
Y262642D01*
X47414Y262357D01*
X47128Y261928D01*
X45700Y260500D01*
X47699D01*
X48370Y263499D02*
X49513Y260500D01*
X50656Y263499D02*
X49513Y260500D01*
X43500Y258428D02*
X43786Y258571D01*
X44214Y258999D01*
Y256000D01*
X45842Y258285D02*
Y258428D01*
X45985Y258714D01*
X46128Y258857D01*
X46414Y258999D01*
X46985D01*
X47271Y258857D01*
X47414Y258714D01*
X47556Y258428D01*
Y258142D01*
X47414Y257857D01*
X47128Y257428D01*
X45700Y256000D01*
X47699D01*
X48370Y258999D02*
X49513Y256000D01*
X50656Y258999D02*
X49513Y256000D01*
X43214Y158499D02*
X42786Y158356D01*
X42643Y158071D01*
Y157785D01*
X42786Y157500D01*
X43071Y157357D01*
X43643Y157214D01*
X44071Y157071D01*
X44357Y156785D01*
X44500Y156500D01*
Y156071D01*
X44357Y155786D01*
X44214Y155643D01*
X43785Y155500D01*
X43214D01*
X42786Y155643D01*
X42643Y155786D01*
X42500Y156071D01*
Y156500D01*
X42643Y156785D01*
X42928Y157071D01*
X43357Y157214D01*
X43928Y157357D01*
X44214Y157500D01*
X44357Y157785D01*
Y158071D01*
X44214Y158356D01*
X43785Y158499D01*
X43214D01*
X45171D02*
X46314Y155500D01*
X47456Y158499D02*
X46314Y155500D01*
X44500Y238899D02*
Y235900D01*
X43500Y238899D02*
X45500D01*
X45857D02*
X47856Y235900D01*
Y238899D02*
X45857Y235900D01*
X48528Y238899D02*
Y235900D01*
Y238899D02*
X49527D01*
X49956Y238756D01*
X50241Y238471D01*
X50384Y238185D01*
X50527Y237757D01*
Y237043D01*
X50384Y236614D01*
X50241Y236329D01*
X49956Y236043D01*
X49527Y235900D01*
X48528D01*
X43500Y243428D02*
X43786Y243571D01*
X44214Y243999D01*
Y241000D01*
X45842Y243285D02*
Y243428D01*
X45985Y243714D01*
X46128Y243857D01*
X46414Y243999D01*
X46985D01*
X47271Y243857D01*
X47414Y243714D01*
X47556Y243428D01*
Y243142D01*
X47414Y242857D01*
X47128Y242428D01*
X45700Y241000D01*
X47699D01*
X48370Y243999D02*
X49513Y241000D01*
X50656Y243999D02*
X49513Y241000D01*
X44000Y233999D02*
Y231000D01*
Y233999D02*
X45285D01*
X45714Y233857D01*
X45857Y233714D01*
X46000Y233428D01*
Y233142D01*
X45857Y232857D01*
X45714Y232714D01*
X45285Y232571D01*
X44000D01*
X45000D02*
X46000Y231000D01*
X46671Y233999D02*
X48670Y231000D01*
Y233999D02*
X46671Y231000D01*
X49342Y233999D02*
Y231000D01*
Y233999D02*
X50341D01*
X50770Y233857D01*
X51056Y233571D01*
X51199Y233285D01*
X51341Y232857D01*
Y232143D01*
X51199Y231714D01*
X51056Y231429D01*
X50770Y231143D01*
X50341Y231000D01*
X49342D01*
X45642Y213785D02*
X45500Y214071D01*
X45214Y214356D01*
X44928Y214499D01*
X44357D01*
X44071Y214356D01*
X43786Y214071D01*
X43643Y213785D01*
X43500Y213357D01*
Y212643D01*
X43643Y212214D01*
X43786Y211929D01*
X44071Y211643D01*
X44357Y211500D01*
X44928D01*
X45214Y211643D01*
X45500Y211929D01*
X45642Y212214D01*
Y212643D01*
X44928D02*
X45642D01*
X46328Y214499D02*
Y211500D01*
Y214499D02*
X48327Y211500D01*
Y214499D02*
Y211500D01*
X49156Y214499D02*
Y211500D01*
Y214499D02*
X50156D01*
X50584Y214356D01*
X50870Y214071D01*
X51013Y213785D01*
X51156Y213357D01*
Y212643D01*
X51013Y212214D01*
X50870Y211929D01*
X50584Y211643D01*
X50156Y211500D01*
X49156D01*
X45642Y208785D02*
X45500Y209071D01*
X45214Y209356D01*
X44928Y209499D01*
X44357D01*
X44071Y209356D01*
X43786Y209071D01*
X43643Y208785D01*
X43500Y208357D01*
Y207643D01*
X43643Y207214D01*
X43786Y206928D01*
X44071Y206643D01*
X44357Y206500D01*
X44928D01*
X45214Y206643D01*
X45500Y206928D01*
X45642Y207214D01*
Y207643D01*
X44928D02*
X45642D01*
X46328Y209499D02*
Y206500D01*
Y209499D02*
X48327Y206500D01*
Y209499D02*
Y206500D01*
X49156Y209499D02*
Y206500D01*
Y209499D02*
X50156D01*
X50584Y209356D01*
X50870Y209071D01*
X51013Y208785D01*
X51156Y208357D01*
Y207643D01*
X51013Y207214D01*
X50870Y206928D01*
X50584Y206643D01*
X50156Y206500D01*
X49156D01*
X45142Y132785D02*
X45000Y133071D01*
X44714Y133356D01*
X44428Y133499D01*
X43857D01*
X43571Y133356D01*
X43286Y133071D01*
X43143Y132785D01*
X43000Y132357D01*
Y131643D01*
X43143Y131214D01*
X43286Y130929D01*
X43571Y130643D01*
X43857Y130500D01*
X44428D01*
X44714Y130643D01*
X45000Y130929D01*
X45142Y131214D01*
Y131643D01*
X44428D02*
X45142D01*
X45828Y133499D02*
Y130500D01*
Y133499D02*
X47828Y130500D01*
Y133499D02*
Y130500D01*
X48656Y133499D02*
Y130500D01*
Y133499D02*
X49656D01*
X50084Y133356D01*
X50370Y133071D01*
X50513Y132785D01*
X50656Y132357D01*
Y131643D01*
X50513Y131214D01*
X50370Y130929D01*
X50084Y130643D01*
X49656Y130500D01*
X48656D01*
X45142Y137785D02*
X45000Y138071D01*
X44714Y138356D01*
X44428Y138499D01*
X43857D01*
X43571Y138356D01*
X43286Y138071D01*
X43143Y137785D01*
X43000Y137357D01*
Y136643D01*
X43143Y136214D01*
X43286Y135928D01*
X43571Y135643D01*
X43857Y135500D01*
X44428D01*
X44714Y135643D01*
X45000Y135928D01*
X45142Y136214D01*
Y136643D01*
X44428D02*
X45142D01*
X45828Y138499D02*
Y135500D01*
Y138499D02*
X47828Y135500D01*
Y138499D02*
Y135500D01*
X48656Y138499D02*
Y135500D01*
Y138499D02*
X49656D01*
X50084Y138356D01*
X50370Y138071D01*
X50513Y137785D01*
X50656Y137357D01*
Y136643D01*
X50513Y136214D01*
X50370Y135928D01*
X50084Y135643D01*
X49656Y135500D01*
X48656D01*
X45142Y143285D02*
X45000Y143571D01*
X44714Y143857D01*
X44428Y143999D01*
X43857D01*
X43571Y143857D01*
X43286Y143571D01*
X43143Y143285D01*
X43000Y142857D01*
Y142143D01*
X43143Y141714D01*
X43286Y141428D01*
X43571Y141143D01*
X43857Y141000D01*
X44428D01*
X44714Y141143D01*
X45000Y141428D01*
X45142Y141714D01*
Y142143D01*
X44428D02*
X45142D01*
X45828Y143999D02*
Y141000D01*
Y143999D02*
X47828Y141000D01*
Y143999D02*
Y141000D01*
X48656Y143999D02*
Y141000D01*
Y143999D02*
X49656D01*
X50084Y143857D01*
X50370Y143571D01*
X50513Y143285D01*
X50656Y142857D01*
Y142143D01*
X50513Y141714D01*
X50370Y141428D01*
X50084Y141143D01*
X49656Y141000D01*
X48656D01*
X45142Y147785D02*
X45000Y148071D01*
X44714Y148356D01*
X44428Y148499D01*
X43857D01*
X43571Y148356D01*
X43286Y148071D01*
X43143Y147785D01*
X43000Y147357D01*
Y146643D01*
X43143Y146214D01*
X43286Y145929D01*
X43571Y145643D01*
X43857Y145500D01*
X44428D01*
X44714Y145643D01*
X45000Y145929D01*
X45142Y146214D01*
Y146643D01*
X44428D02*
X45142D01*
X45828Y148499D02*
Y145500D01*
Y148499D02*
X47828Y145500D01*
Y148499D02*
Y145500D01*
X48656Y148499D02*
Y145500D01*
Y148499D02*
X49656D01*
X50084Y148356D01*
X50370Y148071D01*
X50513Y147785D01*
X50656Y147357D01*
Y146643D01*
X50513Y146214D01*
X50370Y145929D01*
X50084Y145643D01*
X49656Y145500D01*
X48656D01*
X42500Y153499D02*
Y150500D01*
Y153499D02*
X43500D01*
X43928Y153357D01*
X44214Y153071D01*
X44357Y152785D01*
X44500Y152357D01*
Y151643D01*
X44357Y151214D01*
X44214Y150928D01*
X43928Y150643D01*
X43500Y150500D01*
X42500D01*
X47456D02*
X46314Y153499D01*
X45171Y150500D01*
X45599Y151500D02*
X47028D01*
X49156Y153499D02*
Y150500D01*
X48156Y153499D02*
X50156D01*
X52798Y150500D02*
X51655Y153499D01*
X50513Y150500D01*
X50941Y151500D02*
X52369D01*
X43214Y163499D02*
X42786Y163356D01*
X42643Y163071D01*
Y162785D01*
X42786Y162500D01*
X43071Y162357D01*
X43643Y162214D01*
X44071Y162071D01*
X44357Y161785D01*
X44500Y161500D01*
Y161071D01*
X44357Y160786D01*
X44214Y160643D01*
X43785Y160500D01*
X43214D01*
X42786Y160643D01*
X42643Y160786D01*
X42500Y161071D01*
Y161500D01*
X42643Y161785D01*
X42928Y162071D01*
X43357Y162214D01*
X43928Y162357D01*
X44214Y162500D01*
X44357Y162785D01*
Y163071D01*
X44214Y163356D01*
X43785Y163499D01*
X43214D01*
X45171D02*
X46314Y160500D01*
X47456Y163499D02*
X46314Y160500D01*
X43214Y167999D02*
X42786Y167857D01*
X42643Y167571D01*
Y167285D01*
X42786Y167000D01*
X43071Y166857D01*
X43643Y166714D01*
X44071Y166571D01*
X44357Y166285D01*
X44500Y166000D01*
Y165571D01*
X44357Y165286D01*
X44214Y165143D01*
X43785Y165000D01*
X43214D01*
X42786Y165143D01*
X42643Y165286D01*
X42500Y165571D01*
Y166000D01*
X42643Y166285D01*
X42928Y166571D01*
X43357Y166714D01*
X43928Y166857D01*
X44214Y167000D01*
X44357Y167285D01*
Y167571D01*
X44214Y167857D01*
X43785Y167999D01*
X43214D01*
X45171D02*
X46314Y165000D01*
X47456Y167999D02*
X46314Y165000D01*
X43214Y172999D02*
X42786Y172856D01*
X42643Y172571D01*
Y172285D01*
X42786Y172000D01*
X43071Y171857D01*
X43643Y171714D01*
X44071Y171571D01*
X44357Y171285D01*
X44500Y171000D01*
Y170571D01*
X44357Y170286D01*
X44214Y170143D01*
X43785Y170000D01*
X43214D01*
X42786Y170143D01*
X42643Y170286D01*
X42500Y170571D01*
Y171000D01*
X42643Y171285D01*
X42928Y171571D01*
X43357Y171714D01*
X43928Y171857D01*
X44214Y172000D01*
X44357Y172285D01*
Y172571D01*
X44214Y172856D01*
X43785Y172999D01*
X43214D01*
X45171D02*
X46314Y170000D01*
X47456Y172999D02*
X46314Y170000D01*
D57*
X65276Y144945D02*
G03*
X66063Y144158I787J0D01*
G01*
X73937D02*
G03*
X74724Y144945I0J787D01*
G01*
X66063Y163843D02*
G03*
X65276Y163055I0J-787D01*
G01*
X74724D02*
G03*
X73937Y163843I-787J0D01*
G01*
X54776Y144945D02*
G03*
X55563Y144158I787J0D01*
G01*
X63437D02*
G03*
X64224Y144945I0J787D01*
G01*
X55563Y163843D02*
G03*
X54776Y163055I0J-787D01*
G01*
X64224D02*
G03*
X63437Y163843I-787J0D01*
G01*
X74497Y13496D02*
G03*
X79500Y13500I2501J2D01*
G01*
X79497Y19496D02*
G03*
X74500Y19500I-2499J-13D01*
G01*
X48998Y13496D02*
G03*
X54000Y13500I2501J2D01*
G01*
X53997Y19496D02*
G03*
X49000Y19500I-2499J-13D01*
G01*
X55062Y41170D02*
G03*
X55062Y41170I-492J0D01*
G01*
X56670Y210811D02*
G03*
X56670Y210811I-591J0D01*
G01*
X87464Y271665D02*
G03*
X87464Y271665I-591J0D01*
G01*
X94276Y248945D02*
G03*
X95063Y248157I787J0D01*
G01*
X102937D02*
G03*
X103724Y248945I0J787D01*
G01*
X95063Y267843D02*
G03*
X94276Y267055I0J-787D01*
G01*
X103724D02*
G03*
X102937Y267843I-787J0D01*
G01*
X104776Y248945D02*
G03*
X105563Y248157I787J0D01*
G01*
X113437D02*
G03*
X114224Y248945I0J787D01*
G01*
X105563Y267843D02*
G03*
X104776Y267055I0J-787D01*
G01*
X114224D02*
G03*
X113437Y267843I-787J0D01*
G01*
X115776Y248945D02*
G03*
X116563Y248157I787J0D01*
G01*
X124437D02*
G03*
X125224Y248945I0J787D01*
G01*
X116563Y267843D02*
G03*
X115776Y267055I0J-787D01*
G01*
X125224D02*
G03*
X124437Y267843I-787J0D01*
G01*
X126776Y248945D02*
G03*
X127563Y248157I787J0D01*
G01*
X135437D02*
G03*
X136224Y248945I0J787D01*
G01*
X127563Y267843D02*
G03*
X126776Y267055I0J-787D01*
G01*
X136224D02*
G03*
X135437Y267843I-787J0D01*
G01*
X167587Y269492D02*
G03*
X167587Y269492I-394J0D01*
G01*
X135413Y145000D02*
X149499D01*
X135413Y108890D02*
X149500D01*
X149499D02*
Y113931D01*
Y120384D02*
Y123774D01*
Y130226D02*
Y133616D01*
Y140069D02*
Y145000D01*
X135413Y140093D02*
X135500Y145000D01*
X135413Y130250D02*
Y133592D01*
Y120408D02*
Y123750D01*
Y108890D02*
Y113907D01*
X147500Y115000D02*
Y139000D01*
X137499D02*
X147500D01*
X137499Y115000D02*
Y139000D01*
Y115000D02*
X147500D01*
X144500Y117000D02*
Y121000D01*
X140499D02*
X144500D01*
X140499Y117000D02*
Y121000D01*
Y117000D02*
X144500D01*
X78370Y133764D02*
X99630Y133764D01*
X78370Y149831D02*
Y154236D01*
Y133764D02*
Y138169D01*
X99630Y149831D02*
Y154236D01*
Y133764D02*
Y138169D01*
X78370Y154236D02*
X99630Y154236D01*
X90748Y283800D02*
X90748Y294618D01*
X59252Y283800D02*
X59252Y294618D01*
X59252Y283800D02*
X90748D01*
X59252Y294618D02*
X65768D01*
X70452D02*
X79547D01*
X84232D02*
X90748D01*
X20112Y195634D02*
Y274367D01*
Y195634D02*
X22551D01*
X34213D02*
X37000D01*
Y205448D01*
X20112Y274367D02*
X22551D01*
X34213Y274370D02*
X34287D01*
X34213D02*
X37043D01*
Y264552D02*
Y274370D01*
X66063Y163843D02*
X73937D01*
X65276Y145339D02*
Y150063D01*
X74724Y145339D02*
Y150063D01*
X65276Y157937D02*
Y162661D01*
X74724Y157937D02*
Y162661D01*
X66063Y144158D02*
X73937D01*
X65276Y144945D02*
Y145339D01*
X74724Y144945D02*
Y145339D01*
X65276Y162661D02*
Y163055D01*
X74724Y162661D02*
Y163055D01*
X55563Y163843D02*
X63437D01*
X54776Y145339D02*
Y150063D01*
X64224Y145339D02*
Y150063D01*
X54776Y157937D02*
Y162661D01*
X64224Y157937D02*
Y162661D01*
X55563Y144158D02*
X63437D01*
X54776Y144945D02*
Y145339D01*
X64224Y144945D02*
Y145339D01*
X54776Y162661D02*
Y163055D01*
X64224Y162661D02*
Y163055D01*
X19500Y178000D02*
X20476D01*
X19500Y126000D02*
Y178000D01*
Y126000D02*
X20476D01*
X34104Y182396D02*
X34500Y182000D01*
X36500Y126000D02*
Y129830D01*
X34500Y126000D02*
X36500D01*
X34500Y122500D02*
Y126000D01*
X34104Y122104D02*
X34500Y122500D01*
Y178000D02*
Y182000D01*
Y178000D02*
X36500D01*
Y174170D02*
Y178000D01*
X70307Y8232D02*
X70307Y24768D01*
X83693D02*
X83693Y8232D01*
X70307D02*
X70578D01*
X74957D02*
X79043D01*
X83422D02*
X83693D01*
X70307Y24768D02*
X70578D01*
X74957D02*
X79043D01*
X83422D02*
X83693D01*
X74500Y13500D02*
Y19500D01*
X79500Y13500D02*
Y19500D01*
X44807Y8232D02*
X44807Y24768D01*
X58193D02*
X58193Y8232D01*
X44807D02*
X45078D01*
X49457D02*
X53543D01*
X57922D02*
X58193D01*
X44807Y24768D02*
X45078D01*
X49457D02*
X53543D01*
X57922D02*
X58193D01*
X49000Y13500D02*
Y19500D01*
X54000Y13500D02*
Y19500D01*
X34606Y75963D02*
Y87500D01*
X25398D02*
X34606D01*
X25398Y76414D02*
Y87500D01*
X34606Y74000D02*
Y74022D01*
Y97500D02*
Y108038D01*
X25398Y97500D02*
X34606D01*
X25398D02*
Y107587D01*
X34606Y109979D02*
Y110000D01*
X37898Y85000D02*
X40898D01*
X37898Y78000D02*
Y85000D01*
Y78000D02*
X40898D01*
Y85000D01*
X37898Y106000D02*
X40898D01*
X37898Y99000D02*
Y106000D01*
Y99000D02*
X40898D01*
Y106000D01*
X34606Y74000D02*
X40772D01*
X19398Y110000D02*
X25221D01*
X19398Y74000D02*
Y110000D01*
Y74000D02*
X25221D01*
X34606Y110000D02*
X40772D01*
X52404Y49861D02*
Y51406D01*
X40593Y39595D02*
X42136D01*
X50846D02*
X52404D01*
X50846Y51406D02*
X52404D01*
X40593D02*
X42136D01*
X40593Y39595D02*
Y41151D01*
Y49855D02*
Y51406D01*
X52404Y39595D02*
Y41151D01*
X74000Y119900D02*
X78000Y121500D01*
X74000Y119900D02*
Y123100D01*
X78000Y121500D01*
X70095Y117563D02*
X81906D01*
X70095Y125437D02*
X81906D01*
X78000Y119500D02*
Y123500D01*
X73000Y121500D02*
X79000D01*
X94000D02*
X98000Y123100D01*
Y119900D02*
Y123100D01*
X94000Y121500D02*
X98000Y119900D01*
X90095Y125437D02*
X101906D01*
X90095Y117563D02*
X101906D01*
X94000Y119500D02*
Y123500D01*
X93000Y121500D02*
X99000D01*
X171591Y19634D02*
Y90500D01*
X196394Y19634D02*
Y90500D01*
X96000Y19634D02*
X99150D01*
X170016D02*
X196394D01*
X96000Y90500D02*
X99150D01*
X170016D02*
X196394D01*
X96000Y80658D02*
Y90500D01*
Y19634D02*
Y29083D01*
X57949Y212760D02*
Y216795D01*
Y212760D02*
X58441D01*
X69957Y212760D02*
Y216795D01*
X69465Y212760D02*
X69957D01*
X57949Y220733D02*
Y224768D01*
X58441D01*
X69957Y220732D02*
Y224768D01*
X69465D02*
X69957D01*
X85004Y265681D02*
Y269716D01*
X84512D02*
X85004D01*
X72996Y265681D02*
Y269716D01*
X73488D01*
X85004Y257708D02*
Y261744D01*
X84511Y257708D02*
X85004D01*
X72996Y257708D02*
Y261744D01*
Y257708D02*
X73488D01*
X140031Y284382D02*
X146547D01*
X151232D02*
X160327D01*
X165011D02*
X171528D01*
X112472Y295200D02*
X171528D01*
X171528Y284382D02*
X171528Y295200D01*
X112472Y284382D02*
Y295200D01*
X124831Y284582D02*
X131347D01*
X112631Y284382D02*
X119147D01*
X94276Y248945D02*
Y249339D01*
X103724Y248945D02*
Y249339D01*
X94276Y266661D02*
Y267055D01*
X103724Y266661D02*
Y267055D01*
X95063Y267843D02*
X102937D01*
X94276Y249339D02*
Y254063D01*
X103724Y249339D02*
Y254063D01*
X94276Y261937D02*
Y266661D01*
X103724Y261937D02*
Y266661D01*
X95063Y248157D02*
X102937D01*
X104776Y248945D02*
Y249339D01*
X114224Y248945D02*
Y249339D01*
X104776Y266661D02*
Y267055D01*
X114224Y266661D02*
Y267055D01*
X105563Y267843D02*
X113437D01*
X104776Y249339D02*
Y254063D01*
X114224Y249339D02*
Y254063D01*
X104776Y261937D02*
Y266661D01*
X114224Y261937D02*
Y266661D01*
X105563Y248157D02*
X113437D01*
X115776Y248945D02*
Y249339D01*
X125224Y248945D02*
Y249339D01*
X115776Y266661D02*
Y267055D01*
X125224Y266661D02*
Y267055D01*
X116563Y267843D02*
X124437D01*
X115776Y249339D02*
Y254063D01*
X125224Y249339D02*
Y254063D01*
X115776Y261937D02*
Y266661D01*
X125224Y261937D02*
Y266661D01*
X116563Y248157D02*
X124437D01*
X126776Y248945D02*
Y249339D01*
X136224Y248945D02*
Y249339D01*
X126776Y266661D02*
Y267055D01*
X136224Y266661D02*
Y267055D01*
X127563Y267843D02*
X135437D01*
X126776Y249339D02*
Y254063D01*
X136224Y249339D02*
Y254063D01*
X126776Y261937D02*
Y266661D01*
X136224Y261937D02*
Y266661D01*
X127563Y248157D02*
X135437D01*
X126752Y204768D02*
X134700D01*
X150300D02*
X158248D01*
X126752Y238232D02*
X134700D01*
X150300D02*
X158248D01*
X126752Y204768D02*
Y238232D01*
X158248Y204768D02*
Y238232D01*
X168792Y266343D02*
X170343D01*
X157178D02*
X157917D01*
X150658Y264209D02*
Y266343D01*
X152011D01*
X150658Y246658D02*
X151421D01*
X150658D02*
Y248909D01*
X170343Y246658D02*
Y248011D01*
X168989Y246658D02*
X170343D01*
Y264989D02*
Y266343D01*
D59*
X82074Y185115D02*
G03*
X82074Y191885I-10256J3385D01*
G01*
X66926D02*
G03*
X66926Y185115I10256J-3385D01*
G01*
X83925Y191885D02*
G03*
X83925Y185115I10256J-3385D01*
G01*
X99075D02*
G03*
X99075Y191885I-10256J3385D01*
G01*
X76925Y251885D02*
G03*
X76925Y245115I10256J-3385D01*
G01*
X92075D02*
G03*
X92075Y251885I-10256J3385D01*
G01*
X143075Y186615D02*
G03*
X143075Y193385I-10256J3385D01*
G01*
X127926D02*
G03*
X127926Y186615I10256J-3385D01*
G01*
X117115Y195425D02*
G03*
X123885Y195425I3385J10256D01*
G01*
Y210575D02*
G03*
X117115Y210575I-3385J-10256D01*
G01*
X109615Y195425D02*
G03*
X116385Y195425I3385J10256D01*
G01*
Y210575D02*
G03*
X109615Y210575I-3385J-10256D01*
G01*
X108885Y227574D02*
G03*
X102115Y227574I-3385J-10256D01*
G01*
Y212425D02*
G03*
X108885Y212425I3385J10256D01*
G01*
X116385Y227574D02*
G03*
X109615Y227574I-3385J-10256D01*
G01*
Y212425D02*
G03*
X116385Y212425I3385J10256D01*
G01*
X123885Y227574D02*
G03*
X117115Y227574I-3385J-10256D01*
G01*
Y212425D02*
G03*
X123885Y212425I3385J10256D01*
G01*
X102115Y195425D02*
G03*
X108885Y195425I3385J10256D01*
G01*
Y210575D02*
G03*
X102115Y210575I-3385J-10256D01*
G01*
X171207Y109641D02*
X174793D01*
X166991Y115359D02*
X171053D01*
X166991Y109641D02*
Y115359D01*
X174947D02*
X179009D01*
Y109641D02*
Y115359D01*
X72279Y243615D02*
X92721D01*
X72279Y232385D02*
X92721D01*
X72264Y243570D02*
X72290Y242628D01*
X92710Y233372D02*
X92736Y232430D01*
X92721Y243615D02*
X92748Y242673D01*
X72252Y233327D02*
X72279Y232385D01*
X76508Y191900D02*
X82074D01*
X76508Y185100D02*
X82074D01*
X66926D02*
X72492D01*
X66926Y191900D02*
X72492D01*
X83925Y185100D02*
X89492D01*
X83925Y191900D02*
X89492D01*
X93508D02*
X99075D01*
X93508Y185100D02*
X99075D01*
X76925Y245100D02*
X82492D01*
X76925Y251900D02*
X82492D01*
X86508D02*
X92075D01*
X86508Y245100D02*
X92075D01*
X137508Y193400D02*
X143075D01*
X137508Y186600D02*
X143075D01*
X127926D02*
X133492D01*
X127926Y193400D02*
X133492D01*
X121084Y122461D02*
Y124539D01*
X115563Y127835D02*
X121084D01*
X115563Y119165D02*
X121084D01*
X167752Y173827D02*
X167779Y172885D01*
X188221Y184115D02*
X188248Y183173D01*
X188210Y173872D02*
X188236Y172930D01*
X167764Y184070D02*
X167790Y183128D01*
X167779Y172885D02*
X188221D01*
X167779Y184115D02*
X188221D01*
X189173Y188252D02*
X190115Y188279D01*
X178885Y208721D02*
X179827Y208748D01*
X189128Y208710D02*
X190070Y208736D01*
X178930Y188264D02*
X179872Y188290D01*
X190115Y188279D02*
Y208721D01*
X178885Y188279D02*
Y208721D01*
X176173Y188252D02*
X177115Y188279D01*
X165885Y208721D02*
X166827Y208748D01*
X176128Y208710D02*
X177070Y208736D01*
X165930Y188264D02*
X166872Y188290D01*
X177115Y188279D02*
Y208721D01*
X165885Y188279D02*
Y208721D01*
X84461Y215026D02*
Y221925D01*
X72444Y215026D02*
Y221925D01*
X58491Y260051D02*
Y266950D01*
X70509Y260051D02*
Y266950D01*
X171991Y156141D02*
Y161859D01*
Y156141D02*
X176053D01*
X184009D02*
Y161859D01*
X179947Y156141D02*
X184009D01*
X176207Y161859D02*
X179793D01*
X115991Y102641D02*
Y108359D01*
Y102641D02*
X120053D01*
X128009D02*
Y108359D01*
X123947Y102641D02*
X128009D01*
X120207Y108359D02*
X123793D01*
X117100Y195425D02*
Y200992D01*
X123900Y195425D02*
Y200992D01*
Y205008D02*
Y210575D01*
X117100Y205008D02*
Y210575D01*
X109600Y195425D02*
Y200992D01*
X116400Y195425D02*
Y200992D01*
Y205008D02*
Y210575D01*
X109600Y205008D02*
Y210575D01*
X108900Y222008D02*
Y227574D01*
X102100Y222008D02*
Y227574D01*
Y212425D02*
Y217992D01*
X108900Y212425D02*
Y217992D01*
X116400Y222008D02*
Y227574D01*
X109600Y222008D02*
Y227574D01*
Y212425D02*
Y217992D01*
X116400Y212425D02*
Y217992D01*
X123900Y222008D02*
Y227574D01*
X117100Y222008D02*
Y227574D01*
Y212425D02*
Y217992D01*
X123900Y212425D02*
Y217992D01*
X102100Y195425D02*
Y200992D01*
X108900Y195425D02*
Y200992D01*
Y205008D02*
Y210575D01*
X102100Y205008D02*
Y210575D01*
D70*
X171187Y130508D02*
G03*
X171187Y130508I-787J0D01*
G01*
X40287Y176500D02*
G03*
X40287Y176500I-787J0D01*
G01*
D71*
X98132Y178948D02*
G03*
X98122Y178948I-5J492D01*
G01*
X133992Y167508D02*
G03*
X133992Y167508I-492J0D01*
G01*
X85984Y67000D02*
G03*
X85984Y67000I-492J0D01*
G01*
Y44000D02*
G03*
X85984Y44000I-492J0D01*
G01*
X83000Y115500D02*
G03*
X83000Y115500I-492J0D01*
G01*
D72*
X40784Y266890D02*
G03*
X40784Y266890I-591J0D01*
G01*
X168181Y95500D02*
G03*
X168181Y95500I-1181J0D01*
G01*
X114991Y128460D02*
G03*
X114991Y128460I-591J0D01*
G01*
X85613Y223545D02*
G03*
X85613Y223545I-591J0D01*
G01*
X58522Y258432D02*
G03*
X58522Y258432I-591J0D01*
G01*
D73*
X104500Y108100D02*
Y111900D01*
X96500Y108100D02*
Y111900D01*
Y108100D02*
X104500D01*
X96500Y111900D02*
X104500D01*
Y112100D02*
Y115900D01*
X96500Y112100D02*
Y115900D01*
Y112100D02*
X104500D01*
X96500Y115900D02*
X104500D01*
X78000Y110600D02*
Y114400D01*
X70000Y110600D02*
Y114400D01*
Y110600D02*
X78000D01*
X70000Y114400D02*
X78000D01*
X61600Y181000D02*
X65400D01*
X61600Y173000D02*
X65400D01*
Y181000D01*
X61600Y173000D02*
Y181000D01*
X141100Y155000D02*
X144900D01*
X141100Y163000D02*
X144900D01*
X141100Y155000D02*
Y163000D01*
X144900Y155000D02*
Y163000D01*
X149100D02*
X152900D01*
X149100Y155000D02*
X152900D01*
Y163000D01*
X149100Y155000D02*
Y163000D01*
X147600Y168000D02*
X151400D01*
X147600Y176000D02*
X151400D01*
X147600Y168000D02*
Y176000D01*
X151400Y168000D02*
Y176000D01*
X183600Y118500D02*
X187400D01*
X183600Y110500D02*
X187400D01*
Y118500D01*
X183600Y110500D02*
Y118500D01*
X65600Y181000D02*
X69400D01*
X65600Y173000D02*
X69400D01*
Y181000D01*
X65600Y173000D02*
Y181000D01*
X162600Y137000D02*
Y145000D01*
X166400Y137000D02*
Y145000D01*
X162600Y137000D02*
X166400D01*
X162600Y145000D02*
X166400D01*
X129100Y176000D02*
X132900D01*
X129100Y168000D02*
X132900D01*
Y176000D01*
X129100Y168000D02*
Y176000D01*
X131500Y181600D02*
Y185400D01*
X139500Y181600D02*
Y185400D01*
X131500D02*
X139500D01*
X131500Y181600D02*
X139500D01*
X113824Y130600D02*
Y134400D01*
X121824Y130600D02*
Y134400D01*
X113824D02*
X121824D01*
X113824Y130600D02*
X121824D01*
X104500Y104100D02*
Y107900D01*
X96500Y104100D02*
Y107900D01*
Y104100D02*
X104500D01*
X96500Y107900D02*
X104500D01*
X70000Y103600D02*
Y107400D01*
X78000Y103600D02*
Y107400D01*
X70000D02*
X78000D01*
X70000Y103600D02*
X78000D01*
X70000Y173100D02*
Y176900D01*
X78000Y173100D02*
Y176900D01*
X70000D02*
X78000D01*
X70000Y173100D02*
X78000D01*
Y177100D02*
Y180900D01*
X70000Y177100D02*
Y180900D01*
Y177100D02*
X78000D01*
X70000Y180900D02*
X78000D01*
X70000Y169100D02*
Y172900D01*
X78000Y169100D02*
Y172900D01*
X70000D02*
X78000D01*
X70000Y169100D02*
X78000D01*
X98600Y180500D02*
X102400D01*
X98600Y172500D02*
X102400D01*
Y180500D01*
X98600Y172500D02*
Y180500D01*
X85553Y214476D02*
X89353D01*
X85553Y222476D02*
X89353D01*
X85553Y214476D02*
Y222476D01*
X89353Y214476D02*
Y222476D01*
X79600Y164500D02*
X83400D01*
X79600Y156500D02*
X83400D01*
Y164500D01*
X79600Y156500D02*
Y164500D01*
X64000Y97100D02*
Y100900D01*
X56000Y97100D02*
Y100900D01*
Y97100D02*
X64000D01*
X56000Y100900D02*
X64000D01*
Y82600D02*
Y86400D01*
X56000Y82600D02*
Y86400D01*
Y82600D02*
X64000D01*
X56000Y86400D02*
X64000D01*
X38000Y41100D02*
Y44900D01*
X30000Y41100D02*
Y44900D01*
Y41100D02*
X38000D01*
X30000Y44900D02*
X38000D01*
Y37100D02*
Y40900D01*
X30000Y37100D02*
Y40900D01*
Y37100D02*
X38000D01*
X30000Y40900D02*
X38000D01*
X179600Y118500D02*
X183400D01*
X179600Y110500D02*
X183400D01*
Y118500D01*
X179600Y110500D02*
Y118500D01*
X77000Y80600D02*
Y84400D01*
X85000Y80600D02*
Y84400D01*
X77000D02*
X85000D01*
X77000Y80600D02*
X85000D01*
X77000Y57600D02*
Y61400D01*
X85000Y57600D02*
Y61400D01*
X77000D02*
X85000D01*
X77000Y57600D02*
X85000D01*
X109100Y15500D02*
X112900D01*
X109100Y7500D02*
X112900D01*
Y15500D01*
X109100Y7500D02*
Y15500D01*
X162600Y126500D02*
X166400D01*
X162600Y134500D02*
X166400D01*
X162600Y126500D02*
Y134500D01*
X166400Y126500D02*
Y134500D01*
X97100Y15500D02*
X100900D01*
X97100Y7500D02*
X100900D01*
Y15500D01*
X97100Y7500D02*
Y15500D01*
X56000Y48100D02*
Y51900D01*
X64000Y48100D02*
Y51900D01*
X56000D02*
X64000D01*
X56000Y48100D02*
X64000D01*
X96366Y100228D02*
X99713D01*
X96366Y103772D02*
X99713D01*
X101287Y100228D02*
X104240D01*
X101287Y103772D02*
X104240D01*
X96366Y100228D02*
X96366Y103772D01*
X105028Y101016D02*
Y102984D01*
X104240Y100228D02*
X104240D01*
X105028Y101016D01*
X104240Y103772D02*
X105028Y102984D01*
X100146Y101213D02*
Y102787D01*
X100146Y101997D02*
X100877Y102000D01*
X61231Y172850D02*
Y176197D01*
X57687Y172850D02*
Y176197D01*
X61231Y177771D02*
Y180724D01*
X57687Y177771D02*
Y180724D01*
Y172850D02*
X61231Y172850D01*
X58475Y181511D02*
X60443D01*
X61231Y180724D02*
Y180724D01*
X60443Y181511D02*
X61231Y180724D01*
X57687Y180724D02*
X58475Y181511D01*
X58671Y176630D02*
X60246D01*
X59459Y177361D02*
X59461Y176630D01*
X60000Y88100D02*
Y90000D01*
Y93800D02*
Y95700D01*
Y102600D02*
Y104500D01*
X78000Y165100D02*
Y168900D01*
X70000Y165100D02*
Y168900D01*
Y165100D02*
X78000D01*
X70000Y168900D02*
X78000D01*
X75600Y156500D02*
X79400D01*
X75600Y164500D02*
X79400D01*
X75600Y156500D02*
Y164500D01*
X79400Y156500D02*
Y164500D01*
X137100Y155000D02*
X140900D01*
X137100Y163000D02*
X140900D01*
X137100Y155000D02*
Y163000D01*
X140900Y155000D02*
Y163000D01*
X145100Y155000D02*
X148900D01*
X145100Y163000D02*
X148900D01*
X145100Y155000D02*
Y163000D01*
X148900Y155000D02*
Y163000D01*
X152100Y96000D02*
X155900D01*
X152100Y104000D02*
X155900D01*
X152100Y96000D02*
Y104000D01*
X155900Y96000D02*
Y104000D01*
X64000Y78600D02*
Y82400D01*
X56000Y78600D02*
Y82400D01*
Y78600D02*
X64000D01*
X56000Y82400D02*
X64000D01*
X77000Y62600D02*
Y66400D01*
X85000Y62600D02*
Y66400D01*
X77000D02*
X85000D01*
X77000Y62600D02*
X85000D01*
X53500Y55100D02*
Y58900D01*
X45500Y55100D02*
Y58900D01*
Y55100D02*
X53500D01*
X45500Y58900D02*
X53500D01*
X93100Y7500D02*
X96900D01*
X93100Y15500D02*
X96900D01*
X93100Y7500D02*
Y15500D01*
X96900Y7500D02*
Y15500D01*
X160100Y104000D02*
X163900D01*
X160100Y96000D02*
X163900D01*
Y104000D01*
X160100Y96000D02*
Y104000D01*
X30000Y48600D02*
Y52400D01*
X38000Y48600D02*
Y52400D01*
X30000D02*
X38000D01*
X30000Y48600D02*
X38000D01*
X64000Y40100D02*
Y43900D01*
X56000Y40100D02*
Y43900D01*
Y40100D02*
X64000D01*
X56000Y43900D02*
X64000D01*
Y44100D02*
Y47900D01*
X56000Y44100D02*
Y47900D01*
Y44100D02*
X64000D01*
X56000Y47900D02*
X64000D01*
X164100Y104000D02*
X167900D01*
X164100Y96000D02*
X167900D01*
Y104000D01*
X164100Y96000D02*
Y104000D01*
X76600Y42000D02*
X80400D01*
X76600Y34000D02*
X80400D01*
Y42000D01*
X76600Y34000D02*
Y42000D01*
X108772Y7366D02*
Y10713D01*
X105228Y7366D02*
Y10713D01*
X108772Y12287D02*
Y15240D01*
X105228Y12287D02*
Y15240D01*
Y7366D02*
X108772Y7366D01*
X106016Y16028D02*
X107984D01*
X108772Y15240D02*
Y15240D01*
X107984Y16028D02*
X108772Y15240D01*
X105228Y15240D02*
X106016Y16028D01*
X106213Y11146D02*
X107787D01*
X107000Y11878D02*
X107002Y11146D01*
X56000Y52100D02*
Y55900D01*
X64000Y52100D02*
Y55900D01*
X56000D02*
X64000D01*
X56000Y52100D02*
X64000D01*
X101100Y15500D02*
X104900D01*
X101100Y7500D02*
X104900D01*
Y15500D01*
X101100Y7500D02*
Y15500D01*
X156100Y96000D02*
X159900D01*
X156100Y104000D02*
X159900D01*
X156100Y96000D02*
Y104000D01*
X159900Y96000D02*
Y104000D01*
X93853Y214476D02*
Y222476D01*
X90053Y214476D02*
Y222476D01*
X93853D01*
X90053Y214476D02*
X93853D01*
X59000Y254900D02*
X67000D01*
X59000Y251100D02*
X67000D01*
X59000D02*
Y254900D01*
X67000Y251100D02*
Y254900D01*
X87400Y156500D02*
Y164500D01*
X83600Y156500D02*
Y164500D01*
X87400D01*
X83600Y156500D02*
X87400D01*
X53600Y259500D02*
Y267500D01*
X57400Y259500D02*
Y267500D01*
X53600Y259500D02*
X57400D01*
X53600Y267500D02*
X57400D01*
X81600Y34000D02*
Y42000D01*
X85400Y34000D02*
Y42000D01*
X81600Y34000D02*
X85400D01*
X81600Y42000D02*
X85400D01*
X87500Y164400D02*
X95500D01*
X87500Y160600D02*
X95500D01*
X87500D02*
Y164400D01*
X95500Y160600D02*
Y164400D01*
X162600Y118000D02*
Y126000D01*
X166400Y118000D02*
Y126000D01*
X162600Y118000D02*
X166400D01*
X162600Y126000D02*
X166400D01*
X168900Y234000D02*
Y242000D01*
X165100Y234000D02*
Y242000D01*
X168900D01*
X165100Y234000D02*
X168900D01*
X176500Y268600D02*
X184500D01*
X176500Y272400D02*
X184500D01*
Y268600D02*
Y272400D01*
X176500Y268600D02*
Y272400D01*
Y260600D02*
X184500D01*
X176500Y264400D02*
X184500D01*
Y260600D02*
Y264400D01*
X176500Y260600D02*
Y264400D01*
Y256600D02*
X184500D01*
X176500Y260400D02*
X184500D01*
Y256600D02*
Y260400D01*
X176500Y256600D02*
Y260400D01*
X172900Y234000D02*
Y242000D01*
X169100Y234000D02*
Y242000D01*
X172900D01*
X169100Y234000D02*
X172900D01*
X176500Y240600D02*
X184500D01*
X176500Y244400D02*
X184500D01*
Y240600D02*
Y244400D01*
X176500Y240600D02*
Y244400D01*
Y244600D02*
X184500D01*
X176500Y248400D02*
X184500D01*
Y244600D02*
Y248400D01*
X176500Y244600D02*
Y248400D01*
Y256400D02*
X184500D01*
X176500Y252600D02*
X184500D01*
X176500D02*
Y256400D01*
X184500Y252600D02*
Y256400D01*
X161100Y234000D02*
Y242000D01*
X164900Y234000D02*
Y242000D01*
X161100Y234000D02*
X164900D01*
X161100Y242000D02*
X164900D01*
X169400Y221000D02*
Y229000D01*
X165600Y221000D02*
Y229000D01*
X169400D01*
X165600Y221000D02*
X169400D01*
X93853Y205976D02*
Y213976D01*
X90053Y205976D02*
Y213976D01*
X93853D01*
X90053Y205976D02*
X93853D01*
X176500Y264600D02*
X184500D01*
X176500Y268400D02*
X184500D01*
Y264600D02*
Y268400D01*
X176500Y264600D02*
Y268400D01*
Y248600D02*
X184500D01*
X176500Y252400D02*
X184500D01*
Y248600D02*
Y252400D01*
X176500Y248600D02*
Y252400D01*
X161100Y221000D02*
Y229000D01*
X164900Y221000D02*
Y229000D01*
X161100Y221000D02*
X164900D01*
X161100Y229000D02*
X164900D01*
X161100Y211500D02*
Y219500D01*
X164900Y211500D02*
Y219500D01*
X161100Y211500D02*
X164900D01*
X161100Y219500D02*
X164900D01*
X137600Y253500D02*
Y261500D01*
X141400Y253500D02*
Y261500D01*
X137600Y253500D02*
X141400D01*
X137600Y261500D02*
X141400D01*
X141600Y253500D02*
Y261500D01*
X145400Y253500D02*
Y261500D01*
X141600Y253500D02*
X145400D01*
X141600Y261500D02*
X145400D01*
X160600Y271500D02*
Y279500D01*
X164400Y271500D02*
Y279500D01*
X160600Y271500D02*
X164400D01*
X160600Y279500D02*
X164400D01*
X156600Y271500D02*
Y279500D01*
X160400Y271500D02*
Y279500D01*
X156600Y271500D02*
X160400D01*
X156600Y279500D02*
X160400D01*
X152600Y271500D02*
Y279500D01*
X156400Y271500D02*
Y279500D01*
X152600Y271500D02*
X156400D01*
X152600Y279500D02*
X156400D01*
X168400Y271500D02*
Y279500D01*
X164600Y271500D02*
Y279500D01*
X168400D01*
X164600Y271500D02*
X168400D01*
D74*
X94390Y181799D02*
X96162D01*
Y179043D02*
Y181799D01*
X81202Y166838D02*
Y169594D01*
Y166838D02*
X82973D01*
X81202Y181799D02*
X82973D01*
X81202Y179043D02*
Y181799D01*
X94390Y166838D02*
X96162D01*
Y169594D01*
X134095Y172984D02*
X145905D01*
X134095Y171016D02*
X145905D01*
Y172984D01*
X134095Y171016D02*
Y172984D01*
X80016Y67594D02*
X81984D01*
X80016Y79405D02*
X81984D01*
Y67594D02*
Y79405D01*
X80016Y67594D02*
Y79405D01*
Y44594D02*
X81984D01*
X80016Y56406D02*
X81984D01*
Y44594D02*
Y56406D01*
X80016Y44594D02*
Y56406D01*
X36256Y30945D02*
X39406D01*
Y27795D02*
Y30945D01*
X27595D02*
X30744D01*
X27595Y27795D02*
Y30945D01*
X36256Y64945D02*
X39406D01*
Y61795D02*
Y64945D01*
X27595D02*
X30744D01*
X27595Y61795D02*
Y64945D01*
X87984Y103094D02*
Y114906D01*
X86016Y103094D02*
Y114906D01*
Y103094D02*
X87984D01*
X86016Y114906D02*
X87984D01*
D75*
X111747Y180150D02*
X112559D01*
X111747Y163801D02*
Y180150D01*
Y163801D02*
X112520Y163811D01*
X127480Y163850D02*
X128250Y163850D01*
Y180200D01*
X127402Y180189D02*
X128250Y180200D01*
D76*
X57441Y87032D02*
X62559D01*
X57441Y90969D02*
X62559D01*
X57441Y92731D02*
X62559D01*
X57441Y96668D02*
X62559D01*
X57441Y101532D02*
X62559D01*
X57441Y105468D02*
X62559D01*
D77*
X120000Y150000D02*
Y155000D01*
X109000D02*
X120000D01*
X109000Y150000D02*
Y155000D01*
Y150000D02*
X120000D01*
Y155500D02*
Y160500D01*
X109000D02*
X120000D01*
X109000Y155500D02*
Y160500D01*
Y155500D02*
X120000D01*
X185500Y160500D02*
Y171500D01*
X190500D01*
Y160500D02*
Y171500D01*
X185500Y160500D02*
X190500D01*
X172500Y166500D02*
X183500D01*
X172500D02*
Y171500D01*
X183500D01*
Y166500D02*
Y171500D01*
X170500Y160500D02*
Y171500D01*
X165500Y160500D02*
X170500D01*
X165500D02*
Y171500D01*
X170500D01*
D78*
X190200Y90500D02*
X190488D01*
D79*
X114739Y49249D02*
D03*
D80*
X130489Y37499D02*
D03*
D81*
X125739Y76499D02*
D03*
D82*
X159989Y54999D02*
D03*
M02*
