G04 Layer_Color=128*
%FSLAX25Y25*%
%MOIN*%
G70*
G01*
G75*
%ADD135C,0.00200*%
D135*
X64960Y289500D02*
X71260D01*
X68110Y286350D02*
Y292650D01*
X78740Y289500D02*
X85039D01*
X81889Y286350D02*
Y292650D01*
X43220Y80622D02*
X45583D01*
X44401Y79441D02*
Y81803D01*
X43220Y103378D02*
X45583D01*
X44401Y102197D02*
Y104559D01*
X45071Y109009D02*
X47827D01*
X46449Y107631D02*
Y110387D01*
X28536Y109009D02*
X31292D01*
X29914Y107631D02*
Y110387D01*
X45071Y74993D02*
X47827D01*
X46449Y73615D02*
Y76371D01*
X28536Y74993D02*
X31292D01*
X29914Y73615D02*
Y76371D01*
X142032Y6500D02*
X145968D01*
X144000Y4532D02*
Y8468D01*
X152032Y6500D02*
X155968D01*
X154000Y4532D02*
Y8468D01*
X162031Y6500D02*
X165969D01*
X164000Y4532D02*
Y8468D01*
X132032Y6500D02*
X135968D01*
X134000Y4532D02*
Y8468D01*
X145740Y289500D02*
X152039D01*
X148890Y286350D02*
Y292650D01*
X159520Y289500D02*
X165819D01*
X162669Y286350D02*
Y292650D01*
X131961Y289500D02*
X138260D01*
X135110Y286350D02*
Y292650D01*
X118181Y289500D02*
X124480D01*
X121331Y286350D02*
Y292650D01*
X67212Y94700D02*
X68196D01*
X67704Y94208D02*
Y95192D01*
X61508Y77000D02*
X62492D01*
X62000Y76508D02*
Y77492D01*
X153008Y252500D02*
X153992D01*
X153500Y252008D02*
Y252992D01*
X154508Y250500D02*
X155492D01*
X155000Y250008D02*
Y250992D01*
X156008Y252500D02*
X156992D01*
X156500Y252008D02*
Y252992D01*
X153008Y256500D02*
X153992D01*
X153500Y256008D02*
Y256992D01*
X154508Y254500D02*
X155492D01*
X155000Y254008D02*
Y254992D01*
X156008Y256500D02*
X156992D01*
X156500Y256008D02*
Y256992D01*
X159008Y256500D02*
X159992D01*
X159500Y256008D02*
Y256992D01*
X157508Y254500D02*
X158492D01*
X158000Y254008D02*
Y254992D01*
X160508Y254500D02*
X161492D01*
X161000Y254008D02*
Y254992D01*
X165508Y253000D02*
X166492D01*
X166000Y252508D02*
Y253492D01*
X163508Y251500D02*
X164492D01*
X164000Y251008D02*
Y251992D01*
X165508Y262000D02*
X166492D01*
X166000Y261508D02*
Y262492D01*
X163508Y260500D02*
X164492D01*
X164000Y260008D02*
Y260992D01*
X165508Y259000D02*
X166492D01*
X166000Y258508D02*
Y259492D01*
X165508Y256000D02*
X166492D01*
X166000Y255508D02*
Y256492D01*
X163508Y257500D02*
X164492D01*
X164000Y257008D02*
Y257992D01*
X163508Y254500D02*
X164492D01*
X164000Y254008D02*
Y254992D01*
X91008Y177500D02*
X91992D01*
X91500Y177008D02*
Y177992D01*
X91008Y171500D02*
X91992D01*
X91500Y171008D02*
Y171992D01*
X91008Y174500D02*
X91992D01*
X91500Y174008D02*
Y174992D01*
X87008Y177500D02*
X87992D01*
X87500Y177008D02*
Y177992D01*
X85008Y176000D02*
X85992D01*
X85500Y175508D02*
Y176492D01*
X87008Y174500D02*
X87992D01*
X87500Y174008D02*
Y174992D01*
X87008Y171500D02*
X87992D01*
X87500Y171008D02*
Y171992D01*
X85008Y173000D02*
X85992D01*
X85500Y172508D02*
Y173492D01*
X89008Y176000D02*
X89992D01*
X89500Y175508D02*
Y176492D01*
X89008Y173000D02*
X89992D01*
X89500Y172508D02*
Y173492D01*
X120008Y237500D02*
X120992D01*
X120500Y237008D02*
Y237992D01*
X117008Y237500D02*
X117992D01*
X117500Y237008D02*
Y237992D01*
X118508Y239500D02*
X119492D01*
X119000Y239008D02*
Y239992D01*
X115508Y239500D02*
X116492D01*
X116000Y239008D02*
Y239992D01*
X114008Y237500D02*
X114992D01*
X114500Y237008D02*
Y237992D01*
X112508Y239500D02*
X113492D01*
X113000Y239008D02*
Y239992D01*
X103508Y239500D02*
X104492D01*
X104000Y239008D02*
Y239992D01*
X105008Y237500D02*
X105992D01*
X105500Y237008D02*
Y237992D01*
X106508Y239500D02*
X107492D01*
X107000Y239008D02*
Y239992D01*
X109508Y239500D02*
X110492D01*
X110000Y239008D02*
Y239992D01*
X108008Y237500D02*
X108992D01*
X108500Y237008D02*
Y237992D01*
X111008Y237500D02*
X111992D01*
X111500Y237008D02*
Y237992D01*
X94508Y239500D02*
X95492D01*
X95000Y239008D02*
Y239992D01*
X96008Y237500D02*
X96992D01*
X96500Y237008D02*
Y237992D01*
X97508Y239500D02*
X98492D01*
X98000Y239008D02*
Y239992D01*
X100508Y239500D02*
X101492D01*
X101000Y239008D02*
Y239992D01*
X99008Y237500D02*
X99992D01*
X99500Y237008D02*
Y237992D01*
X102008Y237500D02*
X102992D01*
X102500Y237008D02*
Y237992D01*
X120008Y241500D02*
X120992D01*
X120500Y241008D02*
Y241992D01*
X117008Y241500D02*
X117992D01*
X117500Y241008D02*
Y241992D01*
X118508Y243500D02*
X119492D01*
X119000Y243008D02*
Y243992D01*
X115508Y243500D02*
X116492D01*
X116000Y243008D02*
Y243992D01*
X114008Y241500D02*
X114992D01*
X114500Y241008D02*
Y241992D01*
X112508Y243500D02*
X113492D01*
X113000Y243008D02*
Y243992D01*
X103508Y243500D02*
X104492D01*
X104000Y243008D02*
Y243992D01*
X105008Y241500D02*
X105992D01*
X105500Y241008D02*
Y241992D01*
X106508Y243500D02*
X107492D01*
X107000Y243008D02*
Y243992D01*
X109508Y243500D02*
X110492D01*
X110000Y243008D02*
Y243992D01*
X108008Y241500D02*
X108992D01*
X108500Y241008D02*
Y241992D01*
X111008Y241500D02*
X111992D01*
X111500Y241008D02*
Y241992D01*
X94508Y243500D02*
X95492D01*
X95000Y243008D02*
Y243992D01*
X96008Y241500D02*
X96992D01*
X96500Y241008D02*
Y241992D01*
X97508Y243500D02*
X98492D01*
X98000Y243008D02*
Y243992D01*
X100508Y243500D02*
X101492D01*
X101000Y243008D02*
Y243992D01*
X99008Y241500D02*
X99992D01*
X99500Y241008D02*
Y241992D01*
X102008Y241500D02*
X102992D01*
X102500Y241008D02*
Y241992D01*
X121508Y243500D02*
X122492D01*
X122000Y243008D02*
Y243992D01*
X124508Y243500D02*
X125492D01*
X125000Y243008D02*
Y243992D01*
X123008Y241500D02*
X123992D01*
X123500Y241008D02*
Y241992D01*
X126008Y241500D02*
X126992D01*
X126500Y241008D02*
Y241992D01*
X121508Y239500D02*
X122492D01*
X122000Y239008D02*
Y239992D01*
X124508Y239500D02*
X125492D01*
X125000Y239008D02*
Y239992D01*
X123008Y237500D02*
X123992D01*
X123500Y237008D02*
Y237992D01*
X126008Y237500D02*
X126992D01*
X126500Y237008D02*
Y237992D01*
X67229Y252992D02*
X68213D01*
X67721Y252500D02*
Y253484D01*
X64003Y261793D02*
X64987D01*
X64495Y261301D02*
Y262285D01*
X178058Y239277D02*
X179042D01*
X178550Y238785D02*
Y239769D01*
X170517Y233402D02*
X171501D01*
X171009Y232910D02*
Y233894D01*
X162506Y233423D02*
X163490D01*
X162998Y232931D02*
Y233916D01*
X94081Y216504D02*
X95066D01*
X94573Y216012D02*
Y216997D01*
X80025Y228190D02*
X81009D01*
X80517Y227697D02*
Y228682D01*
X77930Y226117D02*
X78914D01*
X78422Y225624D02*
Y226609D01*
X80046Y218192D02*
X81030D01*
X80538Y217700D02*
Y218684D01*
X77974Y220243D02*
X78958D01*
X78466Y219751D02*
Y220735D01*
X105147Y102044D02*
X106131D01*
X105639Y101552D02*
Y102536D01*
X89510Y109094D02*
X90494D01*
X90002Y108601D02*
Y109586D01*
X85386Y109071D02*
X86370D01*
X85878Y108579D02*
Y109563D01*
X78444Y109008D02*
X79428D01*
X78936Y108516D02*
Y109500D01*
X114504Y118643D02*
X115488D01*
X114996Y118150D02*
Y119135D01*
X115358Y130200D02*
X116343D01*
X115850Y129708D02*
Y130692D01*
X135673Y172411D02*
X136658D01*
X136165Y171919D02*
Y172903D01*
X153448Y157052D02*
X154432D01*
X153940Y156560D02*
Y157545D01*
X139498Y171002D02*
X140482D01*
X139990Y170510D02*
Y171494D01*
X135824Y161069D02*
X136808D01*
X136316Y160576D02*
Y161561D01*
X189956Y207148D02*
X190941D01*
X190448Y206656D02*
Y207640D01*
X164450Y207190D02*
X165434D01*
X164942Y206698D02*
Y207682D01*
X167546Y159596D02*
X168530D01*
X168038Y159103D02*
Y160088D01*
X185043Y150601D02*
X186027D01*
X185535Y150109D02*
Y151093D01*
X177481Y158954D02*
X178465D01*
X177973Y158462D02*
Y159446D01*
X163980Y146393D02*
X164964D01*
X164472Y145900D02*
Y146885D01*
X153533Y105056D02*
X154517D01*
X154025Y104564D02*
Y105548D01*
X95449Y87817D02*
X96433D01*
X95941Y87324D02*
Y88309D01*
X95491Y84292D02*
X96475D01*
X95983Y83800D02*
Y84784D01*
X97478Y80724D02*
X98462D01*
X97970Y80232D02*
Y81216D01*
X91796Y9501D02*
X92780D01*
X92288Y9009D02*
Y9994D01*
X83037Y33235D02*
X84021D01*
X83529Y32743D02*
Y33727D01*
X80708Y29539D02*
X81692D01*
X81200Y29046D02*
Y30031D01*
X64793Y42037D02*
X65778D01*
X65285Y41544D02*
Y42529D01*
X81648Y54213D02*
X82633D01*
X82140Y53721D02*
Y54705D01*
X84937Y64488D02*
X85922D01*
X85429Y63996D02*
Y64980D01*
X85258Y79655D02*
X86242D01*
X85750Y79163D02*
Y80147D01*
X48008Y45000D02*
X48992D01*
X48500Y44508D02*
Y45492D01*
X55244Y29454D02*
X56229D01*
X55736Y28962D02*
Y29946D01*
X44008Y48000D02*
X44992D01*
X44500Y47508D02*
Y48492D01*
X44008Y45000D02*
X44992D01*
X44500Y44508D02*
Y45492D01*
X48008Y48000D02*
X48992D01*
X48500Y47508D02*
Y48492D01*
X46008Y46500D02*
X46992D01*
X46500Y46008D02*
Y46992D01*
X46008Y43500D02*
X46992D01*
X46500Y43008D02*
Y43992D01*
X65508Y193500D02*
X66492D01*
X66000Y193008D02*
Y193992D01*
X67008Y191500D02*
X67992D01*
X67500Y191008D02*
Y191992D01*
X68508Y193500D02*
X69492D01*
X69000Y193008D02*
Y193992D01*
X70008Y191500D02*
X70992D01*
X70500Y191008D02*
Y191992D01*
X56508Y193500D02*
X57492D01*
X57000Y193008D02*
Y193992D01*
X58008Y191500D02*
X58992D01*
X58500Y191008D02*
Y191992D01*
X59508Y193500D02*
X60492D01*
X60000Y193008D02*
Y193992D01*
X62508Y193500D02*
X63492D01*
X63000Y193008D02*
Y193992D01*
X61008Y191500D02*
X61992D01*
X61500Y191008D02*
Y191992D01*
X64008Y191500D02*
X64992D01*
X64500Y191008D02*
Y191992D01*
X67008Y195500D02*
X67992D01*
X67500Y195008D02*
Y195992D01*
X70008Y195500D02*
X70992D01*
X70500Y195008D02*
Y195992D01*
X58008Y195500D02*
X58992D01*
X58500Y195008D02*
Y195992D01*
X61008Y195500D02*
X61992D01*
X61500Y195008D02*
Y195992D01*
X64008Y195500D02*
X64992D01*
X64500Y195008D02*
Y195992D01*
X64508Y165500D02*
X65492D01*
X65000Y165008D02*
Y165992D01*
X66008Y163500D02*
X66992D01*
X66500Y163008D02*
Y163992D01*
X67508Y165500D02*
X68492D01*
X68000Y165008D02*
Y165992D01*
X55508Y165500D02*
X56492D01*
X56000Y165008D02*
Y165992D01*
X57008Y163500D02*
X57992D01*
X57500Y163008D02*
Y163992D01*
X58508Y165500D02*
X59492D01*
X59000Y165008D02*
Y165992D01*
X61508Y165500D02*
X62492D01*
X62000Y165008D02*
Y165992D01*
X60008Y163500D02*
X60992D01*
X60500Y163008D02*
Y163992D01*
X63008Y163500D02*
X63992D01*
X63500Y163008D02*
Y163992D01*
X66008Y167500D02*
X66992D01*
X66500Y167008D02*
Y167992D01*
X57008Y167500D02*
X57992D01*
X57500Y167008D02*
Y167992D01*
X60008Y167500D02*
X60992D01*
X60500Y167008D02*
Y167992D01*
X63008Y167500D02*
X63992D01*
X63500Y167008D02*
Y167992D01*
X103008Y164000D02*
X103992D01*
X103500Y163508D02*
Y164492D01*
X101008Y162500D02*
X101992D01*
X101500Y162008D02*
Y162992D01*
X103008Y161000D02*
X103992D01*
X103500Y160508D02*
Y161492D01*
X103008Y158000D02*
X103992D01*
X103500Y157508D02*
Y158492D01*
X101008Y159500D02*
X101992D01*
X101500Y159008D02*
Y159992D01*
X103008Y173000D02*
X103992D01*
X103500Y172508D02*
Y173492D01*
X101008Y171500D02*
X101992D01*
X101500Y171008D02*
Y171992D01*
X103008Y170000D02*
X103992D01*
X103500Y169508D02*
Y170492D01*
X103008Y167000D02*
X103992D01*
X103500Y166508D02*
Y167492D01*
X101008Y168500D02*
X101992D01*
X101500Y168008D02*
Y168992D01*
X101008Y165500D02*
X101992D01*
X101500Y165008D02*
Y165992D01*
X107008Y164000D02*
X107992D01*
X107500Y163508D02*
Y164492D01*
X105008Y162500D02*
X105992D01*
X105500Y162008D02*
Y162992D01*
X107008Y161000D02*
X107992D01*
X107500Y160508D02*
Y161492D01*
X107008Y158000D02*
X107992D01*
X107500Y157508D02*
Y158492D01*
X105008Y159500D02*
X105992D01*
X105500Y159008D02*
Y159992D01*
X107008Y173000D02*
X107992D01*
X107500Y172508D02*
Y173492D01*
X105008Y171500D02*
X105992D01*
X105500Y171008D02*
Y171992D01*
X107008Y170000D02*
X107992D01*
X107500Y169508D02*
Y170492D01*
X107008Y167000D02*
X107992D01*
X107500Y166508D02*
Y167492D01*
X105008Y168500D02*
X105992D01*
X105500Y168008D02*
Y168992D01*
X105008Y165500D02*
X105992D01*
X105500Y165008D02*
Y165992D01*
X24508Y219500D02*
X25492D01*
X25000Y219008D02*
Y219992D01*
X24508Y216500D02*
X25492D01*
X25000Y216008D02*
Y216992D01*
X22508Y218000D02*
X23492D01*
X23000Y217508D02*
Y218492D01*
X22508Y215000D02*
X23492D01*
X23000Y214508D02*
Y215492D01*
X24508Y213500D02*
X25492D01*
X25000Y213008D02*
Y213992D01*
X22508Y212000D02*
X23492D01*
X23000Y211508D02*
Y212492D01*
X24508Y228500D02*
X25492D01*
X25000Y228008D02*
Y228992D01*
X24508Y225500D02*
X25492D01*
X25000Y225008D02*
Y225992D01*
X22508Y227000D02*
X23492D01*
X23000Y226508D02*
Y227492D01*
X22508Y224000D02*
X23492D01*
X23000Y223508D02*
Y224492D01*
X24508Y222500D02*
X25492D01*
X25000Y222008D02*
Y222992D01*
X22508Y221000D02*
X23492D01*
X23000Y220508D02*
Y221492D01*
X22508Y230000D02*
X23492D01*
X23000Y229508D02*
Y230492D01*
X24508Y231500D02*
X25492D01*
X25000Y231008D02*
Y231992D01*
X22508Y233000D02*
X23492D01*
X23000Y232508D02*
Y233492D01*
X22508Y236000D02*
X23492D01*
X23000Y235508D02*
Y236492D01*
X24508Y234500D02*
X25492D01*
X25000Y234008D02*
Y234992D01*
X24508Y237500D02*
X25492D01*
X25000Y237008D02*
Y237992D01*
X28508Y219500D02*
X29492D01*
X29000Y219008D02*
Y219992D01*
X28508Y216500D02*
X29492D01*
X29000Y216008D02*
Y216992D01*
X26508Y218000D02*
X27492D01*
X27000Y217508D02*
Y218492D01*
X26508Y215000D02*
X27492D01*
X27000Y214508D02*
Y215492D01*
X28508Y213500D02*
X29492D01*
X29000Y213008D02*
Y213992D01*
X26508Y212000D02*
X27492D01*
X27000Y211508D02*
Y212492D01*
X28508Y228500D02*
X29492D01*
X29000Y228008D02*
Y228992D01*
X28508Y225500D02*
X29492D01*
X29000Y225008D02*
Y225992D01*
X26508Y227000D02*
X27492D01*
X27000Y226508D02*
Y227492D01*
X26508Y224000D02*
X27492D01*
X27000Y223508D02*
Y224492D01*
X28508Y222500D02*
X29492D01*
X29000Y222008D02*
Y222992D01*
X26508Y221000D02*
X27492D01*
X27000Y220508D02*
Y221492D01*
X26508Y230000D02*
X27492D01*
X27000Y229508D02*
Y230492D01*
X28508Y231500D02*
X29492D01*
X29000Y231008D02*
Y231992D01*
X26508Y233000D02*
X27492D01*
X27000Y232508D02*
Y233492D01*
X26508Y236000D02*
X27492D01*
X27000Y235508D02*
Y236492D01*
X28508Y234500D02*
X29492D01*
X29000Y234008D02*
Y234992D01*
X28508Y237500D02*
X29492D01*
X29000Y237008D02*
Y237992D01*
X108508Y191500D02*
X109492D01*
X109000Y191008D02*
Y191992D01*
X105508Y191500D02*
X106492D01*
X106000Y191008D02*
Y191992D01*
X107008Y193500D02*
X107992D01*
X107500Y193008D02*
Y193992D01*
X104008Y193500D02*
X104992D01*
X104500Y193008D02*
Y193992D01*
X102508Y191500D02*
X103492D01*
X103000Y191008D02*
Y191992D01*
X101008Y193500D02*
X101992D01*
X101500Y193008D02*
Y193992D01*
X117508Y191500D02*
X118492D01*
X118000Y191008D02*
Y191992D01*
X114508Y191500D02*
X115492D01*
X115000Y191008D02*
Y191992D01*
X116008Y193500D02*
X116992D01*
X116500Y193008D02*
Y193992D01*
X113008Y193500D02*
X113992D01*
X113500Y193008D02*
Y193992D01*
X111508Y191500D02*
X112492D01*
X112000Y191008D02*
Y191992D01*
X110008Y193500D02*
X110992D01*
X110500Y193008D02*
Y193992D01*
X119008Y193500D02*
X119992D01*
X119500Y193008D02*
Y193992D01*
X120508Y191500D02*
X121492D01*
X121000Y191008D02*
Y191992D01*
X122008Y193500D02*
X122992D01*
X122500Y193008D02*
Y193992D01*
X125008Y193500D02*
X125992D01*
X125500Y193008D02*
Y193992D01*
X123508Y191500D02*
X124492D01*
X124000Y191008D02*
Y191992D01*
X126508Y191500D02*
X127492D01*
X127000Y191008D02*
Y191992D01*
X108508Y187500D02*
X109492D01*
X109000Y187008D02*
Y187992D01*
X105508Y187500D02*
X106492D01*
X106000Y187008D02*
Y187992D01*
X107008Y189500D02*
X107992D01*
X107500Y189008D02*
Y189992D01*
X104008Y189500D02*
X104992D01*
X104500Y189008D02*
Y189992D01*
X102508Y187500D02*
X103492D01*
X103000Y187008D02*
Y187992D01*
X101008Y189500D02*
X101992D01*
X101500Y189008D02*
Y189992D01*
X117508Y187500D02*
X118492D01*
X118000Y187008D02*
Y187992D01*
X114508Y187500D02*
X115492D01*
X115000Y187008D02*
Y187992D01*
X116008Y189500D02*
X116992D01*
X116500Y189008D02*
Y189992D01*
X113008Y189500D02*
X113992D01*
X113500Y189008D02*
Y189992D01*
X111508Y187500D02*
X112492D01*
X112000Y187008D02*
Y187992D01*
X110008Y189500D02*
X110992D01*
X110500Y189008D02*
Y189992D01*
X119008Y189500D02*
X119992D01*
X119500Y189008D02*
Y189992D01*
X120508Y187500D02*
X121492D01*
X121000Y187008D02*
Y187992D01*
X122008Y189500D02*
X122992D01*
X122500Y189008D02*
Y189992D01*
X125008Y189500D02*
X125992D01*
X125500Y189008D02*
Y189992D01*
X123508Y187500D02*
X124492D01*
X124000Y187008D02*
Y187992D01*
X126508Y187500D02*
X127492D01*
X127000Y187008D02*
Y187992D01*
X26008Y168000D02*
X26992D01*
X26500Y167508D02*
Y168492D01*
X26008Y171000D02*
X26992D01*
X26500Y170508D02*
Y171492D01*
X28008Y169500D02*
X28992D01*
X28500Y169008D02*
Y169992D01*
X28008Y172500D02*
X28992D01*
X28500Y172008D02*
Y172992D01*
X26008Y174000D02*
X26992D01*
X26500Y173508D02*
Y174492D01*
X28008Y175500D02*
X28992D01*
X28500Y175008D02*
Y175992D01*
X26008Y159000D02*
X26992D01*
X26500Y158508D02*
Y159492D01*
X26008Y162000D02*
X26992D01*
X26500Y161508D02*
Y162492D01*
X28008Y160500D02*
X28992D01*
X28500Y160008D02*
Y160992D01*
X28008Y163500D02*
X28992D01*
X28500Y163008D02*
Y163992D01*
X26008Y165000D02*
X26992D01*
X26500Y164508D02*
Y165492D01*
X28008Y166500D02*
X28992D01*
X28500Y166008D02*
Y166992D01*
X28008Y157500D02*
X28992D01*
X28500Y157008D02*
Y157992D01*
X26008Y156000D02*
X26992D01*
X26500Y155508D02*
Y156492D01*
X28008Y154500D02*
X28992D01*
X28500Y154008D02*
Y154992D01*
X28008Y151500D02*
X28992D01*
X28500Y151008D02*
Y151992D01*
X26008Y153000D02*
X26992D01*
X26500Y152508D02*
Y153492D01*
X26008Y150000D02*
X26992D01*
X26500Y149508D02*
Y150492D01*
X22008Y168000D02*
X22992D01*
X22500Y167508D02*
Y168492D01*
X22008Y171000D02*
X22992D01*
X22500Y170508D02*
Y171492D01*
X24008Y169500D02*
X24992D01*
X24500Y169008D02*
Y169992D01*
X24008Y172500D02*
X24992D01*
X24500Y172008D02*
Y172992D01*
X22008Y174000D02*
X22992D01*
X22500Y173508D02*
Y174492D01*
X24008Y175500D02*
X24992D01*
X24500Y175008D02*
Y175992D01*
X22008Y159000D02*
X22992D01*
X22500Y158508D02*
Y159492D01*
X22008Y162000D02*
X22992D01*
X22500Y161508D02*
Y162492D01*
X24008Y160500D02*
X24992D01*
X24500Y160008D02*
Y160992D01*
X24008Y163500D02*
X24992D01*
X24500Y163008D02*
Y163992D01*
X22008Y165000D02*
X22992D01*
X22500Y164508D02*
Y165492D01*
X24008Y166500D02*
X24992D01*
X24500Y166008D02*
Y166992D01*
X24008Y157500D02*
X24992D01*
X24500Y157008D02*
Y157992D01*
X22008Y156000D02*
X22992D01*
X22500Y155508D02*
Y156492D01*
X24008Y154500D02*
X24992D01*
X24500Y154008D02*
Y154992D01*
X24008Y151500D02*
X24992D01*
X24500Y151008D02*
Y151992D01*
X22008Y153000D02*
X22992D01*
X22500Y152508D02*
Y153492D01*
X22008Y150000D02*
X22992D01*
X22500Y149508D02*
Y150492D01*
X26508Y257000D02*
X27492D01*
X27000Y256508D02*
Y257492D01*
X26508Y260000D02*
X27492D01*
X27000Y259508D02*
Y260492D01*
X28508Y258500D02*
X29492D01*
X29000Y258008D02*
Y258992D01*
X28508Y261500D02*
X29492D01*
X29000Y261008D02*
Y261992D01*
X26508Y263000D02*
X27492D01*
X27000Y262508D02*
Y263492D01*
X28508Y264500D02*
X29492D01*
X29000Y264008D02*
Y264992D01*
X26508Y248000D02*
X27492D01*
X27000Y247508D02*
Y248492D01*
X26508Y251000D02*
X27492D01*
X27000Y250508D02*
Y251492D01*
X28508Y249500D02*
X29492D01*
X29000Y249008D02*
Y249992D01*
X28508Y252500D02*
X29492D01*
X29000Y252008D02*
Y252992D01*
X26508Y254000D02*
X27492D01*
X27000Y253508D02*
Y254492D01*
X28508Y255500D02*
X29492D01*
X29000Y255008D02*
Y255992D01*
X28508Y246500D02*
X29492D01*
X29000Y246008D02*
Y246992D01*
X26508Y245000D02*
X27492D01*
X27000Y244508D02*
Y245492D01*
X28508Y243500D02*
X29492D01*
X29000Y243008D02*
Y243992D01*
X28508Y240500D02*
X29492D01*
X29000Y240008D02*
Y240992D01*
X26508Y242000D02*
X27492D01*
X27000Y241508D02*
Y242492D01*
X26508Y239000D02*
X27492D01*
X27000Y238508D02*
Y239492D01*
X22508Y257000D02*
X23492D01*
X23000Y256508D02*
Y257492D01*
X22508Y260000D02*
X23492D01*
X23000Y259508D02*
Y260492D01*
X24508Y258500D02*
X25492D01*
X25000Y258008D02*
Y258992D01*
X24508Y261500D02*
X25492D01*
X25000Y261008D02*
Y261992D01*
X22508Y263000D02*
X23492D01*
X23000Y262508D02*
Y263492D01*
X24508Y264500D02*
X25492D01*
X25000Y264008D02*
Y264992D01*
X22508Y248000D02*
X23492D01*
X23000Y247508D02*
Y248492D01*
X22508Y251000D02*
X23492D01*
X23000Y250508D02*
Y251492D01*
X24508Y249500D02*
X25492D01*
X25000Y249008D02*
Y249992D01*
X24508Y252500D02*
X25492D01*
X25000Y252008D02*
Y252992D01*
X22508Y254000D02*
X23492D01*
X23000Y253508D02*
Y254492D01*
X24508Y255500D02*
X25492D01*
X25000Y255008D02*
Y255992D01*
X24508Y246500D02*
X25492D01*
X25000Y246008D02*
Y246992D01*
X22508Y245000D02*
X23492D01*
X23000Y244508D02*
Y245492D01*
X24508Y243500D02*
X25492D01*
X25000Y243008D02*
Y243992D01*
X24508Y240500D02*
X25492D01*
X25000Y240008D02*
Y240992D01*
X22508Y242000D02*
X23492D01*
X23000Y241508D02*
Y242492D01*
X22508Y239000D02*
X23492D01*
X23000Y238508D02*
Y239492D01*
X145508Y190500D02*
X146492D01*
X146000Y190008D02*
Y190992D01*
X142508Y190500D02*
X143492D01*
X143000Y190008D02*
Y190992D01*
X144008Y192500D02*
X144992D01*
X144500Y192008D02*
Y192992D01*
X141008Y192500D02*
X141992D01*
X141500Y192008D02*
Y192992D01*
X139508Y190500D02*
X140492D01*
X140000Y190008D02*
Y190992D01*
X138008Y192500D02*
X138992D01*
X138500Y192008D02*
Y192992D01*
X151508Y190500D02*
X152492D01*
X152000Y190008D02*
Y190992D01*
X150008Y192500D02*
X150992D01*
X150500Y192008D02*
Y192992D01*
X148508Y190500D02*
X149492D01*
X149000Y190008D02*
Y190992D01*
X147008Y192500D02*
X147992D01*
X147500Y192008D02*
Y192992D01*
X145508Y194500D02*
X146492D01*
X146000Y194008D02*
Y194992D01*
X142508Y194500D02*
X143492D01*
X143000Y194008D02*
Y194992D01*
X144008Y196500D02*
X144992D01*
X144500Y196008D02*
Y196992D01*
X141008Y196500D02*
X141992D01*
X141500Y196008D02*
Y196992D01*
X139508Y194500D02*
X140492D01*
X140000Y194008D02*
Y194992D01*
X138008Y196500D02*
X138992D01*
X138500Y196008D02*
Y196992D01*
X151508Y194500D02*
X152492D01*
X152000Y194008D02*
Y194992D01*
X150008Y196500D02*
X150992D01*
X150500Y196008D02*
Y196992D01*
X148508Y194500D02*
X149492D01*
X149000Y194008D02*
Y194992D01*
X147008Y196500D02*
X147992D01*
X147500Y196008D02*
Y196992D01*
X85008Y156000D02*
X85992D01*
X85500Y155508D02*
Y156492D01*
X82508Y186500D02*
X83492D01*
X83000Y186008D02*
Y186992D01*
X79508Y186500D02*
X80492D01*
X80000Y186008D02*
Y186992D01*
X81008Y188500D02*
X81992D01*
X81500Y188008D02*
Y188992D01*
X78008Y188500D02*
X78992D01*
X78500Y188008D02*
Y188992D01*
X76508Y186500D02*
X77492D01*
X77000Y186008D02*
Y186992D01*
X88508Y186500D02*
X89492D01*
X89000Y186008D02*
Y186992D01*
X87008Y188500D02*
X87992D01*
X87500Y188008D02*
Y188992D01*
X85508Y186500D02*
X86492D01*
X86000Y186008D02*
Y186992D01*
X84008Y188500D02*
X84992D01*
X84500Y188008D02*
Y188992D01*
X82508Y190500D02*
X83492D01*
X83000Y190008D02*
Y190992D01*
X79508Y190500D02*
X80492D01*
X80000Y190008D02*
Y190992D01*
X81008Y192500D02*
X81992D01*
X81500Y192008D02*
Y192992D01*
X78008Y192500D02*
X78992D01*
X78500Y192008D02*
Y192992D01*
X76508Y190500D02*
X77492D01*
X77000Y190008D02*
Y190992D01*
X88508Y190500D02*
X89492D01*
X89000Y190008D02*
Y190992D01*
X87008Y192500D02*
X87992D01*
X87500Y192008D02*
Y192992D01*
X85508Y190500D02*
X86492D01*
X86000Y190008D02*
Y190992D01*
X84008Y192500D02*
X84992D01*
X84500Y192008D02*
Y192992D01*
X88508Y194500D02*
X89492D01*
X89000Y194008D02*
Y194992D01*
X85508Y194500D02*
X86492D01*
X86000Y194008D02*
Y194992D01*
X87008Y196500D02*
X87992D01*
X87500Y196008D02*
Y196992D01*
X84008Y196500D02*
X84992D01*
X84500Y196008D02*
Y196992D01*
X82508Y194500D02*
X83492D01*
X83000Y194008D02*
Y194992D01*
X81008Y196500D02*
X81992D01*
X81500Y196008D02*
Y196992D01*
X78008Y196500D02*
X78992D01*
X78500Y196008D02*
Y196992D01*
X79508Y194500D02*
X80492D01*
X80000Y194008D02*
Y194992D01*
X87008Y213500D02*
X87992D01*
X87500Y213008D02*
Y213992D01*
X46008Y243500D02*
X46992D01*
X46500Y243008D02*
Y243992D01*
X46008Y246500D02*
X46992D01*
X46500Y246008D02*
Y246992D01*
X48008Y245000D02*
X48992D01*
X48500Y244508D02*
Y245492D01*
X48008Y248000D02*
X48992D01*
X48500Y247508D02*
Y248492D01*
X46008Y249500D02*
X46992D01*
X46500Y249008D02*
Y249992D01*
X48008Y251000D02*
X48992D01*
X48500Y250508D02*
Y251492D01*
X48008Y260000D02*
X48992D01*
X48500Y259508D02*
Y260492D01*
X46008Y258500D02*
X46992D01*
X46500Y258008D02*
Y258992D01*
X48008Y257000D02*
X48992D01*
X48500Y256508D02*
Y257492D01*
X48008Y254000D02*
X48992D01*
X48500Y253508D02*
Y254492D01*
X46008Y255500D02*
X46992D01*
X46500Y255008D02*
Y255992D01*
X46008Y252500D02*
X46992D01*
X46500Y252008D02*
Y252992D01*
X48008Y269000D02*
X48992D01*
X48500Y268508D02*
Y269492D01*
X46008Y267500D02*
X46992D01*
X46500Y267008D02*
Y267992D01*
X48008Y266000D02*
X48992D01*
X48500Y265508D02*
Y266492D01*
X48008Y263000D02*
X48992D01*
X48500Y262508D02*
Y263492D01*
X46008Y264500D02*
X46992D01*
X46500Y264008D02*
Y264992D01*
X46008Y261500D02*
X46992D01*
X46500Y261008D02*
Y261992D01*
X50008Y243500D02*
X50992D01*
X50500Y243008D02*
Y243992D01*
X50008Y246500D02*
X50992D01*
X50500Y246008D02*
Y246992D01*
X52008Y245000D02*
X52992D01*
X52500Y244508D02*
Y245492D01*
X52008Y248000D02*
X52992D01*
X52500Y247508D02*
Y248492D01*
X50008Y249500D02*
X50992D01*
X50500Y249008D02*
Y249992D01*
X52008Y251000D02*
X52992D01*
X52500Y250508D02*
Y251492D01*
X52008Y260000D02*
X52992D01*
X52500Y259508D02*
Y260492D01*
X50008Y258500D02*
X50992D01*
X50500Y258008D02*
Y258992D01*
X52008Y257000D02*
X52992D01*
X52500Y256508D02*
Y257492D01*
X52008Y254000D02*
X52992D01*
X52500Y253508D02*
Y254492D01*
X50008Y255500D02*
X50992D01*
X50500Y255008D02*
Y255992D01*
X50008Y252500D02*
X50992D01*
X50500Y252008D02*
Y252992D01*
X52008Y269000D02*
X52992D01*
X52500Y268508D02*
Y269492D01*
X50008Y267500D02*
X50992D01*
X50500Y267008D02*
Y267992D01*
X52008Y266000D02*
X52992D01*
X52500Y265508D02*
Y266492D01*
X52008Y263000D02*
X52992D01*
X52500Y262508D02*
Y263492D01*
X50008Y264500D02*
X50992D01*
X50500Y264008D02*
Y264992D01*
X50008Y261500D02*
X50992D01*
X50500Y261008D02*
Y261992D01*
X58508Y218000D02*
X59492D01*
X59000Y217508D02*
Y218492D01*
X58508Y221000D02*
X59492D01*
X59000Y220508D02*
Y221492D01*
X60508Y219500D02*
X61492D01*
X61000Y219008D02*
Y219992D01*
X60508Y222500D02*
X61492D01*
X61000Y222008D02*
Y222992D01*
X58508Y224000D02*
X59492D01*
X59000Y223508D02*
Y224492D01*
X60508Y225500D02*
X61492D01*
X61000Y225008D02*
Y225992D01*
X60508Y234500D02*
X61492D01*
X61000Y234008D02*
Y234992D01*
X58508Y233000D02*
X59492D01*
X59000Y232508D02*
Y233492D01*
X60508Y231500D02*
X61492D01*
X61000Y231008D02*
Y231992D01*
X60508Y228500D02*
X61492D01*
X61000Y228008D02*
Y228992D01*
X58508Y230000D02*
X59492D01*
X59000Y229508D02*
Y230492D01*
X58508Y227000D02*
X59492D01*
X59000Y226508D02*
Y227492D01*
X60508Y243500D02*
X61492D01*
X61000Y243008D02*
Y243992D01*
X58508Y242000D02*
X59492D01*
X59000Y241508D02*
Y242492D01*
X60508Y240500D02*
X61492D01*
X61000Y240008D02*
Y240992D01*
X60508Y237500D02*
X61492D01*
X61000Y237008D02*
Y237992D01*
X58508Y239000D02*
X59492D01*
X59000Y238508D02*
Y239492D01*
X58508Y236000D02*
X59492D01*
X59000Y235508D02*
Y236492D01*
X54508Y236000D02*
X55492D01*
X55000Y235508D02*
Y236492D01*
X54508Y239000D02*
X55492D01*
X55000Y238508D02*
Y239492D01*
X56508Y237500D02*
X57492D01*
X57000Y237008D02*
Y237992D01*
X56508Y240500D02*
X57492D01*
X57000Y240008D02*
Y240992D01*
X54508Y242000D02*
X55492D01*
X55000Y241508D02*
Y242492D01*
X56508Y243500D02*
X57492D01*
X57000Y243008D02*
Y243992D01*
X54508Y227000D02*
X55492D01*
X55000Y226508D02*
Y227492D01*
X54508Y230000D02*
X55492D01*
X55000Y229508D02*
Y230492D01*
X56508Y228500D02*
X57492D01*
X57000Y228008D02*
Y228992D01*
X56508Y231500D02*
X57492D01*
X57000Y231008D02*
Y231992D01*
X54508Y233000D02*
X55492D01*
X55000Y232508D02*
Y233492D01*
X56508Y234500D02*
X57492D01*
X57000Y234008D02*
Y234992D01*
X56508Y225500D02*
X57492D01*
X57000Y225008D02*
Y225992D01*
X54508Y224000D02*
X55492D01*
X55000Y223508D02*
Y224492D01*
X56508Y222500D02*
X57492D01*
X57000Y222008D02*
Y222992D01*
X56508Y219500D02*
X57492D01*
X57000Y219008D02*
Y219992D01*
X54508Y221000D02*
X55492D01*
X55000Y220508D02*
Y221492D01*
X54508Y218000D02*
X55492D01*
X55000Y217508D02*
Y218492D01*
X136921Y62440D02*
X137905D01*
X137413Y61948D02*
Y62932D01*
X136874Y70350D02*
X137859D01*
X137367Y69858D02*
Y70842D01*
X137036Y47340D02*
X138021D01*
X137528Y46847D02*
Y47832D01*
X148232Y51791D02*
X149216D01*
X148724Y51299D02*
Y52283D01*
X148232Y59015D02*
X149216D01*
X148724Y58523D02*
Y59507D01*
X148232Y66240D02*
X149216D01*
X148724Y65748D02*
Y66732D01*
X125414Y51747D02*
X126398D01*
X125906Y51255D02*
Y52239D01*
X125540Y58993D02*
X126524D01*
X126032Y58500D02*
Y59485D01*
X125540Y66217D02*
X126524D01*
X126032Y65725D02*
Y66709D01*
X166332Y13103D02*
X167317D01*
X166824Y12611D02*
Y13595D01*
X166407Y15965D02*
X167391D01*
X166899Y15473D02*
Y16457D01*
X166388Y93852D02*
X167372D01*
X166880Y93360D02*
Y94344D01*
X161413Y94621D02*
X162398D01*
X161906Y94129D02*
Y95113D01*
X113034Y9517D02*
X114018D01*
X113526Y9025D02*
Y10009D01*
X104563Y114011D02*
X105547D01*
X105055Y113519D02*
Y114504D01*
X29252Y50505D02*
X30237D01*
X29744Y50013D02*
Y50997D01*
X64409Y49971D02*
X65394D01*
X64901Y49479D02*
Y50463D01*
X61486Y56557D02*
X62470D01*
X61978Y56065D02*
Y57049D01*
X61496Y4077D02*
X62480D01*
X61988Y3585D02*
Y4569D01*
X64468Y4663D02*
X65453D01*
X64961Y4171D02*
Y5156D01*
X102535Y7456D02*
X103519D01*
X103027Y6963D02*
Y7948D01*
X130798Y103808D02*
X131782D01*
X131290Y103316D02*
Y104300D01*
X130777Y113264D02*
X131761D01*
X131269Y112772D02*
Y113756D01*
X138099Y121782D02*
X139083D01*
X138591Y121289D02*
Y122274D01*
X52595Y89036D02*
X53579D01*
X53087Y88544D02*
Y89528D01*
X52595Y92996D02*
X53579D01*
X53087Y92504D02*
Y93488D01*
X91893Y13468D02*
X92877D01*
X92385Y12976D02*
Y13960D01*
X72234Y13447D02*
X73218D01*
X72726Y12955D02*
Y13940D01*
X78199Y166993D02*
X79183D01*
X78691Y166501D02*
Y167485D01*
X174608Y263100D02*
X175592D01*
X175100Y262608D02*
Y263592D01*
X166508Y233800D02*
X167492D01*
X167000Y233308D02*
Y234292D01*
X44151Y237479D02*
X45136D01*
X44643Y236987D02*
Y237971D01*
X43597Y232571D02*
X44581D01*
X44089Y232078D02*
Y233063D01*
X142752Y121760D02*
X143737D01*
X143244Y121268D02*
Y122252D01*
X42904Y151934D02*
X43888D01*
X43396Y151442D02*
Y152426D01*
X76632Y80593D02*
X77616D01*
X77124Y80100D02*
Y81085D01*
X166701Y270482D02*
X167685D01*
X167193Y269990D02*
Y270974D01*
X162008Y279500D02*
X162992D01*
X162500Y279008D02*
Y279992D01*
X166008Y279842D02*
X166992D01*
X166500Y279350D02*
Y280335D01*
X184133Y270514D02*
X185117D01*
X184625Y270022D02*
Y271006D01*
X184239Y254504D02*
X185224D01*
X184731Y254012D02*
Y254996D01*
X114575Y94479D02*
X115559D01*
X115067Y93987D02*
Y94971D01*
X89919Y94458D02*
X90904D01*
X90412Y93966D02*
Y94950D01*
X38325Y39792D02*
X39309D01*
X38817Y39299D02*
Y40284D01*
X36724Y26746D02*
X37708D01*
X37216Y26254D02*
Y27239D01*
X31547Y45425D02*
X32531D01*
X32039Y44933D02*
Y45917D01*
X29284Y26416D02*
X30269D01*
X29776Y25923D02*
Y26908D01*
X56358Y106501D02*
X57342D01*
X56850Y106009D02*
Y106993D01*
X57470Y77302D02*
X58454D01*
X57962Y76810D02*
Y77794D01*
X111416Y125965D02*
X112400D01*
X111908Y125473D02*
Y126458D01*
X147320Y127780D02*
X148305D01*
X147813Y127288D02*
Y128272D01*
X146108Y265000D02*
X147092D01*
X146600Y264508D02*
Y265492D01*
X35495Y52851D02*
X36479D01*
X35987Y52359D02*
Y53343D01*
X47038Y59765D02*
X48022D01*
X47530Y59273D02*
Y60258D01*
X57555Y39236D02*
X58539D01*
X58047Y38744D02*
Y39728D01*
X79188Y46751D02*
X80172D01*
X79680Y46259D02*
Y47243D01*
X84862Y59514D02*
X85847D01*
X85354Y59022D02*
Y60006D01*
X75857Y64510D02*
X76841D01*
X76349Y64018D02*
Y65002D01*
X85056Y82503D02*
X86040D01*
X85548Y82010D02*
Y82995D01*
X78519Y112511D02*
X79504D01*
X79011Y112019D02*
Y113004D01*
X78519Y115011D02*
X79504D01*
X79011Y114519D02*
Y115504D01*
X81019Y115011D02*
X82003D01*
X81511Y114519D02*
Y115504D01*
X75519Y115011D02*
X76503D01*
X76011Y114519D02*
Y115504D01*
X81019Y117511D02*
X82003D01*
X81511Y117019D02*
Y118003D01*
X84019Y117511D02*
X85004D01*
X84511Y117019D02*
Y118003D01*
X82519Y119511D02*
X83504D01*
X83011Y119019D02*
Y120003D01*
X71508Y108000D02*
X72492D01*
X72000Y107508D02*
Y108492D01*
X69008Y112500D02*
X69992D01*
X69500Y112008D02*
Y112992D01*
X119292Y135017D02*
X120277D01*
X119784Y134524D02*
Y135509D01*
X95128Y112740D02*
X96112D01*
X95620Y112248D02*
Y113232D01*
X95747Y106028D02*
X96731D01*
X96239Y105536D02*
Y106520D01*
X95555Y110041D02*
X96539D01*
X96047Y109549D02*
Y110533D01*
X98010Y116445D02*
X98994D01*
X98502Y115953D02*
Y116937D01*
X95078Y115430D02*
X96062D01*
X95570Y114937D02*
Y115922D01*
X166708Y139000D02*
X167692D01*
X167200Y138508D02*
Y139492D01*
X161408Y132500D02*
X162392D01*
X161900Y132008D02*
Y132992D01*
X170008Y150600D02*
X170992D01*
X170500Y150108D02*
Y151092D01*
X187508Y160400D02*
X188492D01*
X188000Y159908D02*
Y160892D01*
X176208Y112300D02*
X177192D01*
X176700Y111808D02*
Y112792D01*
X181008Y109800D02*
X181992D01*
X181500Y109308D02*
Y110292D01*
X157508Y104900D02*
X158492D01*
X158000Y104408D02*
Y105392D01*
X161508Y104500D02*
X162492D01*
X162000Y104008D02*
Y104992D01*
X168508Y98000D02*
X169492D01*
X169000Y97508D02*
Y98492D01*
X117708Y113400D02*
X118692D01*
X118200Y112908D02*
Y113892D01*
M02*
